<svg width="20" height="18" viewBox="0 0 20 18" fill="none" xmlns="http://www.w3.org/2000/svg">
<path fill-rule="evenodd" clip-rule="evenodd" d="M4.94146 1.99993C4.94109 2.81424 4.44706 3.54702 3.69232 3.85273C2.93758 4.15845 2.07285 3.97605 1.50588 3.39155C0.938906 2.80704 0.782926 1.93715 1.11148 1.19207C1.44004 0.446989 2.18752 -0.0245006 3.00146 -7.06097e-05C4.08253 0.0323794 4.94195 0.918369 4.94146 1.99993ZM1.00146 5.47993V17.9999H5.00146V5.47993H1.00146ZM7.34146 5.47993H11.3215L11.2815 7.1599C12.9415 4.12993 20.0015 3.89993 20.0015 10.0699V17.9999H16.0515V11.4299C16.0515 7.4299 11.2815 7.7699 11.2815 11.4299V17.9999H7.34146V5.47993Z" fill="#F7F7F7"/>
</svg>
