<svg width="20" height="16" viewBox="0 0 20 16" fill="none" xmlns="http://www.w3.org/2000/svg">
<path fill-rule="evenodd" clip-rule="evenodd" d="M6.5215 15.875C13.597 15.875 17.467 9.81503 17.467 4.55986C17.467 4.38773 17.467 4.21638 17.4557 4.04581C18.2086 3.48285 18.8585 2.78581 19.375 1.98732C18.6729 2.30892 17.9281 2.51983 17.1655 2.61301C17.9686 2.11601 18.5696 1.33431 18.8568 0.413398C18.1016 0.876622 17.2755 1.20308 16.414 1.37868C15.2216 0.0679074 13.3268 -0.252909 11.7922 0.596128C10.2575 1.44516 9.46471 3.2529 9.85825 5.00567C6.76517 4.84537 3.88336 3.33509 1.93 0.850683C0.908967 2.66778 1.43049 4.99238 3.121 6.15936C2.50881 6.1406 1.90996 5.96988 1.375 5.6616C1.375 5.67788 1.375 5.69494 1.375 5.71199C1.3755 7.60503 2.66631 9.2355 4.46125 9.61035C3.8949 9.77002 3.30069 9.79336 2.72425 9.67857C3.22821 11.2986 4.67243 12.4083 6.31825 12.4403C4.95605 13.547 3.27329 14.1478 1.54075 14.146C1.23468 14.1454 0.928903 14.1263 0.625 14.0886C2.38423 15.2557 4.43119 15.8748 6.5215 15.8719" fill="white"/>
</svg>
