<svg width="20" height="16" viewBox="0 0 20 16" fill="none" xmlns="http://www.w3.org/2000/svg">
<path fill-rule="evenodd" clip-rule="evenodd" d="M13.5341 0.07273C12.1143 0.01586 10.778 0.00294 10.2439 0H9.7545C8.6241 0.00622 3.89772 0.05723 2.39451 0.4755C1.45308 0.73732 0.7104 1.51186 0.45587 2.49732C0.0562 4.05641 0.00624 7.0994 0 7.8358V8.1625C0.00624 8.8989 0.0562 11.9419 0.45587 13.501C0.70692 14.4828 1.4496 15.2573 2.39451 15.5228C3.89772 15.941 8.6241 15.9921 9.7545 15.9983L9.9887 15.9991H9.9991H10.0095L10.2439 15.9983C10.778 15.9953 12.1143 15.9824 13.5341 15.9255L14.0375 15.9036C15.467 15.8359 16.8953 15.7203 17.6037 15.5228C18.5451 15.261 19.2878 14.4864 19.5423 13.501C19.942 11.9419 19.992 8.8989 19.9982 8.1625L19.9991 8.0099V7.9991V7.9884L19.9982 7.8358C19.992 7.0994 19.942 4.05641 19.5423 2.49732C19.2913 1.5155 18.5486 0.74095 17.6037 0.4755C16.8953 0.27798 15.467 0.16236 14.0375 0.09468L13.5341 0.07273ZM7.99911 11.4991V4.49914L13.9991 7.9991L7.99911 11.4991Z" fill="#F7F7F7"/>
</svg>
