<svg width="96" height="96" viewBox="0 0 96 96" fill="none" xmlns="http://www.w3.org/2000/svg">
<path fill-rule="evenodd" clip-rule="evenodd" d="M29.153 62.3121C29.153 59.4455 26.8285 57.1196 23.9592 57.1196C21.0919 57.1196 18.7673 59.4455 18.7673 62.3121C18.7673 65.1788 21.0919 67.5046 23.9592 67.5046C26.8285 67.5046 29.153 65.1788 29.153 62.3121Z" fill="black"/>
<path fill-rule="evenodd" clip-rule="evenodd" d="M25.959 62.3117C25.959 61.2074 25.0644 60.313 23.9598 60.313C22.8552 60.313 21.9606 61.2074 21.9606 62.3117C21.9606 63.416 22.8552 64.3104 23.9598 64.3104C25.0644 64.3104 25.959 63.416 25.959 62.3117Z" stroke="white"/>
<path fill-rule="evenodd" clip-rule="evenodd" d="M73.6097 62.3121C73.6097 59.4455 71.2851 57.1196 68.4159 57.1196C65.5485 57.1196 63.224 59.4455 63.224 62.3121C63.224 65.1788 65.5485 67.5046 68.4159 67.5046C71.2851 67.5046 73.6097 65.1788 73.6097 62.3121Z" fill="black"/>
<path fill-rule="evenodd" clip-rule="evenodd" d="M70.4157 62.3117C70.4157 61.2074 69.521 60.313 68.4164 60.313C67.3119 60.313 66.4172 61.2074 66.4172 62.3117C66.4172 63.416 67.3119 64.3104 68.4164 64.3104C69.521 64.3104 70.4157 63.416 70.4157 62.3117Z" stroke="white"/>
<path opacity="0.15" fill-rule="evenodd" clip-rule="evenodd" d="M3.23289 49.0015C3.02673 51.333 2.95863 55.5686 3.02673 57.9115L3.06834 59.3505C3.26504 60.4094 4.00269 61.2849 5.0127 61.6593L16.3441 62.1888H16.7242C16.7242 58.197 19.9604 54.9598 23.9551 54.9598C27.9478 54.9598 31.1859 58.197 31.1859 62.1888H61.227C61.227 58.197 64.4632 54.9598 68.4578 54.9598C72.1215 54.9598 75.1156 57.694 75.5903 61.2282L93.9804 58.8002V48.1846L3.23289 49.0015Z" fill="black"/>
<path fill-rule="evenodd" clip-rule="evenodd" d="M8.25215 32.7086L6.62365 45.6463C6.61609 45.6954 6.6123 45.7465 6.6123 45.7957V57.128C6.6123 57.6934 7.07191 58.151 7.63555 58.151H14.6508C15.2144 58.151 15.674 57.6934 15.674 57.128V32.858C15.674 32.2926 15.2144 31.835 14.6508 31.835H9.26405C8.75715 31.835 8.32591 32.2075 8.25215 32.7086Z" fill="black"/>
<path fill-rule="evenodd" clip-rule="evenodd" d="M90.0382 44.0277H17.7091C16.9942 44.0277 16.4154 43.449 16.4154 42.7343V33.1284C16.4154 32.4136 16.9942 31.835 17.7091 31.835H90.0382C90.7531 31.835 91.3319 32.4136 91.3319 33.1284V42.7343C91.3319 43.449 90.7531 44.0277 90.0382 44.0277Z" fill="black"/>
<path fill-rule="evenodd" clip-rule="evenodd" d="M75.5907 60.7449C75.1159 57.2126 72.1218 54.4783 68.4563 54.4783C64.4636 54.4783 61.2274 57.7137 61.2274 61.7073H31.1844C31.1844 57.7137 27.9482 54.4783 23.9536 54.4783C19.9608 54.4783 16.7246 57.7137 16.7246 61.7073H16.3445L5.01307 61.176C4.00307 60.8035 3.26542 59.9261 3.06871 58.8672L3.02521 57.4301C2.95712 55.0853 3.0271 50.8515 3.23327 48.5181C3.40917 46.5175 4.13736 46.0032 4.51374 44.0272L5.98336 32.8745C6.27653 30.6565 8.16793 29 10.4055 29H93.9808V58.3169L75.5907 60.7449Z" stroke="black"/>
</svg>
