<?xml version="1.0" encoding="utf-8"?>
<svg width="96" height="96" viewBox="0 0 96 96" version="1.1" xmlns:xlink="http://www.w3.org/1999/xlink" xmlns="http://www.w3.org/2000/svg">
  <defs>
    <path d="M13.8072 16.063C10.5691 16.063 7.94388 18.6876 7.94388 21.9249C7.94388 25.1622 10.5691 27.7868 13.8072 27.7868C17.0453 27.7868 19.6706 25.1622 19.6706 21.9249C19.6706 18.6876 17.0453 16.063 13.8072 16.063Z" id="path_1" />
    <path d="M54.3693 16.063C51.1312 16.063 48.5059 18.6876 48.5059 21.9249C48.5059 25.1622 51.1312 27.7868 54.3693 27.7868C57.6073 27.7868 60.2326 25.1622 60.2326 21.9249C60.2326 18.6876 57.6073 16.063 54.3693 16.063Z" id="path_2" />
    <clipPath id="clip_1">
      <use xlink:href="#path_1" />
    </clipPath>
    <clipPath id="clip_2">
      <use xlink:href="#path_2" />
    </clipPath>
  </defs>
  <g id="iconbodycabrio" fill-opacity="1">
    <path d="M-272 -7037L-272 -7037L-272 -6941L-368 -6941L-368 -7037L-272 -7037Z" id="iconbodycabrio" fill="none" stroke="none" />
    <g id="Group-17" transform="translate(11 34)">
      <g id="Fill-105">
        <g clip-path="url(#clip_1)">
          <use xlink:href="#path_1" fill="none" stroke="#000000" stroke-width="2" />
        </g>
      </g>
      <g id="Fill-107">
        <g clip-path="url(#clip_2)">
          <use xlink:href="#path_2" fill="none" stroke="#000000" stroke-width="2" />
        </g>
      </g>
      <path d="M47.4401 9.84982L43.3471 9.84982C43.2242 9.84982 43.1239 9.7496 43.1239 9.62669L43.1239 9.38087C43.1239 9.25796 43.2242 9.15774 43.3471 9.15774L47.4401 9.15774C47.563 9.15774 47.6633 9.25796 47.6633 9.38087L47.6633 9.62669C47.6633 9.7496 47.563 9.84982 47.4401 9.84982" id="Fill-109" fill="#000000" fill-rule="evenodd" stroke="none" />
      <path d="M28.2938 24.4438L46.7539 24.4438C46.1373 22.5302 45.8593 20.1155 47.5521 17.5646C48.6358 15.929 50.3211 14.7188 52.2201 14.2233C57.5935 12.8259 62.426 16.8423 62.426 21.9875C62.426 22.551 62.3655 23.1012 62.2539 23.6326L63.1353 23.5853L74.1054 21.6755L74.1054 18.8939L72.9403 16.1956L71.2646 9.84963C64.2966 14.9438 10.1023 4.47751 28.2938 24.4438" id="Fill-179" fill="#000000" fill-opacity="0.15" fill-rule="evenodd" stroke="none" />
      <path d="M65.0313 7.26152L47.6417 7.23505L49.0773 2.89159L65.0313 7.26152Z" id="Fill-181" fill="#000000" fill-rule="evenodd" stroke="none" />
      <path d="M72.94 16.2534L72.051 11.6831C71.6481 9.62196 69.9421 8.06573 67.8521 7.85584L60.9277 7.16187L27.2191 7.05408C27.2191 7.05408 34.7337 -0.592821 33.1884 0.0368577C30.0846 1.30189 27.3591 3.79413 22.1048 7.12405C15.8367 7.32827 9.65749 8.44202 2.87115 11.9119L1.71928 16.0606L0 16.539L0.264796 21.4951C0.39152 22.7109 1.30696 23.6942 2.50989 23.9098L5.58531 24.4582C5.74418 24.4865 5.90495 24.5017 6.06761 24.5017L6.21892 24.5017C5.5645 22.4765 5.45102 20.2055 7.49184 17.4901C9.02576 15.4498 11.3408 13.9843 13.8942 14.0013C18.3163 14.0297 21.8911 17.6206 21.8911 22.0453C21.8911 22.9076 21.7189 23.7226 21.4674 24.5017L21.6698 24.5017L46.7535 24.5017C46.1369 22.588 45.8589 20.1733 47.5517 17.6225C48.6355 15.9868 50.3207 14.7766 52.2197 14.2812C57.595 12.8838 62.4257 16.9001 62.4257 22.0453C62.4257 22.6088 62.3651 23.1591 62.2554 23.6904L63.1349 23.6432L74.1051 21.7333L74.1051 18.9518L72.94 16.2534Z" id="Stroke-177" fill="none" fill-rule="evenodd" stroke="#000000" stroke-width="1" />
    </g>
  </g>
</svg>