<?xml version="1.0" encoding="utf-8"?>
<svg width="96" height="96" viewBox="0 0 96 96" version="1.1" xmlns:xlink="http://www.w3.org/1999/xlink" xmlns="http://www.w3.org/2000/svg">
  <defs>
    <path d="M13.8063 16.9735C10.5682 16.9735 7.94294 19.5981 7.94294 22.8354C7.94294 26.0727 10.5682 28.6973 13.8063 28.6973C17.0444 28.6973 19.6696 26.0727 19.6696 22.8354C19.6696 19.5981 17.0444 16.9735 13.8063 16.9735Z" id="path_1" />
    <path d="M60.6319 16.9735C57.3938 16.9735 54.7685 19.5981 54.7685 22.8354C54.7685 26.0727 57.3938 28.6973 60.6319 28.6973C63.8699 28.6973 66.4952 26.0727 66.4952 22.8354C66.4952 19.5981 63.8699 16.9735 60.6319 16.9735Z" id="path_2" />
    <clipPath id="clip_1">
      <use xlink:href="#path_1" />
    </clipPath>
    <clipPath id="clip_2">
      <use xlink:href="#path_2" />
    </clipPath>
  </defs>
  <g id="iconbodyhatchback" fill-opacity="1">
    <path d="M-519 -7037L-519 -7037L-519 -6941L-615 -6941L-615 -7037L-519 -7037Z" id="iconbodyhatchback" fill="none" stroke="none" />
    <g id="Group-18" transform="translate(11 34)">
      <path d="M32.3312 25.3509L53.0156 25.3509C52.399 23.4373 52.1209 21.0226 53.8137 18.4717C54.8994 16.836 56.5846 15.624 58.4836 15.1304C63.859 13.733 68.6877 17.7513 68.6877 22.8946C68.6877 23.4581 68.6272 24.0083 68.5175 24.5397L69.3989 24.4924L73.4654 22.5826L73.4654 19.801L72.3003 17.1027L71.3886 12.4056C38.2229 13.3851 34.913 16.5656 32.3312 25.3509" id="Fill-91" fill="#000000" fill-opacity="0.15" fill-rule="evenodd" stroke="none" />
      <path d="M64.1302 2.74544C63.6157 2.32187 62.9462 2.13278 62.2785 2.13278L41.4183 2.13278C39.9051 2.13278 36.4533 2.42209 35.0518 2.99315C32.7084 3.94806 30.6032 5.67259 27.2176 7.96439C26.5878 8.39174 26.8829 9.38069 27.6451 9.36557C35.7478 9.1916 60.0429 8.67349 66.2088 8.54301C66.9654 8.526 67.4553 7.7545 67.1848 7.04918C66.5134 5.29629 65.492 3.86486 64.1302 2.74544" id="Fill-93" fill="#000000" fill-rule="evenodd" stroke="none" />
      <g id="Fill-95">
        <g clip-path="url(#clip_1)">
          <use xlink:href="#path_1" fill="none" stroke="#000000" stroke-width="2" />
        </g>
      </g>
      <g id="Fill-97">
        <g clip-path="url(#clip_2)">
          <use xlink:href="#path_2" fill="none" stroke="#000000" stroke-width="2" />
        </g>
      </g>
      <path d="M49.3082 10.7603L45.2153 10.7603C45.0923 10.7603 44.9921 10.6601 44.9921 10.5372L44.9921 10.2914C44.9921 10.1685 45.0923 10.0682 45.2153 10.0682L49.3082 10.0682C49.4312 10.0682 49.5314 10.1685 49.5314 10.2914L49.5314 10.5372C49.5314 10.6601 49.4312 10.7603 49.3082 10.7603" id="Fill-99" fill="#000000" fill-rule="evenodd" stroke="none" />
      <path d="M72.3007 17.1639L70.6476 8.65666C70.6476 8.65666 67.2733 0 62.7396 0L40.2055 0C38.5373 0 34.7337 0.319566 33.1865 0.947354C30.0827 2.21238 27.3572 4.70462 22.1029 8.03454C15.8367 8.23876 9.65749 9.35252 2.87115 12.8224L1.71739 16.9711L0 17.4495L0.262905 22.4056C0.389628 23.6214 1.30507 24.6066 2.508 24.8203L5.58341 25.3687C5.74229 25.397 5.90495 25.4122 6.06572 25.4122L6.21703 25.4122C5.5645 23.387 5.45102 21.116 7.48995 18.4025C9.02387 16.3603 11.3408 14.8948 13.8942 14.9118C18.3144 14.9402 21.8892 18.5311 21.8892 22.9558C21.8892 23.8181 21.719 24.6331 21.4674 25.4122L21.6698 25.4122L53.016 25.4122C52.3994 23.4985 52.1213 21.0838 53.8141 18.533C54.8998 16.8973 56.585 15.6852 58.484 15.1917C63.8575 13.7943 68.6881 17.8125 68.6881 22.9558C68.6881 23.5193 68.6276 24.0696 68.5179 24.6009L69.3974 24.5537L73.4658 22.6438L73.4658 19.8623L72.3007 17.1639Z" id="Stroke-89" fill="none" fill-rule="evenodd" stroke="#000000" stroke-width="1" />
    </g>
  </g>
</svg>