<?xml version="1.0" encoding="utf-8"?>
<svg width="96" height="96" viewBox="0 0 96 96" version="1.1" xmlns:xlink="http://www.w3.org/1999/xlink" xmlns="http://www.w3.org/2000/svg">
  <g id="iconbodypickup" fill-opacity="1">
    <path d="M-767 -7037L-767 -7037L-767 -6941L-863 -6941L-863 -7037L-767 -7037Z" id="iconbodypickup" fill="none" stroke="none" />
    <g id="Group-14" transform="translate(8 30)">
      <path d="M20.4963 28.3684C20.4963 24.5733 17.419 21.4987 13.6249 21.4987C9.82883 21.4987 6.75152 24.5733 6.75152 28.3684C6.75152 32.1635 9.82883 35.2382 13.6249 35.2382C17.419 35.2382 20.4963 32.1635 20.4963 28.3684" id="Fill-13" fill="#000000" fill-rule="evenodd" stroke="none" />
      <path d="M16.2694 28.234C16.2694 26.7742 15.0854 25.5886 13.6234 25.5886C12.1632 25.5886 10.9792 26.7742 10.9792 28.234C10.9792 29.6938 12.1632 30.8794 13.6234 30.8794C15.0854 30.8794 16.2694 29.6938 16.2694 28.234Z" id="Stroke-15" fill="none" fill-rule="evenodd" stroke="#FFFFFF" stroke-width="1" />
      <path d="M66.154 28.3684C66.154 24.5733 63.0767 21.4987 59.2825 21.4987C55.4865 21.4987 52.4092 24.5733 52.4092 28.3684C52.4092 32.1635 55.4865 35.2382 59.2825 35.2382C63.0767 35.2382 66.154 32.1635 66.154 28.3684" id="Fill-17" fill="#000000" fill-rule="evenodd" stroke="none" />
      <path d="M79.8608 9.67417L79.5127 17.4705C79.4049 19.9249 78.0015 22.1391 75.8283 23.2869L68.9115 26.9383L67.9355 27.0083C67.3624 22.7386 63.7423 19.4351 59.3164 19.4351C54.4914 19.4351 50.5781 23.3456 50.5781 28.1693L47.2852 28.1693L22.3546 28.1693C25.9577 22.6989 24.7113 17.3532 24.7113 17.3532C24.7113 17.3532 63.7044 10.0259 79.8608 9.67417" id="Fill-117" fill="#000000" fill-opacity="0.15" fill-rule="evenodd" stroke="none" />
      <path d="M46.6069 9.30714L45.8958 4.2508C45.7558 3.25428 44.9028 2.51115 43.8965 2.51115L33.5373 2.51115C30.9953 2.51115 28.5554 3.51712 26.7491 5.30783L23.1233 8.90437C21.7312 10.2866 22.6656 11.4496 22.6656 11.4496L45.213 10.9466C46.0754 10.9277 46.7261 10.1599 46.6069 9.30714" id="Fill-119" fill="#000000" fill-rule="evenodd" stroke="none" />
      <path d="M49.1312 9.73827L47.2852 28.2334" id="Stroke-121" fill="none" fill-rule="evenodd" stroke="#000000" stroke-width="1" />
      <path d="M45.8063 12.9262L41.7133 12.9262C41.5904 12.9262 41.4901 12.826 41.4901 12.7031L41.4901 12.4572C41.4901 12.3343 41.5904 12.2341 41.7133 12.2341L45.8063 12.2341C45.9292 12.2341 46.0295 12.3343 46.0295 12.4572L46.0295 12.7031C46.0295 12.826 45.9292 12.9262 45.8063 12.9262" id="Fill-123" fill="#000000" fill-rule="evenodd" stroke="none" />
      <path d="M61.9271 28.234C61.9271 26.7742 60.7431 25.5886 59.281 25.5886C57.8208 25.5886 56.6368 26.7742 56.6368 28.234C56.6368 29.6938 57.8208 30.8794 59.281 30.8794C60.7431 30.8794 61.9271 29.6938 61.9271 28.234Z" id="Stroke-145" fill="none" fill-rule="evenodd" stroke="#FFFFFF" stroke-width="1" />
      <path d="M79.8608 9.73827L49.1312 9.73827L48.0455 2.01573C47.8829 0.860371 46.8937 0 45.7267 0L33.7144 0C30.7657 0 27.9362 1.16481 25.8443 3.24105L21.6397 7.41243C20.0244 9.01593 17.9571 10.0881 15.7158 10.4833L4.82513 12.4101C3.67516 12.6144 2.76539 13.5031 2.53654 14.649L1.54733 19.6127C0.378448 20.4485 -0.200321 21.8837 0.0625841 23.2962L0.342511 24.8052C0.580828 26.0834 1.47357 27.1423 2.69352 27.5943L4.42226 28.2334L4.87998 28.2334C4.87998 23.4097 8.7914 19.4992 13.6164 19.4992C18.4432 19.4992 22.3546 23.4097 22.3546 28.2334L47.2852 28.2334L50.5781 28.2334C50.5781 23.4097 54.4914 19.4992 59.3164 19.4992C63.7422 19.4992 67.3624 22.8027 67.9355 27.0724L68.9114 27.0024L75.8283 23.351C78.0015 22.2033 79.4049 19.989 79.5127 17.5346L79.8608 9.73827Z" id="Stroke-115" fill="none" fill-rule="evenodd" stroke="#000000" stroke-width="1" />
    </g>
  </g>
</svg>