<?xml version="1.0" encoding="utf-8"?>
<svg width="96" height="96" viewBox="0 0 96 96" version="1.1" xmlns:xlink="http://www.w3.org/1999/xlink" xmlns="http://www.w3.org/2000/svg">
  <defs>
    <path d="M-1015 -7235L-1015 -7235L-1015 -7139L-1111 -7139L-1111 -7235L-1015 -7235Z" id="path_1" />
    <clipPath id="clip_1">
      <use xlink:href="#path_1" />
    </clipPath>
  </defs>
  <g id="iconbodyrv" fill-opacity="1">
    <g clip-path="url(#clip_1)">
      <use xlink:href="#path_1" fill="none" stroke="#000000" stroke-width="2" />
    </g>
    <g id="Group-22" transform="translate(3 27)">
      <path d="M15.9484 37.1491C15.9484 34.3733 13.6977 32.1212 10.9192 32.1212C8.14261 32.1212 5.88995 34.3733 5.88995 37.1491C5.88995 39.925 8.14261 42.1771 10.9192 42.1771C13.6977 42.1771 15.9484 39.925 15.9484 37.1491" id="Fill-189" fill="#000000" fill-rule="evenodd" stroke="none" />
      <path d="M28.6874 22.8244L25.4947 22.8244C25.3718 22.8244 25.2734 22.7242 25.2734 22.6013L25.2734 22.4916C25.2734 22.3687 25.3718 22.2704 25.4947 22.2704L28.6874 22.2704C28.8103 22.2704 28.9106 22.3687 28.9106 22.4916L28.9106 22.6013C28.9106 22.7242 28.8103 22.8244 28.6874 22.8244" id="Fill-191" fill="#000000" fill-rule="evenodd" stroke="none" />
      <path d="M12.8552 37.1491C12.8552 36.0808 11.989 35.2128 10.9184 35.2128C9.84979 35.2128 8.98353 36.0808 8.98353 37.1491C8.98353 38.2175 9.84979 39.0854 10.9184 39.0854C11.989 39.0854 12.8552 38.2175 12.8552 37.1491Z" id="Stroke-193" fill="none" fill-rule="evenodd" stroke="#FFFFFF" stroke-width="1" />
      <path d="M65.7887 37.1491C65.7887 34.3733 63.5379 32.1212 60.7595 32.1212C57.9829 32.1212 55.7302 34.3733 55.7302 37.1491C55.7302 39.925 57.9829 42.1771 60.7595 42.1771C63.5379 42.1771 65.7887 39.925 65.7887 37.1491" id="Fill-195" fill="#000000" fill-rule="evenodd" stroke="none" />
      <path d="M62.6955 37.1491C62.6955 36.0808 61.8293 35.2128 60.7606 35.2128C59.6901 35.2128 58.8238 36.0808 58.8238 37.1491C58.8238 38.2175 59.6901 39.0854 60.7606 39.0854C61.8293 39.0854 62.6955 38.2175 62.6955 37.1491Z" id="Stroke-197" fill="none" fill-rule="evenodd" stroke="#FFFFFF" stroke-width="1" />
      <path d="M75.0571 37.1491C75.0571 34.3733 72.8064 32.1212 70.0279 32.1212C67.2513 32.1212 64.9987 34.3733 64.9987 37.1491C64.9987 39.925 67.2513 42.1771 70.0279 42.1771C72.8064 42.1771 75.0571 39.925 75.0571 37.1491" id="Fill-199" fill="#000000" fill-rule="evenodd" stroke="none" />
      <path d="M71.9639 37.1491C71.9639 36.0808 71.0977 35.2128 70.029 35.2128C68.9585 35.2128 68.0922 36.0808 68.0922 37.1491C68.0922 38.2175 68.9585 39.0854 70.029 39.0854C71.0977 39.0854 71.9639 38.2175 71.9639 37.1491Z" id="Stroke-201" fill="none" fill-rule="evenodd" stroke="#FFFFFF" stroke-width="1" />
      <path d="M29.3628 20.3259L29.3628 14.9614C29.3628 14.4395 28.9391 14.014 28.4152 14.014L22.2455 14.014C22.1433 14.014 22.0374 14.0292 21.9391 14.0594C19.1417 14.9084 17.534 16.8107 15.6955 19.8173C15.3078 20.4507 15.7561 21.2733 16.4994 21.2733L28.4152 21.2733C28.9391 21.2733 29.3628 20.8497 29.3628 20.3259" id="Fill-203" fill="#000000" fill-rule="evenodd" stroke="none" />
      <path d="M46.5327 15.7219L43.4592 15.7219C42.8332 15.7219 42.3244 16.2306 42.3244 16.8565L42.3244 21.1394C42.3244 21.7672 42.8332 22.274 43.4592 22.274L46.5327 22.274C47.1588 22.274 47.6676 21.7672 47.6676 21.1394L47.6676 16.8565C47.6676 16.2306 47.1588 15.7219 46.5327 15.7219" id="Fill-223" fill="#000000" fill-rule="evenodd" stroke="none" />
      <path d="M1.7162 26.2623L1.24146 29.5563C0.303323 30.2238 -0.16007 31.3754 0.0498751 32.508L0.274952 33.7163C0.465983 34.7412 1.18093 35.5903 2.15879 35.9514L3.54329 36.4639L3.91211 36.4639C3.91211 32.5988 7.04617 29.4637 10.9141 29.4637C14.782 29.4637 17.916 32.5988 17.916 36.4639L48.1368 36.4639L53.7959 36.4639C53.7959 32.5988 56.9319 29.4637 60.7998 29.4637C62.6098 29.4637 64.2459 30.1595 65.481 31.2903C66.7255 30.1633 68.3578 29.4599 70.1679 29.4599C73.7105 29.4599 76.6081 32.0958 77.0772 35.5089L87.5763 35.4503C89.3523 35.4409 90.7879 33.9981 90.7879 32.2206L90.7879 25.7158L1.7162 26.2623Z" id="Fill-227" fill="#000000" fill-opacity="0.15" fill-rule="evenodd" stroke="none" />
      <path d="M55.7304 12.8545L90.7875 12.8545L90.7875 22.4339L65.3123 22.4339C60.0201 22.4339 55.7304 18.1453 55.7304 12.8545Z" id="Fill-229" fill="#000000" fill-opacity="0.15" fill-rule="evenodd" stroke="none" />
      <path d="M85.6764 0L22.2786 0C20.1413 0 18.1099 0.920881 16.7008 2.52817L14.1739 5.40994C13.3701 6.32704 13.1771 7.62799 13.6765 8.73986C14.1739 9.84227 15.2652 10.557 16.4757 10.5741L28.5467 10.7272L27.6899 12.2248L22.8346 12.4196C21.2723 12.4196 19.7516 12.828 18.4144 13.5863C17.3496 14.1895 13.4987 20.2329 12.8556 21.2729L2.0349 24.1604L1.24051 29.6535C0.304268 30.3229 -0.161016 31.4745 0.0508208 32.6052L0.275897 33.8135C0.465037 34.8384 1.18188 35.6874 2.15973 36.0505L3.54424 36.5629L3.91117 36.5629C3.91117 32.696 7.04711 29.5627 10.9131 29.5627C14.781 29.5627 17.917 32.696 17.917 36.5629L48.1378 36.5629L53.7969 36.5629C53.7969 32.696 56.9309 29.5627 60.7988 29.5627C62.6127 29.5627 64.2487 30.2605 65.4857 31.3913C66.7284 30.268 68.3587 29.5646 70.1669 29.5646C73.7076 29.5646 76.6034 32.1987 77.0781 35.6061L87.5773 35.5494C89.3533 35.5381 90.787 34.0953 90.787 32.3197L90.787 5.10928C90.787 2.28802 88.4984 0 85.6764 0Z" id="Stroke-225" fill="none" fill-rule="evenodd" stroke="#000000" stroke-width="1" />
      <path d="M48.2414 14.0148L41.7974 14.0148C41.1695 14.0148 40.6626 14.5234 40.6626 15.1493L40.6626 32.8408C40.6626 33.4667 41.1695 33.9754 41.7974 33.9754L48.2414 33.9754C48.8675 33.9754 49.3763 33.4667 49.3763 32.8408L49.3763 15.1493C49.3763 14.5234 48.8675 14.0148 48.2414 14.0148Z" id="Stroke-221" fill="none" fill-rule="evenodd" stroke="#000000" stroke-width="1" />
    </g>
  </g>
</svg>