<?xml version="1.0" encoding="UTF-8"?>
<svg width="549px" height="549px" viewBox="0 0 549 549" version="1.1" xmlns="http://www.w3.org/2000/svg" xmlns:xlink="http://www.w3.org/1999/xlink">
    <title>icon/state/blown_engine</title>
    <g id="SEO-🟥-☑️" stroke="none" stroke-width="1" fill="none" fill-rule="evenodd">
        <g id="https://new-dev.junkcarsus.com/services/we-buy-rvs" transform="translate(-771, -161)">
            <g id="icon/state/blown_engine" transform="translate(771, 161)">
                <g id="Group-22" transform="translate(15.1563, 152.4047)">
                    <path d="M93.2049235,214.448147 C93.2049235,198.573588 80.3333527,185.694433 64.4439935,185.694433 C48.5654508,185.694433 35.6830636,198.573588 35.6830636,214.448147 C35.6830636,230.322706 48.5654508,243.201861 64.4439935,243.201861 C80.3333527,243.201861 93.2049235,230.322706 93.2049235,214.448147" id="Fill-189" fill="#000000"></path>
                    <path d="M166.055851,132.528718 L147.79769,132.528718 C147.094621,132.528718 146.532166,131.95559 146.532166,131.252697 L146.532166,130.625501 C146.532166,129.922608 147.094621,129.360294 147.79769,129.360294 L166.055851,129.360294 C166.75892,129.360294 167.332191,129.922608 167.332191,130.625501 L167.332191,131.252697 C167.332191,131.95559 166.75892,132.528718 166.055851,132.528718" id="Fill-191" fill="#000000"></path>
                    <path d="M64.439667,201.373322 C71.6636634,201.373322 77.5172702,207.229409 77.5172702,214.448147 C77.5172702,221.666884 71.6636634,227.522971 64.439667,227.522971 C57.2245104,227.522971 51.3728802,221.664909 51.3728802,214.448147 C51.3728802,207.231385 57.2245104,201.373322 64.439667,201.373322 Z M64.439667,205.376447 C59.4363604,205.376447 55.3760052,209.441266 55.3760052,214.448147 C55.3760052,219.455028 59.4363604,223.519846 64.439667,223.519846 C69.4524188,223.519846 73.5141452,219.456399 73.5141452,214.448147 C73.5141452,209.439895 69.4524188,205.376447 64.439667,205.376447 Z" id="Stroke-193" fill="#FFFFFF" fill-rule="nonzero"></path>
                    <path d="M378.229092,214.448147 C378.229092,198.573588 365.357521,185.694433 349.468162,185.694433 C333.589619,185.694433 320.707232,198.573588 320.707232,214.448147 C320.707232,230.322706 333.589619,243.201861 349.468162,243.201861 C365.357521,243.201861 378.229092,230.322706 378.229092,214.448147" id="Fill-195" fill="#000000"></path>
                    <path d="M349.474652,201.373322 C356.689809,201.373322 362.541439,207.231385 362.541439,214.448147 C362.541439,221.664909 356.689809,227.522971 349.474652,227.522971 C342.250656,227.522971 336.397049,221.666884 336.397049,214.448147 C336.397049,207.229409 342.250656,201.373322 349.474652,201.373322 Z M349.474652,205.376447 C344.4619,205.376447 340.400174,209.439895 340.400174,214.448147 C340.400174,219.456399 344.4619,223.519846 349.474652,223.519846 C354.477959,223.519846 358.538314,219.455028 358.538314,214.448147 C358.538314,209.441266 354.477959,205.376447 349.474652,205.376447 Z" id="Stroke-197" fill="#FFFFFF" fill-rule="nonzero"></path>
                    <path d="M431.232922,214.448147 C431.232922,198.573588 418.361352,185.694433 402.471993,185.694433 C386.59345,185.694433 373.711063,198.573588 373.711063,214.448147 C373.711063,230.322706 386.59345,243.201861 402.471993,243.201861 C418.361352,243.201861 431.232922,230.322706 431.232922,214.448147" id="Fill-199" fill="#000000"></path>
                    <path d="M402.478482,201.373322 C409.693639,201.373322 415.545269,207.231385 415.545269,214.448147 C415.545269,221.664909 409.693639,227.522971 402.478482,227.522971 C395.254486,227.522971 389.400879,221.666884 389.400879,214.448147 C389.400879,207.229409 395.254486,201.373322 402.478482,201.373322 Z M402.478482,205.376447 C397.465731,205.376447 393.404004,209.439895 393.404004,214.448147 C393.404004,219.456399 397.465731,223.519846 402.478482,223.519846 C407.481789,223.519846 411.542144,219.455028 411.542144,214.448147 C411.542144,209.441266 407.481789,205.376447 402.478482,205.376447 Z" id="Stroke-201" fill="#FFFFFF" fill-rule="nonzero"></path>
                    <path d="M169.918403,118.240533 L169.918403,87.561975 C169.918403,84.5773849 167.49552,82.1442951 164.499364,82.1442951 L129.216117,82.1442951 C128.632029,82.1442951 128.026308,82.230805 127.463853,82.4038247 C111.466329,87.2591905 102.27235,98.1378051 91.7587646,115.331639 C89.5413932,118.95424 92.1048909,123.658213 96.3557542,123.658213 L164.499364,123.658213 C167.49552,123.658213 169.918403,121.235937 169.918403,118.240533" id="Fill-203" fill="#000000"></path>
                    <path d="M268.109019,91.9112581 L250.532294,91.9112581 C246.95205,91.9112581 244.042426,94.8201521 244.042426,98.3994975 L244.042426,122.892601 C244.042426,126.48276 246.95205,129.38084 250.532294,129.38084 L268.109019,129.38084 C271.689262,129.38084 274.598886,126.48276 274.598886,122.892601 L274.598886,98.3994975 C274.598886,94.8201521 271.689262,91.9112581 268.109019,91.9112581" id="Fill-223" fill="#000000"></path>
                    <path d="M11.8144122,152.189165 L9.09948427,171.026686 C3.73452706,174.843934 1.08449779,181.429497 2.28512329,187.906922 L3.57228037,194.816897 C4.66474141,200.67794 8.753358,205.533306 14.3454606,207.598729 L22.2630991,210.52925 L24.372306,210.52925 C24.372306,188.425981 42.2951571,170.496813 64.4147891,170.496813 C86.5344212,170.496813 104.457272,188.425981 104.457272,210.52925 L277.282446,210.52925 L309.645253,210.52925 C309.645253,188.425981 327.57892,170.496813 349.698552,170.496813 C360.049891,170.496813 369.406117,174.476267 376.469256,180.942879 C383.586478,174.497894 392.921071,170.475186 403.27241,170.475186 C423.531613,170.475186 440.102408,185.549529 442.784887,205.068315 L502.826979,204.73309 C512.983621,204.679021 521.193304,196.428143 521.193304,186.263235 L521.193304,149.063996 L11.8144122,152.189165 Z" id="Fill-227" fill="#FFFFFF"></path>
                    <path d="M320.708314,75.5133145 L521.191141,75.5133145 L521.191141,130.295682 L375.504429,130.295682 C345.240013,130.295682 320.708314,105.770137 320.708314,75.5133145 Z" id="Fill-229" fill="#FFFFFF"></path>
                    <path d="M491.961859,0 C509.205316,0 523.189458,13.9806337 523.189458,31.2202671 L523.189458,186.829875 C523.189458,198.084799 514.101848,207.229341 502.843201,207.301263 L442.801109,207.625674 L441.049581,207.635138 L440.807881,205.90034 C438.196934,187.16032 422.275746,173.075829 403.267001,173.075829 C393.788318,173.075829 384.86743,176.651841 377.838454,183.005211 L376.488699,184.225232 L375.145819,182.997647 C368.190813,176.639773 359.243648,173.065015 349.693144,173.065015 C328.678832,173.065015 311.652224,190.087352 311.652224,211.09589 L311.652224,213.097452 L102.461118,213.097452 L102.461118,211.09589 C102.461118,190.089582 85.4259238,173.065015 64.4093809,173.065015 C43.4020657,173.065015 26.3684603,190.09117 26.3684603,211.09589 L26.3684603,213.097452 L22.2685073,213.097452 L21.5737398,212.973002 L13.6541965,210.041774 C7.3967761,207.718519 2.81803644,202.285334 1.60997332,195.73926 L0.32319369,188.831305 C-1.0309759,181.602821 1.93982914,174.237073 7.92995159,169.954302 L7.2228194,170.487375 L11.6560279,139.882145 L11.8450322,138.575193 L13.1209346,138.234726 L74.2351319,121.92375 L74.5126417,121.482099 C77.6964907,116.38668 82.933109,108.318353 87.7532538,101.226365 L88.857078,99.608881 C97.2491729,87.3637126 103.21491,79.7160967 106.320114,77.9571062 C114.317381,73.4223122 123.360748,71.0245936 132.505213,71.0262021 L159.158569,69.9574687 L161.823507,65.3024063 L96.1924115,64.4733181 C88.8776034,64.3704794 82.24769,60.261309 78.8890674,53.8361276 L78.3863209,52.8026251 C75.2079988,45.7254109 76.4416191,37.4504026 81.5519929,31.6200274 L96.002638,15.140044 C104.441343,5.5144068 116.606927,0 129.405405,0 L491.961859,0 Z M491.961859,4.003125 L129.405405,4.003125 C117.760049,4.003125 106.691453,9.02028982 99.0126466,17.7791457 L84.5621373,34.2589742 C80.4853049,38.9101921 79.5009511,45.5131449 82.036637,51.1593996 C84.5613241,56.7545453 90.1013828,60.3841639 96.2459439,60.470552 L165.276502,61.3464643 L168.677429,61.3896178 L166.988437,64.3418153 L162.088587,72.9062913 L161.538444,73.8678904 L160.431484,73.9122956 L132.58544,75.0277186 C124.054644,75.0277186 115.691368,77.245121 108.293936,81.4397831 C105.999633,82.7394258 100.003344,90.4262081 92.1591481,101.871919 C86.7255637,109.800233 80.4811043,119.435154 77.220271,124.708707 L76.8021228,125.384954 L76.0339198,125.589945 L15.4235069,141.762094 L11.0750315,171.868987 L10.9528173,172.71409 L10.2582005,173.210722 C5.53342229,176.588806 3.190649,182.397426 4.25824678,188.096211 L5.54601311,195.009472 C6.49848728,200.170587 10.1096347,204.455616 15.0456363,206.288256 L22.4175382,209.014594 L22.4547775,208.332006 C23.8488023,186.861401 41.3675271,169.786492 63.0216989,169.084357 L64.4093809,169.06189 C86.7071557,169.06189 104.950964,186.402962 106.374792,208.331811 L106.408819,209.088937 L307.697382,209.088937 L307.738508,208.331602 C309.132026,186.858099 326.644674,169.786355 348.305049,169.084352 L349.693144,169.06189 C360.257676,169.06189 370.164029,173.019882 377.846776,180.043017 L376.499663,178.859625 C383.598095,172.968635 392.234641,169.521577 401.422404,169.113595 L403.267001,169.072704 C423.331651,169.072704 440.280873,183.259817 444.289187,202.557365 L444.489882,203.610375 L502.819601,203.298208 C511.552136,203.242423 518.661909,196.399946 519.158612,187.793186 L519.186333,186.829875 L519.186333,31.2202671 C519.186333,16.1917234 506.994676,4.003125 491.961859,4.003125 Z" id="Stroke-225" fill="#000000" fill-rule="nonzero"></path>
                    <path d="M277.880596,80.1470581 C282.56616,80.1470581 286.372026,83.9519697 286.372026,88.63686 L286.372026,189.810139 C286.372026,194.495029 282.56616,198.299941 277.880596,198.299941 L241.028964,198.299941 C236.335802,198.299941 232.537534,194.498251 232.537534,189.810139 L232.537534,88.63686 C232.537534,83.948748 236.335802,80.1470581 241.028964,80.1470581 L277.880596,80.1470581 Z M277.880596,84.1501831 L241.028964,84.1501831 C238.547475,84.1501831 236.540659,86.1588063 236.540659,88.63686 L236.540659,189.810139 C236.540659,192.288193 238.547475,194.296816 241.028964,194.296816 L277.880596,194.296816 C280.35552,194.296816 282.368901,192.28394 282.368901,189.810139 L282.368901,88.63686 C282.368901,86.1630595 280.35552,84.1501831 277.880596,84.1501831 Z" id="Stroke-221" fill="#000000" fill-rule="nonzero"></path>
                </g>
            </g>
        </g>
    </g>
</svg>