<?xml version="1.0" encoding="utf-8"?>
<svg width="96" height="96" viewBox="0 0 96 96" version="1.1" xmlns:xlink="http://www.w3.org/1999/xlink" xmlns="http://www.w3.org/2000/svg">
  <defs>
    <path d="M-765 -7235L-765 -7235L-765 -7139L-861 -7139L-861 -7235L-765 -7235Z" id="path_1" />
    <clipPath id="clip_1">
      <use xlink:href="#path_1" />
    </clipPath>
  </defs>
  <g id="iconbodysuv" fill-opacity="1">
    <g clip-path="url(#clip_1)">
      <use xlink:href="#path_1" fill="none" stroke="#000000" stroke-width="2" />
    </g>
    <g id="Group-15" transform="translate(8 30)">
      <path d="M20.4963 28.3692C20.4963 24.5741 17.419 21.4994 13.6249 21.4994C9.82883 21.4994 6.75152 24.5741 6.75152 28.3692C6.75152 32.1643 9.82883 35.2389 13.6249 35.2389C17.419 35.2389 20.4963 32.1643 20.4963 28.3692" id="Fill-125" fill="#000000" fill-rule="evenodd" stroke="none" />
      <path d="M64.2626 28.3692C64.2626 24.5741 61.1853 21.4994 57.3911 21.4994C53.5951 21.4994 50.5178 24.5741 50.5178 28.3692C50.5178 32.1643 53.5951 35.2389 57.3911 35.2389C61.1853 35.2389 64.2626 32.1643 64.2626 28.3692" id="Fill-127" fill="#000000" fill-rule="evenodd" stroke="none" />
      <path d="M33.6028 28.4488L45.7494 28.4488L49.0442 28.4488C49.0442 23.625 52.9556 19.7146 57.7806 19.7146C62.2083 19.7146 65.8266 23.0181 66.3997 27.2878L67.3756 27.2178L76.2577 26.3102C77.3868 26.2875 78.2909 25.3704 78.2985 24.2434L78.3268 21.9478C78.3325 21.0817 77.7991 20.3008 76.9896 19.9907L76.1479 19.6673L75.5257 12.9829L24.4314 16.0065L33.6028 28.4488Z" id="Fill-131" fill="#000000" fill-opacity="0.15" fill-rule="evenodd" stroke="none" />
      <path d="M42.1587 2.02235L35.692 2.02235C32.3896 2.02235 29.2197 3.32708 26.8762 5.65292L23.6476 8.85615C22.7965 9.7014 23.3941 11.1517 24.5933 11.1517L42.1587 11.1517C42.7602 11.1517 43.2482 10.6639 43.2482 10.0607L43.2482 3.11152C43.2482 2.5102 42.7602 2.02235 42.1587 2.02235" id="Fill-133" fill="#000000" fill-rule="evenodd" stroke="none" />
      <path d="M45.1403 3.24956L45.1403 9.92452C45.1403 10.6015 45.6907 11.1517 46.3679 11.1517L56.9748 11.1517C57.6519 11.1517 58.2023 10.6015 58.2023 9.92452L58.2023 3.24956C58.2023 2.5726 57.6519 2.02235 56.9748 2.02235L46.3679 2.02235C45.6907 2.02235 45.1403 2.5726 45.1403 3.24956" id="Fill-135" fill="#000000" fill-rule="evenodd" stroke="none" />
      <path d="M72.3447 4.32114C72.2275 3.02019 71.1361 2.02178 69.8292 2.02178L61.2781 2.02178C60.6237 2.02178 60.0941 2.55313 60.0941 3.2055L60.0941 9.96745C60.0941 10.6217 60.6237 11.1512 61.2781 11.1512L71.4406 11.1512C72.2256 11.1512 72.8422 10.4818 72.7797 9.70083L72.3447 4.32114Z" id="Fill-137" fill="#000000" fill-rule="evenodd" stroke="none" />
      <path d="M78.9355 18.0358L74.9049 18.0358L74.9049 4.91471L78.9355 4.91471C79.5975 4.91471 80.1328 5.44984 80.1328 6.11166L80.1328 16.8389C80.1328 17.5007 79.5975 18.0358 78.9355 18.0358" id="Fill-139" fill="#000000" fill-rule="evenodd" stroke="none" />
      <path d="M40.0108 12.9837L35.9179 12.9837C35.7949 12.9837 35.6947 12.8834 35.6947 12.7605L35.6947 12.5147C35.6947 12.3918 35.7949 12.2916 35.9179 12.2916L40.0108 12.2916C40.1338 12.2916 40.234 12.3918 40.234 12.5147L40.234 12.7605C40.234 12.8834 40.1338 12.9837 40.0108 12.9837" id="Fill-141" fill="#000000" fill-rule="evenodd" stroke="none" />
      <path d="M56.913 12.9837L52.82 12.9837C52.697 12.9837 52.5968 12.8834 52.5968 12.7605L52.5968 12.5147C52.5968 12.3918 52.697 12.2916 52.82 12.2916L56.913 12.2916C57.0359 12.2916 57.1362 12.3918 57.1362 12.5147L57.1362 12.7605C57.1362 12.8834 57.0359 12.9837 56.913 12.9837" id="Fill-143" fill="#000000" fill-rule="evenodd" stroke="none" />
      <path d="M16.2694 28.3692C16.2694 26.9094 15.0854 25.7238 13.6234 25.7238C12.1632 25.7238 10.9792 26.9094 10.9792 28.3692C10.9792 29.829 12.1632 31.0146 13.6234 31.0146C15.0854 31.0146 16.2694 29.829 16.2694 28.3692Z" id="Stroke-147" fill="none" fill-rule="evenodd" stroke="#FFFFFF" stroke-width="1" />
      <path d="M60.0359 28.3692C60.0359 26.9094 58.8518 25.7238 57.3898 25.7238C55.9296 25.7238 54.7456 26.9094 54.7456 28.3692C54.7456 29.829 55.9296 31.0146 57.3898 31.0146C58.8518 31.0146 60.0359 29.829 60.0359 28.3692Z" id="Stroke-149" fill="none" fill-rule="evenodd" stroke="#FFFFFF" stroke-width="1" />
      <path d="M74.353 2.29937C74.2357 0.998409 73.1444 0 71.8374 0L43.8353 0L33.7144 0C30.7657 0 27.938 1.1667 25.8443 3.24294L21.6397 7.41432C20.0244 9.01593 17.9571 10.0881 15.7158 10.4852L4.82513 12.412C3.67516 12.6144 2.7654 13.505 2.53843 14.6509L1.54733 19.6146C0.378448 20.4485 -0.200321 21.8856 0.0625841 23.2962L0.342511 24.8052C0.580828 26.0834 1.47357 27.1424 2.69352 27.5943L4.42226 28.2353L4.87998 28.2353C4.87998 23.4116 8.7914 19.4992 13.6183 19.4992C18.4432 19.4992 22.3546 23.4116 22.3546 28.2353L45.3938 28.2353L48.6886 28.2353C48.6886 23.4116 52.6 19.4992 57.425 19.4992C61.8509 19.4992 65.471 22.8046 66.0441 27.0724L67.0201 27.0024L75.9021 26.0967C77.0293 26.0721 77.9334 25.1569 77.9429 24.0299L77.9713 21.7343C77.9769 20.8664 77.4436 20.0873 76.634 19.7772L75.7924 19.4538L74.353 2.29937Z" id="Stroke-129" fill="none" fill-rule="evenodd" stroke="#000000" stroke-width="1" />
    </g>
  </g>
</svg>