<?xml version="1.0" encoding="utf-8"?>
<svg width="96" height="96" viewBox="0 0 96 96" version="1.1" xmlns:xlink="http://www.w3.org/1999/xlink" xmlns="http://www.w3.org/2000/svg">
  <defs>
    <path d="M-271 -7235L-271 -7235L-271 -7139L-367 -7139L-367 -7235L-271 -7235Z" id="path_1" />
    <clipPath id="clip_1">
      <use xlink:href="#path_1" />
    </clipPath>
  </defs>
  <g id="iconbodytruck" fill-opacity="1">
    <g clip-path="url(#clip_1)">
      <use xlink:href="#path_1" fill="none" stroke="#000000" stroke-width="2" />
    </g>
    <g id="Group-20" transform="translate(10 27)">
      <path d="M19.8986 34.7928C19.8986 31.3287 17.0899 28.5188 13.623 28.5188C10.1579 28.5188 7.3492 31.3287 7.3492 34.7928C7.3492 38.257 10.1579 41.0669 13.623 41.0669C17.0899 41.0669 19.8986 38.257 19.8986 34.7928" id="Fill-167" fill="#000000" fill-rule="evenodd" stroke="none" />
      <path d="M24.8117 16.9192L20.7188 16.9192C20.5958 16.9192 20.4956 16.819 20.4956 16.6961L20.4956 16.4503C20.4956 16.3274 20.5958 16.2272 20.7188 16.2272L24.8117 16.2272C24.9347 16.2272 25.0349 16.3274 25.0349 16.4503L25.0349 16.6961C25.0349 16.819 24.9347 16.9192 24.8117 16.9192" id="Fill-169" fill="#000000" fill-rule="evenodd" stroke="none" />
      <path d="M16.0391 34.7928C16.0391 33.4597 14.9572 32.3781 13.6237 32.3781C12.2903 32.3781 11.2084 33.4597 11.2084 34.7928C11.2084 36.1259 12.2903 37.2076 13.6237 37.2076C14.9572 37.2076 16.0391 36.1259 16.0391 34.7928Z" id="Stroke-171" fill="none" fill-rule="evenodd" stroke="#FFFFFF" stroke-width="1" />
      <path d="M63.65 34.7928C63.65 31.3287 60.8412 28.5188 57.3743 28.5188C53.9092 28.5188 51.1005 31.3287 51.1005 34.7928C51.1005 38.257 53.9092 41.0669 57.3743 41.0669C60.8412 41.0669 63.65 38.257 63.65 34.7928" id="Fill-173" fill="#000000" fill-rule="evenodd" stroke="none" />
      <path d="M59.7904 34.7928C59.7904 33.4597 58.7085 32.3781 57.375 32.3781C56.0416 32.3781 54.9597 33.4597 54.9597 34.7928C54.9597 36.1259 56.0416 37.2076 57.375 37.2076C58.7085 37.2076 59.7904 36.1259 59.7904 34.7928Z" id="Stroke-175" fill="none" fill-rule="evenodd" stroke="#FFFFFF" stroke-width="1" />
      <path d="M25.5995 13.8019L25.5995 7.10988C25.5995 6.45562 25.0699 5.92616 24.4174 5.92616L16.7194 5.92616C16.5908 5.92616 16.4584 5.94507 16.3373 5.98289C12.8477 7.0437 10.8409 9.41681 8.54476 13.1665C8.06245 13.9569 8.62231 14.9837 9.54909 14.9837L24.4174 14.9837C25.0699 14.9837 25.5995 14.4542 25.5995 13.8019" id="Fill-185" fill="#000000" fill-rule="evenodd" stroke="none" />
      <path d="M75.3097 0L75.9584 32.7716L66.0437 32.9002C65.4706 28.6305 61.8505 25.3271 57.4246 25.3271C52.5977 25.3271 48.6863 29.2375 48.6863 34.0612L45.3934 34.0612L22.3542 34.0612C23.3926 18.9017 40.4644 34.1955 75.3097 0" id="Fill-187" fill="#000000" fill-opacity="0.15" fill-rule="evenodd" stroke="none" />
      <path d="M30.8508 34.1957L30.8508 2.35628C30.8508 1.05533 31.9062 0.000189093 33.2075 0.000189093L75.3101 0.000189093L75.9569 32.7718L66.0441 32.8985C65.471 28.6307 61.8509 25.3272 57.4231 25.3272C52.5981 25.3272 48.6867 29.2377 48.6867 34.0614L45.3938 34.0614L22.3546 34.0614C22.3546 29.2377 18.4413 25.3272 13.6164 25.3272C8.7914 25.3272 4.87998 29.2377 4.87998 34.0614L4.42226 34.0614L2.69352 33.4204C1.47357 32.9704 0.580828 31.9096 0.342511 30.6313L0.0625841 29.1242C-0.200321 27.7117 0.378448 26.2746 1.54733 25.4407L2.53654 18.5861L8.7252 8.56608C9.52715 7.26702 10.6109 6.1457 11.9387 5.39122C13.6069 4.44576 15.504 3.9371 17.454 3.9371L27.573 3.9371L27.573 23.2699L30.8508 23.2699" id="Stroke-183" fill="none" fill-rule="evenodd" stroke="#000000" stroke-width="1" />
    </g>
  </g>
</svg>