<?xml version="1.0" encoding="utf-8"?>
<svg width="96" height="96" viewBox="0 0 96 96" version="1.1" xmlns:xlink="http://www.w3.org/1999/xlink" xmlns="http://www.w3.org/2000/svg">
  <defs>
    <path d="M-519 -7235L-519 -7235L-519 -7139L-615 -7139L-615 -7235L-519 -7235Z" id="path_1" />
    <clipPath id="clip_1">
      <use xlink:href="#path_1" />
    </clipPath>
  </defs>
  <g id="iconbodyvan" fill-opacity="1">
    <g clip-path="url(#clip_1)">
      <use xlink:href="#path_1" fill="none" stroke="#000000" stroke-width="2" />
    </g>
    <g id="Group-19" transform="translate(10 30)">
      <path d="M20.4963 28.3692C20.4963 24.5741 17.419 21.4994 13.6249 21.4994C9.82883 21.4994 6.75152 24.5741 6.75152 28.3692C6.75152 32.1643 9.82883 35.2389 13.6249 35.2389C17.419 35.2389 20.4963 32.1643 20.4963 28.3692" id="Fill-151" fill="#000000" fill-rule="evenodd" stroke="none" />
      <path d="M64.2626 28.3692C64.2626 24.5741 61.1853 21.4994 57.3911 21.4994C53.5951 21.4994 50.5178 24.5741 50.5178 28.3692C50.5178 32.1643 53.5951 35.2389 57.3911 35.2389C61.1853 35.2389 64.2626 32.1643 64.2626 28.3692" id="Fill-153" fill="#000000" fill-rule="evenodd" stroke="none" />
      <path d="M22.3542 28.2347L45.3934 28.2347L48.6882 28.2347C48.6882 23.411 52.5996 19.5006 57.4246 19.5006C61.8524 19.5006 65.4706 22.804 66.0437 27.0737L75.9584 26.9451L74.3526 2.2988C74.2354 0.997842 73.144 0.00132365 71.8371 0.00132365C54.7445 20.9395 24.0773 5.98989 22.3542 28.2347" id="Fill-157" fill="#000000" fill-opacity="0.15" fill-rule="evenodd" stroke="none" />
      <path d="M31.5722 2.02235L25.1055 2.02235C21.8031 2.02235 18.6331 3.32708 16.2897 5.65292L13.061 8.85615C12.2099 9.7014 12.8076 11.1517 14.0067 11.1517L31.5722 11.1517C32.1736 11.1517 32.6616 10.6639 32.6616 10.0607L32.6616 3.11152C32.6616 2.5102 32.1736 2.02235 31.5722 2.02235" id="Fill-159" fill="#000000" fill-rule="evenodd" stroke="none" />
      <path d="M32.4398 12.9837L28.3468 12.9837C28.2238 12.9837 28.1236 12.8834 28.1236 12.7605L28.1236 12.5147C28.1236 12.3918 28.2238 12.2916 28.3468 12.2916L32.4398 12.2916C32.5627 12.2916 32.6629 12.3918 32.6629 12.5147L32.6629 12.7605C32.6629 12.8834 32.5627 12.9837 32.4398 12.9837" id="Fill-161" fill="#000000" fill-rule="evenodd" stroke="none" />
      <path d="M16.2694 28.3692C16.2694 26.9094 15.0854 25.7238 13.6234 25.7238C12.1632 25.7238 10.9792 26.9094 10.9792 28.3692C10.9792 29.829 12.1632 31.0146 13.6234 31.0146C15.0854 31.0146 16.2694 29.829 16.2694 28.3692Z" id="Stroke-163" fill="none" fill-rule="evenodd" stroke="#FFFFFF" stroke-width="1" />
      <path d="M60.0359 28.3692C60.0359 26.9094 58.8518 25.7238 57.3898 25.7238C55.9296 25.7238 54.7456 26.9094 54.7456 28.3692C54.7456 29.829 55.9296 31.0146 57.3898 31.0146C58.8518 31.0146 60.0359 29.829 60.0359 28.3692Z" id="Stroke-165" fill="none" fill-rule="evenodd" stroke="#FFFFFF" stroke-width="1" />
      <path d="M74.353 2.29937C74.2357 0.998409 73.1444 0 71.8374 0L33.2491 0L23.1282 0C20.1795 0 17.35 1.1667 15.2581 3.24294L11.0535 7.41432C9.43826 9.01593 4.82513 12.412 4.82513 12.412C3.67516 12.6144 2.7654 13.505 2.53843 14.6509L1.54733 19.6146C0.378448 20.4485 -0.200321 21.8856 0.0625841 23.2962L0.342511 24.8052C0.580828 26.0834 1.47357 27.1424 2.69352 27.5943L4.42226 28.2353L4.87998 28.2353C4.87998 23.4116 8.7914 19.4992 13.6183 19.4992C18.4432 19.4992 22.3546 23.4116 22.3546 28.2353L45.3938 28.2353L48.6886 28.2353C48.6886 23.4116 52.6 19.4992 57.425 19.4992C61.8509 19.4992 65.471 22.8046 66.0441 27.0724L75.9588 26.9457L74.353 2.29937Z" id="Stroke-155" fill="none" fill-rule="evenodd" stroke="#000000" stroke-width="1" />
    </g>
  </g>
</svg>