<?xml version="1.0" encoding="utf-8"?>
<svg width="96" height="96" viewBox="0 0 96 96" version="1.1" xmlns:xlink="http://www.w3.org/1999/xlink" xmlns="http://www.w3.org/2000/svg">
  <defs>
    <path d="M13.8053 16.9735C10.5673 16.9735 7.94199 19.5981 7.94199 22.8354C7.94199 26.0727 10.5673 28.6973 13.8053 28.6973C17.0434 28.6973 19.6687 26.0727 19.6687 22.8354C19.6687 19.5981 17.0434 16.9735 13.8053 16.9735Z" id="path_1" />
    <path d="M60.6311 16.9735C57.393 16.9735 54.7678 19.5981 54.7678 22.8354C54.7678 26.0727 57.393 28.6973 60.6311 28.6973C63.8692 28.6973 66.4945 26.0727 66.4945 22.8354C66.4945 19.5981 63.8692 16.9735 60.6311 16.9735Z" id="path_2" />
    <clipPath id="clip_1">
      <use xlink:href="#path_1" />
    </clipPath>
    <clipPath id="clip_2">
      <use xlink:href="#path_2" />
    </clipPath>
  </defs>
  <g id="iconbodywagon" fill-opacity="1">
    <path d="M-25 -7235L-25 -7235L-25 -7139L-121 -7139L-121 -7235L-25 -7235Z" id="iconbodywagon" fill="none" stroke="none" />
    <g id="Group-16" transform="translate(6 34)">
      <path d="M21.4661 25.4122L53.0146 25.4122C52.398 23.4985 52.12 21.0838 53.8128 18.533C54.8985 16.8973 56.5837 15.6852 58.4827 15.1917C63.858 13.7943 68.6868 17.8125 68.6868 22.9558C68.6868 23.5193 68.6262 24.0696 68.5165 24.6009L69.3979 24.5537L83.7575 22.6438L83.7575 19.8623L82.5924 17.1639L81.5729 11.9242C59.1522 10.4719 35.6194 12.8791 21.4661 25.4122" id="Fill-71" fill="#000000" fill-opacity="0.15" fill-rule="evenodd" stroke="none" />
      <path d="M55.937 2.85757C55.7725 2.42076 55.3545 2.13334 54.8892 2.13334L41.4186 2.13334C39.9036 2.13334 36.4537 2.42265 35.0503 2.99371C32.7087 3.94863 30.6036 5.67316 27.218 7.96496C26.5863 8.39231 26.887 9.38126 27.6474 9.36424L56.5593 8.73835C57.3329 8.72133 57.8568 7.94605 57.5844 7.22371L55.937 2.85757Z" id="Fill-73" fill="#000000" fill-rule="evenodd" stroke="none" />
      <path d="M60.9489 8.64229L76.6683 8.3681C77.3057 8.35487 77.701 7.67792 77.404 7.11442C76.4546 5.3048 74.4989 2.13372 72.4618 2.13372L58.9724 2.13372C58.2593 2.13372 57.7619 2.83715 58.0058 3.50653C58.5846 5.08924 59.5284 7.09362 60.0107 8.07879C60.1866 8.43807 60.5498 8.65174 60.9489 8.64229" id="Fill-75" fill="#000000" fill-rule="evenodd" stroke="none" />
      <g id="Fill-77">
        <g clip-path="url(#clip_1)">
          <use xlink:href="#path_1" fill="none" stroke="#000000" stroke-width="2" />
        </g>
      </g>
      <g id="Fill-79">
        <g clip-path="url(#clip_2)">
          <use xlink:href="#path_2" fill="none" stroke="#000000" stroke-width="2" />
        </g>
      </g>
      <path d="M43.2995 10.7603L39.2065 10.7603C39.0835 10.7603 38.9833 10.6601 38.9833 10.5372L38.9833 10.2914C38.9833 10.1685 39.0835 10.0682 39.2065 10.0682L43.2995 10.0682C43.4224 10.0682 43.5226 10.1685 43.5226 10.2914L43.5226 10.5372C43.5226 10.6601 43.4224 10.7603 43.2995 10.7603" id="Fill-81" fill="#000000" fill-rule="evenodd" stroke="none" />
      <path d="M58.0955 10.7603L54.0025 10.7603C53.8796 10.7603 53.7793 10.6601 53.7793 10.5372L53.7793 10.2914C53.7793 10.1685 53.8796 10.0682 54.0025 10.0682L58.0955 10.0682C58.2184 10.0682 58.3187 10.1685 58.3187 10.2914L58.3187 10.5372C58.3187 10.6601 58.2184 10.7603 58.0955 10.7603" id="Fill-83" fill="#000000" fill-rule="evenodd" stroke="none" />
      <path d="M82.5918 17.1639L80.9387 8.65666C80.9387 8.65666 77.5644 0 73.0308 0L40.2055 0C38.5354 0 34.7318 0.319566 33.1865 0.947354C30.0827 2.21238 27.3572 4.70462 22.1029 8.03454C15.8348 8.23876 9.6556 9.35252 2.87115 12.8224L1.71739 16.9711L0 17.4495L0.262905 22.4056C0.389628 23.6214 1.30507 24.6066 2.508 24.8203L5.58341 25.3687C5.74229 25.397 5.90306 25.4122 6.06572 25.4122L6.21703 25.4122C5.5645 23.387 5.44912 21.116 7.48995 18.4025C9.02387 16.3603 11.3389 14.8948 13.8942 14.9118C18.3144 14.9402 21.8892 18.5311 21.8892 22.9558C21.8892 23.8181 21.7171 24.6331 21.4655 25.4122L21.6679 25.4122L53.0159 25.4122C52.3975 23.4985 52.1213 21.0838 53.8122 18.533C54.8979 16.8973 56.5831 15.6852 58.484 15.1917C63.8575 13.7943 68.6881 17.8125 68.6881 22.9558C68.6881 23.5193 68.6276 24.0696 68.516 24.6009L69.3974 24.5537L83.7569 22.6438L83.7569 19.8623L82.5918 17.1639Z" id="Stroke-69" fill="none" fill-rule="evenodd" stroke="#000000" stroke-width="1" />
    </g>
  </g>
</svg>