<svg width="32" height="32" viewBox="0 0 32 32" fill="none" xmlns="http://www.w3.org/2000/svg">
<path fill-rule="evenodd" clip-rule="evenodd" d="M21.3333 1.3335H10.6667V4.00016H21.3333V1.3335ZM16 5.3335C13.1667 5.3335 10.5627 6.31546 8.50975 7.95763L6.57191 6.01979L4.68629 7.9054L6.62413 9.84324C4.98196 11.8961 4 14.5002 4 17.3335C4 23.961 9.37259 29.3335 16 29.3335C22.6275 29.3335 28 23.961 28 17.3335C28 14.5002 27.018 11.8961 25.3759 9.84324L27.3137 7.9054L25.4281 6.01979L23.4903 7.95763C21.4373 6.31546 18.8333 5.3335 16 5.3335ZM25.3333 17.3335C25.3333 22.4882 21.1547 26.6668 16 26.6668C10.8453 26.6668 6.66667 22.4882 6.66667 17.3335C6.66667 12.1788 10.8453 8.00016 16 8.00016C21.1547 8.00016 25.3333 12.1788 25.3333 17.3335ZM17.3333 16.0002H21.3333L14.6667 24.6668V18.6668H10.6667L17.3333 9.99376V16.0002Z" fill="black"/>
</svg>
