<svg width="32" height="32" viewBox="0 0 32 32" fill="none" xmlns="http://www.w3.org/2000/svg">
<path fill-rule="evenodd" clip-rule="evenodd" d="M4.00655 4.00391H28.0066C28.743 4.00391 29.3399 4.60085 29.3399 5.33724V26.6705C29.3399 27.4069 28.743 28.0039 28.0066 28.0039H4.00655C3.27018 28.0039 2.67322 27.4069 2.67322 26.6705V5.33724C2.67322 4.60085 3.27018 4.00391 4.00655 4.00391ZM5.33988 6.67057V25.3372H26.6732V6.67057H5.33988ZM18.6732 18.6705H11.3399V21.3372H14.6732V24.0039H17.3399V21.3372H18.6732C20.5142 21.3372 22.0066 19.8448 22.0066 18.0039C22.0066 16.1629 20.5142 14.6705 18.6732 14.6705H13.3399C12.9717 14.6705 12.6732 14.3721 12.6732 14.0039C12.6732 13.6357 12.9717 13.3372 13.3399 13.3372H20.6732V10.6706H17.3399V8.00391H14.6732V10.6706H13.3399C11.4989 10.6706 10.0066 12.163 10.0066 14.0039C10.0066 15.8448 11.4989 17.3372 13.3399 17.3372H18.6732C19.0414 17.3372 19.3399 17.6357 19.3399 18.0039C19.3399 18.3721 19.0414 18.6705 18.6732 18.6705Z" fill="black"/>
</svg>
