<svg width="419" height="419" viewBox="0 0 419 419" fill="none" xmlns="http://www.w3.org/2000/svg">
<path fill-rule="evenodd" clip-rule="evenodd" d="M112.19 103.442C139.135 81.8882 173.312 69 210.5 69C247.688 69 281.865 81.8882 308.81 103.442L334.244 78.0076L358.993 102.756L333.558 128.19C355.111 155.135 368 189.312 368 226.5C368 313.485 297.485 384 210.5 384C123.515 384 53 313.485 53 226.5C53 189.312 65.8882 155.135 87.4417 128.19L62.0076 102.756L86.7563 78.0076L112.19 103.442Z" fill="#FFE52E"/>
<path fill-rule="evenodd" clip-rule="evenodd" d="M210 348C277.379 348 332 293.379 332 226C332 158.621 277.379 104 210 104C142.621 104 88 158.621 88 226C88 293.379 142.621 348 210 348Z" fill="white" stroke="black" stroke-width="3.5"/>
<path fill-rule="evenodd" clip-rule="evenodd" d="M189.673 263.237L283.129 169.782L297.507 184.159L189.673 291.993L124.973 227.293L139.35 212.916L189.673 263.237Z" fill="#FFE52E"/>
<path fill-rule="evenodd" clip-rule="evenodd" d="M140 17H280V51H140V17Z" fill="#FFE52E"/>
</svg>
