<?xml version="1.0" encoding="utf-8" ?>
<svg xmlns="http://www.w3.org/2000/svg" xmlns:xlink="http://www.w3.org/1999/xlink" width="96" height="96">
	<path fill="#FFD72F" transform="translate(2.96205 52.866)" d="M0 7.2508588C2.3762102 7.8538165 1.3991311 14.21944 1.3991311 14.21944L1.7730036 14.205999C1.6246109 10.282931 4.6984596 6.9820237 8.635684 6.8360848C12.572908 6.690146 15.885727 9.7510223 16.032192 13.67409L46.80344 12.527701L52.565701 12.312634C52.419235 8.3876457 55.491158 5.0886588 59.428383 4.9427199C61.27269 4.8735909 62.964752 5.5168743 64.265602 6.6171765C65.489357 5.4266224 67.125534 4.6508422 68.967911 4.5817132C72.573662 4.4472957 75.626312 7.0127478 76.235298 10.457674L86.921501 10.000654C88.731117 9.9219246 90.136032 8.4030075 90.068581 6.6018147L89.819977 0L4.6541343 3.7079999L0 7.2508588Z" fill-rule="evenodd"/>
	<path fill="#FFD72F" transform="translate(56.5971 39.8148)" d="M0 1.3307322L35.695187 0L36.059425 9.7202988L10.121538 10.688104C4.7331486 10.88781 0.20235367 6.6997471 0 1.3307322Z" fill-rule="evenodd"/>
	<path transform="translate(6.51557 59.7883)" d="M10.248732 5.1059408C10.248732 2.2870162 7.95539 0 5.1243658 0C2.2952688 0 0 2.2870162 0 5.1059408C0 7.9248657 2.2952688 10.211882 5.1243658 10.211882C7.95539 10.211882 10.248732 7.9248657 10.248732 5.1059408" fill-rule="evenodd"/>
	<path fill="none" stroke="white" stroke-width="0.96012431" stroke-miterlimit="10" transform="translate(9.66766 62.9279)" d="M3.9449329 1.9663346C3.9449329 0.88139409 3.0622857 0 1.9715029 0C0.88264745 0 0 0.88139409 0 1.9663346C0 3.051275 0.88264745 3.9326692 1.9715029 3.9326692C3.0622857 3.9326692 3.9449329 3.051275 3.9449329 1.9663346Z" fill-rule="evenodd"/>
	<path transform="translate(57.2986 59.7883)" d="M10.248732 5.1059408C10.248732 2.2870162 7.95539 0 5.1243658 0C2.2952688 0 0 2.2870162 0 5.1059408C0 7.9248657 2.2952688 10.211882 5.1243658 10.211882C7.95539 10.211882 10.248732 7.9248657 10.248732 5.1059408" fill-rule="evenodd"/>
	<path fill="none" stroke="white" stroke-width="0.96012431" stroke-miterlimit="10" transform="translate(60.4507 62.9279)" d="M3.9449329 1.9663346C3.9449329 0.88139409 3.0622857 0 1.9715029 0C0.88264745 0 0 0.88139409 0 1.9663346C0 3.051275 0.88264745 3.9326692 1.9715029 3.9326692C3.0622857 3.9326692 3.9449329 3.051275 3.9449329 1.9663346Z" fill-rule="evenodd"/>
	<path transform="translate(66.7426 59.7883)" d="M10.248732 5.1059408C10.248732 2.2870162 7.95539 0 5.1243658 0C2.2952688 0 0 2.2870162 0 5.1059408C0 7.9248657 2.2952688 10.211882 5.1243658 10.211882C7.95539 10.211882 10.248732 7.9248657 10.248732 5.1059408" fill-rule="evenodd"/>
	<path fill="none" stroke="white" stroke-width="0.96012431" stroke-miterlimit="10" transform="translate(69.8947 62.9279)" d="M3.9449329 1.9663346C3.9449329 0.88139409 3.0622857 0 1.9715029 0C0.88264745 0 0 0.88139409 0 1.9663346C0 3.051275 0.88264745 3.9326692 1.9715029 3.9326692C3.0622857 3.9326692 3.9449329 3.051275 3.9449329 1.9663346Z" fill-rule="evenodd"/>
	<path transform="translate(25.9514 51.1085)" d="M3.4902287 1.1808877L0.23907965 1.3018633C0.1138131 1.3076241 0.0097454982 1.2096914 0.0039639645 1.0848752L0.00010960894 0.97350085C-0.0037447468 0.84868467 0.094541319 0.74307102 0.2178807 0.73923051L3.4690297 0.61825484C3.5942962 0.61441433 3.7002909 0.71042675 3.7041454 0.83524293L3.7079997 0.94661736C3.7137814 1.0714335 3.6154952 1.1770471 3.4902287 1.1808877" fill-rule="evenodd"/>
	<path transform="translate(15.9716 43.3584)" d="M14.062652 6.3701053L13.858371 0.92620057C13.8391 0.39621195 13.390067 -0.018561741 12.858166 0.00064074522L6.5755663 0.23491107C6.4714985 0.23875158 6.3635769 0.25795406 6.2652907 0.29251853C3.4496839 1.2603238 1.8848155 3.2516215 0.12722927 6.3720255C-0.24471605 7.0306706 0.24478711 7.8486967 1.0002408 7.8198929L13.133753 7.3667145C13.667581 7.3475118 14.081923 6.9020143 14.062652 6.3701053" fill-rule="evenodd"/>
	<path fill="none" stroke="black" stroke-width="1" stroke-miterlimit="10" transform="translate(41.341 42.6063)" d="M7.6747971 0.0007723021L1.1127567 0.24464387C0.47486082 0.2696071 -0.022351045 0.80343622 0.00077508891 1.4390385L0.67528731 19.393362C0.69841343 20.028965 1.236096 20.52631 1.873992 20.501347L8.4360323 20.257475C9.0739279 20.232512 9.5711403 19.698683 9.5480137 19.06308L8.8735018 1.1087557C8.8503752 0.47315344 8.3126926 -0.022270681 7.6747971 0.0007723021Z" fill-rule="evenodd"/>
	<path transform="translate(43.0987 44.4037)" d="M4.2426219 0.0007723021L1.112885 0.11790746C0.47498912 0.14095044 -0.02414993 0.67669982 0.00090338127 1.3123021L0.1647135 5.6597447C0.18783963 6.2953472 0.72359508 6.7907715 1.3634181 6.7677283L4.493155 6.6505933C5.1310506 6.6275501 5.6282625 6.0918007 5.6051364 5.4561987L5.4413261 1.1087557C5.4182 0.47315344 4.8805175 -0.022270681 4.2426219 0.0007723021" fill-rule="evenodd"/>
	<path fill="none" stroke="black" stroke-width="1" stroke-miterlimit="10" transform="translate(2.96428 26.9601)" d="M83.634003 0.0037229834L19.081259 2.4097946C16.905474 2.4923651 14.872302 3.5043361 13.500152 5.1864738L11.035291 8.2089453C10.252857 9.1690693 10.104465 10.495961 10.657564 11.605865C11.204883 12.706167 12.343844 13.391696 13.577238 13.360972L25.872633 13.057573L25.059364 14.609134L20.121935 14.993183C18.530085 15.050791 16.997978 15.523172 15.666299 16.343119C14.604424 16.997923 10.913878 23.275215 10.297182 24.356316L7.9132628 25.08601L1.6460806 21.552753C1.4533628 21.443298 2.7021742 24.020271 2.7966058 24.218058L2.4458594 26.683657L4.3653283 29.848227L0.017615376 33.112648C-0.063326091 33.356522 0.14673629 33.594631 0.40112376 33.558147C3.2552741 33.135693 1.3994019 40.22525 1.3994019 40.22525L1.7752016 40.211807C1.6268089 36.288742 4.7006574 32.987831 8.6378813 32.841892C12.575106 32.695953 15.885998 35.756832 16.034389 39.679901L46.805637 38.533512L52.567902 38.318443C52.419506 34.395374 55.493355 31.094467 59.43058 30.948528C61.276817 30.8794 62.970806 31.524603 64.271652 32.626827C65.493484 31.438192 67.127731 30.662413 68.970108 30.595203C72.573936 30.460785 75.622726 33.022396 76.235573 36.463482L86.923698 36.006462C88.731392 35.929653 90.138229 34.410736 90.068855 32.609543L89.032028 4.9944491C88.926033 2.1313584 86.507431 -0.10381094 83.634003 0.0037229834Z" fill-rule="evenodd"/>
</svg>
