<?xml version="1.0" encoding="utf-8" ?>
<svg xmlns="http://www.w3.org/2000/svg" xmlns:xlink="http://www.w3.org/1999/xlink" width="96" height="96">
	<path fill="#FFD72F" transform="translate(1.95924 53.2037)" d="M1.7406678 0.55759948L1.2591577 3.9186316C0.30764741 4.5997133 -0.16235258 5.774724 0.050586194 6.9304404L0.27887189 8.1633329C0.47262701 9.2090731 1.1977699 10.075378 2.1895659 10.443896L3.5957291 10.966766L3.9678924 10.966766C3.9678924 7.0230522 7.1466269 3.8240905 11.069688 3.8240905C14.992749 3.8240905 18.171484 7.0230522 18.171484 10.966766L48.823158 10.966766L54.562912 10.966766C54.562912 7.0230522 57.743565 3.8240905 61.666626 3.8240905C63.502506 3.8240905 65.161896 4.5341134 66.414589 5.6879005C67.676872 4.537972 69.33242 3.8202317 71.168297 3.8202317C74.761406 3.8202317 77.70034 6.509829 78.176094 9.9924135L88.824951 9.9326019C90.626297 9.9229555 92.082344 8.4508152 92.082344 6.6371703L92.082344 0L1.7406678 0.55759948Z" fill-rule="evenodd"/>
	<path fill="#FFD72F" transform="translate(58.4843 40.0808)" d="M0 0L35.556938 0L35.556938 9.7743902L9.7184486 9.7743902C4.3508573 9.7743902 0 5.398489 0 0Z" fill-rule="evenodd"/>
	<path transform="translate(7.93298 59.7396)" d="M10.201878 5.130301C10.201878 2.2979271 7.9190202 0 5.1009388 0C2.2847755 0 0 2.2979271 0 5.130301C0 7.9626746 2.2847755 10.260602 5.1009388 10.260602C7.9190202 10.260602 10.201878 7.9626746 10.201878 5.130301" fill-rule="evenodd"/>
	<path transform="translate(27.5928 49.0061)" d="M3.4626532 1.2473634L0.22444898 1.2473634C0.099755101 1.2473634 0 1.1451048 0 1.0196931L0 0.90778738C0 0.78237569 0.099755101 0.68204641 0.22444898 0.68204641L3.4626532 0.68204641C3.587347 0.68204641 3.6890204 0.78237569 3.6890204 0.90778738L3.6890204 1.0196931C3.6890204 1.1451048 3.587347 1.2473634 3.4626532 1.2473634" fill-rule="evenodd"/>
	<path fill="none" stroke="white" stroke-width="0.95918369" stroke-miterlimit="10" transform="translate(11.0707 62.8942)" d="M3.926898 1.9757158C3.926898 0.88559914 3.0482857 0 1.9624898 0C0.87861222 0 0 0.88559914 0 1.9757158C0 3.0658324 0.87861222 3.9514315 1.9624898 3.9514315C3.0482857 3.9514315 3.926898 3.0658324 3.926898 1.9757158Z" fill-rule="evenodd"/>
	<path transform="translate(58.4839 59.7396)" d="M10.201878 5.130301C10.201878 2.2979271 7.9190202 0 5.1009388 0C2.2847755 0 0 2.2979271 0 5.130301C0 7.9626746 2.2847755 10.260602 5.1009388 10.260602C7.9190202 10.260602 10.201878 7.9626746 10.201878 5.130301" fill-rule="evenodd"/>
	<path fill="none" stroke="white" stroke-width="0.95918369" stroke-miterlimit="10" transform="translate(61.6216 62.8942)" d="M3.926898 1.9757158C3.926898 0.88559914 3.0482857 0 1.9624898 0C0.87861222 0 0 0.88559914 0 1.9757158C0 3.0658324 0.87861222 3.9514315 1.9624898 3.9514315C3.0482857 3.9514315 3.926898 3.0658324 3.926898 1.9757158Z" fill-rule="evenodd"/>
	<path transform="translate(67.8845 59.7396)" d="M10.201878 5.130301C10.201878 2.2979271 7.9190202 0 5.1009388 0C2.2847755 0 0 2.2979271 0 5.130301C0 7.9626746 2.2847755 10.260602 5.1009388 10.260602C7.9190202 10.260602 10.201878 7.9626746 10.201878 5.130301" fill-rule="evenodd"/>
	<path fill="none" stroke="white" stroke-width="0.95918369" stroke-miterlimit="10" transform="translate(71.0221 62.8942)" d="M3.926898 1.9757158C3.926898 0.88559914 3.0482857 0 1.9624898 0C0.87861222 0 0 0.88559914 0 1.9757158C0 3.0658324 0.87861222 3.9514315 1.9624898 3.9514315C3.0482857 3.9514315 3.926898 3.0658324 3.926898 1.9757158Z" fill-rule="evenodd"/>
	<path transform="translate(17.734 41.2639)" d="M14.006673 6.4403701L14.006673 0.96663439C14.006673 0.43411723 13.576959 0 13.045571 0L6.7878566 0C6.6842651 0 6.5768366 0.015435279 6.4770813 0.046305839C3.639816 0.91261089 2.0092037 2.8535972 0.14455065 5.9213591C-0.24871466 6.5677114 0.2059384 7.4070048 0.95985675 7.4070048L13.045571 7.4070048C13.576959 7.4070048 14.006673 6.9748168 14.006673 6.4403701" fill-rule="evenodd"/>
	<path fill="none" stroke="black" stroke-width="1" stroke-miterlimit="10" transform="translate(43.2014 41.2645)" d="M7.6868978 0L1.1510204 0C0.51412243 0 0 0.51901126 0 1.1576459L0 19.209206C0 19.84977 0.51412243 20.366852 1.1510204 20.366852L7.6868978 20.366852C8.3218775 20.366852 8.8379183 19.84977 8.8379183 19.209206L8.8379183 1.1576459C8.8379183 0.51901126 8.3218775 0 7.6868978 0Z" fill-rule="evenodd"/>
	<path transform="translate(44.8869 43.0066)" d="M4.2683673 0L1.1510204 0C0.5160408 0 0 0.51901126 0 1.1576459L0 5.5277596C0 6.1683235 0.5160408 6.6854053 1.1510204 6.6854053L4.2683673 6.6854053C4.903347 6.6854053 5.4193878 6.1683235 5.4193878 5.5277596L5.4193878 1.1576459C5.4193878 0.51901126 4.903347 0 4.2683673 0" fill-rule="evenodd"/>
	<path fill="none" stroke="black" stroke-width="1" stroke-miterlimit="10" transform="translate(1.95935 26.9645)" d="M86.897652 0L22.593979 0C20.428143 0 18.367815 0.93962264 16.938631 2.5796211L14.375692 5.5200419C13.560387 6.4558058 13.364713 7.7832394 13.871162 8.9177322C14.375692 10.042579 15.482591 10.771895 16.710346 10.78926L28.953365 10.945542L28.084345 12.473635L23.159897 12.672364C21.575325 12.672364 20.032959 13.089117 18.676672 13.86281C17.596632 14.478292 13.690836 20.644686 13.03859 21.705862L2.063611 24.652071L1.2578968 30.257006C0.308305 30.940018 -0.16361336 32.115028 0.051243775 33.268814L0.27952948 34.501709C0.47136623 35.547447 1.1984274 36.413754 2.1902235 36.784199L3.5944684 37.307072L3.9666314 37.307072C3.9666314 33.361427 7.1472845 30.164394 11.068427 30.164394C14.991488 30.164394 18.172142 33.361427 18.172142 37.307072L48.823814 37.307072L54.563572 37.307072C54.563572 33.361427 57.742306 30.164394 61.665367 30.164394C63.505081 30.164394 65.164467 30.876347 66.419083 32.030132C67.679451 30.884064 69.333084 30.166325 71.167038 30.166325C74.758224 30.166325 77.695244 32.853992 78.17675 36.330788L88.825615 36.272907C90.626961 36.26133 92.081078 34.789188 92.081078 32.977474L92.081078 5.2132654C92.081078 2.3345859 89.759857 0 86.897652 0Z" fill-rule="evenodd"/>
	<path fill="none" stroke="black" stroke-width="1" stroke-miterlimit="10" transform="translate(1.95995 36.4211)" d="M0 0L0.032612246 0.032799967C3.0847347 3.1024911 3.0847347 8.080369 0.032612246 11.15006L0.032612246 11.15006" fill-rule="evenodd"/>
	<path fill="none" stroke="black" stroke-width="1" stroke-miterlimit="10" transform="translate(9.06817 31.5168)" d="M2.3217041 11.15006L2.2890918 11.11726C-0.76303059 8.0475683 -0.76303059 3.0696912 2.2890918 0L2.2890918 0" fill-rule="evenodd"/>
</svg>
