<?xml version="1.0" encoding="utf-8" ?>
<svg xmlns="http://www.w3.org/2000/svg" xmlns:xlink="http://www.w3.org/1999/xlink" width="96" height="96">
	<path fill="#FFD72F" transform="translate(50.0752 32.2798)" d="M9.7574863 39.542191L10.957697 38.343708L15.025721 34.281548C12.246386 31.504299 12.246386 27.002314 15.025721 24.225065C16.327873 22.924789 18.005091 22.248724 19.707314 22.173819C19.791945 20.472128 20.45937 18.793488 21.759598 17.495132C24.3062 14.952202 28.28767 14.763979 31.080469 16.876686L38.587559 9.2978306C39.857014 8.0148411 39.851242 5.9482298 38.574093 4.6729231L33.894424 0L0 34.264263C1.0801703 34.627556 1.8671604 34.989101 2.3609707 35.348896C4.0839806 36.604309 5.5336618 38.249367 6.6529303 38.85479C8.2533674 39.720486 9.2882195 39.949615 9.7574863 39.542191Z" fill-rule="evenodd"/>
	<path fill="#FFD72F" transform="translate(49.5107 23.0431)" d="M0 25.171942L25.208281 0L32.097954 6.8797417L13.779347 25.171942C9.9748316 28.970972 3.8045156 28.970972 0 25.171942Z" fill-rule="evenodd"/>
	<path transform="translate(65.4864 56.9464)" d="M8.7308626 1.4952202C6.7343578 -0.49840674 3.4953265 -0.49840674 1.4988214 1.4952202C-0.49960715 3.4888473 -0.49960715 6.7232094 1.4988214 8.716836C3.4953265 10.712384 6.7343578 10.712384 8.7308626 8.716836C10.727368 6.7232094 10.727368 3.4888473 8.7308626 1.4952202" fill-rule="evenodd"/>
	<path fill="none" stroke="white" stroke-width="0.96032125" stroke-miterlimit="10" transform="translate(68.6329 60.0865)" d="M3.3602066 0.57619274C2.5908403 -0.19206426 1.3444673 -0.19206426 0.57702458 0.57619274C-0.19234154 1.3444498 -0.19234154 2.5890262 0.57702458 3.3553624C1.3444673 4.1236196 2.5908403 4.1236196 3.3602066 3.3553624C4.1295729 2.5890262 4.1295729 1.3444498 3.3602066 0.57619274Z" fill-rule="evenodd"/>
	<path transform="translate(72.1511 50.2914)" d="M8.7308626 1.4952202C6.7343578 -0.49840674 3.4953265 -0.49840674 1.4988214 1.4952202C-0.49960715 3.4888473 -0.49960715 6.7232094 1.4988214 8.716836C3.4953265 10.712384 6.7343578 10.712384 8.7308626 8.716836C10.727368 6.7232094 10.727368 3.4888473 8.7308626 1.4952202" fill-rule="evenodd"/>
	<path fill="none" stroke="white" stroke-width="0.96032125" stroke-miterlimit="10" transform="translate(75.2975 53.4315)" d="M3.3602066 0.57619274C2.5908403 -0.19206426 1.3444673 -0.19206426 0.57702458 0.57619274C-0.19234154 1.3444498 -0.19234154 2.5890262 0.57702458 3.3553624C1.3444673 4.1236196 2.5908403 4.1236196 3.3602066 3.3553624C4.1295729 2.5890262 4.1295729 1.3444498 3.3602066 0.57619274Z" fill-rule="evenodd"/>
	<path fill="none" stroke="black" stroke-width="1" stroke-miterlimit="10" transform="translate(39.9873 54.088)" d="M16.953465 17.046663L19.328882 14.674669C19.780884 14.223318 19.780884 13.493474 19.328882 13.044044L6.6054893 0.33707276C6.1534867 -0.11235759 5.4225888 -0.11235759 4.9725094 0.33707276L0.33900195 4.9658213C-0.11300065 5.4152517 -0.11300065 6.1450958 0.33900195 6.5945263L6.2592745 12.506264" fill-rule="evenodd"/>
	<path transform="translate(42.4115 56.5418)" d="M2.5475636 0.33707276L0.3375594 2.543891C-0.11251979 2.9933214 -0.11251979 3.7231655 0.3375594 4.1745167L3.4188707 7.2513857C3.8689499 7.7008162 4.5998478 7.7008162 5.0499268 7.2513857L7.2599311 5.0426469C7.7119336 4.5932164 7.7119336 3.8633726 7.2599311 3.4139421L4.1805434 0.33707276C3.7285407 -0.11235759 2.9976428 -0.11235759 2.5475636 0.33707276" fill-rule="evenodd"/>
	<path fill="none" stroke="black" stroke-width="1" stroke-miterlimit="10" transform="translate(14.0018 15.9597)" d="M45.901615 55.932953L47.10183 54.73447L51.169853 50.672314C48.390518 47.895061 48.390518 43.393078 51.169853 40.615829C52.473927 39.313633 54.153069 38.639488 55.855293 38.564583C55.941845 36.864815 56.609272 35.188091 57.9095 33.889736C60.454178 31.348728 64.431801 31.160505 67.222679 33.267448L74.731689 25.688595C76.001144 24.405605 75.995377 22.338993 74.718224 21.063686L55.147476 1.5211489C53.116348 -0.50704962 49.825386 -0.50704962 47.796181 1.5211489L2.207391 47.04422C0.6725055 48.576893 -0.12763526 50.697281 0.016620899 52.861843L0.19934535 55.652538" fill-rule="evenodd"/>
	<path fill="none" stroke="black" stroke-width="1" stroke-miterlimit="10" transform="translate(1.67993 63.3483)" d="M0 0L6.0376005 6.0288968C9.099678 9.0865602 14.060166 9.0865602 17.122244 6.0288968L18.014708 5.1377187C21.074862 2.0819764 26.037273 2.0819764 29.097427 5.1377187L29.591745 5.6313238C32.651897 8.6870661 37.614311 8.6870661 40.674465 5.6313238L41.032219 5.2740846C44.092373 2.2183421 49.054783 2.2183421 52.114937 5.2740846L53.111267 6.2689772C56.173344 9.3247194 61.135757 9.3247194 64.195908 6.2689772L64.226685 6.2363262C67.288765 3.180584 72.251175 3.180584 75.311325 6.2363262L75.311325 6.2363262C78.371483 9.2920685 83.333893 9.2920685 86.394043 6.2363262L92.639374 0" fill-rule="evenodd"/>
	<path fill="none" stroke="black" stroke-width="1" stroke-miterlimit="10" transform="translate(65.3967 77.7473)" d="M0 2.3244576L0.032698061 2.2918067C3.0928519 -0.76393557 8.0552635 -0.76393557 11.115417 2.2918067L11.115417 2.2918067" fill-rule="evenodd"/>
	<path fill="none" stroke="black" stroke-width="1" stroke-miterlimit="10" transform="translate(42.5367 77.7473)" d="M0 2.3244576L0.032698061 2.2918067C3.0928519 -0.76393557 8.0552635 -0.76393557 11.115417 2.2918067L11.115417 2.2918067" fill-rule="evenodd"/>
	<path fill="none" stroke="black" stroke-width="1" stroke-miterlimit="10" transform="translate(18.3229 76.6496)" d="M0 3.1829848L0.8924647 2.2918067C3.9526186 -0.76393557 8.9150305 -0.76393557 11.975183 2.2918067L12.469501 2.7854118" fill-rule="evenodd"/>
</svg>
