<?xml version="1.0" encoding="utf-8" ?>
<svg xmlns="http://www.w3.org/2000/svg" xmlns:xlink="http://www.w3.org/1999/xlink" width="96" height="96">
	<path fill="#FFD72F" transform="translate(1.95924 51.821)" d="M1.7406678 0.54975456L1.2591577 3.8635001C0.30764741 4.5349994 -0.16235258 5.6934791 0.050586194 6.8329358L0.27887189 8.0484829C0.47262701 9.0795107 1.1977699 9.9336271 2.1895659 10.29696L3.5957291 10.812474L3.9678924 10.812474C3.9678924 6.9242444 7.1466269 3.7702892 11.069688 3.7702892C14.992749 3.7702892 18.171484 6.9242444 18.171484 10.812474L48.823158 10.812474L54.562912 10.812474C54.562912 6.9242444 57.743565 3.7702892 61.666626 3.7702892C63.502506 3.7702892 65.161896 4.4703226 66.414589 5.6078773C67.676872 4.4741273 69.33242 3.7664845 71.168297 3.7664845C74.761406 3.7664845 77.70034 6.418242 78.176094 9.8518305L88.824951 9.79286C90.626297 9.783349 92.082344 8.3319206 92.082344 6.5437913L92.082344 0L1.7406678 0.54975456Z" fill-rule="evenodd"/>
	<path fill="#FFD72F" transform="translate(58.4843 38.8827)" d="M0 0L35.556938 0L35.556938 9.6368742L9.7184486 9.6368742C4.3508573 9.6368742 0 5.3225374 0 0Z" fill-rule="evenodd"/>
	<path transform="translate(27.5928 47.6824)" d="M3.4626532 1.2298143L0.22444898 1.2298143C0.099755101 1.2298143 0 1.1289942 0 1.005347L0 0.89501566C0 0.77136844 0.099755101 0.67245066 0.22444898 0.67245066L3.4626532 0.67245066C3.587347 0.67245066 3.6890204 0.77136844 3.6890204 0.89501566L3.6890204 1.005347C3.6890204 1.1289942 3.587347 1.2298143 3.4626532 1.2298143" fill-rule="evenodd"/>
	<path transform="translate(17.734 40.0492)" d="M14.006673 6.3497605L14.006673 0.95303476C14.006673 0.4280096 13.576959 0 13.045571 0L6.7878566 0C6.6842651 0 6.5768366 0.015218119 6.4770813 0.04565436C3.639816 0.89977133 2.0092037 2.8134499 0.14455065 5.8380513C-0.24871466 6.4753098 0.2059384 7.3027949 0.95985675 7.3027949L13.045571 7.3027949C13.576959 7.3027949 14.006673 6.8766875 14.006673 6.3497605" fill-rule="evenodd"/>
	<path fill="none" stroke="black" stroke-width="1" stroke-miterlimit="10" transform="translate(43.2014 40.05)" d="M7.6868978 0L1.1510204 0C0.51412243 0 0 0.51170927 0 1.141359L0 18.93895C0 19.5686 0.51412243 20.080309 1.1510204 20.080309L7.6868978 20.080309C8.3218775 20.080309 8.8379183 19.5686 8.8379183 18.93895L8.8379183 1.141359C8.8379183 0.51170927 8.3218775 0 7.6868978 0Z" fill-rule="evenodd"/>
	<path transform="translate(44.8869 41.7673)" d="M4.2683673 0L1.1510204 0C0.5160408 0 0 0.51170927 0 1.141359L0 5.4499888C0 6.0815411 0.5160408 6.5913482 1.1510204 6.5913482L4.2683673 6.5913482C4.903347 6.5913482 5.4193878 6.0815411 5.4193878 5.4499888L5.4193878 1.141359C5.4193878 0.51170927 4.903347 0 4.2683673 0" fill-rule="evenodd"/>
	<path fill="none" stroke="black" stroke-width="1" stroke-miterlimit="10" transform="translate(1.95935 25.9511)" d="M86.897652 0L22.593979 0C20.428143 0 18.367815 0.92640305 16.938631 2.5433283L14.375692 5.44238C13.560387 6.3649783 13.364713 7.6737366 13.871162 8.7922688C14.375692 9.901289 15.482591 10.620345 16.710346 10.637465L28.953365 10.791549L28.084345 12.298142L23.159897 12.494076C21.575325 12.494076 20.032959 12.904965 18.676672 13.667773C17.596632 14.274596 13.690836 20.354235 13.03859 21.40048L2.063611 24.305239L1.2578968 29.831318C0.308305 30.504721 -0.16361336 31.6632 0.051243775 32.800755L0.27952948 34.0163C0.47136623 35.047329 1.1984274 35.901447 2.1902235 36.266682L3.5944684 36.782196L3.9666314 36.782196C3.9666314 32.892063 7.1472845 29.740009 11.068427 29.740009C14.991488 29.740009 18.172142 32.892063 18.172142 36.782196L48.823814 36.782196L54.563572 36.782196C54.563572 32.892063 57.742306 29.740009 61.665367 29.740009C63.505081 29.740009 65.164467 30.441946 66.419083 31.5795C67.679451 30.449554 69.333084 29.741913 71.167038 29.741913C74.758224 29.741913 77.695244 32.391766 78.17675 35.819649L88.825615 35.762581C90.626961 35.751167 92.081078 34.29974 92.081078 32.513512L92.081078 5.1399198C92.081078 2.3017406 89.759857 0 86.897652 0Z" fill-rule="evenodd"/>
	<path fill="none" stroke="black" stroke-width="1.9183674" stroke-miterlimit="10" transform="translate(11.9644 61.1482)" d="M2.4459183 1.213645C2.4459183 0.54404777 1.8991836 0 1.222 0C0.54673469 0 0 0.54404777 0 1.213645C0 1.8832422 0.54673469 2.42729 1.222 2.42729C1.8991836 2.42729 2.4459183 1.8832422 2.4459183 1.213645Z" fill-rule="evenodd"/>
	<path transform="translate(8.45286 65.1087)" d="M0 0L8.3046122 0L8.3046122 2.4177787L0 2.4177787L0 0Z"/>
	<path transform="translate(9.42931 68.5822)" d="M0 0L8.3046122 0L8.3046122 2.4177787L0 2.4177787L0 0Z"/>
	<path fill="none" stroke="black" stroke-width="1.9183674" stroke-miterlimit="10" transform="translate(62.3534 61.1482)" d="M2.4459183 1.213645C2.4459183 0.54404777 1.8991836 0 1.222 0C0.54673469 0 0 0.54404777 0 1.213645C0 1.8832422 0.54673469 2.42729 1.222 2.42729C1.8991836 2.42729 2.4459183 1.8832422 2.4459183 1.213645Z" fill-rule="evenodd"/>
	<path transform="translate(58.8407 65.1087)" d="M0 0L17.177061 0L17.177061 2.4177787L0 2.4177787L0 0Z"/>
	<path transform="translate(59.8171 68.5822)" d="M0 0L8.3046122 0L8.3046122 2.4177787L0 2.4177787L0 0Z"/>
	<path fill="none" stroke="black" stroke-width="1.9183674" stroke-miterlimit="10" transform="translate(71.6349 61.1482)" d="M2.4459183 1.213645C2.4459183 0.54404777 1.8991836 0 1.222 0C0.54673469 0 0 0.54404777 0 1.213645C0 1.8832422 0.54673469 2.42729 1.222 2.42729C1.8991836 2.42729 2.4459183 1.8832422 2.4459183 1.213645Z" fill-rule="evenodd"/>
	<path transform="translate(69.1001 68.5822)" d="M0 0L8.3046122 0L8.3046122 2.4177787L0 2.4177787L0 0Z"/>
</svg>
