<?xml version="1.0" encoding="utf-8" ?>
<svg xmlns="http://www.w3.org/2000/svg" xmlns:xlink="http://www.w3.org/1999/xlink" width="96" height="96">
	<path fill="#FFD72F" transform="translate(12.6582 36.6914)" d="M71.472847 9.6556025L2.1597722 9.6556025L0 0L71.472847 0L71.472847 9.6556025Z" fill-rule="evenodd"/>
	<path fill="#FFD72F" transform="translate(11.0537 49.3599)" d="M0 0L75.63826 0L75.63826 2.5807071L0 2.5807071L0 0Z"/>
	<path transform="translate(24.1247 57.4709)" d="M10.579223 5.2649488C10.579223 2.3582983 8.2113724 0 5.2886481 0C2.3678501 0 0 2.3582983 0 5.2649488C0 8.1715994 2.3678501 10.529898 5.2886481 10.529898C8.2113724 10.529898 10.579223 8.1715994 10.579223 5.2649488" fill-rule="evenodd"/>
	<path fill="none" stroke="white" stroke-width="0.95865786" stroke-miterlimit="10" transform="translate(27.3775 60.7092)" d="M4.0729332 2.0266027C4.0729332 0.90689033 3.161629 0 2.0364666 0C0.91130435 0 0 0.90689033 0 2.0266027C0 3.1463151 0.91130435 4.0532055 2.0364666 4.0532055C3.161629 4.0532055 4.0729332 3.1463151 4.0729332 2.0266027Z" fill-rule="evenodd"/>
	<path transform="translate(59.7765 57.4709)" d="M10.579223 5.2649488C10.579223 2.3582983 8.2113724 0 5.2886481 0C2.3678501 0 0 2.3582983 0 5.2649488C0 8.1715994 2.3678501 10.529898 5.2886481 10.529898C8.2113724 10.529898 10.579223 8.1715994 10.579223 5.2649488" fill-rule="evenodd"/>
	<path fill="none" stroke="white" stroke-width="0.95865786" stroke-miterlimit="10" transform="translate(63.0291 60.7092)" d="M4.0729332 2.0266027C4.0729332 0.90689033 3.161629 0 2.0364666 0C0.91130435 0 0 0.90689033 0 2.0266027C0 3.1463151 0.91130435 4.0532055 2.0364666 4.0532055C3.161629 4.0532055 4.0729332 3.1463151 4.0729332 2.0266027Z" fill-rule="evenodd"/>
	<path fill="none" stroke="black" stroke-width="1" stroke-miterlimit="10" transform="translate(9.12381 28.9581)" d="M63.249916 33.163811C62.766331 29.582264 59.716446 25.833912 55.982601 25.833912C51.915447 25.833912 48.618954 29.116358 48.618954 33.163811L27.649321 33.163811C27.649321 29.116358 24.352827 25.833912 20.283747 25.833912C16.216593 25.833912 12.920099 29.116358 12.920099 33.163811L12.532844 33.163811L4.9688244 33.161892L1.930501 20.40024L5.714437 16.960575L3.7222834 8.5914917L0 6.4249253L1.1136024 2.3659678L4.6721206 0L77.568764 0L75.212471 7.5561414L75.391655 17.19257L77.568764 19.809706L75.755791 33.163811L63.249916 33.163811Z" fill-rule="evenodd"/>
	<path fill="none" stroke="black" stroke-width="1" stroke-miterlimit="10" transform="translate(39.4548 34.6949)" d="M7.6314516 0L1.246541 0C0.55872786 0 0 0.55602157 0 1.2405033L0 22.277292C0 22.961773 0.55872786 23.515879 1.246541 23.515879L7.6314516 23.515879C8.3192644 23.515879 8.8779926 22.961773 8.8779926 22.277292L8.8779926 1.2405033C8.8779926 0.55602157 8.3192644 0 7.6314516 0Z" fill-rule="evenodd"/>
	<path transform="translate(41.1486 36.692)" d="M4.0498133 0L1.3929663 0C0.62423384 0 0 0.62121028 0 1.3862193L0 8.2674656C0 9.0343914 0.62423384 9.6556025 1.3929663 9.6556025L4.0498133 9.6556025C4.8185458 9.6556025 5.4427795 9.0343914 5.4427795 8.2674656L5.4427795 1.3862193C5.4427795 0.62121028 4.8185458 0 4.0498133 0" fill-rule="evenodd"/>
	<path transform="translate(17.0832 36.6914)" d="M15.085873 9.6556025L2.9113858 9.6556025C2.2582521 9.6556025 1.6918176 9.2031155 1.5511724 8.5665665L0.032974012 1.6853205C-0.15776411 0.81869382 0.50307608 0 1.3931873 0L15.085873 0C15.854605 0 16.478838 0.62121028 16.478838 1.3881366L16.478838 8.2693825C16.478838 9.0343914 15.854605 9.6556025 15.085873 9.6556025" fill-rule="evenodd"/>
</svg>
