<?xml version="1.0" encoding="utf-8" ?>
<svg xmlns="http://www.w3.org/2000/svg" xmlns:xlink="http://www.w3.org/1999/xlink" width="96" height="96">
	<path fill="#FFD72F" transform="translate(4.14187 50.5396)" d="M0 7.2036748C2.3715217 7.8027091 1.3963704 14.126909 1.3963704 14.126909L1.7695051 14.113555C1.6214054 10.216017 4.689189 6.9365892 8.6186447 6.7916002C12.5481 6.6466107 15.854382 9.6875687 16.000559 13.585108L46.71109 12.446179L52.461983 12.232511C52.315807 8.3349724 55.381664 5.0555449 59.311123 4.9105558C61.151791 4.8418765 62.840515 5.4809737 64.138794 6.5741162C65.360138 5.3913093 66.99308 4.6205773 68.831825 4.551898C72.430466 4.4183555 75.477089 6.9671135 76.084877 10.389622L86.749992 9.9355764C88.556038 9.8573589 89.958183 8.350234 89.890862 6.5588541L89.642746 0L4.6449513 3.6838708L0 7.2036748Z" fill-rule="evenodd"/>
	<path fill="#FFD72F" transform="translate(57.6711 37.5734)" d="M0 1.3220727L35.624756 0L35.988274 9.6570444L10.101566 10.618552C4.7238097 10.816958 0.20195439 6.6561494 0 1.3220727Z" fill-rule="evenodd"/>
	<path transform="translate(58.3712 57.4169)" d="M10.228509 5.0727148C10.228509 2.2721336 7.939693 0 5.1142545 0C2.2907398 0 0 2.2721336 0 5.0727148C0 7.8732958 2.2907398 10.14543 5.1142545 10.14543C7.939693 10.14543 10.228509 7.8732958 10.228509 5.0727148" fill-rule="evenodd"/>
	<path fill="none" stroke="white" stroke-width="0.96168762" stroke-miterlimit="10" transform="translate(61.5171 60.5361)" d="M3.937149 1.9535389C3.937149 0.87565851 3.0562432 0 1.9676129 0C0.88090587 0 0 0.87565851 0 1.9535389C0 3.0314193 0.88090587 3.9070778 1.9676129 3.9070778C3.0562432 3.9070778 3.937149 3.0314193 3.937149 1.9535389Z" fill-rule="evenodd"/>
	<path transform="translate(67.7964 57.4169)" d="M10.228509 5.0727148C10.228509 2.2721336 7.939693 0 5.1142545 0C2.2907398 0 0 2.2721336 0 5.0727148C0 7.8732958 2.2907398 10.14543 5.1142545 10.14543C7.939693 10.14543 10.228509 7.8732958 10.228509 5.0727148" fill-rule="evenodd"/>
	<path fill="none" stroke="white" stroke-width="0.96168762" stroke-miterlimit="10" transform="translate(70.9422 60.5361)" d="M3.937149 1.9535389C3.937149 0.87565851 3.0562432 0 1.9676129 0C0.88090587 0 0 0.87565851 0 1.9535389C0 3.0314193 0.88090587 3.9070778 1.9676129 3.9070778C3.0562432 3.9070778 3.937149 3.0314193 3.937149 1.9535389Z" fill-rule="evenodd"/>
	<path transform="translate(27.0859 48.7937)" d="M3.4833419 1.1732032L0.23860791 1.2933916C0.11358853 1.2991149 0.0097262692 1.2018195 0.0039561433 1.0778155L0.00010939266 0.96716589C-0.0037373577 0.84316194 0.094354779 0.73823553 0.2174508 0.73442006L3.4621847 0.61423165C3.5872042 0.61041611 3.6929898 0.70580375 3.6968365 0.8298077L3.7006834 0.94045734C3.7064533 1.0644612 3.6083612 1.1693877 3.4833419 1.1732032" fill-rule="evenodd"/>
	<path transform="translate(17.1258 41.0939)" d="M14.034904 6.3286529L13.831027 0.92017341C13.811793 0.39363366 13.363647 -0.018440953 12.832795 0.00063657569L6.5625916 0.23338242C6.4587293 0.23719792 6.3510203 0.25627545 6.2529283 0.29061499C3.4428771 1.2521224 1.8810965 3.2304621 0.12697823 6.3305602C-0.24423319 6.9849195 0.24430412 7.7976222 0.99826717 7.7690063L13.107838 7.3187766C13.640613 7.2996988 14.054138 6.8571 14.034904 6.3286529" fill-rule="evenodd"/>
	<path fill="none" stroke="black" stroke-width="1" stroke-miterlimit="10" transform="translate(42.4451 40.3469)" d="M7.6596537 0.00076727639L1.110561 0.24305189C0.47392386 0.26785266 -0.022306943 0.79820794 0.00077355956 1.4296741L0.6739549 19.267162C0.69703537 19.898628 1.2336571 20.392736 1.8702942 20.367937L8.4193869 20.125652C9.0560236 20.100851 9.5522547 19.570496 9.5291748 18.93903L8.8559933 1.1015407C8.8329124 0.47007447 8.2962904 -0.022125758 7.6596537 0.00076727639Z" fill-rule="evenodd"/>
	<path transform="translate(44.1993 42.1326)" d="M4.2342505 0.00076727639L1.110689 0.1171402C0.47405189 0.14003323 -0.02410228 0.67229629 0.00090159872 1.3037624L0.16438849 5.6229148C0.18746899 6.2543812 0.72216731 6.7465811 1.3607279 6.7236881L4.4842892 6.6073151C5.1209264 6.5844221 5.6171575 6.0521593 5.5940766 5.4206929L5.4305897 1.1015407C5.4075093 0.47007447 4.8708878 -0.022125758 4.2342505 0.00076727639" fill-rule="evenodd"/>
	<path fill="none" stroke="black" stroke-width="1" stroke-miterlimit="10" transform="translate(4.14391 24.8025)" d="M83.468987 0.0036987565L19.043608 2.3941131C16.872118 2.4761465 14.842957 3.4815321 13.473514 5.1527238L11.013516 8.1555262C10.232626 9.1094027 10.084526 10.42766 10.636536 11.530341C11.182774 12.623484 12.319489 13.304551 13.550448 13.274027L25.821583 12.972603L25.009918 14.514067L20.082232 14.895617C18.493523 14.952849 16.964439 15.422157 15.635387 16.236767C14.575607 16.887312 10.892344 23.123755 10.276864 24.197821L7.8976488 24.922766L1.6428326 21.4125C1.4504951 21.303759 2.6968422 23.863964 2.7910876 24.060461L2.4410334 26.510015L4.3567152 29.653994L0.017580617 32.897171C-0.063201144 33.139458 0.14644675 33.376019 0.40033227 33.339771C3.2488511 32.920067 1.3966407 39.96349 1.3966407 39.96349L1.7716988 39.950134C1.6235989 36.052597 4.6913824 32.77317 8.6208382 32.628181C12.550294 32.483189 15.854652 35.524147 16.002752 39.421688L46.713284 38.282761L52.464176 38.069092C52.316074 34.171551 55.383858 30.892124 59.313316 30.747135C61.155907 30.678455 62.846554 31.319462 64.144836 32.414513C65.36425 31.233612 66.995277 30.462881 68.834023 30.396109C72.430733 30.262566 75.473511 32.807507 76.085144 36.2262L86.75219 35.772156C88.556313 35.695847 89.960373 34.186813 89.891136 32.397343L88.856361 4.9619484C88.750572 2.1174889 86.336739 -0.1031354 83.468987 0.0036987565Z" fill-rule="evenodd"/>
	<path fill="none" stroke="black" stroke-width="1" stroke-miterlimit="10" transform="translate(2.92957 21.922)" d="M0 0L0.03269738 0.032431796C3.0927873 3.0676665 3.0927873 7.9896688 0.03269738 11.024903L0.03269738 11.024903" fill-rule="evenodd"/>
	<path fill="none" stroke="black" stroke-width="1" stroke-miterlimit="10" transform="translate(8.42725 31.3808)" d="M2.3277647 11.024903L2.2950675 10.992472C-0.76502252 7.9572368 -0.76502252 3.0352347 2.2950675 0L2.2950675 0" fill-rule="evenodd"/>
	<path transform="translate(12.9405 66.7141)" d="M13.63096 2.0947125C13.63096 0.9367066 10.580487 0 6.8164415 0C3.050473 0 0 0.9367066 0 2.0947125L0 4.189425C0 5.3474312 3.050473 6.2860456 6.8164415 6.2860456C10.580487 6.2860456 13.63096 5.3474312 13.63096 4.189425L13.63096 2.0947125Z" fill-rule="evenodd"/>
	<path fill="none" stroke="white" stroke-width="0.96168762" stroke-miterlimit="10" transform="translate(17.7874 68.0053)" d="M3.937149 0.95387644C3.937149 0.54943281 3.0562432 0.22320709 1.9676129 0.22320709C0.88090587 0.22320709 0 0.54943281 0 0.95387644C0 1.35832 0.88090587 1.6845458 1.9676129 1.6845458C3.0562432 1.6845458 3.937149 1.35832 3.937149 0.95387644Z" fill-rule="evenodd"/>
	<path fill="none" stroke="black" stroke-width="1.9233752" stroke-miterlimit="10" transform="translate(11.6553 63.2252)" d="M2.4523034 1.2171463C2.4523034 0.54561728 1.9041414 0 1.22519 0C0.54816192 0 0 0.54561728 0 1.2171463C0 1.8886753 0.54816192 2.4342926 1.22519 2.4342926C1.9041414 2.4342926 2.4523034 1.8886753 2.4523034 1.2171463Z" fill-rule="evenodd"/>
</svg>
