<?xml version="1.0" encoding="utf-8" ?>
<svg xmlns="http://www.w3.org/2000/svg" xmlns:xlink="http://www.w3.org/1999/xlink" width="65" height="55">
	<path fill="#FF8733" transform="translate(3.31275 5.72172)" d="M27.885035 0C28.203981 0 28.454582 0.089603662 28.636837 0.26881099C28.819092 0.44801831 28.910221 0.69442838 28.910221 1.0080413L28.910221 10.013209C28.910221 10.506029 28.750748 10.931647 28.431801 11.290062L21.392197 18.547958C21.301069 18.637562 21.266895 18.738367 21.289677 18.85037C21.31246 18.962376 21.414978 19.018377 21.597233 19.018377C23.693167 19.197584 25.435982 20.194426 26.825678 22.0089C28.215372 23.823374 28.910221 25.985062 28.910221 28.493965L28.910221 35.483051C28.910221 37.812748 28.306499 39.89603 27.09906 41.732906C25.891619 43.569782 24.21715 45.003441 22.075653 46.033882C19.934155 47.064323 17.496492 47.579544 14.762666 47.579544C11.892147 47.579544 9.3405752 47.064323 7.1079502 46.033882C4.8753247 45.003441 3.1325102 43.569782 1.879506 41.732906C0.62650204 39.89603 0 37.812748 0 35.483051L0 32.458927C0 32.145313 0.091127567 31.898905 0.27338269 31.719696C0.45563784 31.540489 0.70623863 31.450886 1.0251851 31.450886L11.823802 31.450886C12.142748 31.450886 12.393349 31.540489 12.575604 31.719696C12.757859 31.898905 12.848987 32.145313 12.848987 32.458927L12.848987 34.273403C12.848987 35.035034 13.019851 35.639858 13.361579 36.087875C13.703308 36.535892 14.170337 36.759903 14.762666 36.759903C15.354995 36.759903 15.833414 36.524693 16.197926 36.054276C16.562435 35.583855 16.74469 34.990231 16.74469 34.273403L16.74469 26.679491C16.74469 25.962662 16.562435 25.369038 16.197926 24.898619C15.833414 24.4282 15.354995 24.192989 14.762666 24.192989C14.033645 24.192989 13.236279 24.573805 12.370567 25.335436C12.05162 25.559444 11.80102 25.67145 11.618765 25.67145C11.390945 25.67145 11.163127 25.559444 10.935308 25.335436L5.4676538 19.757608C5.285399 19.5784 5.1942711 19.354391 5.1942711 19.085581C5.1942711 18.771967 5.3081808 18.525557 5.5359998 18.34635L13.054024 11.222858C13.190715 11.133255 13.236279 11.032451 13.190715 10.920446C13.145151 10.808442 13.031241 10.752439 12.848987 10.752439L2.118716 10.752439C1.7997694 10.752439 1.5491686 10.662836 1.3669134 10.483628C1.1846584 10.304421 1.0935308 10.058011 1.0935308 9.7443981L1.0935308 1.0080413C1.0935308 0.69442838 1.1846584 0.44801831 1.3669134 0.26881099C1.5491686 0.089603662 1.7997694 0 2.118716 0L27.885035 0Z"/>
	<path fill="none" stroke="black" stroke-width="0.60229623" stroke-miterlimit="10" transform="translate(0.30127 0.30127)" d="M30.541582 0C30.890915 0 31.16539 0.099805191 31.365007 0.29941559C31.564627 0.49902597 31.664434 0.77349025 31.664434 1.1228085L31.664434 11.153231C31.664434 11.702159 31.489769 12.176233 31.140438 12.575455L23.430185 20.659676C23.330376 20.759481 23.292948 20.871761 23.3179 20.996517C23.342852 21.121275 23.455137 21.183653 23.654755 21.183653C25.950365 21.383263 27.859213 22.493595 29.381302 24.51465C30.903391 26.535706 31.664434 28.943506 31.664434 31.738052L31.664434 39.522858C31.664434 42.117794 31.003201 44.438263 29.680729 46.484268C28.358259 48.530277 26.524267 50.127159 24.178753 51.274918C21.833239 52.42268 19.163345 52.996559 16.169073 52.996559C13.025086 52.996559 10.230433 52.42268 7.7851095 51.274918C5.3397865 50.127159 3.4309375 48.530277 2.0585625 46.484268C0.68618751 44.438263 0 42.117794 0 39.522858L0 36.15443C0 35.805115 0.099809095 35.530651 0.29942727 35.331039C0.49904546 35.131428 0.77352047 35.031624 1.1228523 35.031624L12.95023 35.031624C13.299562 35.031624 13.574037 35.131428 13.773655 35.331039C13.973273 35.530651 14.073082 35.805115 14.073082 36.15443L14.073082 38.175488C14.073082 39.02383 14.260224 39.697517 14.634508 40.196541C15.008793 40.695568 15.520314 40.94508 16.169073 40.94508C16.817833 40.94508 17.341829 40.683094 17.741066 40.159115C18.140303 39.635139 18.33992 38.97393 18.33992 38.175488L18.33992 29.716997C18.33992 28.918554 18.140303 28.257345 17.741066 27.733368C17.341829 27.209391 16.817833 26.947403 16.169073 26.947403C15.370601 26.947403 14.497271 27.371574 13.549085 28.219919C13.199753 28.469431 12.925278 28.594189 12.725659 28.594189C12.476137 28.594189 12.226614 28.469431 11.977091 28.219919L5.9885454 22.007046C5.7889276 21.807436 5.6891184 21.557922 5.6891184 21.258507C5.6891184 20.909189 5.8138795 20.634724 6.0634027 20.435114L14.297652 12.500601C14.447367 12.400795 14.497271 12.288514 14.447367 12.163758C14.397462 12.039001 14.2727 11.976624 14.073082 11.976624L2.3205614 11.976624C1.9712296 11.976624 1.6967546 11.876819 1.4971364 11.677208C1.2975183 11.477597 1.1977091 11.203134 1.1977091 10.853815L1.1977091 1.1228085C1.1977091 0.77349025 1.2975183 0.49902597 1.4971364 0.29941559C1.6967546 0.099805191 1.9712296 0 2.3205614 0L30.541582 0Z" fill-rule="evenodd"/>
	<path transform="translate(26.3566 8.21685)" d="M27.76104 27.759954L16.261999 39.258366L4.763031 27.759954C-1.587677 21.409349 -1.587677 11.113305 4.763031 4.762845C11.113739 -1.587615 21.410187 -1.587615 27.76104 4.762845C34.11171 11.113305 34.11171 21.409349 27.76104 27.759954ZM16.261999 19.875C18.257889 19.875 19.875776 18.257175 19.875776 16.261364C19.875776 14.265607 18.257889 12.647727 16.261999 12.647727C14.266109 12.647727 12.648221 14.265607 12.648221 16.261364C12.648221 18.257175 14.266109 19.875 16.261999 19.875Z"/>
</svg>
