<?xml version="1.0" encoding="utf-8" ?>
<svg xmlns="http://www.w3.org/2000/svg" xmlns:xlink="http://www.w3.org/1999/xlink" width="72" height="55">
	<path fill="#FF5933" transform="translate(4.25978 6.72127)" d="M33.048058 24.155058C33.357124 24.155058 33.59996 24.24378 33.776573 24.421228C33.953182 24.598677 34.041485 24.842667 34.041485 25.1532L34.041485 34.4692C34.041485 34.779732 33.953182 35.023724 33.776573 35.201172C33.59996 35.37862 33.357124 35.467342 33.048058 35.467342L31.061199 35.467342C30.796286 35.467342 30.663828 35.60043 30.663828 35.8666L30.663828 45.581856C30.663828 45.892391 30.575523 46.136379 30.398914 46.313828C30.222305 46.491276 29.979467 46.580002 29.670401 46.580002L19.206285 46.580002C18.897219 46.580002 18.654381 46.491276 18.477772 46.313828C18.301163 46.136379 18.212856 45.892391 18.212856 45.581856L18.212856 35.8666C18.212856 35.60043 18.0804 35.467342 17.815485 35.467342L0.99342859 35.467342C0.68436188 35.467342 0.44152382 35.37862 0.26491427 35.201172C0.088304766 35.023724 0 34.779732 0 34.4692L0 27.082943C0 26.683685 0.066228569 26.284428 0.19868572 25.885172L8.2123432 0.79851431C8.3889523 0.26617143 8.7642479 0 9.3382282 0L20.530857 0C20.884077 0 21.137953 0.099814288 21.292486 0.29944286C21.44702 0.49907142 21.480133 0.77633333 21.391829 1.1312286L14.570286 23.689257C14.526134 23.99979 14.636515 24.155058 14.901428 24.155058L17.815485 24.155058C18.0804 24.155058 18.212856 24.021971 18.212856 23.7558L18.212856 19.230886C18.212856 18.920353 18.301163 18.676361 18.477772 18.498915C18.654381 18.321466 18.897219 18.232742 19.206285 18.232742L29.670401 18.232742C29.979467 18.232742 30.222305 18.321466 30.398914 18.498915C30.575523 18.676361 30.663828 18.920353 30.663828 19.230886L30.663828 23.7558C30.663828 24.021971 30.796286 24.155058 31.061199 24.155058L33.048058 24.155058Z"/>
	<path fill="none" stroke="black" stroke-width="0.60229623" stroke-miterlimit="10" transform="translate(0.30127 0.30127)" d="M36.891052 27.484285C37.236057 27.484285 37.507133 27.585238 37.704281 27.787144C37.901428 27.989048 38 28.266666 38 28.620001L38 39.220001C38 39.573334 37.901428 39.850952 37.704281 40.052856C37.507133 40.254761 37.236057 40.355713 36.891052 40.355713L34.673153 40.355713C34.377434 40.355713 34.229572 40.507141 34.229572 40.810001L34.229572 51.864285C34.229572 52.217621 34.131001 52.495239 33.933853 52.697144C33.736706 52.899048 33.46563 53 33.120621 53L21.43969 53C21.094683 53 20.823606 52.899048 20.626459 52.697144C20.429312 52.495239 20.33074 52.217621 20.33074 51.864285L20.33074 40.810001C20.33074 40.507141 20.182878 40.355713 19.887159 40.355713L1.1089494 40.355713C0.76394296 40.355713 0.4928664 40.254761 0.29571983 40.052856C0.098573282 39.850952 0 39.573334 0 39.220001L0 30.815714C0 30.361429 0.073929958 29.907143 0.22178988 29.452858L9.1673155 0.90857142C9.3644619 0.30285713 9.7833986 0 10.424125 0L22.918287 0C23.312582 0 23.59598 0.11357143 23.768482 0.34071428C23.940987 0.56785715 23.977951 0.88333333 23.879377 1.2871429L16.264591 26.954287C16.215305 27.307619 16.338522 27.484285 16.634241 27.484285L19.887159 27.484285C20.182878 27.484285 20.33074 27.332857 20.33074 27.030001L20.33074 21.881428C20.33074 21.528095 20.429312 21.250477 20.626459 21.048571C20.823606 20.846666 21.094683 20.745714 21.43969 20.745714L33.120621 20.745714C33.46563 20.745714 33.736706 20.846666 33.933853 21.048571C34.131001 21.250477 34.229572 21.528095 34.229572 21.881428L34.229572 27.030001C34.229572 27.332857 34.377434 27.484285 34.673153 27.484285L36.891052 27.484285Z" fill-rule="evenodd"/>
	<path transform="translate(30.9769 7.97298)" d="M18.33337 36.666576C8.208127 36.666576 0 28.458559 0 18.333242C0 8.2081079 8.208127 0 18.33337 0C28.458504 0 36.666702 8.2081079 36.666702 18.333242C36.666702 28.458559 28.458504 36.666576 18.33337 36.666576ZM11.916667 21.999908L11.916667 25.666574L16.500036 25.666574L16.500036 29.333242L20.166704 29.333242L20.166704 25.666574L22.000036 25.666574C24.531321 25.666574 26.58337 23.614708 26.58337 21.083242C26.58337 18.551958 24.531321 16.499908 22.000036 16.499908L14.666703 16.499908C14.16041 16.499908 13.75 16.089609 13.75 15.583241C13.75 15.077059 14.16041 14.666575 14.666703 14.666575L24.750036 14.666575L24.750036 11L20.166704 11L20.166704 7.3333335L16.500036 7.3333335L16.500036 11L14.666703 11C12.135365 11 10.083333 13.052013 10.083333 15.583241C10.083333 18.114708 12.135365 20.166574 14.666703 20.166574L22.000036 20.166574C22.50622 20.166574 22.916704 20.577059 22.916704 21.083242C22.916704 21.589609 22.50622 21.999908 22.000036 21.999908L11.916667 21.999908Z"/>
</svg>
