<?xml version="1.0" encoding="utf-8" ?>
<svg xmlns="http://www.w3.org/2000/svg" xmlns:xlink="http://www.w3.org/1999/xlink" width="54" height="55">
	<path fill="#FFD833" transform="translate(2.10797 5.78403)" d="M5.2952762 0.20364532C5.7026048 0.06788177 6.1099339 0 6.5172629 0L17.650921 0C17.967731 0 18.216654 0.090509035 18.39769 0.27152708C18.578724 0.45254517 18.669243 0.70144498 18.669243 1.0182266L18.669243 46.499016C18.669243 46.815796 18.578724 47.064697 18.39769 47.245716C18.216654 47.426731 17.967731 47.517242 17.650921 47.517242L6.9245915 47.517242C6.6077805 47.517242 6.3588572 47.426731 6.1778221 47.245716C5.9967871 47.064697 5.9062696 46.815796 5.9062696 46.499016L5.9062696 12.015074C5.9062696 11.743546 5.770493 11.607783 5.4989405 11.607783L1.0183223 11.607783C0.70151091 11.607783 0.45258769 11.517274 0.27155262 11.336256C0.090517536 11.155238 0 10.906339 0 10.589557L0 2.715271C0 2.1269622 0.27155262 1.7422988 0.81465787 1.5612808L5.2952762 0.20364532Z"/>
	<path fill="none" stroke="black" stroke-width="0.60229623" stroke-miterlimit="10" transform="translate(0.30127 0.30127)" d="M5.8382249 0.22714286C6.2873192 0.075714283 6.736413 0 7.1855073 0L19.460749 0C19.810045 0 20.084492 0.10095238 20.284088 0.30285713C20.483686 0.50476193 20.583485 0.78238094 20.583485 1.1357143L20.583485 51.864285C20.583485 52.217621 20.483686 52.495239 20.284088 52.697144C20.084492 52.899048 19.810045 53 19.460749 53L7.6346016 53C7.285306 53 7.0108595 52.899048 6.8112621 52.697144C6.6116648 52.495239 6.5118661 52.217621 6.5118661 51.864285L6.5118661 13.401428C6.5118661 13.098572 6.3621678 12.947143 6.0627718 12.947143L1.1227355 12.947143C0.77344006 12.947143 0.49899358 12.84619 0.29939616 12.644286C0.099798717 12.442381 0 12.164762 0 11.811429L0 3.0285714C0 2.372381 0.29939616 1.9433334 0.89818841 1.7414286L5.8382249 0.22714286Z" fill-rule="evenodd"/>
	<path transform="translate(15.3606 10.1354)" d="M32.520615 24.526207L32.520615 30.988735C32.520615 31.948217 31.787275 32.744312 30.841288 32.811935C30.051037 32.868408 29.406404 32.896553 28.907213 32.896553C12.942121 32.896553 0 19.804821 0 3.6551723C0 3.1502287 0.027913528 2.4980729 0.083740585 1.6987414C0.15062465 0.7417807 0.93756932 0 1.8859428 0L8.2748709 0C8.738615 0 9.1270189 0.35531932 9.1735783 0.82204825C9.2153845 1.2410589 9.2542467 1.5774628 9.2901821 1.831278C9.6556416 4.4131088 10.402135 6.8705544 11.470201 9.1434689C11.64164 9.5082912 11.529841 9.9449749 11.204887 10.179765L7.3054852 12.997428C9.6794357 18.606838 14.126413 23.105259 19.671721 25.506706L22.452053 21.568989C22.687103 21.236368 23.123964 21.121962 23.488918 21.297228C25.735731 22.376783 28.164841 23.131027 30.716805 23.499834C30.966129 23.53602 31.296576 23.574947 31.707962 23.616983C32.169392 23.664135 32.520615 24.057066 32.520615 24.526207Z"/>
</svg>
