<?xml version="1.0" encoding="utf-8" ?>
<svg xmlns="http://www.w3.org/2000/svg" xmlns:xlink="http://www.w3.org/1999/xlink" width="65" height="55">
	<path fill="#FFB533" transform="translate(3.31275 5.72172)" d="M16.120686 36.289482C15.983488 36.379089 15.937756 36.479893 15.983488 36.591896C16.029221 36.703899 16.143553 36.759903 16.326481 36.759903L29.085833 36.759903C29.40596 36.759903 29.657488 36.849506 29.840418 37.028713C30.023348 37.20792 30.114813 37.45433 30.114813 37.767944L30.114813 46.571503C30.114813 46.885117 30.023348 47.131527 29.840418 47.310734C29.657488 47.489941 29.40596 47.579544 29.085833 47.579544L1.3033745 47.579544C0.98324752 47.579544 0.73171908 47.489941 0.54878932 47.310734C0.36585954 47.131527 0.27439466 46.885117 0.27439466 46.571503L0.27439466 37.499134C0.27439466 37.006313 0.4344582 36.580696 0.75458527 36.222282L4.9391036 31.652494C7.2257257 29.188393 8.9749918 27.261915 10.186901 25.873058C11.398811 24.484201 12.484957 23.095345 13.445338 21.706488C15.594763 18.659964 16.669476 15.971853 16.669476 13.642158C16.669476 11.760481 16.074953 10.819642 14.88591 10.819642C14.33712 10.819642 13.891229 11.032451 13.548236 11.458069C13.205242 11.883686 13.033746 12.454909 13.033746 13.171739L13.033746 15.994254C13.033746 16.307867 12.942281 16.554277 12.759351 16.733484C12.576422 16.912691 12.324893 17.002295 12.004766 17.002295L1.0289799 17.002295C0.70885283 17.002295 0.45732442 16.912691 0.27439466 16.733484C0.091464885 16.554277 0 16.307867 0 15.994254L0 12.634116C0.18292977 10.125214 0.94894814 7.9187236 2.2980552 6.0146461C3.6471622 4.110568 5.4650269 2.6321077 7.7516489 1.5792645C10.038271 0.52642155 12.622154 0 15.503298 0C18.292976 0 20.762529 0.57122338 22.911953 1.71367C25.061378 2.8561168 26.730612 4.4689827 27.919655 6.552268C29.1087 8.6355534 29.70322 11.021251 29.70322 13.70936C29.70322 16.218264 29.33736 18.447155 28.605642 20.396034C27.873922 22.344913 26.662014 24.416998 24.969913 26.612288C23.460743 28.583569 21.68861 30.610851 19.653517 32.694138C17.618423 34.777424 16.440813 35.975872 16.120686 36.289482Z"/>
	<path fill="none" stroke="black" stroke-width="0.60229623" stroke-miterlimit="10" transform="translate(0.30127 0.30127)" d="M17.591352 40.421104C17.441639 40.520908 17.391735 40.63319 17.441639 40.757946C17.491543 40.882702 17.616304 40.94508 17.815924 40.94508L31.739292 40.94508C32.088623 40.94508 32.363098 41.044888 32.562717 41.244495C32.762337 41.444107 32.862144 41.718571 32.862144 42.06789L32.862144 51.873749C32.862144 52.223068 32.762337 52.497532 32.562717 52.697144C32.363098 52.896751 32.088623 52.996559 31.739292 52.996559L1.4222796 52.996559C1.0729477 52.996559 0.79847276 52.896751 0.59885454 52.697144C0.39923638 52.497532 0.29942727 52.223068 0.29942727 51.873749L0.29942727 41.768475C0.29942727 41.219547 0.4740932 40.745472 0.82342499 40.346249L5.3896909 35.256184C7.8849182 32.511543 9.793767 30.36573 11.116238 28.81875C12.438708 27.271769 13.623941 25.724789 14.671937 24.177809C17.01745 20.784431 18.190207 17.790276 18.190207 15.195341C18.190207 13.099432 17.541449 12.051477 16.243931 12.051477C15.645076 12.051477 15.158506 12.288514 14.784222 12.762589C14.409938 13.236664 14.222795 13.872922 14.222795 14.671364L14.222795 17.815228C14.222795 18.164545 14.122987 18.439011 13.923368 18.63862C13.72375 18.83823 13.449275 18.938036 13.099943 18.938036L1.1228523 18.938036C0.77352047 18.938036 0.49904546 18.83823 0.29942727 18.63862C0.099809095 18.439011 0 18.164545 0 17.815228L0 14.072533C0.19961819 11.277987 1.0355194 8.8202839 2.5077035 6.6994238C3.9798877 4.5785632 5.9635935 2.9317777 8.4588203 1.7590666C10.954048 0.58635551 13.773655 0 16.917641 0C19.961819 0 22.656664 0.63625813 25.002178 1.9087744C27.347692 3.1812906 29.169209 4.9777842 30.466726 7.298255C31.764244 9.6187258 32.413002 12.276039 32.413002 15.270195C32.413002 18.064741 32.013767 20.547394 31.215294 22.718157C30.416821 24.88892 29.094351 27.196915 27.247883 29.642143C25.601032 31.837856 23.667231 34.095951 21.44648 36.41642C19.225727 38.736893 17.940685 40.071785 17.591352 40.421104Z" fill-rule="evenodd"/>
	<path transform="translate(26.3566 8.81569)" d="M30.71711 36.136364L1.8068888 36.136364C0.80898023 36.136364 0 35.32745 0 34.329544L0 1.8068181C0 0.80894864 0.80898023 0 1.8068888 0L30.71711 0C31.715054 0 32.523998 0.80894864 32.523998 1.8068181L32.523998 34.329544C32.523998 35.32745 31.715054 36.136364 30.71711 36.136364ZM7.2275553 7.2272725L7.2275553 14.454545L14.455111 14.454545L14.455111 7.2272725L7.2275553 7.2272725ZM7.2275553 18.068182L7.2275553 21.681818L25.296442 21.681818L25.296442 18.068182L7.2275553 18.068182ZM7.2275553 25.295454L7.2275553 28.90909L25.296442 28.90909L25.296442 25.295454L7.2275553 25.295454ZM18.068888 9.034091L18.068888 12.647727L25.296442 12.647727L25.296442 9.034091L18.068888 9.034091Z"/>
</svg>
