<?xml version="1.0" encoding="utf-8"?>
<svg width="298px" height="298px" viewBox="0 0 298 298" version="1.1" xmlns:xlink="http://www.w3.org/1999/xlink" xmlns="http://www.w3.org/2000/svg">
  <g id="logotype">
    <path d="M190.611 17.2359L280.764 107.389C303.745 130.37 303.745 167.63 280.764 190.611L190.611 280.764C167.63 303.745 130.37 303.745 107.389 280.764L17.2357 190.611C-5.74522 167.63 -5.74522 130.37 17.2357 107.389L107.389 17.2359C130.37 -5.74529 167.63 -5.74529 190.611 17.2359Z" id="Path" fill="#000000" fill-rule="evenodd" stroke="none" />
    <path d="M156.846 97.4247C156.597 97.1628 156.258 97.0104 155.901 97L155.816 97C155.351 97.0192 154.908 97.2091 154.57 97.5348L124.329 125.719C127.746 126.455 130.875 128.197 133.329 130.729L154.319 108.613L154.319 120.879L153.683 123.415L156.605 126.154L156.531 128.124C154.885 128.36 153.598 129.776 153.548 131.525C153.492 133.473 154.991 135.1 156.901 135.166C158.812 135.232 160.415 133.711 160.488 131.764C160.502 131.41 160.231 131.111 159.884 131.097C159.537 131.083 159.244 131.358 159.23 131.712C159.09 132.817 158.126 133.615 157.038 133.53C155.949 133.445 155.116 132.505 155.143 131.392C155.17 130.297 156.02 129.411 157.088 129.355L157.741 129.384L157.867 125.997L160.658 123.411L159.911 120.479L159.916 102.742C160.12 102.508 160.252 102.216 160.292 101.901C160.345 101.484 160.232 101.063 159.979 100.732L156.846 97.4247ZM155.263 107.615L158.968 103.713L158.968 118.148L155.263 118.148L155.263 107.615ZM108.647 112.305L88.0194 112.305C84.878 112.266 74.5767 123.78 69.7149 130.935C62.3473 131.953 55.1025 133.789 48.1107 136.416C45.1364 137.395 44.5654 140.195 44.2298 143.361L44.0135 145.527C43.8946 146.974 43.8265 148.425 43.8093 149.877L55.5292 149.877C57.7403 148.347 60.349 147.526 63.021 147.517C63.7557 147.518 64.4768 147.578 65.1814 147.722C71.5345 148.786 76.2507 154.3 76.4191 160.86L108.946 160.866L109.242 160.854L124.992 160.852C125.174 153.439 131.119 147.523 138.394 147.517C145.671 147.521 151.618 153.437 151.8 160.852L157.502 160.852C158.999 160.856 160.435 160.251 161.493 159.172C162.552 158.093 163.145 156.629 163.142 155.103L163.142 143.353C163.142 141.828 162.549 140.365 161.491 139.286C160.433 138.208 158.998 137.602 157.502 137.603L114.336 137.391L114.337 117.614C114.204 114.547 111.656 112.17 108.647 112.305ZM168.674 126.088L169.899 124.568C172.442 120.513 177.125 118.173 182.025 118.511L197.08 122.14L217.484 117.398C218.412 117.143 219.407 117.263 220.241 117.732L250.029 134.596C251.027 135.162 251.675 136.162 251.766 137.275L253.991 155.514C254.014 155.812 253.993 156.111 253.928 156.403C253.83 156.755 253.698 157.097 253.534 157.425L245.985 169.862C244.993 171.471 242.844 172.012 241.164 171.074L238.258 169.429C234.714 173.235 228.884 174.108 224.312 171.519C219.739 168.929 217.686 163.592 219.402 158.751L194.001 144.369C190.458 148.18 184.625 149.057 180.049 146.466C175.473 143.875 173.421 138.534 175.141 133.691L169.931 130.739C169.124 130.283 168.539 129.537 168.303 128.665C168.068 127.792 168.201 126.865 168.674 126.088ZM134.556 135.806C132.608 130.202 125.702 126.278 117.786 126.274Q116.891 126.274 116 126.345L116 135.716L134.556 135.806ZM187.862 133.774C185.903 132.667 183.385 133.302 182.237 135.192L182.241 135.189C181.688 136.097 181.532 137.18 181.808 138.199C182.083 139.219 182.768 140.09 183.71 140.622C185.67 141.728 188.188 141.091 189.334 139.2C190.48 137.31 189.821 134.88 187.862 133.774ZM74.5905 161.202C74.5905 154.687 69.409 149.405 63.0172 149.405C56.6254 149.405 51.4439 154.687 51.4439 161.202C51.4439 167.718 56.6254 173 63.0172 173C69.409 173 74.5905 167.718 74.5905 161.202ZM149.971 161.202C149.971 154.687 144.79 149.405 138.398 149.405C132.006 149.405 126.825 154.687 126.825 161.202C126.825 167.718 132.006 173 138.398 173C144.79 173 149.971 167.718 149.971 161.202ZM49.6037 161.092C49.6338 157.505 51.0456 154.073 53.5348 151.517L43.1303 151.521C42.8302 151.52 42.5421 151.641 42.3299 151.857C42.1177 152.073 41.999 152.367 42 152.673L42 156.306C42.0551 157.633 42.6252 158.882 43.5847 159.78C44.5441 160.678 45.8143 161.15 47.1154 161.092L49.6037 161.092ZM63.2002 166.413C65.988 166.413 68.2479 164.145 68.2479 161.347C68.2479 158.548 65.988 156.28 63.2002 156.28C60.4125 156.28 58.1525 158.548 58.1525 161.347C58.1525 164.145 60.4125 166.413 63.2002 166.413ZM143.458 161.347C143.458 164.145 141.198 166.413 138.41 166.413C135.623 166.413 133.363 164.145 133.363 161.347C133.363 158.548 135.623 156.28 138.41 156.28C141.198 156.28 143.458 158.548 143.458 161.347ZM230.527 158.294C228.879 158.074 227.257 158.834 226.416 160.218C225.269 162.107 225.924 164.536 227.881 165.644C229.315 166.457 231.116 166.356 232.442 165.388C233.769 164.421 234.361 162.777 233.942 161.224C233.523 159.671 232.175 158.514 230.527 158.294Z" id="Combined-Shape" fill="#FFFFFF" fill-rule="evenodd" stroke="none" />
  </g>
</svg>