<?xml version="1.0" encoding="UTF-8"?>
<svg width="24px" height="24px" viewBox="0 0 24 24" version="1.1" xmlns="http://www.w3.org/2000/svg" xmlns:xlink="http://www.w3.org/1999/xlink">
    <title>icon/black/office</title>
    <g id="icon/black/office" stroke="none" stroke-width="1" fill="none" fill-rule="evenodd">
        <g id="Group">
            <polygon id="Path" points="0 0 24 0 24 24 0 24"></polygon>
            <path d="M21,19 L23,19 L23,21 L1,21 L1,19 L3,19 L3,4 C3,3.44772 3.44772,3 4,3 L14,3 C14.5523,3 15,3.44772 15,4 L15,19 L17,19 L17,9 L20,9 C20.5523,9 21,9.44772 21,10 L21,19 Z M7,11 L7,13 L11,13 L11,11 L7,11 Z M7,7 L7,9 L11,9 L11,7 L7,7 Z" id="Shape" fill="#000000" fill-rule="nonzero"></path>
        </g>
    </g>
</svg>