<?xml version="1.0" encoding="UTF-8"?>
<svg width="24px" height="24px" viewBox="0 0 24 24" version="1.1" xmlns="http://www.w3.org/2000/svg" xmlns:xlink="http://www.w3.org/1999/xlink">
    <title>icon/black/direction</title>
    <g id="icon/black/direction" stroke="none" stroke-width="1" fill="none" fill-rule="evenodd">
        <g id="Group">
            <polygon id="Path" points="0 0 24 0 24 24 0 24"></polygon>
            <path d="M12.0001,3.5148 L3.5148,12.0001 L12.0001,20.4854 L20.4854,12.0001 L12.0001,3.5148 Z M12.7072,1.39348 L22.6067,11.293 C22.9972,11.6835 22.9972,12.3167 22.6067,12.7072 L12.7072,22.6067 C12.3167,22.9972 11.6835,22.9972 11.293,22.6067 L1.39348,12.7072 C1.00295,12.3167 1.00295,11.6835 1.39348,11.293 L11.293,1.39348 C11.6835,1.00295 12.3167,1.00295 12.7072,1.39348 Z M13.0001,10.0001 L13.0001,7.50008 L16.5001,11.0001 L13.0001,14.5001 L13.0001,12.0001 L10.0001,12.0001 L10.0001,15.0001 L8.00008,15.0001 L8.00008,11.0001 C8.00008,10.4478 8.4478,10.0001 9.00008,10.0001 L13.0001,10.0001 Z" id="Shape" fill="#000000" fill-rule="nonzero"></path>
        </g>
    </g>
</svg>