<?xml version="1.0" encoding="UTF-8"?>
<svg width="24px" height="24px" viewBox="0 0 24 24" version="1.1" xmlns="http://www.w3.org/2000/svg" xmlns:xlink="http://www.w3.org/1999/xlink">
    <title>icon/black/topic</title>
    <g id="icon/black/topic" stroke="none" stroke-width="1" fill="none" fill-rule="evenodd">
        <g id="Group">
            <polygon id="Path" points="0 0 24 0 24 24 0 24"></polygon>
            <path d="M6.45455,19 L2,22.5 L2,4 C2,3.44772 2.44772,3 3,3 L21,3 C21.5523,3 22,3.44772 22,4 L22,18 C22,18.5523 21.5523,19 21,19 L6.45455,19 Z M7,10 L7,12 L9,12 L9,10 L7,10 Z M11,10 L11,12 L13,12 L13,10 L11,10 Z M15,10 L15,12 L17,12 L17,10 L15,10 Z" id="Shape" fill="#000000" fill-rule="nonzero"></path>
        </g>
    </g>
</svg>