<svg width="36" height="28" viewBox="0 0 36 28" fill="none" xmlns="http://www.w3.org/2000/svg">
<path fill-rule="evenodd" clip-rule="evenodd" d="M3.1968 25.5865C1.11679 23.3476 0 20.8346 0 16.7613C0 9.59694 4.95953 3.17425 12.1754 0L13.9776 2.82034C7.24401 6.51484 5.92795 11.3068 5.40194 14.3285C6.48608 13.76 7.90529 13.56 9.2966 13.6908C12.9395 14.0331 15.8107 17.0657 15.8107 20.8346C15.8107 24.7919 12.6469 28 8.74432 28C6.57789 28 4.50618 26.996 3.1968 25.5865ZM23.3861 25.5865C21.3062 23.3476 20.1893 20.8346 20.1893 16.7613C20.1893 9.59694 25.1488 3.17425 32.3647 0L34.167 2.82034C27.4333 6.51484 26.1173 11.3068 25.5912 14.3285C26.6754 13.76 28.0947 13.56 29.4859 13.6908C33.1289 14.0331 36 17.0657 36 20.8346C36 24.7919 32.8363 28 28.9337 28C26.7672 28 24.6956 26.996 23.3861 25.5865Z" fill="#FFD833"/>
</svg>
