<?xml version="1.0" encoding="utf-8"?>
<svg width="96" height="96" viewBox="0 0 96 96" version="1.1" xmlns:xlink="http://www.w3.org/1999/xlink" xmlns="http://www.w3.org/2000/svg">
  <defs>
    <path d="M13.8059 25.5521C10.5678 25.5521 7.94256 28.1767 7.94256 31.414C7.94256 34.6512 10.5678 37.2758 13.8059 37.2758C17.044 37.2758 19.6692 34.6512 19.6692 31.414C19.6692 28.1767 17.044 25.5521 13.8059 25.5521Z" id="path_1" />
    <path d="M60.6317 25.5521C57.3936 25.5521 54.7683 28.1767 54.7683 31.414C54.7683 34.6512 57.3936 37.2758 60.6317 37.2758C63.8698 37.2758 66.495 34.6512 66.495 31.414C66.495 28.1767 63.8698 25.5521 60.6317 25.5521Z" id="path_2" />
    <clipPath id="clip_1">
      <use xlink:href="#path_1" />
    </clipPath>
    <clipPath id="clip_2">
      <use xlink:href="#path_2" />
    </clipPath>
  </defs>
  <g id="iconstateblown_engine" fill-opacity="1">
    <path d="M-25 -2371L-25 -2371L-25 -2275L-121 -2275L-121 -2371L-25 -2371Z" id="iconstateblown_engine" fill="none" stroke="none" />
    <g id="Group-24" transform="translate(8 25)">
      <path d="M21.8894 31.535C21.8894 32.3972 21.7172 33.2122 21.4676 33.9913L21.6681 33.9913L53.0161 33.9913C52.3636 31.9661 52.0894 29.3793 54.1302 26.6639C55.6641 24.6217 58.1399 23.474 60.6933 23.491C65.1135 23.5174 68.6883 27.1102 68.6883 31.535C68.6883 32.0985 68.6278 32.6487 68.5162 33.1801L69.3976 33.1309L80.3677 31.223L80.3677 28.4414C80.3677 27.4203 79.8854 26.5032 79.2026 25.7431C78.7127 25.1947 78.3666 24.5348 78.1964 23.8181L77.5041 19.0568C77.0521 17.1469 22.1031 16.6137 21.8894 31.535" id="Fill-39" fill="#FFD72F" fill-rule="evenodd" stroke="none" />
      <path d="M63.8484 15.9437L57.7467 11.9123C57.7165 11.8934 57.6862 11.8763 57.654 11.8612C56.192 11.2032 54.6051 10.8647 53.0012 10.8647L40.9227 10.8647C39.455 10.8647 35.8481 11.1445 34.4901 11.6986C32.071 12.6838 30.1039 14.5161 26.4743 16.9573C26.0563 17.239 26.2568 17.897 26.7618 17.8819L63.5836 16.8684C64.0772 16.8551 64.2588 16.216 63.8484 15.9437" id="Fill-41" fill="#000000" fill-rule="evenodd" stroke="none" />
      <g id="Fill-43">
        <g clip-path="url(#clip_1)">
          <use xlink:href="#path_1" fill="none" stroke="#000000" stroke-width="2" />
        </g>
      </g>
      <g id="Fill-45">
        <g clip-path="url(#clip_2)">
          <use xlink:href="#path_2" fill="none" stroke="#000000" stroke-width="2" />
        </g>
      </g>
      <path d="M43.3 19.3391L39.207 19.3391C39.0841 19.3391 38.9838 19.2388 38.9838 19.1159L38.9838 18.8701C38.9838 18.7472 39.0841 18.647 39.207 18.647L43.3 18.647C43.423 18.647 43.5232 18.7472 43.5232 18.8701L43.5232 19.1159C43.5232 19.2388 43.423 19.3391 43.3 19.3391" id="Fill-47" fill="#000000" fill-rule="evenodd" stroke="none" />
      <path d="M58.0961 19.3391L54.0031 19.3391C53.8801 19.3391 53.7799 19.2388 53.7799 19.1159L53.7799 18.8701C53.7799 18.7472 53.8801 18.647 54.0031 18.647L58.0961 18.647C58.219 18.647 58.3192 18.7472 58.3192 18.8701L58.3192 19.1159C58.3192 19.2388 58.219 19.3391 58.0961 19.3391" id="Fill-49" fill="#000000" fill-rule="evenodd" stroke="none" />
      <path d="M5.76007 4.80636L5.79222 4.8385C8.80144 7.84696 8.80144 12.7256 5.79222 15.734L5.79222 15.734" id="Stroke-235" fill="none" fill-rule="evenodd" stroke="#000000" stroke-width="1" />
      <path d="M15.0576 10.9277L15.0255 10.8955C12.0163 7.88705 12.0163 3.00846 15.0255 0L15.0255 0" id="Stroke-239" fill="none" fill-rule="evenodd" stroke="#000000" stroke-width="1" />
      <path d="M79.2024 25.7425C78.7125 25.196 78.3664 24.5342 78.1962 23.8194L77.5039 19.0562C77.0519 17.1463 75.3893 15.7679 73.4298 15.6733L68.062 15.3538L59.0968 9.7377C57.4191 8.97377 55.5958 8.57856 53.7536 8.57856L40.2055 8.57856C38.5373 8.57856 34.7318 8.89813 33.1865 9.52592C30.0827 10.7909 27.3572 13.2832 22.1029 16.6131C15.8367 16.8173 9.65749 17.9311 2.87115 21.4009L1.71739 25.5496L0 26.028L0.262905 30.9841C0.389628 32.2 1.30507 33.1852 2.508 33.3989L5.58341 33.9472C5.74229 33.9756 5.90306 33.9907 6.06572 33.9907L6.21703 33.9907C5.5645 31.9655 5.45102 29.6945 7.48995 26.9792C9.02387 24.9389 11.3408 23.4734 13.8942 23.4904C18.3144 23.5188 21.8892 27.1096 21.8892 31.5344C21.8892 32.3967 21.7171 33.2117 21.4674 33.9907L21.6679 33.9907L53.016 33.9907C52.3634 31.9655 52.0892 29.3787 54.13 26.6634C55.6639 24.6231 58.1398 23.4734 60.6931 23.4904C65.1133 23.5188 68.6881 27.1096 68.6881 31.5344C68.6881 32.0979 68.6276 32.6482 68.5179 33.1795L69.3974 33.1322L80.3675 31.2224L80.3675 28.4408C80.3675 27.4197 79.8852 26.5026 79.2024 25.7425Z" id="Stroke-37" fill="none" fill-rule="evenodd" stroke="#000000" stroke-width="1" />
    </g>
  </g>
</svg>