<?xml version="1.0" encoding="utf-8"?>
<svg width="96" height="96" viewBox="0 0 96 96" version="1.1" xmlns:xlink="http://www.w3.org/1999/xlink" xmlns="http://www.w3.org/2000/svg">
  <defs>
    <path d="M17.1536 30.0332C13.9156 30.0332 11.2903 32.6578 11.2903 35.8951C11.2903 37.3 11.784 38.5896 12.6086 39.5994C13.6829 40.9155 15.3209 40.4257 17.1536 40.4257C19.1737 40.4257 20.9535 40.7358 22.0089 39.1834C22.6444 38.2455 23.017 37.1128 23.017 35.8951C23.017 32.6578 20.3917 30.0332 17.1536 30.0332Z" id="path_1" />
    <path d="M63.9792 30.0332C60.7412 30.0332 58.1159 32.6578 58.1159 35.8951C58.1159 37.2773 58.5944 38.548 59.3945 39.5502C60.4688 40.8947 62.1238 40.5146 63.9792 40.5146C65.9255 40.5146 67.6486 40.8096 68.7153 39.3517C69.4246 38.3816 69.8426 37.1866 69.8426 35.8951C69.8426 32.6578 67.2173 30.0332 63.9792 30.0332Z" id="path_2" />
    <clipPath id="clip_1">
      <use xlink:href="#path_1" />
    </clipPath>
    <clipPath id="clip_2">
      <use xlink:href="#path_2" />
    </clipPath>
  </defs>
  <g id="iconstateburned" fill-opacity="1">
    <path d="M-230 -2371L-230 -2371L-230 -2275L-326 -2275L-326 -2371L-230 -2371Z" id="iconstateburned" fill="none" stroke="none" />
    <g id="Group-32" transform="translate(6 21)">
      <path d="M25.2369 36.0161C25.2369 36.8783 25.0648 37.6933 24.8151 38.4724L25.0156 38.4724L56.3637 38.4724C55.7112 36.4472 55.4369 33.8604 57.4777 31.1451C59.0117 29.1029 61.4875 27.9551 64.0409 27.9721C68.4611 27.9986 72.0358 31.5913 72.0358 36.0161C72.0358 36.5796 71.9753 37.1298 71.8637 37.6612L72.7451 37.612L83.7152 35.7041L83.7152 32.9225C83.7152 31.9014 83.2329 30.9843 82.5501 30.2242C82.0584 29.6758 81.7141 29.0159 81.5439 28.2992L80.8517 23.5379C80.3996 21.628 25.4507 21.0948 25.2369 36.0161" id="Fill-261" fill="#FFD72F" fill-rule="evenodd" stroke="none" />
      <path d="M67.1959 20.4248L61.0943 16.3934C61.064 16.3745 61.0338 16.3575 61.0016 16.3423C59.5396 15.6843 57.9527 15.3458 56.3488 15.3458L44.2703 15.3458C42.8026 15.3458 39.1956 15.6257 37.8376 16.1797C35.4185 17.1649 33.4515 18.9972 29.8219 21.4384C29.4039 21.7201 29.6044 22.3782 30.1094 22.363L66.9311 21.3495C67.4248 21.3363 67.6064 20.6971 67.1959 20.4248" id="Fill-263" fill="#000000" fill-rule="evenodd" stroke="none" />
      <g id="Fill-265">
        <g clip-path="url(#clip_1)">
          <use xlink:href="#path_1" fill="none" stroke="#000000" stroke-width="2" />
        </g>
      </g>
      <g id="Fill-267">
        <g clip-path="url(#clip_2)">
          <use xlink:href="#path_2" fill="none" stroke="#000000" stroke-width="2" />
        </g>
      </g>
      <path d="M46.6476 23.8202L42.5546 23.8202C42.4316 23.8202 42.3314 23.72 42.3314 23.5971L42.3314 23.3512C42.3314 23.2283 42.4316 23.1281 42.5546 23.1281L46.6476 23.1281C46.7705 23.1281 46.8708 23.2283 46.8708 23.3512L46.8708 23.5971C46.8708 23.72 46.7705 23.8202 46.6476 23.8202" id="Fill-269" fill="#000000" fill-rule="evenodd" stroke="none" />
      <path d="M61.4436 23.8202L57.3506 23.8202C57.2277 23.8202 57.1274 23.72 57.1274 23.5971L57.1274 23.3512C57.1274 23.2283 57.2277 23.1281 57.3506 23.1281L61.4436 23.1281C61.5666 23.1281 61.6668 23.2283 61.6668 23.3512L61.6668 23.5971C61.6668 23.72 61.5666 23.8202 61.4436 23.8202" id="Fill-271" fill="#000000" fill-rule="evenodd" stroke="none" />
      <path d="M15.4754 6.51802L14.4465 4.77837C14.5429 5.44587 14.5051 6.1266 14.3349 6.78086C14.1098 7.3557 13.7675 7.87571 13.3306 8.30684C13.2795 6.79788 12.835 5.32863 12.0368 4.04658C11.8855 3.82156 11.5016 3.21079 11.0722 2.66621C10.9758 2.5433 10.8509 2.44686 10.7507 2.32962C10.7866 3.61167 10.4689 4.85401 9.99224 6.05285C9.4948 7.29708 8.99358 8.46 9.02384 9.80634C9.03897 10.5079 9.21109 11.2245 9.44184 11.9431C13.2303 14.0439 13.6861 19.0152 13.6861 19.0152C13.6861 19.0152 19.593 14.5469 15.4754 6.51802" id="Fill-390" fill="#FFD72F" fill-rule="evenodd" stroke="none" />
      <path d="M82.5499 30.2236C82.0601 29.6771 81.714 29.0153 81.5437 28.3005L80.8515 23.5373C80.3994 21.6275 78.7369 20.249 76.7774 20.1544L71.4096 19.8349L62.4444 14.2188C60.7667 13.4549 58.9434 13.0597 57.1012 13.0597L43.5531 13.0597C41.8848 13.0597 38.0793 13.3792 36.5341 14.007C33.4303 15.2721 30.7048 17.7643 25.4505 21.0942C19.1843 21.2984 13.005 22.4122 6.21871 25.882L5.06495 30.0307L3.34756 30.5091L3.61046 35.4653C3.73719 36.6811 4.65263 37.6663 5.85556 37.88L8.93097 38.4283C9.08985 38.4567 9.25062 38.4718 9.41328 38.4718L9.56459 38.4718C8.91206 36.4466 8.79858 34.1757 10.8375 31.4603C12.3714 29.42 14.6884 27.9545 17.2418 27.9715C21.662 27.9999 25.2367 31.5908 25.2367 36.0155C25.2367 36.8778 25.0646 37.6928 24.815 38.4718L25.0154 38.4718L56.3635 38.4718C55.711 36.4466 55.4367 33.8599 57.4776 31.1445C59.0115 29.1042 61.4873 27.9545 64.0407 27.9715C68.4609 27.9999 72.0357 31.5908 72.0357 36.0155C72.0357 36.579 71.9751 37.1293 71.8654 37.6606L72.7449 37.6133L83.715 35.7035L83.715 32.922C83.715 31.9009 83.2327 30.9838 82.5499 30.2236Z" id="Stroke-259" fill="none" fill-rule="evenodd" stroke="#000000" stroke-width="1" />
      <path d="M15.4754 6.51802L14.4465 4.77837C14.5429 5.44587 14.5051 6.1266 14.3349 6.78086C14.1098 7.3557 13.7675 7.87571 13.3306 8.30684C13.2795 6.79788 12.835 5.32863 12.0368 4.04658C11.8855 3.82156 11.5016 3.21079 11.0722 2.66621C10.2249 1.58838 9.17894 0.682624 7.98925 0C8.40535 0.860371 8.65691 1.79071 8.72689 2.74373C8.69285 3.86505 8.33537 4.53822 6.65392 6.7317C4.97246 8.92706 5.38668 12.1984 5.38668 12.1984C5.25239 11.7408 5.06892 11.3002 4.84006 10.8823C4.40126 10.0276 2.61199 9.0235 2.49851 8.96488C2.54769 9.08779 3.35342 11.0903 2.25452 12.4517C0.860557 14.1914 -0.255369 15.4886 0.0510378 18.0924C0.440666 21.4015 4.15349 23.0561 5.94275 22.5777C6.09406 17.2377 8.46777 18.7296 8.58693 11.5176C13.183 13.28 13.6861 19.0152 13.6861 19.0152C13.6861 19.0152 19.593 14.5469 15.4754 6.51802Z" id="Stroke-389" fill="none" fill-rule="evenodd" stroke="#000000" stroke-width="1" />
    </g>
  </g>
</svg>