<?xml version="1.0" encoding="utf-8"?>
<svg width="96" height="96" viewBox="0 0 96 96" version="1.1" xmlns:xlink="http://www.w3.org/1999/xlink" xmlns="http://www.w3.org/2000/svg">
  <defs>
    <path d="M57.7654 16.9735C54.5273 16.9735 51.902 19.5981 51.902 22.8354C51.902 26.0727 54.5273 28.6973 57.7654 28.6973C61.0034 28.6973 63.6287 26.0727 63.6287 22.8354C63.6287 19.5981 61.0034 16.9735 57.7654 16.9735Z" id="path_1" />
    <path d="M10.9157 16.9735C7.67767 16.9735 5.05241 19.5981 5.05241 22.8354C5.05241 26.0727 7.67767 28.6973 10.9157 28.6973C14.1538 28.6973 16.7791 26.0727 16.7791 22.8354C16.7791 19.5981 14.1538 16.9735 10.9157 16.9735Z" id="path_2" />
    <clipPath id="clip_1">
      <use xlink:href="#path_1" />
    </clipPath>
    <clipPath id="clip_2">
      <use xlink:href="#path_2" />
    </clipPath>
  </defs>
  <g id="iconstatedamaged" fill-opacity="1">
    <path d="M-435 -2371L-435 -2371L-435 -2275L-531 -2275L-531 -2371L-435 -2371Z" id="iconstatedamaged" fill="none" stroke="none" />
    <g id="Group-30" transform="translate(9 34)">
      <path d="M19.023 22.9564C19.023 23.8187 18.8509 24.6337 18.6013 25.4127L18.8018 25.4127L50.1498 25.4127C49.4973 23.3875 49.223 20.8008 51.2639 18.0854C52.7978 16.0432 55.2736 14.8954 57.827 14.9124C62.2472 14.9389 65.822 18.5316 65.822 22.9564C65.822 23.5199 65.7614 24.0702 65.6498 24.6015L66.5313 24.5523L77.5014 22.6444L77.5014 19.8629C77.5014 18.8418 77.0191 17.9247 76.3363 17.1645C75.8464 16.6161 75.5003 15.9562 75.33 15.2395L74.6378 10.4782C74.1857 8.56835 19.2368 8.03511 19.023 22.9564" id="Fill-347" fill="#FFD72F" fill-rule="evenodd" stroke="none" />
      <path d="M60.9821 7.36516L54.8804 3.3337C54.8501 3.31479 54.8199 3.29777 54.7877 3.28265C53.3257 2.62461 51.7388 2.28613 50.1349 2.28613L38.0564 2.28613C36.5887 2.28613 32.9818 2.56599 31.6237 3.12003C29.2046 4.1052 27.2376 5.93751 23.608 8.37869C23.19 8.66044 23.3905 9.31848 23.8955 9.30336L60.7173 8.28982C61.2109 8.27658 61.3925 7.63745 60.9821 7.36516" id="Fill-349" fill="#000000" fill-rule="evenodd" stroke="none" />
      <g id="Fill-351">
        <g clip-path="url(#clip_1)">
          <use xlink:href="#path_1" fill="none" stroke="#000000" stroke-width="2" />
        </g>
      </g>
      <path d="M40.4339 10.7605L36.3409 10.7605C36.218 10.7605 36.1177 10.6603 36.1177 10.5374L36.1177 10.2916C36.1177 10.1686 36.218 10.0684 36.3409 10.0684L40.4339 10.0684C40.5568 10.0684 40.6571 10.1686 40.6571 10.2916L40.6571 10.5374C40.6571 10.6603 40.5568 10.7605 40.4339 10.7605" id="Fill-353" fill="#000000" fill-rule="evenodd" stroke="none" />
      <path d="M55.2297 10.7605L51.1368 10.7605C51.0138 10.7605 50.9136 10.6603 50.9136 10.5374L50.9136 10.2916C50.9136 10.1686 51.0138 10.0684 51.1368 10.0684L55.2297 10.0684C55.3527 10.0684 55.4529 10.1686 55.4529 10.2916L55.4529 10.5374C55.4529 10.6603 55.3527 10.7605 55.2297 10.7605" id="Fill-355" fill="#000000" fill-rule="evenodd" stroke="none" />
      <g id="Fill-359">
        <g clip-path="url(#clip_2)">
          <use xlink:href="#path_2" fill="none" stroke="#000000" stroke-width="2" />
        </g>
      </g>
      <path d="M76.3361 17.1639C75.8462 16.6175 75.5001 15.9556 75.3298 15.2409L74.6376 10.4776C74.1856 8.56779 72.523 7.1893 70.5635 7.09475L65.1957 6.77519L56.2305 1.15914C54.5528 0.395204 52.7295 0 50.8873 0L37.3392 0C35.671 0 31.8655 0.319566 30.3202 0.947354C27.2164 2.21238 24.4909 4.70462 19.2366 8.03454C12.9704 8.23876 11.2152 2.32584 4.42881 5.7938C5.21374 7.25359 6.84035 10.2772 5.07567 11.5725L2.38232 12.707C3.95218 14.303 -1.09218 16.9408 0.220447 19.9114C1.43094 21.8534 2.04565 24.4818 1.5293 25.1569L2.7171 25.3687C2.87597 25.397 3.03674 25.4122 3.1994 25.4122L3.35071 25.4122C2.69818 23.387 2.5847 21.116 4.62363 18.4006C6.15755 16.3603 8.47452 14.8948 11.0279 14.9118C15.4481 14.9402 19.0229 18.5311 19.0229 22.9558C19.0229 23.8181 18.8507 24.6331 18.6011 25.4122L18.8035 25.4122L50.1496 25.4122C49.4971 23.387 49.2229 20.8002 51.2637 18.0848C52.7976 16.0445 55.2734 14.8948 57.8268 14.9118C62.247 14.9402 65.8218 18.5311 65.8218 22.9558C65.8218 23.5193 65.7613 24.0696 65.6516 24.6009L66.5311 24.5537L77.5012 22.6438L77.5012 19.8623C77.5012 18.8412 77.0189 17.9241 76.3361 17.1639Z" id="Stroke-345" fill="none" fill-rule="evenodd" stroke="#000000" stroke-width="1" />
    </g>
  </g>
</svg>