<?xml version="1.0" encoding="utf-8"?>
<svg width="96" height="96" viewBox="0 0 96 96" version="1.1" xmlns:xlink="http://www.w3.org/1999/xlink" xmlns="http://www.w3.org/2000/svg">
  <defs>
    <path d="M62.0546 17.1771C59.7641 19.467 59.7641 23.1789 62.0546 25.4669C64.3432 27.7568 68.056 27.7568 70.3465 25.4669C72.637 23.1789 72.637 19.467 70.3465 17.1771C68.056 14.8871 64.3432 14.8871 62.0546 17.1771Z" id="path_1" />
    <clipPath id="clip_1">
      <use xlink:href="#path_1" />
    </clipPath>
  </defs>
  <g id="iconstateflooded" fill-opacity="1">
    <path d="M-640 -2371L-640 -2371L-640 -2275L-736 -2275L-736 -2371L-640 -2371Z" id="iconstateflooded" fill="none" stroke="none" />
    <g id="Group-23" transform="translate(2.66861 23.980127)">
      <path d="M52.6241 38.539L62.6371 28.5285C60.7438 27.5584 58.72 25.9209 58.2434 22.5588C57.884 20.0307 58.8222 17.4703 60.6398 15.6759C63.7852 12.571 68.8523 12.5823 71.9825 15.7118C72.3816 16.1108 72.7278 16.5419 73.0247 16.9957L73.6148 16.3396L80.021 7.23476L78.052 5.2682C77.3295 4.54586 76.3403 4.23953 75.3209 4.18281C74.587 4.1431 73.8739 3.91997 73.2479 3.53422L69.3894 0.656229C68.1033 -0.13796 44.5459 22.5002 38.5407 37.8375C38.6428 37.8054 38.745 37.7751 38.849 37.743C39.1913 37.5406 39.5469 37.3667 39.9025 37.2003C40.0103 37.1379 40.103 37.0622 40.2146 37.0055C41.1546 36.529 42.0795 36.1867 43.0233 35.9239C43.324 35.7348 43.6399 35.5968 44.0693 35.4152C44.962 35.0389 45.3478 34.8782 46.4883 34.8858C47.7329 34.8933 48.5765 35.211 49.6697 35.7726" id="Fill-57" fill="#FFD72F" fill-rule="evenodd" stroke="none" />
      <path d="M57.533 8.10894L50.3665 9.57251C50.3324 9.57818 50.2984 9.58764 50.2643 9.60088C48.7664 10.17 47.4045 11.0512 46.2697 12.1839L37.73 20.7233C36.6917 21.7614 34.3388 24.5089 33.7694 25.8609C32.7556 28.2681 32.663 30.9532 31.8232 35.2456C31.7267 35.741 32.332 36.0644 32.68 35.6975L58.0002 8.94851C58.3387 8.59112 58.0153 8.01061 57.533 8.10894" id="Fill-59" fill="#000000" fill-rule="evenodd" stroke="none" />
      <g id="Fill-61">
        <g clip-path="url(#clip_1)">
          <use xlink:href="#path_1" fill="none" stroke="#000000" stroke-width="2" />
        </g>
      </g>
      <path d="M45.4048 25.0359L42.5109 27.9291C42.4239 28.016 42.2821 28.016 42.1951 27.9291L42.0211 27.7551C41.934 27.6681 41.934 27.5282 42.0211 27.4412L44.9149 24.5462C45.0019 24.4592 45.1438 24.4592 45.2308 24.5462L45.4048 24.722C45.4918 24.809 45.4918 24.949 45.4048 25.0359" id="Fill-63" fill="#000000" fill-rule="evenodd" stroke="none" />
      <path d="M55.8671 14.5763L52.9732 17.4694C52.8862 17.5564 52.7444 17.5564 52.6573 17.4694L52.4833 17.2954C52.3963 17.2084 52.3963 17.0685 52.4833 16.9815L55.3772 14.0865C55.4642 13.9995 55.606 13.9995 55.693 14.0865L55.8671 14.2624C55.9541 14.3494 55.9541 14.4893 55.8671 14.5763" id="Fill-65" fill="#000000" fill-rule="evenodd" stroke="none" />
      <path d="M0 31.6413L5.93711 37.5769C8.94822 40.5873 13.8261 40.5873 16.8372 37.5769L17.7149 36.6995C20.7241 33.6911 25.6039 33.6911 28.6131 36.6995L29.0992 37.1855C32.1084 40.194 36.9882 40.194 39.9974 37.1855L40.3492 36.8338C43.3585 33.8253 48.2383 33.8253 51.2475 36.8338L52.2272 37.8133C55.2383 40.8218 60.1182 40.8218 63.1274 37.8133L63.1576 37.7812C66.1688 34.7727 71.0486 34.7727 74.0578 37.7812L74.0578 37.7812C77.067 40.7896 81.9468 40.7896 84.956 37.7812L91.0974 31.6413" id="Stroke-231" fill="none" fill-rule="evenodd" stroke="#000000" stroke-width="1" />
      <path d="M62.6562 48.106L62.6884 48.0738C65.6976 45.0654 70.5774 45.0654 73.5866 48.0738L73.5866 48.0738" id="Stroke-233" fill="none" fill-rule="evenodd" stroke="#000000" stroke-width="1" />
      <path d="M40.1768 48.106L40.2089 48.0738C43.2181 45.0654 48.0979 45.0654 51.1072 48.0738L51.1072 48.0738" id="Stroke-315" fill="none" fill-rule="evenodd" stroke="#000000" stroke-width="1" />
      <path d="M16.3659 47.8706L17.2435 46.9932C20.2527 43.9847 25.1325 43.9847 28.1418 46.9932L28.6279 47.4791" id="Stroke-317" fill="none" fill-rule="evenodd" stroke="#000000" stroke-width="1" />
      <path d="M52.6241 38.539L62.6371 28.5285C60.7438 27.5584 58.72 25.9209 58.2434 22.5588C57.884 20.0307 58.8222 17.4703 60.6398 15.6759C63.7852 12.571 68.8523 12.5823 71.9825 15.7118C72.3816 16.1108 72.7278 16.5419 73.0247 16.9957L73.6148 16.3396L80.021 7.23476L78.052 5.2682C77.3295 4.54586 76.3403 4.23953 75.3209 4.18281C74.587 4.1431 73.8739 3.91997 73.2479 3.53422L69.3894 0.656229C67.7193 -0.374325 65.5688 -0.175778 64.1181 1.14409L60.0951 4.71416L49.7832 7.0797C48.0563 7.7264 46.4884 8.73427 45.1852 10.0371L35.6052 19.6147C34.425 20.7946 31.9605 23.7085 31.3136 25.2477C30.1372 28.0425 29.88 31.3497 28.8359 36.4515" id="Stroke-55" fill="none" fill-rule="evenodd" stroke="#000000" stroke-width="1" />
    </g>
  </g>
</svg>