<?xml version="1.0" encoding="utf-8"?>
<svg width="96" height="96" viewBox="0 0 96 96" version="1.1" xmlns:xlink="http://www.w3.org/1999/xlink" xmlns="http://www.w3.org/2000/svg">
  <defs>
    <path d="M18.1936 37.5006C14.9923 37.5006 12.3968 40.075 12.3968 43.2503C12.3968 46.4256 14.9923 49 18.1936 49C21.3949 49 23.9904 46.4256 23.9904 43.2503C23.9904 40.075 21.3949 37.5006 18.1936 37.5006Z" id="path_1" />
    <path d="M64.4879 37.5006C61.2866 37.5006 58.6911 40.075 58.6911 43.2503C58.6911 46.4256 61.2866 49 64.4879 49C67.6892 49 70.2847 46.4256 70.2847 43.2503C70.2847 40.075 67.6892 37.5006 64.4879 37.5006Z" id="path_2" />
    <clipPath id="clip_1">
      <use xlink:href="#path_1" />
    </clipPath>
    <clipPath id="clip_2">
      <use xlink:href="#path_2" />
    </clipPath>
  </defs>
  <g id="iconstatehail" fill-opacity="1">
    <path d="M-1051 -2569L-1051 -2569L-1051 -2473L-1147 -2473L-1147 -2569L-1051 -2569Z" id="iconstatehail" fill="none" stroke="none" />
    <g id="Group-31" transform="translate(5 13)">
      <path d="M26.1852 43.3688C26.1852 44.2146 26.015 45.014 25.7682 45.7781L25.9664 45.7781L56.9588 45.7781C56.3137 43.7917 56.0425 41.2544 58.0602 38.591C59.5767 36.5878 62.0245 35.462 64.5489 35.4787C68.9189 35.5047 72.4531 39.0287 72.4531 43.3688C72.4531 43.9215 72.3933 44.4613 72.283 44.9824L73.1543 44.9342L84 43.0628L84 40.3344C84 39.3329 83.5232 38.4333 82.8481 37.6877C82.3638 37.1498 82.0216 36.5025 81.8533 35.7996L81.1689 31.1293C80.722 29.256 26.3965 28.733 26.1852 43.3688" id="Fill-3" fill="#FFD72F" fill-rule="evenodd" stroke="none" />
      <path d="M82.8479 37.6873C82.3636 37.1513 82.0214 36.5022 81.8531 35.8011L81.1687 31.129C80.7218 29.2557 79.0781 27.9036 77.1409 27.8108L71.834 27.4974L62.9705 21.9888C61.3118 21.2394 59.5092 20.8518 57.6879 20.8518L44.2935 20.8518C42.6442 20.8518 38.8819 21.1653 37.3541 21.781C34.2856 23.0219 31.591 25.4664 26.3963 28.7326C20.2012 28.9329 14.0921 30.0254 7.38271 33.4288L6.24205 37.4982L4.54414 37.9674L4.80407 42.8287C4.92935 44.0213 5.8344 44.9876 7.02369 45.1972L10.0642 45.7351C10.2213 45.7629 10.3802 45.7777 10.541 45.7777L10.6906 45.7777C10.0455 43.7913 9.93331 41.5638 11.9491 38.9003C13.4656 36.8991 15.7563 35.4616 18.2807 35.4783C22.6508 35.5062 26.185 39.0283 26.185 43.3684C26.185 44.2142 26.0148 45.0136 25.768 45.7777L25.9662 45.7777L56.9586 45.7777C56.3135 43.7913 56.0423 41.254 58.06 38.5906C59.5765 36.5893 62.0243 35.4616 64.5487 35.4783C68.9187 35.5062 72.4529 39.0283 72.4529 43.3684C72.4529 43.9212 72.3931 44.4609 72.2846 44.9821L73.1542 44.9357L83.9998 43.0624L83.9998 40.3341C83.9998 39.3325 83.523 38.433 82.8479 37.6873Z" id="Stroke-1" fill="none" fill-rule="evenodd" stroke="#000000" stroke-width="1" />
      <path d="M67.6681 28.0759L61.6357 24.1215C61.6058 24.103 61.5759 24.0863 61.5441 24.0715C60.0986 23.426 58.5297 23.094 56.944 23.094L45.0026 23.094C43.5515 23.094 39.9855 23.3685 38.6429 23.912C36.2512 24.8783 34.3065 26.6755 30.7181 29.07C30.3048 29.3464 30.503 29.9918 31.0023 29.977L67.4063 28.9828C67.8944 28.9698 68.0739 28.3429 67.6681 28.0759" id="Fill-5" fill="#000000" fill-rule="evenodd" stroke="none" />
      <g id="Fill-7">
        <g clip-path="url(#clip_1)">
          <use xlink:href="#path_1" fill="none" stroke="#000000" stroke-width="2" />
        </g>
      </g>
      <g id="Fill-9">
        <g clip-path="url(#clip_2)">
          <use xlink:href="#path_2" fill="none" stroke="#000000" stroke-width="2" />
        </g>
      </g>
      <path d="M47.3531 31.4062L43.3065 31.4062C43.185 31.4062 43.0859 31.3079 43.0859 31.1874L43.0859 30.9463C43.0859 30.8257 43.185 30.7274 43.3065 30.7274L47.3531 30.7274C47.4746 30.7274 47.5737 30.8257 47.5737 30.9463L47.5737 31.1874C47.5737 31.3079 47.4746 31.4062 47.3531 31.4062" id="Fill-11" fill="#000000" fill-rule="evenodd" stroke="none" />
      <path d="M61.9813 31.4062L57.9347 31.4062C57.8132 31.4062 57.7141 31.3079 57.7141 31.1874L57.7141 30.9463C57.7141 30.8257 57.8132 30.7274 57.9347 30.7274L61.9813 30.7274C62.1028 30.7274 62.2019 30.8257 62.2019 30.9463L62.2019 31.1874C62.2019 31.3079 62.1028 31.4062 61.9813 31.4062" id="Fill-13" fill="#000000" fill-rule="evenodd" stroke="none" />
      <path d="M28.643 19.7273C28.643 17.8688 27.1227 16.3609 25.2491 16.3609C23.3754 16.3609 21.8551 17.8688 21.8551 19.7273C21.8551 21.5857 23.3754 23.0936 25.2491 23.0936C27.1227 23.0936 28.643 21.5857 28.643 19.7273" id="Fill-19" fill="#000000" fill-rule="evenodd" stroke="none" />
      <path d="M11.6062 25.4998C11.6062 23.6413 10.0859 22.1334 8.21222 22.1334C6.33854 22.1334 4.81828 23.6413 4.81828 25.4998C4.81828 27.3583 6.33854 28.8662 8.21222 28.8662C10.0859 28.8662 11.6062 27.3583 11.6062 25.4998" id="Fill-21" fill="#000000" fill-rule="evenodd" stroke="none" />
      <path d="M64.8578 15.6012C64.8578 13.7427 63.3375 12.2348 61.4638 12.2348C59.5902 12.2348 58.0699 13.7427 58.0699 15.6012C58.0699 17.4597 59.5902 18.9676 61.4638 18.9676C63.3375 18.9676 64.8578 17.4597 64.8578 15.6012" id="Fill-23" fill="#000000" fill-rule="evenodd" stroke="none" />
      <path d="M34.213 2.9854L41.8536 15.2879C41.9209 15.3955 42.0798 15.3547 42.0985 15.2286C43.3869 6.68006 53.8006 4.7437 58.6905 10.8625" id="Stroke-25" fill="none" fill-rule="evenodd" stroke="#000000" stroke-width="1" />
      <path d="M21.8559 14.2222L12.3958 0" id="Stroke-27" fill="none" fill-rule="evenodd" stroke="#000000" stroke-width="1" />
      <path d="M4.54396 20.1739L0 13.3429" id="Stroke-29" fill="none" fill-rule="evenodd" stroke="#000000" stroke-width="1" />
    </g>
  </g>
</svg>