<?xml version="1.0" encoding="utf-8"?>
<svg width="96" height="96" viewBox="0 0 96 96" version="1.1" xmlns:xlink="http://www.w3.org/1999/xlink" xmlns="http://www.w3.org/2000/svg">
  <g id="iconstatenon_running" fill-opacity="1">
    <path d="M-846 -2371L-846 -2371L-846 -2275L-942 -2275L-942 -2371L-846 -2371Z" id="iconstatenon_running" fill="none" stroke="none" />
    <g id="Group-27" transform="translate(8 34)">
      <path d="M21.8894 22.9564C21.8894 23.8187 21.7172 24.6337 21.4676 25.4127L21.6681 25.4127L53.0161 25.4127C52.3636 23.3875 52.0894 20.8008 54.1302 18.0854C55.6641 16.0432 58.1399 14.8954 60.6933 14.9124C65.1135 14.9389 68.6883 18.5316 68.6883 22.9564C68.6883 23.5199 68.6278 24.0702 68.5162 24.6015L69.3976 24.5523L80.3677 22.6444L80.3677 19.8629C80.3677 18.8418 79.8854 17.9247 79.2026 17.1645C78.7127 16.6161 78.3666 15.9562 78.1964 15.2395L77.5041 10.4782C77.0521 8.56835 22.1031 8.03511 21.8894 22.9564" id="Fill-279" fill="#FFD72F" fill-rule="evenodd" stroke="none" />
      <path d="M63.8484 7.36516L57.7467 3.3337C57.7184 3.31479 57.6862 3.29777 57.654 3.28265C56.192 2.62461 54.6051 2.28613 53.0012 2.28613L40.9227 2.28613C39.455 2.28613 35.8481 2.56599 34.4901 3.12003C32.071 4.1052 30.1039 5.93751 26.4743 8.37869C26.0563 8.66044 26.2568 9.31848 26.7618 9.30336L63.5836 8.28982C64.0772 8.27658 64.2588 7.63745 63.8484 7.36516" id="Fill-281" fill="#000000" fill-rule="evenodd" stroke="none" />
      <path d="M43.3002 10.7605L39.2072 10.7605C39.0843 10.7605 38.984 10.6603 38.984 10.5374L38.984 10.2916C38.984 10.1686 39.0843 10.0684 39.2072 10.0684L43.3002 10.0684C43.4231 10.0684 43.5234 10.1686 43.5234 10.2916L43.5234 10.5374C43.5234 10.6603 43.4231 10.7605 43.3002 10.7605" id="Fill-283" fill="#000000" fill-rule="evenodd" stroke="none" />
      <path d="M58.0961 10.7605L54.0031 10.7605C53.8801 10.7605 53.7799 10.6603 53.7799 10.5374L53.7799 10.2916C53.7799 10.1686 53.8801 10.0684 54.0031 10.0684L58.0961 10.0684C58.219 10.0684 58.3192 10.1686 58.3192 10.2916L58.3192 10.5374C58.3192 10.6603 58.219 10.7605 58.0961 10.7605" id="Fill-285" fill="#000000" fill-rule="evenodd" stroke="none" />
      <path d="M15.1825 22.6818C15.1825 22.0162 14.6434 21.4754 13.9757 21.4754C13.31 21.4754 12.7709 22.0162 12.7709 22.6818C12.7709 23.3475 13.31 23.8883 13.9757 23.8883C14.6434 23.8883 15.1825 23.3475 15.1825 22.6818Z" id="Stroke-365" fill="none" fill-rule="evenodd" stroke="#000000" stroke-width="1" />
      <path d="M62.0894 22.6818C62.0894 22.0162 61.5503 21.4754 60.8827 21.4754C60.2169 21.4754 59.6778 22.0162 59.6778 22.6818C59.6778 23.3475 60.2169 23.8883 60.8827 23.8883C61.5503 23.8883 62.0894 23.3475 62.0894 22.6818Z" id="Stroke-367" fill="none" fill-rule="evenodd" stroke="#000000" stroke-width="1" />
      <path d="M9.30872 27.815L17.4966 27.815L17.4966 25.4116L9.30872 25.4116L9.30872 27.815Z" id="Fill-369" fill="#000000" fill-rule="evenodd" stroke="none" />
      <path d="M10.2714 31.2678L18.4593 31.2678L18.4593 28.8644L10.2714 28.8644L10.2714 31.2678Z" id="Fill-371" fill="#000000" fill-rule="evenodd" stroke="none" />
      <path d="M56.7488 27.815L64.9367 27.815L64.9367 25.4116L56.7488 25.4116L56.7488 27.815Z" id="Fill-372" fill="#000000" fill-rule="evenodd" stroke="none" />
      <path d="M57.7115 31.2678L65.8994 31.2678L65.8994 28.8644L57.7115 28.8644L57.7115 31.2678Z" id="Fill-373" fill="#000000" fill-rule="evenodd" stroke="none" />
      <path d="M79.2024 17.1639C78.7125 16.6175 78.3664 15.9556 78.1962 15.2409L77.5039 10.4776C77.0519 8.56779 75.3893 7.1893 73.4298 7.09475L68.062 6.77519L59.0968 1.15914C57.4191 0.395204 55.5958 0 53.7536 0L40.2055 0C38.5373 0 34.7318 0.319566 33.1865 0.947354C30.0827 2.21238 27.3572 4.70462 22.1029 8.03454C15.8367 8.23876 9.65749 9.35252 2.87115 12.8224L1.71739 16.9711L0 17.4495L0.262905 22.4056C0.389628 23.6214 1.30507 24.6066 2.508 24.8203L5.58341 25.3687C5.74229 25.397 5.90306 25.4122 6.06572 25.4122L6.21703 25.4122C5.5645 23.387 5.45102 21.116 7.48995 18.4006C9.02387 16.3603 11.3408 14.8948 13.8942 14.9118C18.3144 14.9402 21.8892 18.5311 21.8892 22.9558C21.8892 23.8181 21.7171 24.6331 21.4674 25.4122L21.6698 25.4122L53.016 25.4122C52.3634 23.387 52.0892 20.8002 54.13 18.0848C55.6639 16.0445 58.1398 14.8948 60.6931 14.9118C65.1133 14.9402 68.6881 18.5311 68.6881 22.9558C68.6881 23.5193 68.6276 24.0696 68.5179 24.6009L69.3974 24.5537L80.3675 22.6438L80.3675 19.8623C80.3675 18.8412 79.8852 17.9241 79.2024 17.1639Z" id="Stroke-277" fill="none" fill-rule="evenodd" stroke="#000000" stroke-width="1" />
    </g>
  </g>
</svg>