<?xml version="1.0" encoding="utf-8"?>
<svg width="96" height="96" viewBox="0 0 96 96" version="1.1" xmlns:xlink="http://www.w3.org/1999/xlink" xmlns="http://www.w3.org/2000/svg">
  <g id="iconstateold" fill-opacity="1">
    <path d="M-1051 -2371L-1051 -2371L-1051 -2275L-1147 -2275L-1147 -2371L-1051 -2371Z" id="iconstateold" fill="none" stroke="none" />
    <g id="Group-29" transform="translate(11 34)">
      <path d="M55.0114 2.71296C58.7393 7.20013 55.4351 8.3309 54.7258 8.53323C53.9673 8.75069 23.2567 8.53323 23.2567 8.53323C23.2567 8.53323 15.1066 7.6218 8.2484 11.8064L8.2484 11.8064C22.1445 8.4557 24.1362 21.28 24.1362 21.28L47.3739 21.28C47.3739 21.28 49.2785 11.5814 59.4127 11.5814C69.5468 11.5814 74.4644 22.8683 74.4644 22.8683C74.4644 22.8683 69.7681 8.76392 55.0114 2.71296" id="Fill-379" fill="#FFD72F" fill-rule="evenodd" stroke="none" />
      <path d="M65.6897 23.498C65.6897 20.2248 63.036 17.5719 59.762 17.5719C56.488 17.5719 53.8344 20.2248 53.8344 23.498C53.8344 26.7712 56.488 29.4242 59.762 29.4242C63.036 29.4242 65.6897 26.7712 65.6897 23.498" id="Fill-380" fill="#000000" fill-rule="evenodd" stroke="none" />
      <path d="M17.7497 23.498C17.7497 20.2248 15.096 17.5719 11.822 17.5719C8.54799 17.5719 5.89436 20.2248 5.89436 23.498C5.89436 26.7712 8.54799 29.4242 11.822 29.4242C15.096 29.4242 17.7497 26.7712 17.7497 23.498" id="Fill-381" fill="#000000" fill-rule="evenodd" stroke="none" />
      <path d="M23.2557 8.53342L54.7267 8.53342C56.586 8.53342 57.5184 6.287 56.2039 4.97092L53.2912 2.05322" id="Stroke-382" fill="none" fill-rule="evenodd" stroke="#000000" stroke-width="1" />
      <path d="M14.6699 23.498C14.6699 21.9248 13.3951 20.6503 11.8214 20.6503C10.2497 20.6503 8.97299 21.9248 8.97299 23.498C8.97299 25.0713 10.2497 26.3458 11.8214 26.3458C13.3951 26.3458 14.6699 25.0713 14.6699 23.498Z" id="Stroke-383" fill="none" fill-rule="evenodd" stroke="#FFFFFF" stroke-width="1" />
      <path d="M62.6101 23.498C62.6101 21.9248 61.3353 20.6503 59.7616 20.6503C58.1899 20.6503 56.9132 21.9248 56.9132 23.498C56.9132 25.0713 58.1899 26.3458 59.7616 26.3458C61.3353 26.3458 62.6101 25.0713 62.6101 23.498Z" id="Stroke-384" fill="none" fill-rule="evenodd" stroke="#FFFFFF" stroke-width="1" />
      <path d="M31.4875 8.53342L31.4875 0.837351" id="Stroke-385" fill="none" fill-rule="evenodd" stroke="#000000" stroke-width="1" />
      <path d="M41.1285 8.53342L41.1285 0.00156216" id="Stroke-386" fill="none" fill-rule="evenodd" stroke="#000000" stroke-width="1" />
      <path d="M40.775 12.4758L36.334 12.4758C36.211 12.4758 36.1108 12.3756 36.1108 12.2527L36.1108 11.9539C36.1108 11.831 36.211 11.7308 36.334 11.7308L40.775 11.7308C40.8979 11.7308 40.9982 11.831 40.9982 11.9539L40.9982 12.2527C40.9982 12.3756 40.8979 12.4758 40.775 12.4758" id="Fill-387" fill="#000000" fill-rule="evenodd" stroke="none" />
      <path d="M69.4083 13.8842L73.0152 13.8842" id="Stroke-388" fill="none" fill-rule="evenodd" stroke="#000000" stroke-width="1" />
      <path d="M0 23.0156C1.5169 17.7418 4.45614 14.3779 7.74907 12.2393L8.33351 12.001C22.2296 8.65028 24.1362 21.2817 24.1362 21.2817L47.3739 21.2817C47.3739 21.2817 49.2785 11.5812 59.4127 11.5812C69.5468 11.5812 74.419 23.0156 74.419 23.0156" id="Stroke-378" fill="none" fill-rule="evenodd" stroke="#000000" stroke-width="1" />
      <path d="M26.6572 3.22691L23.2565 8.53285C23.2565 8.53285 4.76047 6.46418 0.0433131 22.868L3.7183 22.868C3.93203 18.4999 7.51434 15.0131 11.9383 15.0131C16.3623 15.0131 19.9446 18.4999 20.1602 22.868L51.5405 22.868C51.7561 18.4999 55.3384 15.0131 59.7624 15.0131C64.1864 15.0131 67.7668 18.4999 67.9824 22.868L74.4642 22.868C74.4642 22.868 64.8011 -6.25041 29.5075 1.22821C28.3311 1.47781 27.306 2.21527 26.6572 3.22691Z" id="Stroke-377" fill="none" fill-rule="evenodd" stroke="#000000" stroke-width="1" />
    </g>
  </g>
</svg>