<?xml version="1.0" encoding="utf-8"?>
<svg width="96" height="96" viewBox="0 0 96 96" version="1.1" xmlns:xlink="http://www.w3.org/1999/xlink" xmlns="http://www.w3.org/2000/svg">
  <defs>
    <path d="M61.3651 25.0459C58.127 25.0459 55.5017 27.6705 55.5017 30.9078C55.5017 34.145 58.127 36.7696 61.3651 36.7696C64.6031 36.7696 67.2284 34.145 67.2284 30.9078C67.2284 27.6705 64.6031 25.0459 61.3651 25.0459Z" id="path_1" />
    <clipPath id="clip_1">
      <use xlink:href="#path_1" />
    </clipPath>
  </defs>
  <g id="iconstatesalvage" fill-opacity="1">
    <path d="M-25 -2569L-25 -2569L-25 -2473L-121 -2473L-121 -2569L-25 -2569Z" id="iconstatesalvage" fill="none" stroke="none" />
    <g id="Group-25" transform="translate(7 24)">
      <path d="M5.12976 0L5.16192 0.0321457C8.17113 3.04061 8.17113 7.9192 5.16192 10.9277L5.16192 10.9277" id="Stroke-237" fill="none" fill-rule="evenodd" stroke="#000000" stroke-width="1" />
      <path d="M2.28907 20.6916L2.25691 20.6595C-0.752304 17.651 -0.752304 12.7724 2.25691 9.76398L2.25691 9.76398" id="Stroke-289" fill="none" fill-rule="evenodd" stroke="#000000" stroke-width="1" />
      <path d="M22.6228 31.0288C22.6228 31.891 22.4506 32.706 22.201 33.4851L22.4015 33.4851L53.7495 33.4851C53.097 31.4599 52.8227 28.8731 54.8636 26.1577C56.3975 24.1155 58.8733 22.9678 61.4267 22.9848C65.8469 23.0112 69.4217 26.604 69.4217 31.0288C69.4217 31.5923 69.3611 32.1425 69.2496 32.6739L70.131 32.6247L81.1011 30.7168L81.1011 27.9352C81.1011 26.9141 80.6188 25.997 79.936 25.2369C79.4461 24.6885 79.1 24.0286 78.9297 23.3119L78.2375 18.5506C77.7854 16.6407 22.8365 16.1075 22.6228 31.0288" id="Fill-293" fill="#FFD72F" fill-rule="evenodd" stroke="none" />
      <path d="M64.5818 15.4375L58.4801 11.4061C58.4499 11.3872 58.4196 11.3701 58.3874 11.355C56.9254 10.697 55.3385 10.3585 53.7346 10.3585L41.6561 10.3585C40.1884 10.3585 36.5815 10.6383 35.2235 11.1924C32.8044 12.1776 30.8373 14.0099 27.2077 16.4511C26.7897 16.7328 26.9902 17.3908 27.4952 17.3757L64.317 16.3622C64.8106 16.3489 64.9922 15.7098 64.5818 15.4375" id="Fill-299" fill="#000000" fill-rule="evenodd" stroke="none" />
      <path d="M22.309 35.702C22.309 34.5542 19.3092 33.6258 15.6077 33.6258C11.9044 33.6258 8.90462 34.5542 8.90462 35.702L8.90462 37.7782C8.90462 38.926 11.9044 39.8564 15.6077 39.8564C19.3092 39.8564 22.309 38.926 22.309 37.7782L22.309 35.702Z" id="Fill-303" fill="#000000" fill-rule="evenodd" stroke="none" />
      <g id="Fill-305">
        <g clip-path="url(#clip_1)">
          <use xlink:href="#path_1" fill="none" stroke="#000000" stroke-width="2" />
        </g>
      </g>
      <path d="M44.0334 18.8329L39.9404 18.8329C39.8175 18.8329 39.7172 18.7326 39.7172 18.6097L39.7172 18.3639C39.7172 18.241 39.8175 18.1408 39.9404 18.1408L44.0334 18.1408C44.1563 18.1408 44.2566 18.241 44.2566 18.3639L44.2566 18.6097C44.2566 18.7326 44.1563 18.8329 44.0334 18.8329" id="Fill-307" fill="#000000" fill-rule="evenodd" stroke="none" />
      <path d="M58.8295 18.8329L54.7365 18.8329C54.6135 18.8329 54.5133 18.7326 54.5133 18.6097L54.5133 18.3639C54.5133 18.241 54.6135 18.1408 54.7365 18.1408L58.8295 18.1408C58.9524 18.1408 59.0526 18.241 59.0526 18.3639L59.0526 18.6097C59.0526 18.7326 58.9524 18.8329 58.8295 18.8329" id="Fill-309" fill="#000000" fill-rule="evenodd" stroke="none" />
      <path d="M15.9109 30.5228C15.9109 29.8572 15.3719 29.3163 14.7042 29.3163C14.0384 29.3163 13.4994 29.8572 13.4994 30.5228C13.4994 31.1884 14.0384 31.7292 14.7042 31.7292C15.3719 31.7292 15.9109 31.1884 15.9109 30.5228Z" id="Stroke-319" fill="none" fill-rule="evenodd" stroke="#000000" stroke-width="1" />
      <path d="M79.9358 25.2363C79.4459 24.6898 79.0998 24.028 78.9296 23.3132L78.2373 18.55C77.7853 16.6401 76.1227 15.2617 74.1632 15.1671L68.7954 14.8476L59.8302 9.2315C58.1525 8.46757 56.3292 8.07236 54.487 8.07236L40.9389 8.07236C39.2707 8.07236 35.4652 8.39193 33.9199 9.01972C30.8161 10.2847 28.0906 12.777 22.8363 16.1069C16.5701 16.3111 14.8149 10.3982 8.02852 13.8662C8.81345 15.326 10.4401 18.3495 8.67538 19.6448L5.98203 20.7794C7.55189 22.3753 2.50752 25.0132 3.82016 27.9838C5.03065 29.9258 5.64536 32.5542 5.129 33.2292L6.3168 33.441C6.47568 33.4694 6.63645 33.4845 6.79911 33.4845L6.95042 33.4845C6.29789 31.4593 6.18441 29.1883 8.22334 26.473C9.75726 24.4327 12.0742 22.9672 14.6276 22.9842C19.0478 23.0126 22.6226 26.6034 22.6226 31.0282C22.6226 31.8905 22.4504 32.7055 22.2008 33.4845L22.4013 33.4845L53.7493 33.4845C53.0968 31.4593 52.8226 28.8725 54.8634 26.1572C56.3973 24.1169 58.8731 22.9672 61.4265 22.9842C65.8467 23.0126 69.4215 26.6034 69.4215 31.0282C69.4215 31.5917 69.361 32.142 69.2513 32.6733L70.1308 32.626L81.1009 30.7162L81.1009 27.9346C81.1009 26.9135 80.6186 25.9964 79.9358 25.2363Z" id="Stroke-291" fill="none" fill-rule="evenodd" stroke="#000000" stroke-width="1" />
    </g>
  </g>
</svg>