<?xml version="1.0" encoding="utf-8"?>
<svg width="96" height="96" viewBox="0 0 96 96" version="1.1" xmlns:xlink="http://www.w3.org/1999/xlink" xmlns="http://www.w3.org/2000/svg">
  <g id="iconstatescrap" fill-opacity="1">
    <path d="M-230 -2569L-230 -2569L-230 -2473L-326 -2473L-326 -2569L-230 -2569Z" id="iconstatescrap" fill="none" stroke="none" />
    <g id="Group-26" transform="translate(8 35)">
      <path d="M80.212 19.8625C80.212 18.8414 79.7297 17.9243 79.0469 17.1641C78.557 16.6176 78.2109 15.9558 78.0407 15.2411L77.3484 10.4778C77.2047 9.86704 71.4737 9.39998 63.7531 9.53235C63.5336 11.4913 63.2556 13.4163 62.8773 15.3129C66.1457 16.3378 68.5326 19.3519 68.5326 22.956C68.5326 23.5195 68.4721 24.0698 68.3624 24.6011L69.2419 24.5539L80.212 22.644L80.212 19.8625Z" id="Fill-295" fill="#FFD72F" fill-rule="evenodd" stroke="none" />
      <path d="M43.9925 20.0531C43.8695 17.0616 43.8601 14.0626 44.1551 11.0901C32.3131 12.8884 21.8271 16.4546 21.7345 22.9557C21.7345 23.8179 21.5623 24.6329 21.3108 25.412L44.7433 25.412C44.2308 23.6874 44.0643 21.806 43.9925 20.0531" id="Fill-297" fill="#FFD72F" fill-rule="evenodd" stroke="none" />
      <path d="M44.2032 2.28537L39.3328 2.28537C37.8651 2.28537 34.2582 2.56523 32.9002 3.11927C30.4811 4.10444 28.514 5.93675 24.8844 8.37794C24.4664 8.65968 24.6669 9.31773 25.1719 9.30449L44.2032 8.77881" id="Fill-301" fill="#000000" fill-rule="evenodd" stroke="none" />
      <path d="M44.2032 25.4123L53.0152 25.4123C52.3627 23.3872 52.0903 20.8004 54.1311 18.085C55.6632 16.0447 58.139 14.895 60.6924 14.912C61.4433 14.9158 62.1715 15.0236 62.8599 15.2221L64.0496 4.26234L64.0496 4.26234L59.0961 1.15933C57.4184 0.395393 55.597 0.000189093 53.7528 0.000189093L44.2032 0.000189093L44.2032 25.4123Z" id="Stroke-363" fill="none" fill-rule="evenodd" stroke="#000000" stroke-width="1" />
      <path d="M79.2024 17.1639C78.7125 16.6175 78.3664 15.9556 78.1962 15.2409L77.5039 10.4776C77.0519 8.56779 75.3893 7.1893 73.4298 7.09475L68.062 6.77519L59.0968 1.15914C57.4191 0.395204 55.5958 0 53.7536 0L40.2055 0C38.5373 0 34.7318 0.319566 33.1865 0.947354C30.0827 2.21238 27.3572 4.70462 22.1029 8.03454C15.8367 8.23876 9.65749 9.35252 2.87115 12.8224L1.71739 16.9711L0 17.4495L0.262905 22.4056C0.389628 23.6214 1.30507 24.6066 2.508 24.8203L5.58341 25.3687C5.74229 25.397 5.90306 25.4122 6.06572 25.4122L6.21703 25.4122C5.5645 23.387 5.45102 21.116 7.48995 18.4006C9.02387 16.3603 11.3408 14.8948 13.8942 14.9118C18.3144 14.9402 21.8892 18.5311 21.8892 22.9558C21.8892 23.8181 21.7171 24.6331 21.4674 25.4122L21.6679 25.4122L53.016 25.4122C52.3634 23.387 52.0892 20.8002 54.13 18.0848C55.6639 16.0445 58.1398 14.8948 60.6931 14.9118C65.1133 14.9402 68.6881 18.5311 68.6881 22.9558C68.6881 23.5193 68.6276 24.0696 68.5179 24.6009L69.3974 24.5537L80.3675 22.6438L80.3675 19.8623C80.3675 18.8412 79.8852 17.9241 79.2024 17.1639Z" id="Stroke-287" fill="none" fill-rule="evenodd" stroke="#000000" stroke-width="1" />
    </g>
  </g>
</svg>