<?xml version="1.0" encoding="utf-8"?>
<svg width="96" height="96" viewBox="0 0 96 96" version="1.1" xmlns:xlink="http://www.w3.org/1999/xlink" xmlns="http://www.w3.org/2000/svg">
  <defs>
    <path d="M19.736 26.0524C22.9741 26.0524 25.5993 23.4854 25.5993 20.3191C25.5993 17.1528 22.9741 14.5857 19.736 14.5857C16.4979 14.5857 13.8727 17.1528 13.8727 20.3191C13.8727 23.4854 16.4979 26.0524 19.736 26.0524Z" id="path_1" />
    <clipPath id="clip_1">
      <use xlink:href="#path_1" />
    </clipPath>
  </defs>
  <g id="iconstatetotaled" fill-opacity="1">
    <path d="M-436 -2569L-436 -2569L-436 -2473L-532 -2473L-532 -2569L-436 -2569Z" id="iconstatetotaled" fill="none" stroke="none" />
    <g id="Group-31" transform="translate(7 19)">
      <path d="M80.07 6.97196L80.1021 7.00341C83.1114 9.94592 83.1114 14.7176 80.1021 17.6601L80.1021 17.6601" id="Stroke-321" fill="none" fill-rule="evenodd" stroke="#000000" stroke-width="1" />
      <path d="M73.9795 10.6881L73.9473 10.6567C70.9381 7.71416 70.9381 2.94251 73.9473 0L73.9473 0" id="Stroke-323" fill="none" fill-rule="evenodd" stroke="#000000" stroke-width="1" />
      <path d="M58.4783 20.2007C58.4783 19.3573 58.6504 18.5602 58.9001 17.7982L58.6996 17.7982L27.3515 17.7982C28.0041 19.779 28.2783 22.3091 26.2375 24.9649C24.7036 26.9624 22.2277 28.085 19.6743 28.0684C15.2541 28.0425 11.6794 24.5285 11.6794 20.2007C11.6794 19.6496 11.7399 19.1114 11.8515 18.5917L10.9701 18.6397L0 20.5059L0 23.2264C0 24.2252 0.482307 25.1222 1.1651 25.8656C1.65687 26.402 2.0011 27.0475 2.17133 27.7484L2.86358 32.4054C3.31562 34.2734 58.2646 34.7949 58.4783 20.2007" id="Fill-327" fill="#FFD72F" fill-rule="evenodd" stroke="none" />
      <path d="M16.5193 35.4502L22.621 39.3933C22.6493 39.4117 22.6815 39.4284 22.7136 39.4432C24.1757 40.0868 25.7626 40.4179 27.3665 40.4179L39.445 40.4179C40.9127 40.4179 44.5196 40.1441 45.8776 39.6022C48.2967 38.6387 50.2638 36.8465 53.8934 34.4589C54.3114 34.1833 54.1109 33.5397 53.6059 33.5545L16.7841 34.5458C16.2904 34.5587 16.1089 35.1838 16.5193 35.4502" id="Fill-329" fill="#000000" fill-rule="evenodd" stroke="none" />
      <path d="M54.5576 42.5873C54.5576 43.7099 57.5574 44.618 61.2608 44.618C64.9622 44.618 67.962 43.7099 67.962 42.5873L67.962 40.5566C67.962 39.4339 64.9622 38.524 61.2608 38.524C57.5574 38.524 54.5576 39.4339 54.5576 40.5566L54.5576 42.5873Z" id="Fill-331" fill="#000000" fill-rule="evenodd" stroke="none" />
      <g id="Fill-333">
        <g clip-path="url(#clip_1)">
          <use xlink:href="#path_1" fill="none" stroke="#000000" stroke-width="2" />
        </g>
      </g>
      <path d="M37.0677 32.1294L41.1607 32.1294C41.2836 32.1294 41.3838 32.2275 41.3838 32.3477L41.3838 32.5881C41.3838 32.7083 41.2836 32.8064 41.1607 32.8064L37.0677 32.8064C36.9447 32.8064 36.8445 32.7083 36.8445 32.5881L36.8445 32.3477C36.8445 32.2275 36.9447 32.1294 37.0677 32.1294" id="Fill-335" fill="#000000" fill-rule="evenodd" stroke="none" />
      <path d="M22.2714 32.1294L26.3644 32.1294C26.4874 32.1294 26.5876 32.2275 26.5876 32.3477L26.5876 32.5881C26.5876 32.7083 26.4874 32.8064 26.3644 32.8064L22.2714 32.8064C22.1485 32.8064 22.0482 32.7083 22.0482 32.5881L22.0482 32.3477C22.0482 32.2275 22.1485 32.1294 22.2714 32.1294" id="Fill-337" fill="#000000" fill-rule="evenodd" stroke="none" />
      <path d="M65.1901 20.6956C65.1901 21.3466 65.7292 21.8756 66.3969 21.8756C67.0626 21.8756 67.6017 21.3466 67.6017 20.6956C67.6017 20.0446 67.0626 19.5157 66.3969 19.5157C65.7292 19.5157 65.1901 20.0446 65.1901 20.6956Z" id="Stroke-343" fill="none" fill-rule="evenodd" stroke="#000000" stroke-width="1" />
      <path d="M1.16529 25.8662C1.65516 26.4007 2.00129 27.048 2.17152 27.7471L2.86377 32.4059C3.31581 34.2739 4.97835 35.6222 6.93785 35.7146L12.3056 36.0272L21.2709 41.5201C22.9485 42.2673 24.7719 42.6539 26.6141 42.6539L40.1622 42.6539C41.8304 42.6539 45.6359 42.3413 47.1812 41.7273C50.285 40.49 53.0105 38.0524 58.2648 34.7955C64.531 34.5957 66.2862 40.379 73.0726 36.9871C72.2876 35.5593 70.661 32.602 72.4257 31.3351L75.119 30.2254C73.5492 28.6645 78.5935 26.0844 77.2809 23.1789C76.0704 21.2795 75.4557 18.7087 75.9721 18.0485L74.7843 17.8413C74.6254 17.8136 74.4646 17.7988 74.302 17.7988L74.1507 17.7988C74.8032 19.7796 74.9167 22.0008 72.8777 24.6566C71.3438 26.6522 69.0268 28.0856 66.4735 28.0689C62.0533 28.0412 58.4785 24.529 58.4785 20.2013C58.4785 19.3579 58.6506 18.5608 58.9003 17.7988L58.6998 17.7988L27.3517 17.7988C28.0043 19.7796 28.2785 22.3097 26.2377 24.9655C24.7038 26.9611 22.2279 28.0856 19.6745 28.0689C15.2543 28.0412 11.6796 24.529 11.6796 20.2013C11.6796 19.6501 11.7401 19.1119 11.8498 18.5922L10.9703 18.6384L0.00018914 20.5064L0.00018914 23.227C0.00018914 24.2257 0.482496 25.1227 1.16529 25.8662Z" id="Stroke-325" fill="none" fill-rule="evenodd" stroke="#000000" stroke-width="1" />
    </g>
  </g>
</svg>