<?xml version="1.0" encoding="utf-8"?>
<svg width="96" height="96" viewBox="0 0 96 96" version="1.1" xmlns:xlink="http://www.w3.org/1999/xlink" xmlns="http://www.w3.org/2000/svg">
  <g id="iconstatetransmission" fill-opacity="1">
    <path d="M-25 -2767L-25 -2767L-25 -2671L-121 -2671L-121 -2767L-25 -2767Z" id="iconstatetransmission" fill="none" stroke="none" />
    <g id="Group-7" transform="translate(25 27)">
      <path d="M45.5414 5.84805C45.5414 3.77439 43.5786 2.15558 41.3952 2.71779C40.2828 3.00454 39.3812 3.91706 39.1048 5.02452C38.7174 6.57411 39.4609 7.98103 40.673 8.66048L40.673 16.2855C40.673 18.3889 38.9539 20.0938 36.833 20.0938L27.3271 20.0938C27.0323 19.5684 26.5978 19.1375 26.0666 18.8437L26.0666 8.66895C27.2872 7.99233 28.0378 6.58259 27.6504 5.02734C27.3755 3.91989 26.4725 3.00454 25.3601 2.71779C23.1766 2.15558 21.2139 3.77439 21.2139 5.84805C21.2139 7.06568 21.899 8.11523 22.9003 8.66895L22.9003 18.8437C22.3704 19.1375 21.936 19.5684 21.6398 20.0938L9.80505 20.0938C8.87354 20.0938 8.11865 19.3452 8.11865 18.4214L8.11865 8.66895C9.33787 7.99233 10.0885 6.584 9.7025 5.02734C9.42618 3.91989 8.52458 3.00454 7.41076 2.71779C5.22727 2.15558 3.26455 3.77439 3.26455 5.84805C3.26455 7.06568 3.94965 8.11523 4.95095 8.66895L4.95095 18.4228C4.95095 19.6715 5.43807 20.8086 6.22857 21.6646C5.43807 22.5206 4.95095 23.6578 4.95095 24.9079L4.95095 35.5516C3.73031 36.2268 2.97969 37.6366 3.3671 39.1932C3.642 40.3007 4.54502 41.216 5.65884 41.5028C7.84233 42.065 9.80363 40.4462 9.80363 38.3725C9.80363 37.1549 9.11995 36.1068 8.11865 35.5516L8.11865 24.9079C8.11865 23.9841 8.87354 23.2354 9.80505 23.2354L21.6398 23.2354C21.936 23.7609 22.3704 24.1917 22.9003 24.4855L22.9003 35.5516C21.6797 36.2282 20.929 37.638 21.3164 39.1932C21.5913 40.3021 22.4944 41.216 23.6082 41.5028C25.7917 42.065 27.753 40.4462 27.753 38.3725C27.753 37.1549 27.0679 36.1068 26.0666 35.5516L26.0666 24.4855C26.5978 24.1917 27.0323 23.7609 27.3271 23.2354L36.1907 23.2354C40.3967 23.2354 43.8393 19.8212 43.8393 15.6485L43.8393 8.67743C44.8491 8.12511 45.5414 7.07275 45.5414 5.84805" id="Fill-3" fill="#FFD72F" fill-rule="evenodd" stroke="none" />
      <path d="M46 5.0782C46 2.27283 43.7068 0 40.8796 0C38.0508 0 35.7591 2.27283 35.7591 5.0782C35.7591 6.97528 36.8202 8.61104 38.3756 9.4826L38.3756 15.8971C38.3756 17.3407 37.1906 18.5146 35.7349 18.5146L27.4425 18.5146C26.9781 17.691 26.2987 17.0173 25.4684 16.5568L25.4684 9.49531C27.0365 8.62658 28.1091 6.98517 28.1091 5.0782C28.1091 2.27283 25.8159 0 22.9886 0C20.1599 0 17.8667 2.27283 17.8667 5.0782C17.8667 6.98517 18.9407 8.62799 20.5089 9.49531L20.5089 16.5568C19.6785 17.0173 18.9976 17.691 18.5333 18.5146L10.2423 18.5146C8.78524 18.5146 7.60162 17.3407 7.60162 15.8971L7.60162 9.49531C9.16838 8.62658 10.2409 6.98517 10.2409 5.0782C10.2409 2.27283 7.94916 0 5.12045 0C2.29316 0 0 2.27283 0 5.0782C0 6.98517 1.07394 8.62799 2.64212 9.49531L2.64212 15.8971C2.64212 17.8535 3.40414 19.6333 4.64188 20.9739C3.40414 22.3158 2.64212 24.0957 2.64212 26.0535L2.64212 32.5047C1.07394 33.372 0 35.0148 0 36.9218C0 39.7272 2.29316 42 5.12045 42C7.94916 42 10.2409 39.7272 10.2409 36.9218C10.2409 35.0148 9.16838 33.3734 7.60162 32.5047L7.60162 26.0535C7.60162 24.6084 8.78524 23.4332 10.2423 23.4332L18.5333 23.4332C18.9976 24.2567 19.6785 24.9319 20.5089 25.3924L20.5089 32.5047C18.9407 33.372 17.8667 35.0148 17.8667 36.9218C17.8667 39.7272 20.1599 42 22.9886 42C25.8159 42 28.1091 39.7272 28.1091 36.9218C28.1091 35.0148 27.0365 33.3734 25.4684 32.5047L25.4684 25.391C26.2987 24.9319 26.9781 24.2567 27.4425 23.4332L35.7349 23.4332C39.9253 23.4332 43.3351 20.0529 43.3351 15.8971L43.3351 9.50802C44.9161 8.64353 46 6.99506 46 5.0782Z" id="Stroke-1" fill="none" fill-rule="evenodd" stroke="#000000" stroke-width="1" />
      <path d="M39.1682 31.1082L39.1682 33.956C39.1682 34.0111 39.1967 34.0393 39.2523 34.0393L40.0086 34.0393C40.3561 34.0393 40.6367 33.9023 40.856 33.6311C41.074 33.3585 41.1836 32.9954 41.1836 32.5406C41.1836 32.0744 41.074 31.7057 40.856 31.4331C40.6367 31.1605 40.3561 31.0249 40.0086 31.0249L39.2523 31.0249C39.1967 31.0249 39.1682 31.0531 39.1682 31.1082M41.1993 40.499L39.9075 35.9039C39.8847 35.8587 39.8562 35.8375 39.8234 35.8375L39.2523 35.8375C39.1967 35.8375 39.1682 35.8644 39.1682 35.9209L39.1682 40.4651C39.1682 40.5216 39.1497 40.5682 39.1098 40.6078C39.0699 40.6459 39.0229 40.6657 38.9674 40.6657L37.0033 40.6657C36.9463 40.6657 36.8993 40.6459 36.8608 40.6078C36.8209 40.5682 36.8024 40.5216 36.8024 40.4651L36.8024 29.2111C36.8024 29.1546 36.8209 29.108 36.8608 29.0685C36.8993 29.0303 36.9463 29.0106 37.0033 29.0106L40.3931 29.0106C41.0099 29.0106 41.5582 29.1575 42.0397 29.4513C42.5211 29.7465 42.8928 30.1604 43.1563 30.6929C43.4184 31.2241 43.5494 31.8357 43.5494 32.5236C43.5494 33.1791 43.4241 33.7554 43.172 34.2554C42.9213 34.7555 42.5709 35.1439 42.1237 35.4208C42.0995 35.4321 42.0838 35.4448 42.0724 35.4618C42.0625 35.4787 42.0625 35.4985 42.0724 35.5211L43.6178 40.4326L43.6349 40.499C43.6349 40.6092 43.5722 40.6657 43.4497 40.6657L41.4343 40.6657C41.3118 40.6657 41.2335 40.6092 41.1993 40.499" id="Fill-5" fill="#000000" fill-rule="evenodd" stroke="none" />
    </g>
  </g>
</svg>