<?xml version="1.0" encoding="utf-8"?>
<svg width="96" height="96" viewBox="0 0 96 96" version="1.1" xmlns:xlink="http://www.w3.org/1999/xlink" xmlns="http://www.w3.org/2000/svg">
  <defs>
    <path d="M13.8061 16.9735C10.568 16.9735 7.94275 19.5981 7.94275 22.8354C7.94275 26.0727 10.568 28.6973 13.8061 28.6973C17.0442 28.6973 19.6694 26.0727 19.6694 22.8354C19.6694 19.5981 17.0442 16.9735 13.8061 16.9735Z" id="path_1" />
    <path d="M60.6319 16.9735C57.3938 16.9735 54.7685 19.5981 54.7685 22.8354C54.7685 26.0727 57.3938 28.6973 60.6319 28.6973C63.8699 28.6973 66.4952 26.0727 66.4952 22.8354C66.4952 19.5981 63.8699 16.9735 60.6319 16.9735Z" id="path_2" />
    <clipPath id="clip_1">
      <use xlink:href="#path_1" />
    </clipPath>
    <clipPath id="clip_2">
      <use xlink:href="#path_2" />
    </clipPath>
  </defs>
  <g id="iconstateused" fill-opacity="1">
    <path d="M-640 -2569L-640 -2569L-640 -2473L-736 -2473L-736 -2569L-640 -2569Z" id="iconstateused" fill="none" stroke="none" />
    <g id="Group-13" transform="translate(8.224031 33.617233)">
      <path d="M21.8894 22.9562C21.8894 23.8185 21.7172 24.6335 21.4676 25.4125L21.6681 25.4125L53.0161 25.4125C52.3636 23.3873 52.0894 20.8006 54.1302 18.0852C55.6641 16.043 58.1399 14.8952 60.6933 14.9122C65.1135 14.9387 68.6883 18.5315 68.6883 22.9562C68.6883 23.5197 68.6278 24.07 68.5162 24.6013L69.3976 24.5522L80.3677 22.6442L80.3677 19.8627C80.3677 18.8416 79.8854 17.9245 79.2026 17.1643C78.7127 16.6159 78.3666 15.956 78.1964 15.2393L77.5041 10.478C77.0521 8.56816 22.1031 8.03492 21.8894 22.9562" id="Fill-5" fill="#FFD72F" fill-rule="evenodd" stroke="none" />
      <path d="M63.8484 7.36497L57.7467 3.33351C57.7165 3.3146 57.6862 3.29759 57.654 3.28246C56.192 2.62442 54.6051 2.28594 53.0012 2.28594L40.9227 2.28594C39.455 2.28594 35.8481 2.5658 34.4901 3.11984C32.071 4.10501 30.1039 5.93732 26.4743 8.3785C26.0563 8.66025 26.2568 9.31829 26.7618 9.30317L63.5836 8.28963C64.0772 8.27639 64.2588 7.63726 63.8484 7.36497" id="Fill-7" fill="#000000" fill-rule="evenodd" stroke="none" />
      <g id="Fill-9">
        <g clip-path="url(#clip_1)">
          <use xlink:href="#path_1" fill="none" stroke="#000000" stroke-width="2" />
        </g>
      </g>
      <g id="Fill-11">
        <g clip-path="url(#clip_2)">
          <use xlink:href="#path_2" fill="none" stroke="#000000" stroke-width="2" />
        </g>
      </g>
      <path d="M43.3002 10.7603L39.2072 10.7603C39.0843 10.7603 38.984 10.6601 38.984 10.5372L38.984 10.2914C38.984 10.1685 39.0843 10.0682 39.2072 10.0682L43.3002 10.0682C43.4231 10.0682 43.5234 10.1685 43.5234 10.2914L43.5234 10.5372C43.5234 10.6601 43.4231 10.7603 43.3002 10.7603" id="Fill-19" fill="#000000" fill-rule="evenodd" stroke="none" />
      <path d="M58.0963 10.7603L54.0033 10.7603C53.8803 10.7603 53.7801 10.6601 53.7801 10.5372L53.7801 10.2914C53.7801 10.1685 53.8803 10.0682 54.0033 10.0682L58.0963 10.0682C58.2192 10.0682 58.3194 10.1685 58.3194 10.2914L58.3194 10.5372C58.3194 10.6601 58.2192 10.7603 58.0963 10.7603" id="Fill-21" fill="#000000" fill-rule="evenodd" stroke="none" />
      <path d="M79.2024 17.1639C78.7125 16.6175 78.3664 15.9556 78.1962 15.2409L77.5039 10.4776C77.0519 8.56779 75.3893 7.1893 73.4298 7.09475L68.062 6.77519L59.0968 1.15914C57.4191 0.395204 55.5958 0 53.7536 0L40.2055 0C38.5373 0 34.7318 0.319566 33.1865 0.947354C30.0827 2.21238 27.3572 4.70462 22.1029 8.03454C15.8367 8.23876 9.65749 9.35252 2.87115 12.8224L1.71739 16.9711L0 17.4495L0.262905 22.4056C0.389628 23.6214 1.30507 24.6066 2.508 24.8203L5.58341 25.3687C5.74229 25.397 5.90306 25.4122 6.06572 25.4122L6.21703 25.4122C5.5645 23.387 5.45102 21.116 7.48995 18.4006C9.02387 16.3603 11.3408 14.8948 13.8942 14.9118C18.3144 14.9402 21.8892 18.5311 21.8892 22.9558C21.8892 23.8181 21.7171 24.6331 21.4674 25.4122L21.6679 25.4122L53.016 25.4122C52.3634 23.387 52.0892 20.8002 54.13 18.0848C55.6639 16.0445 58.1398 14.8948 60.6931 14.9118C65.1133 14.9402 68.6881 18.5311 68.6881 22.9558C68.6881 23.5193 68.6276 24.0696 68.5179 24.6009L69.3974 24.5537L80.3675 22.6438L80.3675 19.8623C80.3675 18.8412 79.8852 17.9241 79.2024 17.1639Z" id="Stroke-3" fill="none" fill-rule="evenodd" stroke="#000000" stroke-width="1" />
    </g>
  </g>
</svg>