<?xml version="1.0" encoding="utf-8"?>
<svg width="96" height="96" viewBox="0 0 96 96" version="1.1" xmlns:xlink="http://www.w3.org/1999/xlink" xmlns="http://www.w3.org/2000/svg">
  <g id="iconstatecatalytic" fill-opacity="1">
    <path d="M-436 -2767L-436 -2767L-436 -2671L-532 -2671L-532 -2767L-436 -2767Z" id="iconstatecatalytic" fill="none" stroke="none" />
    <g id="Group-21" transform="translate(11 32)">
      <g id="Group-20">
        <path d="M67.2936 16.4372L62.1077 12.4L19.4138 12.4L14.2279 16.4372L14.2279 27.9628L19.4138 32L40.5667 32L54.5846 32L63.0514 25.4088L74 25.4088L74 16.4372L67.2936 16.4372Z" id="Fill-3" fill="#FFD72F" fill-rule="evenodd" stroke="none" />
        <path d="M63.0512 6.59115L54.5844 0L19.4137 0L10.9486 6.59115L0 6.59115L0 25.4088L10.9486 25.4088L19.4137 32L54.5844 32L63.0512 25.4088L73.9998 25.4088L73.9998 6.59115L63.0512 6.59115Z" id="Stroke-1" fill="none" fill-rule="evenodd" stroke="#000000" stroke-width="1" />
        <path d="M19.4142 32L19.4142 0.00176991" id="Stroke-5" fill="none" fill-rule="evenodd" stroke="#000000" stroke-width="1" />
        <path d="M54.5851 32L54.5851 0.00176991" id="Stroke-7" fill="none" fill-rule="evenodd" stroke="#000000" stroke-width="1" />
        <path d="M10.9481 6.59115L10.9481 25.4088" id="Stroke-10" fill="none" fill-rule="evenodd" stroke="#000000" stroke-width="1" />
        <path d="M63.0512 6.59115L63.0512 25.4088" id="Stroke-11" fill="none" fill-rule="evenodd" stroke="#000000" stroke-width="1" />
        <path d="M46.3771 16.0005C46.3771 10.8041 42.1789 6.59168 37.0001 6.59168C31.8212 6.59168 27.6231 10.8041 27.6231 16.0005C27.6231 21.197 31.8212 25.4094 37.0001 25.4094C42.1789 25.4094 46.3771 21.197 46.3771 16.0005" id="Fill-12" fill="#000000" fill-rule="evenodd" stroke="none" />
        <path d="M40.5835 19.5965L33.4167 12.4053" id="Stroke-14" fill="none" fill-rule="evenodd" stroke="#FFFFFF" stroke-width="1" />
        <path d="M33.4158 19.5965L40.5826 12.4053" id="Stroke-16" fill="none" fill-rule="evenodd" stroke="#FFFFFF" stroke-width="1" />
      </g>
    </g>
  </g>
</svg>