<?xml version="1.0" encoding="utf-8"?>
<svg width="96" height="96" viewBox="0 0 96 96" version="1.1" xmlns:xlink="http://www.w3.org/1999/xlink" xmlns="http://www.w3.org/2000/svg">
  <defs>
    <path d="M65.6354 16.607C62.4011 16.7771 59.9158 19.536 60.086 22.7695C60.2562 26.0011 63.0139 28.4858 66.2482 28.3156C69.4825 28.1473 71.9678 25.3884 71.7976 22.1549C71.6273 18.9215 68.8697 16.4387 65.6354 16.607Z" id="path_1" />
    <path d="M13.8112 16.1193C10.5769 15.9491 7.81924 18.4338 7.64901 21.6654C7.47879 24.8989 9.96409 27.6577 13.1984 27.8279C16.4327 27.9962 19.1903 25.5134 19.3606 22.2799C19.5308 19.0464 17.0455 16.2876 13.8112 16.1193Z" id="path_2" />
    <clipPath id="clip_1">
      <use xlink:href="#path_1" />
    </clipPath>
    <clipPath id="clip_2">
      <use xlink:href="#path_2" />
    </clipPath>
  </defs>
  <g id="iconstatewrecked" fill-opacity="1">
    <path d="M-845 -2569L-845 -2569L-845 -2473L-941 -2473L-941 -2569L-845 -2569Z" id="iconstatewrecked" fill="none" stroke="none" />
    <g id="Group-28" transform="translate(5 34)">
      <path d="M26.6071 24.0642L26.6657 25.4332L39.5443 25.4332L42.2849 22.4607L41.0158 15.5342L44.3541 11.2626L48.1199 26.0251L58.4715 25.4332C57.819 23.4081 57.3699 20.2645 59.4107 17.5491C60.9446 15.5069 63.3884 14.6273 65.9418 14.6443C70.362 14.6708 73.8278 17.1831 73.8278 21.6079C73.8278 22.1714 73.7673 22.7217 73.6557 23.253L74.5371 23.2038L85.5072 21.2959L85.5072 18.5143C85.5072 17.4932 85.0249 16.5761 84.3421 15.816C83.8522 15.2676 83.5061 14.6077 83.3359 13.891L82.6436 9.12968C82.1916 7.21984 27.2426 6.6866 27.0289 21.6079C27.0289 22.4702 26.8568 23.2851 26.6071 24.0642Z" id="Fill-1" fill="#FFD72F" fill-rule="evenodd" stroke="none" />
      <g id="Fill-27">
        <g clip-path="url(#clip_1)">
          <use xlink:href="#path_1" fill="none" stroke="#000000" stroke-width="2" />
        </g>
      </g>
      <path d="M85.4951 18.4599C85.4421 17.4407 84.9106 16.55 84.19 15.8258C83.6718 15.3058 83.2916 14.6629 83.0854 13.9576L82.1435 9.23784C81.5931 7.35448 79.8606 6.06486 77.8992 6.07432L72.522 6.03461L63.2749 0.895073C61.5594 0.220013 59.7191 -0.0787533 57.8769 0.0176839C57.8769 0.0176839 37.2776 0.000665558 34.0055 1.12955C30.8374 2.22439 27.9871 4.57482 22.5663 7.62677C16.2963 7.50197 10.0679 8.29238 3.10946 11.4011L1.74009 15.4855L0 15.8712L0.0037828 20.8349C0.066199 22.0564 0.928678 23.087 2.11837 23.3649L5.16163 24.074C5.31862 24.11 5.47939 24.1327 5.64016 24.1421L5.79147 24.1497C5.24485 22.0924 5.25053 19.8195 7.43131 17.2138C9.06926 15.2567 11.4581 13.9141 14.0077 14.0654C18.4203 14.3244 21.8022 18.0968 21.5714 22.5159C21.526 23.3782 21.3123 24.1818 21.021 24.9477L38.7832 25.878L42.2841 22.4611L41.0169 15.5346L44.3533 11.263L46.8235 19.3713L48.1191 26.0255L58.4726 25.4336C57.7142 23.4444 57.3056 20.8765 59.2008 18.0571C60.6251 15.9393 63.0366 14.6629 65.5881 14.5457C70.0045 14.3414 73.7627 17.7413 73.9935 22.1604C74.0237 22.7239 73.9916 23.2761 73.9084 23.8112L74.786 23.7185L85.6407 21.2377L85.4951 18.4599Z" id="Stroke-31" fill="none" fill-rule="evenodd" stroke="#000000" stroke-width="1" />
      <g id="Fill-33">
        <g clip-path="url(#clip_2)">
          <use xlink:href="#path_2" fill="none" stroke="#000000" stroke-width="2" />
        </g>
      </g>
      <path d="M68.321 6.92316L61.5517 2.8917C61.5195 2.87279 61.4836 2.85577 61.4476 2.84065C59.8267 2.18261 58.0677 1.84413 56.2879 1.84413L42.8854 1.84413C41.2588 1.84413 37.2566 2.12399 35.7492 2.67803C33.0653 3.6632 30.8845 5.49551 26.8577 7.93669C26.3924 8.21844 26.6156 8.87648 27.1755 8.86135L68.0278 7.84782C68.5744 7.83458 68.7768 7.19545 68.321 6.92316" id="Fill-374" fill="#000000" fill-rule="evenodd" stroke="none" />
      <path d="M43.2433 10.4868L39.1503 10.4868C39.0273 10.4868 38.9271 10.3866 38.9271 10.2637L38.9271 10.0178C38.9271 9.89493 39.0273 9.79472 39.1503 9.79472L43.2433 9.79472C43.3662 9.79472 43.4665 9.89493 43.4665 10.0178L43.4665 10.2637C43.4665 10.3866 43.3662 10.4868 43.2433 10.4868" id="Fill-375" fill="#000000" fill-rule="evenodd" stroke="none" />
      <path d="M60.8083 10.6644L56.7153 10.6644C56.5924 10.6644 56.4922 10.5641 56.4922 10.4412L56.4922 10.1954C56.4922 10.0725 56.5924 9.97227 56.7153 9.97227L60.8083 9.97227C60.9313 9.97227 61.0315 10.0725 61.0315 10.1954L61.0315 10.4412C61.0315 10.5641 60.9313 10.6644 60.8083 10.6644" id="Fill-376" fill="#000000" fill-rule="evenodd" stroke="none" />
    </g>
  </g>
</svg>