<?xml version="1.0" encoding="utf-8"?>
<svg width="65.68448px" height="34.841797px" viewBox="0 0 65.68448 34.841797" version="1.1" xmlns:xlink="http://www.w3.org/1999/xlink" xmlns="http://www.w3.org/2000/svg">
  <g id="Group">
    <path d="M22.5857 6.95311C23.0479 5.23065 23.8902 3.75049 25.2944 2.63311C26.4826 1.68326 27.8568 1.15572 29.3472 0.931417C29.8983 0.845571 30.4657 0.815109 31.0701 0.756955C30.8171 1.48803 30.5888 2.15403 30.3577 2.82003C29.5291 5.22372 28.6841 7.62049 27.8773 10.0283C27.7146 10.5213 27.6818 11.0557 27.5943 11.575C27.2579 13.6726 26.927 15.7717 26.5893 17.8722C26.5319 18.2183 26.4772 18.5659 26.4156 18.9577C26.1627 18.8179 25.9302 18.7126 25.7169 18.5714C24.4644 17.7503 23.618 16.597 23.0274 15.2303C22.4462 13.8706 22.2042 12.4334 22.1687 10.9588C22.1331 9.60603 22.2302 8.26434 22.5857 6.95311ZM31.148 9.81372C31.2123 9.66972 31.282 9.60326 31.4516 9.61434C31.7497 9.62957 32.0573 9.62126 32.3554 9.61572C32.4716 9.61296 32.5318 9.65311 32.5783 9.76249C33.4876 11.8131 34.3968 13.8637 35.3116 15.913C35.7642 16.9376 36.225 17.9663 36.683 18.9937C36.7118 19.074 36.7487 19.1543 36.8006 19.272C35.38 19.8563 33.9019 20.1166 32.395 20.172C30.5149 20.2426 28.6964 19.8799 26.9051 19.2222C27.0938 18.8026 27.2648 18.4302 27.4316 18.0563C28.6718 15.3106 29.9119 12.5622 31.148 9.81372L31.148 9.81372ZM31.4119 8.25742L32.3568 8.25742L32.3568 0.804032L31.4119 0.804032L31.4119 8.25742ZM36.977 1.71096C38.9528 2.65942 40.2518 4.21296 40.9683 6.28573C41.3443 7.38926 41.5221 8.52742 41.5768 9.69049C41.6493 11.3257 41.5248 12.9388 40.9998 14.5034C40.4542 16.1262 39.5723 17.5108 38.1707 18.5188C37.9096 18.7016 37.6252 18.8442 37.3257 19.02C37.2013 18.1796 37.0878 17.3917 36.9702 16.6039C36.7036 14.743 36.4055 12.889 36.1689 11.0253C36.0418 10.0214 35.6493 9.11449 35.3239 8.18403C34.4789 5.78034 33.612 3.38496 32.7574 0.988186C32.7355 0.931417 32.7205 0.871878 32.6959 0.791571C34.2054 0.804032 35.6316 1.06711 36.977 1.71096L36.977 1.71096ZM26.6782 20.0377C28.5501 20.7134 30.4972 20.9197 32.4757 20.8533C33.9661 20.8048 35.436 20.6013 36.8608 20.1139C39.3959 19.2416 41.1939 17.5842 42.1169 15.0116C42.6406 13.5439 42.817 12.025 42.8142 10.2956C42.8252 9.22249 42.7048 7.98603 42.3931 6.76896C42.0089 5.2528 41.3375 3.89034 40.2299 2.77019C39.0458 1.57111 37.5964 0.869109 35.9925 0.467571C34.3845 0.0646477 32.7506 -0.0461216 31.0988 0.0161861C29.741 0.0701861 28.3997 0.239109 27.0938 0.653109C25.494 1.16126 24.098 1.9948 23.0219 3.32265C22.1153 4.43865 21.567 5.72772 21.2689 7.12619C20.856 8.99957 20.8273 10.8923 21.0871 12.7893C21.2826 14.1559 21.6764 15.4546 22.4011 16.6385C23.4157 18.3 24.8801 19.3897 26.6782 20.0377L26.6782 20.0377Z" id="Shape" fill="#000000" stroke="none" />
    <path d="M50.9114 28.2863C50.9497 26.7937 49.9693 25.1128 47.936 25.1197C45.0961 25.1321 42.2492 25.1238 39.4079 25.1238C39.3436 25.1238 39.2766 25.1308 39.2083 25.1363L39.2083 34.8189L41.5587 34.8189L41.5587 27.2229L41.8144 27.2229L47.251 27.2229C47.3618 27.2229 47.4793 27.2215 47.5942 27.2284C48.122 27.2631 48.4775 27.5303 48.55 27.9997C48.658 28.6837 48.4406 29.1932 47.6831 29.3081C47.534 29.3289 47.3809 29.3289 47.2346 29.3289L42.3559 29.3289C42.2862 29.3289 42.2123 29.3386 42.1317 29.3428C42.267 29.9672 42.412 30.5612 42.5254 31.1649C42.5678 31.3823 42.654 31.4252 42.8604 31.4238C44.2606 31.4169 45.658 31.4183 47.0568 31.4183C47.8089 31.4183 48.3257 31.8323 48.4556 32.5841C48.5226 32.9857 48.5103 33.4011 48.539 33.8123C48.55 34.146 48.5664 34.4797 48.5746 34.8148L50.869 34.8148C50.869 34.2028 50.8758 33.6088 50.8663 33.0134C50.8567 32.7628 50.8266 32.508 50.776 32.2601C50.642 31.5955 50.3385 31.0264 49.7286 30.6526C50.5313 30.0517 50.8868 29.2541 50.9114 28.2863" id="Path" fill="#000000" stroke="none" />
    <path d="M8.45294 25.2432C8.39551 25.1463 8.32441 25.1213 8.22459 25.1241C7.44931 25.1255 6.67539 25.1269 5.90831 25.1241C5.80576 25.1213 5.74286 25.1573 5.68816 25.2501C3.80806 28.4029 1.92933 31.5515 0.0464898 34.707C0.0287143 34.7375 0.0177755 34.779 0 34.8303C0.89698 34.8303 1.77618 34.833 2.65539 34.8275C2.71145 34.8275 2.78665 34.7624 2.8222 34.7084C3.11482 34.2584 3.40469 33.807 3.68773 33.3529C3.76157 33.2352 3.83678 33.1923 3.97351 33.195C5.77978 33.1978 7.58604 33.1978 9.39504 33.1978L9.64116 33.1978C9.5728 33.0801 9.52357 32.9943 9.46888 32.9084C9.18584 32.4473 8.89459 31.9876 8.61975 31.521C8.54045 31.3923 8.45978 31.341 8.30663 31.3424C7.2278 31.3493 6.14759 31.3466 5.06739 31.3466L4.78708 31.3466C5.55963 30.0326 6.30347 28.7601 7.06782 27.4655C7.42469 28.0636 7.75833 28.6355 8.09333 29.2046C9.17353 31.0406 10.2524 32.8738 11.3298 34.7084C11.3859 34.804 11.4488 34.833 11.5541 34.833C12.3813 34.8289 13.2127 34.8303 14.0399 34.8289C14.085 34.8289 14.1315 34.822 14.1917 34.815C14.1616 34.7624 14.1466 34.7292 14.1247 34.6973C12.2364 31.546 10.3426 28.396 8.45294 25.2432" id="Path" fill="#000000" stroke="none" />
    <path d="M64.6344 33.0628C63.0728 30.4666 61.5141 27.8677 59.9594 25.2646C59.8951 25.1594 59.8254 25.1206 59.7023 25.1206C58.9366 25.1262 58.1709 25.1262 57.4011 25.1206C57.289 25.1206 57.2261 25.1608 57.1645 25.2605C55.3487 28.315 53.5233 31.3694 51.702 34.4225C51.6268 34.5485 51.5557 34.6786 51.4736 34.8157C51.5229 34.824 51.5379 34.8296 51.5584 34.8296C52.4103 34.831 53.2676 34.8351 54.1181 34.8254C54.1851 34.8254 54.2753 34.7576 54.3136 34.6966C54.6131 34.248 54.9043 33.798 55.1805 33.3411C55.253 33.229 55.3309 33.1957 55.454 33.1957C57.2671 33.1985 59.0747 33.1985 60.881 33.1985L61.123 33.1985C61.0793 33.1154 61.0546 33.0614 61.0177 33.0088C60.7128 32.5103 60.3983 32.0119 60.1002 31.5079C60.0223 31.3819 59.9403 31.3431 59.7939 31.3431C58.7096 31.35 57.6226 31.3459 56.5383 31.3459L56.2785 31.3459C57.0469 30.0333 57.7935 28.7608 58.5565 27.4676C58.603 27.5437 58.629 27.5839 58.6549 27.6268C60.0332 29.9696 61.4101 32.3082 62.7816 34.6523C62.8609 34.7894 62.9498 34.8379 63.107 34.8365C63.8946 34.8296 64.6767 34.8323 65.4602 34.831C65.5272 34.831 65.5942 34.8268 65.6845 34.8213C65.6311 34.7243 65.5847 34.6482 65.5423 34.5748C65.2387 34.0722 64.9379 33.5682 64.6344 33.0628" id="Path" fill="#000000" stroke="none" />
    <path d="M37.5865 25.1364L35.251 25.1364L35.251 25.3677C35.251 27.4307 35.251 29.4952 35.2469 31.561C35.2469 31.6801 35.2469 31.802 35.2332 31.9183C35.1909 32.3835 34.9461 32.6992 34.4963 32.8224C34.272 32.8834 34.03 32.9235 33.7962 32.9263C32.6476 32.9387 31.4977 32.9443 30.3464 32.9346C30.0414 32.9318 29.7201 32.8834 29.4179 32.8114C29.0528 32.7214 28.8395 32.4555 28.7561 32.083C28.7247 31.9294 28.7096 31.7687 28.7096 31.615C28.7055 29.5257 28.7096 27.4349 28.7096 25.3441L28.7096 25.1364L26.3154 25.1364L26.3154 25.3857C26.3154 27.3241 26.3113 29.2626 26.3195 31.201C26.3195 31.5306 26.3373 31.8601 26.3906 32.1841C26.5424 33.1478 27.0018 33.9177 27.8769 34.3857C28.4266 34.6806 29.0187 34.819 29.6326 34.8274C31.0601 34.844 32.4835 34.844 33.911 34.837C34.2583 34.8329 34.6111 34.808 34.9557 34.7443C35.8007 34.5989 36.5281 34.2306 37.0231 33.4884C37.4401 32.8557 37.5865 32.1398 37.5865 31.3921C37.5906 29.3914 37.5865 27.3892 37.5865 25.3884L37.5865 25.1364Z" id="Path" fill="#000000" stroke="none" />
    <path d="M17.6946 25.1242C17.51 25.1242 17.3199 25.1242 17.1326 25.1367C16.2561 25.2018 15.4631 25.4538 14.8587 26.1281C14.309 26.7359 14.0766 27.485 14.0396 28.2853C13.9973 29.2019 14.0096 30.1213 14.0123 31.0379C14.0123 31.3619 14.026 31.6832 14.0766 32.003C14.2037 32.9127 14.5456 33.7102 15.3304 34.2516C15.9293 34.667 16.6198 34.829 17.3404 34.829C19.8071 34.8359 22.2656 34.8304 24.7241 34.8304L24.9483 34.8304L24.9483 32.8255L24.6352 32.8255C22.3189 32.8255 20.004 32.8255 17.6864 32.8227C17.577 32.8227 17.4744 32.8227 17.3678 32.8116C16.9275 32.7466 16.6198 32.5098 16.5145 32.0667C16.453 31.805 16.4093 31.5309 16.4065 31.2609C16.3956 30.3941 16.4011 29.5287 16.4065 28.6592C16.4065 28.4764 16.4216 28.2922 16.453 28.1136C16.5515 27.5044 16.8687 27.2067 17.4826 27.1389C17.5701 27.1292 17.67 27.1278 17.7643 27.1278C20.0861 27.1264 22.4064 27.1264 24.7268 27.1264L24.9483 27.1264L24.9483 25.1242L24.6092 25.1242L17.6946 25.1242Z" id="Path" fill="#000000" stroke="none" />
  </g>
</svg>