<svg width="45" height="45" viewBox="0 0 45 45" fill="none" xmlns="http://www.w3.org/2000/svg">
<path fill-rule="evenodd" clip-rule="evenodd" d="M22.4454 0C34.8414 0 44.89 10.0495 44.89 22.4446C44.89 34.8414 34.8414 44.89 22.4454 44.89C10.0495 44.89 0 34.8414 0 22.4454C0 10.0495 10.0495 0 22.4454 0ZM22.4454 0.449602C10.2973 0.449602 0.449602 10.2973 0.449602 22.4454C0.449602 34.5919 10.2973 44.4404 22.4454 44.4404C34.5927 44.4404 44.4404 34.5927 44.4404 22.4454C44.4404 10.2973 34.5935 0.449602 22.4454 0.449602ZM38.6141 22.4454C38.6141 13.5155 31.3745 6.27587 22.4454 6.27587C13.5155 6.27587 6.27587 13.5155 6.27587 22.4454C6.27587 31.3753 13.5155 38.6141 22.4454 38.6141C31.3745 38.6141 38.6141 31.3753 38.6141 22.4454ZM22.2565 24.4343H17.5127L17.5103 37.4066C19.0423 37.9126 20.6432 38.1788 22.2565 38.196V24.4343ZM22.6339 38.1949L22.6335 6.6948C31.23 6.78036 38.196 13.7996 38.196 22.4454L38.1928 22.7649C38.026 31.1572 31.2989 37.9393 22.9233 38.1897L22.6339 38.1949ZM34.2973 13.3751C34.8938 13.6535 37.0409 15.364 37.0409 18.2279C37.0409 21.0918 34.4959 22.5633 32.9041 22.5746H27.5743C27.2947 22.5746 27.0682 22.8011 27.0682 23.0807C27.0682 23.3602 27.2947 23.5868 27.5743 23.5868L32.5861 23.5827C34.1706 23.5827 35.4548 24.9178 35.4548 26.5015C35.4548 28.086 34.1706 29.3307 32.5861 29.3307L27.8124 29.325C27.5482 29.325 27.3341 29.5392 27.3341 29.8033C27.3341 30.0674 27.5482 30.2816 27.8124 30.2816L31.4326 30.2848C32.2866 30.2848 32.9792 30.9774 32.9792 31.8322C32.9792 32.6878 32.2866 33.369 31.4326 33.369L29.2443 33.3755C29.0424 33.3755 28.8787 33.5392 28.8787 33.7412C28.8787 33.9431 29.0424 34.1068 29.2443 34.1068H30.9249C31.5117 34.1092 32.1679 34.9737 30.9055 35.4516C30.916 35.203 30.8756 34.8446 30.3486 34.8446L29.1825 34.8441L29.1101 34.844L29.0086 34.8438C28.3548 34.8438 27.8261 34.3546 27.8261 33.7016C27.8261 33.0502 28.3548 32.4811 29.0086 32.4811L31.3148 32.4819C31.5642 32.4819 31.7652 32.2802 31.7652 32.0307C31.7661 31.7803 31.5652 31.5758 31.3148 31.5723H27.6154C26.4192 31.5718 25.4497 30.602 25.4497 29.4058C25.4497 28.2103 26.4192 27.2893 27.6154 27.2893L32.1494 27.2861C32.4295 27.2861 32.6563 27.1392 32.6563 26.8607C32.6577 26.5785 32.4316 26.3477 32.1494 26.3433H27.5759C26.3929 26.3696 25.2884 25.7536 24.6892 24.7333C24.09 23.713 24.09 22.4483 24.6892 21.428C25.2884 20.4077 26.3929 19.7917 27.5759 19.818L31.971 19.8212C32.3124 19.8212 32.5893 19.5242 32.5893 19.1828C32.5893 18.8405 32.3124 18.5838 31.971 18.5838L27.0181 18.5863C27.257 17.5522 27.9335 17.3924 28.5292 17.3932H30.8361C30.9631 17.3934 31.085 17.3431 31.1748 17.2533C31.2646 17.1635 31.315 17.0416 31.3148 16.9146C31.3148 16.6514 31.1009 16.4771 30.8361 16.4771H28.5292C27.5355 16.4771 27.0585 15.6021 27.0181 15.1258H29.405C29.6035 14.489 30.0015 14.1709 30.439 14.1709H32.9848C33.8598 14.1709 34.2174 13.614 34.2973 13.3751ZM6.8738 24.8309L6.81787 24.4349L12.739 24.4351L12.7414 34.8526C9.57485 32.3799 7.47871 28.7926 6.8738 24.8309ZM5.7407 19.8229L5.72537 21.1152L4.95047 21.4082L4.93029 23.0766L5.69792 23.4076L5.68258 24.6934L1.26567 22.8474L1.28181 21.5244L5.7407 19.8229ZM41.6354 24.3956C42.977 24.3487 43.8762 23.0807 43.8294 21.7407C43.7833 20.4 42.7994 19.1973 41.4587 19.2425C40.0227 19.2925 39.0484 20.4089 39.0984 21.9038C39.1509 23.3995 40.2003 24.4456 41.6354 24.3956ZM41.4958 20.5041C41.1441 20.5101 40.8098 20.6581 40.5689 20.9144C40.3281 21.1708 40.2012 21.5137 40.2172 21.865C40.225 22.2168 40.375 22.5504 40.633 22.7896C40.8909 23.0289 41.2348 23.1534 41.5862 23.1347C42.198 23.1138 42.7372 22.5019 42.7122 21.7795C42.6872 21.0562 42.1076 20.4823 41.4958 20.5041ZM2.64515 22.2024L4.06418 21.7246L4.05126 22.7328L2.64515 22.2154V22.2024ZM25.001 13.8424L26.3126 14.7473C26.2335 15.1267 26.4926 16.4989 27.4274 16.9364C26.4926 17.3739 26.2642 18.6855 26.3126 19.1432L25.001 20.0481C24.8856 20.1734 24.7109 20.2254 24.5457 20.1837C24.3806 20.1419 24.2516 20.0131 24.2097 19.848C24.1677 19.6829 24.2195 19.5081 24.3447 19.3926L25.1898 18.805C25.6011 18.5305 25.5302 18.0828 25.4709 17.7083L25.4683 17.6919C25.4094 17.3141 25.0114 17.4925 24.8912 17.6322C24.7136 17.8105 24.4674 17.9211 24.1954 17.9211C23.6513 17.9211 23.2106 17.4998 23.2106 16.9557C23.2107 16.5576 23.4505 16.1987 23.8183 16.0463C24.1861 15.8939 24.6094 15.9778 24.8912 16.2591C25.0106 16.3988 25.4094 16.578 25.4683 16.1994L25.4709 16.1833C25.5302 15.8087 25.6012 15.36 25.1898 15.0855L24.3447 14.4987C24.2275 14.3814 24.1817 14.2106 24.2246 14.0504C24.2675 13.8903 24.3926 13.7652 24.5527 13.7223C24.7129 13.6794 24.8837 13.7252 25.001 13.8424ZM6.93614 19.659C7.62548 15.7668 9.74515 12.3879 12.7317 10.0454L12.739 19.6606L6.93614 19.659ZM22.2565 6.6948C20.6456 6.71208 19.047 6.97725 17.5167 7.48099L17.5127 19.6598H22.2565V6.6948ZM42.5984 15.6182L41.5822 13.1692L37.4833 14.87L38.4987 17.319L39.4011 16.9452L38.849 15.6142L39.5561 15.3212L40.08 16.5828L40.9824 16.2083L40.4586 14.9467L41.1439 14.6625L41.696 15.992L42.5984 15.6182ZM6.67462 14.2589L7.57705 14.6351L6.55354 17.0946L2.45546 15.3898L2.9212 14.271L6.11685 15.6005L6.67462 14.2589ZM32.7871 13.3355V12.739H27.0593V13.3355H32.7871ZM35.4718 5.57684L36.3403 6.39372L35.4023 8.77007L37.7577 7.72961L38.6351 8.55616L36.2781 12.5073L35.4112 11.6622L36.7277 9.3464L36.7189 9.33833L34.152 10.4304L33.8009 10.1003L34.7744 7.50682L34.7655 7.49875L32.5707 8.97025L31.6828 8.15419L35.4718 5.57684ZM32.7871 12.2418V11.7849H27.0593V12.2418H32.7871ZM7.75786 7.14924L8.47948 7.8079L7.49149 8.88953L8.03876 9.38999L8.93554 8.40845L9.65717 9.06792L8.76038 10.0495L10.047 11.2247L9.22936 12.1191L5.95299 9.12523L7.75786 7.14924ZM31.5755 11.0488C31.5755 10.7844 31.3612 10.5701 31.0968 10.5701C30.8325 10.5701 30.6182 10.7844 30.6182 11.0488C30.6186 11.3129 30.8326 11.527 31.0968 11.5274C31.3612 11.5274 31.5755 11.3131 31.5755 11.0488ZM13.2483 3.37081L16.8629 6.48816L15.7183 7.08789L15.0919 6.54466L13.614 7.31956L13.6874 8.15177L12.5485 8.74828L12.0763 3.98507L13.2483 3.37081ZM30.7909 5.1111C31.2018 3.83413 30.3147 2.55797 29.0377 2.14711C27.7607 1.73626 26.2949 2.25366 25.8832 3.53144C25.4433 4.89881 26.1617 6.19353 27.5856 6.65282C29.0102 7.1113 30.351 6.47928 30.7909 5.1111ZM13.2984 4.89316L13.2879 4.89881L13.4994 6.38241L14.3921 5.91425L13.2984 4.89316ZM21.7068 3.88983C22.3574 3.72677 22.673 3.16982 22.6246 2.55958C22.5503 1.61437 21.8206 1.25275 20.9021 1.32621L19.0972 1.46908L19.4483 5.89245L20.6559 5.7972L20.5211 4.09647L20.5332 4.09566L21.8077 5.7068L23.3115 5.58734L21.7068 3.88983ZM27.0811 3.92373C26.9674 4.25661 26.9934 4.62132 27.1531 4.93473C27.3128 5.24815 27.5925 5.48357 27.9286 5.58734C28.2623 5.69937 28.6271 5.67154 28.9399 5.51019C29.2527 5.34885 29.4868 5.06773 29.589 4.73091C29.7763 4.14813 29.3832 3.43377 28.6946 3.21179C28.0053 2.98981 27.2691 3.34094 27.0811 3.92373ZM20.375 2.25285L20.492 2.24478C20.8859 2.2133 21.3355 2.24801 21.3735 2.72909C21.4114 3.21098 20.9731 3.31672 20.5792 3.3474L20.4621 3.35708L20.375 2.25285Z" fill="black"/>
</svg>
