<svg width="58" height="42" viewBox="0 0 58 42" fill="none" xmlns="http://www.w3.org/2000/svg">
<path d="M33.3267 33.768C33.6759 33.768 34.1585 33.4303 34.1585 33.0086C34.1585 32.5701 33.8885 32.5701 33.7215 32.5701C33.3722 32.5701 32.8914 32.9112 32.8914 33.3379C32.8914 33.768 33.1596 33.768 33.3267 33.768" fill="black"/>
<path fill-rule="evenodd" clip-rule="evenodd" d="M2.58581 39.1084C2.58581 37.546 3.50198 35.9466 4.95301 34.4413C0.129183 34.1339 0.0363846 32.6051 0.0363846 31.923C0.0363846 31.1687 0.431199 30.6361 0.991363 30.0834C4.08914 26.9888 10.936 26.9149 10.936 26.9149L11.0389 27.2274C6.29099 27.2274 1.18371 29.4114 1.21408 31.7483C1.24107 33.6971 3.34844 34.0482 5.29552 34.0919C9.55411 29.9389 17.7457 26.5352 21.6567 26.5352C22.8108 26.5352 23.1701 27.1384 23.1701 27.6944C23.1701 28.3316 22.8971 28.6048 22.3237 29.1785C22.2923 29.2098 22.2601 29.2421 22.227 29.2753C18.8272 32.6605 11.297 34.4934 6.77185 34.4934H6.49008C4.65943 36.5228 3.79893 38.1877 3.79893 39.3503C3.79893 41.032 4.60712 41.6972 6.15601 41.6972C9.71271 41.6972 14.7323 37.3964 15.5168 36.6186C17.3104 34.8294 19.7906 34.2448 20.7338 34.2448C21.6685 34.2448 22.0836 34.6782 22.0836 34.6782C22.0836 34.6782 20.0268 36.8639 19.2304 37.756C18.4341 38.6548 18.2873 38.9538 18.2873 39.2562C18.2873 39.2776 18.287 39.2984 18.2868 39.3186C18.2843 39.528 18.2826 39.6678 18.5674 39.6678C19.1984 39.6678 20.2512 38.7253 22.3738 36.6186C24.4929 34.5152 26.4687 34.2565 27.098 34.2565C27.7274 34.2565 28.053 34.4632 28.053 34.4632C28.0747 34.4424 28.1379 34.3809 28.2479 34.2739C28.618 33.914 29.5171 33.0398 31.139 31.4728H32.2509C32.2509 31.4728 30.3325 33.2905 29.2763 34.3237C28.4951 35.1028 27.4019 36.2689 26.7954 36.9157C26.582 37.1434 26.4288 37.3067 26.3708 37.3662C26.1464 37.5913 25.3602 38.6094 25.3602 39.1504C25.3602 39.1977 25.3598 39.2406 25.3595 39.2795C25.3566 39.6285 25.3564 39.6544 25.6403 39.6544C26.4044 39.6544 27.4429 38.6747 28.0315 38.1194C28.2304 37.9317 28.378 37.7925 28.4462 37.756C28.7161 37.5997 28.9726 37.3444 29.6238 36.6959C30.2768 36.0457 31.8122 34.4027 31.8122 34.4027H32.9342C32.9342 34.4027 30.6126 36.8152 30.1317 37.2889C29.6593 37.7694 29.1767 38.5204 29.1767 39.0462C29.1767 39.478 29.2763 39.6157 29.634 39.6157C30.4607 39.6157 31.4663 39.1873 32.4938 38.5624C32.482 38.4733 32.4753 38.3843 32.4753 38.2936C32.4753 37.0672 32.9899 35.8744 34.9437 33.939C36.8975 31.9986 38.6607 31.1099 39.2799 31.1099C39.5229 31.1099 39.8266 31.2443 39.8266 31.6475C39.8266 33.0149 38.1217 34.5167 37.0863 35.4289C36.8534 35.634 36.6544 35.8094 36.5162 35.9466C35.7755 36.6908 34.4915 37.6652 33.1957 38.47C33.1671 39.0815 33.4556 39.6056 34.527 39.6157C35.3554 39.6107 36.3543 39.1873 37.3784 38.5624C37.3649 38.4733 37.3565 38.3843 37.3565 38.2902C37.3565 37.0672 37.8745 35.8744 39.8266 33.939C41.7804 31.9986 43.5436 31.1099 44.1594 31.1099C44.4041 31.1099 44.7112 31.2443 44.7112 31.6475C44.7112 33.0108 43.004 34.5153 41.9677 35.4285C41.7347 35.6339 41.5356 35.8094 41.3974 35.9466C40.6601 36.6908 39.3761 37.6602 38.0837 38.4632C38.055 39.0361 38.298 39.5267 39.1888 39.6056C39.9498 39.6678 41.4666 38.302 43.1488 36.6186C44.9558 34.8294 47.4242 34.2481 48.3674 34.2481C49.3106 34.2481 49.7172 34.6782 49.7172 34.6782C49.7172 34.6782 47.6723 36.8672 46.8658 37.756C46.0677 38.6548 45.9361 38.9538 45.9361 39.2646C45.9361 39.5704 45.9901 39.5788 46.3495 39.5788C47.1222 39.5788 48.8854 37.9122 49.4135 37.3864C49.7429 37.0616 49.8972 36.8854 50.0158 36.7501C50.0867 36.6691 50.1448 36.6027 50.22 36.5279C52.3071 34.4413 54.2508 34.0264 54.9898 34.0264C55.5837 34.0264 56.1 34.2716 56.1 34.8512C56.1 36.0541 54.3757 36.6371 54.3757 36.6371V36.3196C55.2142 35.7584 55.4386 35.1536 55.4386 34.8176C55.4386 34.4816 55.3593 34.3237 54.7671 34.3237C53.9572 34.3237 52.8335 35.0411 52.2953 35.577C51.0518 36.8152 50.4883 38.0533 50.4883 38.5993C50.4883 38.6207 50.4882 38.642 50.4882 38.6632C50.4867 39.2842 50.4854 39.8324 51.7368 39.8324C53.7446 39.8324 55.6293 38.0752 55.6293 38.0752L55.7508 38.176C55.7508 38.176 54.023 40.1617 51.6204 40.1617C49.495 40.1617 49.4998 38.7552 49.5012 38.3434C49.5012 38.3335 49.5012 38.3241 49.5012 38.3154C49.5012 37.934 49.5569 37.756 49.5569 37.756C49.5569 37.756 49.3325 37.7694 48.5446 38.5573C47.76 39.3352 46.6599 39.9047 46.1791 39.9047C45.7083 39.9047 45.462 39.6224 45.462 39.0764C45.462 38.5388 45.7421 37.9928 45.7421 37.9928C45.7421 37.9928 45.5953 37.9508 44.8647 38.6732C44.1341 39.399 42.9126 39.9097 42.6443 39.9097C42.3726 39.9097 41.8698 39.6359 41.8698 39.0462C41.8698 38.6879 41.9624 38.5257 42.0388 38.3918C42.0925 38.2977 42.1381 38.2177 42.1381 38.0936C42.1381 37.9713 41.8179 38.2341 41.3784 38.5949C40.7017 39.1505 39.7421 39.9382 39.2327 39.9097C38.4903 39.8946 37.6973 39.6107 37.4425 38.8446C36.3239 39.4847 35.266 39.9332 34.6181 39.9332L34.4831 39.9232C33.7087 39.9232 32.833 39.6409 32.5613 38.8446C31.4427 39.4847 30.3848 39.9332 29.7369 39.9332C28.6722 39.9332 28.6267 39.2461 28.6267 38.7606C28.6267 38.469 28.6857 38.33 28.7336 38.2172C28.7662 38.1402 28.7937 38.0754 28.7937 37.9828C28.7937 37.9828 28.7482 37.7912 27.9957 38.5388C27.2448 39.2848 26.2595 39.9332 25.5829 39.9332C24.908 39.9332 24.8085 39.4141 24.8085 39.0462C24.8085 38.8277 24.894 38.5925 24.9691 38.3857C25.0246 38.2332 25.0744 38.0962 25.0801 37.9928C25.0801 37.9928 24.8658 37.9828 24.3023 38.5388C23.2393 39.6056 22.5088 39.9332 21.9925 39.9332C21.4762 39.9332 21.3277 39.6224 21.3277 38.984C21.3277 38.3372 21.488 37.9828 21.488 37.9828C21.488 37.9828 21.353 38.0197 20.9362 38.4296C20.0386 39.32 19.0077 39.9332 18.5117 39.9332C18.0072 39.9332 17.7372 39.6224 17.7372 39.1504C17.7372 38.8842 17.8003 38.7074 17.858 38.5453C17.9038 38.417 17.9463 38.2978 17.9515 38.1508C17.9515 38.1508 17.2547 38.6212 16.8835 38.984C16.5258 39.3436 15.4831 39.9097 14.9769 39.9097C14.4724 39.9097 14.2581 39.6359 14.2581 39.0983C14.2581 38.7781 14.348 38.489 14.4213 38.2532C14.4719 38.0906 14.5146 37.9533 14.5146 37.8484C14.5146 37.8484 9.71271 41.9005 6.04296 41.9005C3.37206 41.9005 2.58581 40.5448 2.58581 39.1084ZM7.50074 33.43C10.0265 30.9167 17.5128 26.8175 21.5318 26.8175C22.362 26.8175 22.7905 27.0409 22.7905 27.6457C22.7905 28.1648 22.362 28.5916 22.092 28.8452C20.0268 30.9083 12.5844 34.0952 7.05362 34.0952H6.84778C6.9678 33.9757 7.08892 33.8513 7.213 33.7239C7.30694 33.6274 7.40259 33.5291 7.50074 33.43ZM17.1079 36.3078C18.132 35.2729 19.6472 34.574 20.2512 34.574C20.6005 34.574 20.754 34.6076 20.754 34.7941C20.754 34.9891 19.1698 36.4781 18.1245 37.4607L18.1245 37.4607L18.1245 37.4607L18.1241 37.4611L18.124 37.4612C17.7821 37.7825 17.498 38.0496 17.3458 38.1995C16.7384 38.8043 15.5826 39.6678 15.0916 39.6678C14.9769 39.6678 14.852 39.5233 14.852 39.32C14.852 38.5377 16.0194 37.3837 17.0224 36.3924L17.1079 36.3078ZM23.038 37.332C22.9806 37.3904 22.931 37.441 22.8901 37.4821C22.34 38.0214 21.8912 38.9538 21.8912 39.2646C21.8912 39.6062 22.0269 39.606 22.2021 39.6057L22.2169 39.6057C22.9576 39.6057 25.0227 37.5913 25.5829 37.0268C25.8862 36.7249 26.1437 36.4361 26.385 36.1656C26.5907 35.935 26.7846 35.7176 26.985 35.5165C27.4355 35.0713 27.4929 34.9201 27.4929 34.7941C27.4929 34.7 27.2786 34.574 26.9327 34.574C25.744 34.574 23.7666 36.5894 23.038 37.332ZM33.3628 37.6904C33.7188 36.6186 34.9657 34.8395 35.9206 33.8768C35.9751 33.8235 36.0328 33.7666 36.0934 33.707C36.9554 32.8583 38.39 31.4459 39.1956 31.4459C39.4115 31.4459 39.533 31.4728 39.533 31.7248C39.533 31.923 39.2209 32.7277 37.4898 34.438C36.5247 35.404 34.9083 36.9193 33.2565 38.0668L33.2553 38.0669C33.2549 38.0671 33.2545 38.0677 33.254 38.0692L33.2531 38.0718C33.2835 37.9408 33.3206 37.8131 33.3628 37.6904ZM40.8035 33.8768C39.8485 34.8395 38.6033 36.6186 38.2423 37.6904C38.2018 37.8131 38.1663 37.9408 38.1394 38.0668C39.7878 36.9193 41.4092 35.404 42.371 34.438C44.1004 32.7277 44.4176 31.923 44.4176 31.7248C44.4176 31.4728 44.2927 31.4459 44.0818 31.4459C43.2729 31.4459 41.8377 32.8589 40.9757 33.7076C40.9154 33.767 40.8578 33.8236 40.8035 33.8768ZM44.7533 36.2809C45.7859 35.2628 47.3011 34.5505 47.895 34.5505C48.2425 34.5505 48.4012 34.5774 48.4012 34.7689C48.4012 34.9709 46.8629 36.4122 45.8169 37.3923L45.8168 37.3923L45.8167 37.3924C45.453 37.7332 45.1489 38.0182 44.9896 38.176C44.3805 38.7841 43.2281 39.6409 42.7337 39.6409C42.6207 39.6409 42.4958 39.4998 42.4958 39.2982C42.4958 38.5343 43.652 37.3803 44.6531 36.381L44.7533 36.2809Z" fill="black"/>
<path d="M57.0057 38.8179C57.3601 38.828 57.6435 38.5474 57.6435 38.1879C57.6435 37.8435 57.3601 37.5529 57.0057 37.5529C56.6497 37.5529 56.3595 37.8435 56.3595 38.1879C56.3578 38.5474 56.6497 38.828 57.0057 38.8179" fill="black"/>
<path d="M24.9596 1.79052C25.8842 1.8678 27.0569 1.14708 27.2998 0.923639C26.7582 0.787559 25.6548 0.980759 24.9596 1.79052" fill="black"/>
<path d="M24.7167 1.24269C24.58 1.18725 23.1239 1.65933 22.9619 2.62869C23.6976 2.46741 24.3691 1.91973 24.7167 1.24269" fill="black"/>
<path d="M25.5751 2.15809C24.3198 2.05561 23.7614 2.64361 23.7614 2.64361C24.9593 2.91913 25.5751 2.16481 25.5751 2.15809" fill="black"/>
<path d="M22.5071 2.26309C21.4222 2.38069 21.0155 4.09429 21.0004 4.09429C21.6415 3.62557 22.3198 3.05605 22.5071 2.26309" fill="black"/>
<path d="M22.0135 3.72655C23.0259 3.80215 23.829 3.06295 23.829 3.06295C22.3122 2.97559 22.0135 3.73159 22.0135 3.72655" fill="black"/>
<path d="M22.4354 4.20385C22.4354 4.20385 21.4703 3.95521 20.5878 5.19505C20.598 5.19505 21.7858 5.02033 22.4354 4.20385" fill="black"/>
<path d="M20.4409 3.83978C20.4409 3.83978 19.1147 4.79906 19.4741 6.14978C19.4791 6.14978 20.2873 5.4173 20.4409 3.83978" fill="black"/>
<path d="M19.4737 7.21774C19.4788 7.21774 20.67 6.69022 21.2504 5.44366C21.2622 5.44366 19.8686 5.84854 19.4737 7.21774" fill="black"/>
<path d="M19.0197 5.85596C19.0248 5.85596 17.9972 7.037 18.5388 8.51036C18.5388 8.51036 19.3082 7.47044 19.0197 5.85596" fill="black"/>
<path d="M18.7842 9.70818C18.7842 9.70818 20.0783 8.19618 20.0783 7.51242C20.0783 7.51914 18.7842 8.02818 18.7842 9.70818" fill="black"/>
<path d="M18.022 8.11688C18.022 8.11688 17.0586 9.70784 18.1098 10.8536C18.1199 10.8536 18.6126 9.48776 18.022 8.11688" fill="black"/>
<path d="M19.6244 9.47366C19.6244 9.47366 18.5395 10.1121 18.5969 11.8156C18.5969 11.8156 19.4877 10.942 19.6244 9.47366" fill="black"/>
<path d="M18.2329 13.3783C18.2414 11.3539 17.332 10.3728 17.3252 10.3728C17.0586 12.7517 18.2414 13.3783 18.2329 13.3783" fill="black"/>
<path d="M19.0823 14.2838C19.0823 14.2838 19.4788 13.3262 19.2595 11.6949C19.2595 11.6949 18.1611 12.8105 19.0823 14.2838" fill="black"/>
<path d="M17.4067 13.0977C17.4151 13.6807 17.5366 14.2519 17.9652 14.6366C18.2976 14.9256 18.6704 15.1541 19.0349 15.3859C18.7987 14.4619 18.0715 13.7412 17.4067 13.0977" fill="black"/>
<path d="M20.2382 16.5249C20.2973 15.7253 20.2332 15.1137 19.6426 13.9361C19.3895 14.8332 19.6494 15.821 20.2382 16.5249" fill="black"/>
<path d="M20.2382 17.4306C19.8114 16.5638 19.0099 16.0665 18.1916 15.4986C18.1444 15.4684 18.1106 15.4247 18.0701 15.3861C18.3705 16.4142 19.2175 17.1736 20.2382 17.4306" fill="black"/>
<path d="M20.6781 16.1624C20.5634 17.1166 21.218 17.9029 21.9334 18.4489C21.6972 17.8609 21.6499 17.1637 20.7827 16.1708C20.7675 16.1557 20.6865 16.1624 20.6781 16.1624" fill="black"/>
<path d="M20.3206 18.6513C20.879 18.9101 21.4949 19.0663 22.1192 19.11C21.3228 18.4027 20.3864 17.8685 19.3403 17.6047C19.5782 18.0566 19.8853 18.443 20.3206 18.6513" fill="black"/>
<path d="M21.8843 20.141C22.5322 20.2922 23.17 20.1897 23.8111 20.3157C22.8562 19.726 21.724 19.4908 20.6037 19.3548C20.9445 19.7664 21.3815 20.0419 21.8843 20.141" fill="black"/>
<path d="M22.2401 17.726C22.203 17.6924 22.1558 17.6689 22.1322 17.6235C22.2503 18.6248 23.0112 19.5286 23.9898 19.8277C23.7452 19.5001 23.6237 19.1103 23.3672 18.7642C23.05 18.3409 22.6788 18.0418 22.2401 17.726" fill="black"/>
<path d="M26.3445 20.917C26.0999 20.5238 25.835 20.1509 25.5262 19.8065C25.1128 19.3394 24.5071 19.111 23.9301 18.869C24.4008 19.8535 25.2917 20.628 26.3445 20.917" fill="black"/>
<path d="M25.7466 21.1549C25.7213 21.1549 25.7061 21.1666 25.6825 21.1515C24.9418 20.7248 23.0267 20.6341 22.362 20.7937C23.7607 21.4791 23.349 21.6639 25.7466 21.1549" fill="black"/>
<path d="M32.1321 0.924324C32.3767 1.14776 33.5494 1.86848 34.4723 1.7912C33.7772 0.979764 32.6737 0.788244 32.1321 0.924324" fill="black"/>
<path d="M36.4631 2.62884C36.3112 1.65948 34.8534 1.1874 34.7151 1.24284C35.0627 1.91988 35.7359 2.46588 36.4631 2.62884" fill="black"/>
<path d="M33.849 2.15809C33.8592 2.16481 34.4733 2.91913 35.6645 2.64361C35.6713 2.64361 35.1128 2.05561 33.849 2.15809" fill="black"/>
<path d="M38.423 4.09396C38.4162 4.09396 38.0113 2.38036 36.9163 2.26276C37.112 3.05572 37.7919 3.62692 38.423 4.09396" fill="black"/>
<path d="M35.6046 3.0621C35.6046 3.0621 36.4077 3.8013 37.4218 3.7257C37.4218 3.73074 37.1181 2.97474 35.6046 3.0621" fill="black"/>
<path d="M36.9978 4.20385C37.6457 5.02033 38.8369 5.19505 38.8369 5.19505C37.9629 3.95521 36.9978 4.20385 36.9978 4.20385" fill="black"/>
<path d="M39.953 6.14978C40.3174 4.79402 38.9912 3.83978 38.9912 3.83978C39.1431 5.4173 39.953 6.14978 39.953 6.14978" fill="black"/>
<path d="M38.1 5.44418C38.6923 6.69074 39.8801 7.21826 39.8801 7.21826C39.492 5.84738 38.1 5.44418 38.1 5.44418" fill="black"/>
<path d="M40.3171 5.85596C40.0336 7.47044 40.803 8.51036 40.803 8.51036C41.3446 7.037 40.3171 5.85596 40.3171 5.85596" fill="black"/>
<path d="M39.1843 7.51309C39.1843 8.19517 40.4868 9.70885 40.4817 9.70885C40.4868 8.02885 39.1843 7.51981 39.1843 7.51309" fill="black"/>
<path d="M41.1516 10.8534C42.2027 9.70768 41.241 8.12177 41.241 8.12177C40.6505 9.48929 41.1516 10.8534 41.1516 10.8534" fill="black"/>
<path d="M39.5492 9.47366C39.6876 10.942 40.5784 11.8156 40.5784 11.8156C40.6341 10.1121 39.5492 9.47366 39.5492 9.47366" fill="black"/>
<path d="M41.8371 10.3726C41.8472 10.3726 40.9429 11.3537 40.9344 13.3781C40.9429 13.3781 42.1155 12.7515 41.8371 10.3726" fill="black"/>
<path d="M40.0913 14.2838C41.0142 12.8105 39.9142 11.6949 39.9142 11.6949C39.7016 13.3262 40.0913 14.2838 40.0913 14.2838" fill="black"/>
<path d="M41.7671 13.0977C41.1023 13.7412 40.3717 14.4619 40.1372 15.3859C40.5033 15.1541 40.8762 14.9256 41.2002 14.6366C41.6456 14.2519 41.7587 13.6807 41.7671 13.0977" fill="black"/>
<path d="M38.9016 16.5249C39.5006 15.821 39.7503 14.8332 39.5006 13.9361C38.9168 15.1137 38.8544 15.7253 38.9016 16.5249" fill="black"/>
<path d="M41.0718 15.3864C41.0296 15.4251 40.9959 15.4687 40.9486 15.4973C40.137 16.0651 39.339 16.5641 38.902 17.431C39.9211 17.1739 40.7799 16.4129 41.0718 15.3864" fill="black"/>
<path d="M38.4156 16.1624C38.4156 16.1624 38.3363 16.1557 38.3194 16.1708C37.4521 17.1637 37.4015 17.8609 37.1602 18.4489C37.879 17.9029 38.5353 17.1166 38.4156 16.1624" fill="black"/>
<path d="M39.7593 17.6045C38.7132 17.8683 37.7751 18.4025 36.9838 19.1098C37.6047 19.0661 38.2205 18.9132 38.7705 18.6512C39.216 18.4428 39.5231 18.0581 39.7593 17.6045" fill="black"/>
<path d="M38.3983 19.3551C37.2898 19.4912 36.156 19.7264 35.1926 20.3144C35.8388 20.19 36.48 20.2925 37.1177 20.1413C37.629 20.0422 38.066 19.7667 38.3983 19.3551" fill="black"/>
<path d="M36.9377 17.6275C36.9141 17.6679 36.8702 17.6931 36.828 17.7267C36.3927 18.0425 36.0182 18.3415 35.701 18.7649C35.4529 19.111 35.3213 19.4991 35.08 19.8283C36.0671 19.5293 36.823 18.6255 36.9377 17.6275" fill="black"/>
<path d="M32.6585 20.917C33.7181 20.628 34.6107 19.8535 35.0814 18.869C34.4976 19.111 33.897 19.3394 33.4768 19.8065C33.1782 20.1509 32.9082 20.5238 32.6585 20.917" fill="black"/>
<path d="M36.6502 20.7938C35.9871 20.6342 34.0687 20.725 33.323 21.1517C33.3061 21.1668 33.2825 21.155 33.2673 21.155C35.6648 21.6641 35.243 21.4793 36.6502 20.7938" fill="black"/>
<path d="M33.162 23.606C33.4438 23.6614 33.5821 23.606 33.5821 23.606L33.761 23.3742C31.2925 23.3742 29.1531 21.721 28.2622 20.8374C27.3815 19.9671 26.0941 19.8546 26.0941 19.8462C26.467 20.4644 27.4237 21.2792 27.7071 21.3682C27.994 21.459 28.0294 21.6236 28.0193 21.6186C27.5755 21.6236 27.7527 21.506 26.8146 21.506C25.4479 21.506 24.66 21.921 24.6532 21.921C25.016 21.921 26.079 22.5258 27.0576 22.5174C28.0345 22.5258 27.8101 22.3477 28.9135 22.3477C30.756 22.3477 29.8111 22.9491 33.162 23.606" fill="black"/>
<path d="M32.1321 21.4371C31.3644 21.4589 30.8954 21.5295 30.8954 21.5295C30.8954 21.5295 31.744 21.0574 32.0444 20.7449C32.3413 20.4493 32.9774 19.6966 32.9774 19.6966C32.9774 19.6966 32.6197 19.9436 32.3767 19.9369C32.1321 19.9436 31.3796 20.2426 31.194 20.3787C31.0168 20.54 30.3014 21.3481 29.9556 21.6572V21.7378C29.9556 21.7496 30.099 21.8302 30.2879 22.015C30.482 22.2099 31.0472 22.4636 31.7103 22.4636C32.8424 22.4636 33.8244 21.8386 34.2142 21.8386C34.2142 21.8386 33.3553 21.4203 32.1321 21.4371" fill="black"/>
<path d="M25.0636 23.3747L25.2441 23.6065H25.6659C26.3813 23.6065 28.3081 22.6842 28.6101 22.6472C28.5781 22.6472 28.4937 22.6472 28.2305 22.6791C27.8408 22.7245 26.0118 23.3747 25.6659 23.3747H25.0636Z" fill="black"/>
<path fill-rule="evenodd" clip-rule="evenodd" d="M27.1291 5.70339C27.0734 5.59923 27.0397 5.47995 27.0397 5.34555C27.0397 4.91547 27.3889 4.57611 27.8107 4.57107C28.2393 4.57107 28.5852 4.91547 28.5852 5.34555C28.5852 5.38923 28.5767 5.44467 28.57 5.47995H28.9901C28.9597 5.40099 28.9429 5.30019 28.9429 5.20611C28.9429 4.78443 29.2904 4.44003 29.7123 4.44003C30.1425 4.44003 30.4901 4.78443 30.4901 5.20611C30.4901 5.30019 30.4715 5.40099 30.4428 5.47995H30.8528C30.8528 5.46325 30.8517 5.44204 30.8505 5.41969C30.8492 5.39483 30.8478 5.36856 30.8478 5.34555C30.8478 4.91547 31.1937 4.57107 31.6155 4.57107C32.044 4.57107 32.3933 4.91547 32.3933 5.34555C32.3933 5.47995 32.3578 5.59923 32.2937 5.70339L32.6987 5.80083C32.7071 5.36571 33.0479 5.02635 33.4765 5.02131C33.9067 5.02971 34.2526 5.36571 34.2459 5.80083C34.2526 5.97555 34.1885 6.13179 34.0906 6.25947L34.4888 6.39891C34.5462 6.03099 34.8685 5.71179 35.2582 5.71179C35.6868 5.71179 36.0343 6.06291 36.0276 6.49131C36.0343 6.77187 35.7914 7.07595 35.5653 7.21707V8.48379H37.622L35.486 10.6846V15.6826C35.486 16.6654 34.5529 17.1341 33.4276 17.1341C32.9283 17.1341 32.5187 17.1843 31.8703 17.2636C31.6795 17.287 31.468 17.3129 31.2274 17.3408C29.9669 17.4832 29.6273 17.9857 29.5812 18.0538C29.5778 18.0588 29.576 18.0615 29.5756 18.0615C29.5823 18.0615 28.9901 17.4432 27.9305 17.3223C27.7071 17.2962 27.5085 17.272 27.3281 17.25C26.6584 17.1684 26.2394 17.1173 25.7304 17.1173C24.6117 17.1173 23.7141 16.7108 23.7141 15.9716V10.6846L21.713 8.48715H23.7698V7.14147C23.5538 7.01043 23.3986 6.77187 23.3986 6.49131C23.3986 6.06291 23.7462 5.71515 24.173 5.71515C24.5628 5.71515 24.8851 6.03099 24.934 6.39891L25.3389 6.26283C25.2411 6.13179 25.1786 5.97555 25.1786 5.80083C25.1786 5.36571 25.5262 5.02971 25.9548 5.02131C26.3833 5.02971 26.7258 5.36571 26.7258 5.80083L27.1291 5.70339ZM29.7123 4.74243C29.9805 4.74243 30.1897 4.95075 30.183 5.20611C30.1897 5.46315 29.9788 5.67315 29.7123 5.67315C29.4541 5.67315 29.2432 5.46315 29.2432 5.20611C29.2432 4.95075 29.4541 4.74243 29.7123 4.74243ZM28.2781 5.34555C28.2781 5.08683 28.0672 4.87347 27.809 4.87347C27.5509 4.87347 27.34 5.08683 27.34 5.34555C27.34 5.60259 27.5509 5.81259 27.809 5.81259C28.0672 5.81259 28.2781 5.60259 28.2781 5.34555ZM28.4232 5.89995L28.0031 6.68283L27.3349 6.07971L26.6111 6.31995L26.3698 7.10283L25.6241 6.59883L24.9188 6.85923L24.8395 7.74123L24.1916 7.46067V8.53755C24.7096 8.02851 27.3012 6.92811 29.6734 6.94827C32.0457 6.96675 34.6373 8.02851 35.1452 8.53755V7.46067L34.5074 7.74123L34.4163 6.85923L33.7195 6.59883L32.9669 7.10283L32.724 6.31995L32.0035 6.07971L31.3404 6.68283L30.9203 5.89995L30.1897 5.83947L29.7376 6.52995H29.6009L29.1453 5.83947L28.4232 5.89995ZM32.0828 5.34555C32.0913 5.08683 31.8804 4.87347 31.6155 4.87347C31.3641 4.87347 31.1548 5.08683 31.1447 5.34555C31.1548 5.60259 31.3641 5.81259 31.6155 5.81259C31.8804 5.81259 32.0913 5.60259 32.0828 5.34555ZM33.4765 5.33211C33.7363 5.33211 33.9455 5.54211 33.9455 5.80083C33.9455 6.05283 33.7363 6.26283 33.4765 6.26283C33.2183 6.26283 33.0057 6.05283 33.0057 5.80083C33.0057 5.54211 33.2183 5.33211 33.4765 5.33211ZM35.7273 6.49131C35.7273 6.22923 35.5181 6.02763 35.2582 6.02763C34.9984 6.02763 34.7892 6.22923 34.7892 6.49131C34.7892 6.74499 34.9984 6.95835 35.2582 6.95835C35.5181 6.95835 35.7273 6.74499 35.7273 6.49131ZM36.527 8.96427L36.1103 9.38931H32.643V8.96427H36.527ZM32.643 10.0496H35.4674L35.8167 9.65643H32.643V10.0496ZM34.8955 10.6426H32.643V10.2814H35.2498L34.8955 10.6426ZM34.8853 12.5712H32.5924V11.0021H34.8853V12.5712ZM29.7527 14.2428H34.8853V12.9224H29.7527V14.2428ZM34.8853 15.056H29.7527V14.6746H34.8853V15.056ZM34.8853 16.0136C34.8853 16.3244 34.4635 16.4991 34.2256 16.5562C33.9793 16.6167 33.711 16.6503 33.4276 16.6503C32.9417 16.6503 32.5407 16.6987 31.9221 16.7734L31.922 16.7734C31.7178 16.7981 31.4899 16.8256 31.2274 16.8552C30.3939 16.9493 29.9637 17.2097 29.7527 17.3878V15.3449H34.8853V16.0136ZM32.2212 10.6426H29.7781V8.96427H32.2212V10.6426ZM29.7781 11.3835H32.2212V11.0021H29.7781V11.3835ZM32.2212 12.5796H29.7781V12.1798H32.2212V12.5796ZM29.7781 11.9732H32.2212V11.5834H29.7781V11.9732ZM29.7123 7.24731C27.8597 7.26579 25.8181 7.97307 24.966 8.47035H34.4568C33.6148 7.97307 31.575 7.23891 29.7123 7.24731ZM29.3883 10.2814H24.0296L22.776 8.92563H29.3883V10.2814ZM29.3883 10.9769H24.2793V10.5838H29.3883V10.9769ZM24.2793 12.5796H29.3883V11.2911H24.2793V12.5796ZM29.3394 13.3642H27.0262V12.9224H29.3394V13.3642ZM27.0262 14.011H29.3394V13.5557H27.0262V14.011ZM29.3394 14.6628H27.0262V14.2126H29.3394V14.6628ZM29.3394 17.4315C29.1386 17.2467 28.7151 16.9728 28.0689 16.8989C27.8933 16.8776 27.7352 16.8579 27.5898 16.8398L27.5893 16.8398L27.5891 16.8398L27.5884 16.8397C27.3796 16.8137 27.197 16.791 27.0262 16.7712V14.9753H29.3394V17.4315ZM26.6364 14.6628H24.2793V12.9224H26.6364V14.6628ZM26.6364 15.3752H24.2743L24.2793 14.9753H24.2878H26.6364V15.3752ZM24.3266 16.0136H26.6364V15.6389H24.2743V15.854C24.2878 15.9128 24.3013 15.9648 24.3266 16.0136ZM26.6364 16.7242V16.736L26.5592 16.731C26.3998 16.7207 26.2451 16.7108 26.0779 16.7108C25.4064 16.7108 24.8226 16.5512 24.4987 16.2454H26.6364V16.7242ZM24.1747 6.02763C23.9149 6.02763 23.7074 6.22923 23.7074 6.49131C23.7074 6.74499 23.9149 6.95835 24.1747 6.95835C24.4346 6.95835 24.6438 6.74499 24.6438 6.49131C24.6438 6.22923 24.4346 6.02763 24.1747 6.02763ZM25.9548 5.33211C26.2146 5.33211 26.4255 5.54211 26.4255 5.80083C26.4255 6.05283 26.2146 6.26283 25.9548 6.26283C25.6966 6.26283 25.4874 6.05283 25.4874 5.80083C25.4874 5.54211 25.6966 5.33211 25.9548 5.33211Z" fill="black"/>
<path d="M31.8809 15.8573C31.9214 15.8573 32.0108 15.8439 32.004 15.8808C31.9939 15.9262 32.004 16.1211 32.004 16.2236C32.004 16.3344 32.0985 16.3613 32.1491 16.3781C32.1964 16.4033 32.3685 16.3865 32.4562 16.3781C32.5558 16.3865 32.6334 16.3613 32.7565 16.2824C32.8848 16.2202 32.8797 16.0656 32.8797 15.896C32.797 15.896 32.5558 15.896 32.4427 15.9128C32.328 15.9497 32.2791 16.0136 32.2149 16.0287C32.1643 16.0388 32.1407 16.0388 32.1407 15.9884V15.775C32.1407 15.7448 32.1238 15.6826 32.0513 15.6826C31.9855 15.691 31.9214 15.775 31.8674 15.7918C31.8151 15.8136 31.8421 15.8573 31.8809 15.8573" fill="black"/>
<path d="M30.7258 13.4882C30.719 13.5335 30.7258 13.72 30.7258 13.8275C30.7258 13.9367 30.822 13.9485 30.8709 13.9754C30.9198 14.0123 31.0902 13.9855 31.178 13.9855C31.2758 13.9855 31.3551 13.9485 31.4783 13.8897C31.6065 13.8158 31.5981 13.673 31.5981 13.505C31.5171 13.505 31.2758 13.4949 31.1628 13.5218C31.0464 13.5436 31.0008 13.6175 30.935 13.6276C30.8844 13.636 30.8624 13.636 30.8624 13.5923V13.3739C30.8624 13.337 30.8473 13.2815 30.773 13.2899C30.7106 13.295 30.6414 13.3739 30.5857 13.3857C30.5385 13.4243 30.5621 13.4546 30.6043 13.4479C30.6414 13.4613 30.7325 13.4428 30.7258 13.4882" fill="black"/>
<path d="M26.3445 11.8247C26.3833 11.8364 26.4728 11.8163 26.4677 11.8549V12.2027C26.4677 12.3068 26.5639 12.3303 26.6111 12.3488C26.6685 12.3807 26.8304 12.3589 26.9283 12.3589C27.0262 12.3589 27.097 12.3303 27.2185 12.2631C27.3501 12.1842 27.3501 12.0397 27.34 11.8767C27.259 11.8767 27.0262 11.8683 26.9047 11.8919C26.7883 11.9221 26.7427 11.9826 26.6837 11.9927C26.6297 12.0078 26.6111 12.0078 26.6027 11.9591C26.6111 11.9137 26.6111 11.8163 26.6027 11.7423C26.6111 11.7087 26.5875 11.6583 26.5132 11.6634C26.4491 11.6718 26.3867 11.7423 26.3344 11.7608C26.2872 11.7944 26.3125 11.8364 26.3445 11.8247" fill="black"/>
<path d="M24.8468 9.43268C24.8839 9.44444 24.975 9.42428 24.9666 9.46292C24.9598 9.515 24.9666 9.69476 24.9666 9.81068C24.9666 9.9182 25.0627 9.93836 25.1133 9.95348C25.169 9.99044 25.331 9.96356 25.4221 9.96356C25.5183 9.96356 25.601 9.93836 25.7208 9.86276C25.8507 9.7922 25.8422 9.6494 25.8422 9.4814C25.7612 9.4814 25.5183 9.473 25.4069 9.49988C25.2922 9.53012 25.2449 9.59564 25.1859 9.60404C25.1302 9.6158 25.115 9.6158 25.1049 9.56708C25.115 9.5234 25.115 9.42428 25.1049 9.35036C25.115 9.32012 25.0897 9.25796 25.0172 9.26636C24.9514 9.2798 24.8839 9.35036 24.84 9.36884C24.7894 9.40244 24.813 9.44444 24.8468 9.43268" fill="black"/>
<path d="M27.7765 9.43268C27.817 9.44444 27.9064 9.42428 27.898 9.46292C27.8912 9.515 27.898 9.69476 27.898 9.81068C27.898 9.9182 27.9941 9.93836 28.0431 9.95348C28.0937 9.99044 28.2624 9.96356 28.3518 9.96356C28.4514 9.96356 28.5307 9.93836 28.6505 9.86276C28.7804 9.7922 28.7736 9.6494 28.7736 9.4814C28.6893 9.4814 28.4514 9.473 28.3333 9.49988C28.2219 9.53012 28.1713 9.59564 28.1156 9.60404C28.0599 9.6158 28.0346 9.6158 28.0346 9.56708V9.35036C28.0346 9.32012 28.0194 9.25796 27.9452 9.26636C27.8828 9.2798 27.817 9.35036 27.7613 9.36884C27.7124 9.40244 27.7461 9.44444 27.7765 9.43268" fill="black"/>
<path d="M33.274 13.4472C33.3128 13.4623 33.4023 13.4422 33.3955 13.4875C33.3871 13.5346 33.3955 13.7194 33.3955 13.8286C33.3955 13.9361 33.4917 13.9495 33.5423 13.9747C33.5895 14.0117 33.7616 13.9848 33.8477 13.9848C33.9439 13.9848 34.0282 13.9495 34.148 13.8907C34.2779 13.8168 34.2712 13.674 34.2712 13.5043C34.1885 13.5043 33.9439 13.4943 33.8342 13.5211C33.7195 13.5447 33.6688 13.6186 33.6148 13.627C33.5575 13.6354 33.5339 13.6354 33.5339 13.5917V13.3733C33.5339 13.338 33.517 13.2809 33.4444 13.2893C33.3786 13.2943 33.3128 13.3733 33.2605 13.3867C33.2082 13.4237 33.2403 13.4623 33.274 13.4472" fill="black"/>
</svg>
