<svg width="48" height="36" viewBox="0 0 48 36" fill="none" xmlns="http://www.w3.org/2000/svg">
<path fill-rule="evenodd" clip-rule="evenodd" d="M5.0517 36H0V0H10.6643V4.3437H5.0517V15.3837H9.35406V19.6678H5.0517V36ZM12.5789 0H17.7927V36H12.5789V0ZM34.9296 0V4.3437H38.9718V36H44.0234V4.3437H48V0H34.9296ZM35.5993 33.6418C35.6004 34.4307 35.6007 35.2168 35.6007 36H30.8755C30.8714 34.6381 30.8683 33.2694 30.8662 31.8941C30.8623 30.5208 30.8557 29.1452 30.8407 27.7743C30.8109 25.0351 30.7474 22.3066 30.6029 19.6678H25.0454V36H20.5082V0H31.169C31.8145 1.23845 32.3621 2.52466 32.8066 3.84704C33.2666 5.21368 33.6472 6.60526 33.9468 8.01496C34.2564 9.44812 34.5027 10.9259 34.7006 12.4295C34.8986 13.9327 35.0491 15.4706 35.1654 17.0223C35.2817 18.5732 35.3646 20.151 35.4248 21.7303C35.485 23.308 35.5235 24.9081 35.5486 26.4962C35.5738 28.0804 35.5864 29.69 35.593 31.2682C35.5964 32.0614 35.5985 32.8526 35.5993 33.6418ZM27.9725 4.3437C29.1785 7.45765 29.875 11.2674 30.281 15.3837H25.0454V4.3437H27.9725Z" fill="black"/>
</svg>
