<svg width="79" height="29" viewBox="0 0 79 29" fill="none" xmlns="http://www.w3.org/2000/svg">
<path fill-rule="evenodd" clip-rule="evenodd" d="M39.5004 0.5C61.326 0.5 79 6.75761 79 14.5003C79 22.2404 61.326 28.5 39.5004 28.5C17.6768 28.5 0 22.2404 0 14.5003C0 6.75761 17.6768 0.5 39.5004 0.5ZM39.5013 1.27778C18.5577 1.27778 1.58 7.02248 1.58 14.1113C1.58 21.1989 18.5576 26.9444 39.5013 26.9444C60.443 26.9444 77.42 21.1989 77.42 14.1113C77.42 7.02248 60.443 1.27778 39.5013 1.27778ZM76.0879 14.1112C76.0879 7.63627 59.709 2.38922 39.5013 2.38922C19.2935 2.38922 2.91348 7.63627 2.91348 14.1112C2.91348 20.5861 19.2935 25.834 39.5013 25.834C59.709 25.834 76.0879 20.5861 76.0879 14.1112ZM63.0609 9.83333L62.2639 9.83383L62.0521 9.83404L61.0242 9.83474L60.9546 9.83676C60.8476 9.84427 60.7836 9.87657 60.7243 9.99361C60.5707 10.2895 59.2842 12.2469 58.272 13.7869L58.2715 13.7876L58.2712 13.7881C57.7464 14.5865 57.2955 15.2725 57.1146 15.5564C57.0255 15.6831 56.9165 15.6656 56.9039 15.5213C56.8503 15.0274 56.4253 14.4598 55.756 14.1883C55.2458 13.9804 54.747 13.9427 54.2286 14.0118C53.2926 14.138 52.4585 14.6341 51.7251 15.1929C51.2623 15.5461 50.8262 15.9431 50.3852 16.3445C49.7729 16.9018 49.1512 17.4677 48.4356 17.9372C47.7636 18.3767 46.8437 18.7602 46.228 18.1879C45.6708 17.6695 45.7336 16.5173 46.5861 15.6266C46.676 15.5334 46.7836 15.6113 46.7667 15.6952C46.6864 16.0982 46.7853 16.4988 47.0898 16.7797C47.4617 17.1142 47.9939 17.1523 48.4495 16.9291C48.9871 16.6616 49.3031 16.1453 49.3951 15.5592C49.5379 14.65 48.8406 13.848 47.9683 13.7838C47.2597 13.734 46.5802 13.9813 45.918 14.5302C45.5863 14.8065 45.3974 15.0108 45.1105 15.4207C45.0405 15.5214 44.9331 15.5318 44.9364 15.3828C44.9697 14.2187 44.4899 13.5639 43.5311 13.5424C42.7873 13.5248 41.9922 13.9298 41.3726 14.4258C40.8632 14.8364 40.4019 15.3471 39.9346 15.8645C39.7788 16.037 39.6223 16.2103 39.4631 16.3808C39.3839 16.4648 39.3147 16.4609 39.2925 16.2979C39.2734 15.5268 39.0801 14.7796 38.7246 14.2494C38.5988 14.0648 38.3342 13.9733 38.1117 14.0982C38.0926 14.1087 38.0648 14.1229 38.0304 14.1405C37.8795 14.2175 37.6029 14.3587 37.3913 14.53C37.262 14.6368 37.2121 14.7911 37.2686 14.9893C37.6121 16.1413 37.5364 17.4513 37.071 18.5578C36.6435 19.571 35.8125 20.4851 34.8359 20.7943C34.1925 20.999 33.5234 20.8988 33.1096 20.3263C32.5411 19.5359 32.7707 18.1617 33.6179 17.0204C34.3659 16.0157 35.4473 15.3773 36.5263 14.9663C36.6533 14.9171 36.6794 14.8354 36.6435 14.7271C36.6064 14.6142 36.5554 14.4759 36.5132 14.3614C36.4888 14.2949 36.4672 14.2364 36.4531 14.1957C36.3542 13.9315 36.077 13.8884 35.7389 13.9254C34.955 14.017 34.2478 14.2867 33.5493 14.6621C31.7203 15.6453 30.8032 17.5485 30.401 18.5666C30.2076 19.0555 30.0421 19.3608 29.8282 19.6314C29.5398 19.9952 29.178 20.3263 28.5159 20.9099C28.4562 20.9634 28.4115 21.0751 28.4618 21.1788C28.5293 21.3192 28.8736 21.8071 28.9707 21.8506C29.0786 21.9039 29.2037 21.8296 29.2536 21.7933C29.7169 21.4781 30.2709 20.9787 30.5422 20.6399C30.6372 20.5239 30.7349 20.5727 30.7853 20.7488C31.0384 21.6552 31.7012 22.3952 32.6175 22.7047C34.2947 23.2726 36.0346 22.4506 37.3475 21.0199C37.9145 20.4022 38.2353 19.9342 38.483 19.573C38.5998 19.4024 38.7004 19.2557 38.8029 19.1282C38.8899 19.02 38.9904 18.8904 39.1031 18.745L39.1033 18.7447C39.6934 17.9836 40.6187 16.79 41.6878 15.977C42.1549 15.62 42.7078 15.3477 42.9857 15.5285C43.2087 15.6733 43.2808 16.0108 42.9229 16.6643C42.1181 18.1396 41.078 19.775 40.3201 20.9667L40.3201 20.9667C39.8552 21.6976 39.4965 22.2617 39.3633 22.5195C39.2994 22.6372 39.3551 22.7297 39.4778 22.7297C39.8175 22.728 40.1558 22.7276 40.4862 22.7276L41.4477 22.728C41.5504 22.7231 41.5965 22.6761 41.6478 22.6034C41.8773 22.2427 42.1037 21.886 42.3285 21.5318L42.3326 21.5255C43.0825 20.344 43.8151 19.1898 44.5875 18.006C44.6437 17.9153 44.6956 17.9855 44.6979 18.0253C44.7186 18.3827 44.806 18.8719 45.0173 19.193C45.3972 19.7867 45.9358 20.0418 46.533 20.0456C47.0082 20.0511 47.2485 19.9786 47.7609 19.7866C48.1779 19.6314 48.5127 19.4274 48.7697 19.2431C48.9197 19.1386 48.946 19.3136 48.942 19.3405C48.7117 20.5836 48.9962 22.0565 50.2272 22.6673C51.6999 23.3962 53.3182 22.3717 54.2493 21.4468C54.3402 21.3576 54.4382 21.367 54.4474 21.559C54.4671 21.9121 54.6261 22.3313 54.9172 22.6246C55.6974 23.4106 57.2719 23.0992 58.8518 21.8715C59.8663 21.0855 60.9278 19.9749 61.8867 18.7988C61.9223 18.7536 61.9487 18.68 61.8802 18.6062C61.785 18.5062 61.6619 18.3967 61.5477 18.2952C61.4868 18.241 61.4284 18.189 61.3781 18.142C61.3119 18.0858 61.2152 18.1019 61.1594 18.1442C60.8815 18.4096 60.6115 18.6854 60.3381 18.9647L60.3379 18.9648L60.3378 18.9649L60.3377 18.965L60.3377 18.9651C59.6445 19.6732 58.9302 20.4029 58.0132 21.0376C57.582 21.3396 56.8949 21.5833 56.5861 21.164C56.4659 21.0014 56.4795 20.7758 56.5981 20.4804C56.8648 19.8131 59.9549 15.0163 61.8089 12.1383L61.8089 12.1382C62.5494 10.9888 63.0926 10.1455 63.1801 9.99361C63.2326 9.90118 63.1773 9.83333 63.0609 9.83333ZM20.7175 9.79309C20.724 6.75568 24.1997 4.75486 27.8514 4.45575C30.929 4.20828 33.8926 4.69207 36.891 5.18156C38.1776 5.39159 39.4706 5.60267 40.7817 5.75746C44.1274 6.15157 47.335 6.16006 50.6977 5.40805C51.0952 5.32415 51.3742 5.5709 51.3483 5.96157C51.3154 6.52648 50.866 7.07028 49.7583 7.65821C48.4988 8.33045 47.1811 8.53429 45.805 8.54526C43.516 8.56373 41.3348 7.97239 39.1523 7.38065C38.1616 7.11206 37.1706 6.84338 36.1691 6.63162C36.1698 6.65428 36.1715 6.67768 36.1731 6.70135C36.1815 6.82022 36.1902 6.94568 36.092 7.01737C34.3152 8.29289 32.709 9.58789 31.6332 11.4068C31.5969 11.4489 31.6166 11.489 31.6793 11.4847C31.9821 11.469 32.275 11.456 32.5623 11.4432L32.5625 11.4432L32.5626 11.4432L32.5627 11.4432L32.5627 11.4432C33.1616 11.4165 33.7362 11.391 34.3254 11.3451C34.4775 11.3328 34.4833 11.2959 34.4698 11.1875C34.393 10.5605 34.5809 9.8456 35.1478 9.35375C35.7277 8.84752 36.4543 8.78994 36.9355 9.15458C37.4834 9.56979 37.4349 10.3163 37.1353 10.8762C36.8305 11.4444 36.3273 11.7479 35.8438 11.8955C35.8438 11.8955 35.7428 11.9172 35.7575 12.0067C35.7691 12.0932 36.0129 12.2566 36.217 12.3934C36.3516 12.4835 36.4689 12.5622 36.4912 12.5997C36.5455 12.6896 36.5177 12.8291 36.4176 12.9359C36.3474 13.0135 36.2387 13.0867 36.0989 13.084C35.9889 13.0818 35.9208 13.0458 35.7847 12.9738L35.7731 12.9677C35.4773 12.8119 35.1083 12.5559 34.8624 12.2542C34.7781 12.1522 34.7359 12.15 34.5261 12.161C33.5826 12.2141 32.111 12.3524 31.1141 12.4737C30.8728 12.5029 30.8372 12.5468 30.7874 12.6282L30.6816 12.7981L30.6816 12.7981C29.123 15.3001 27.4599 17.9696 25.6382 19.77C23.6397 21.7444 21.9784 22.2641 20.2152 22.2778C17.9994 22.293 16.0475 20.9603 15.8237 18.6537C15.6992 17.3755 16.0705 16.2363 16.8136 15.298C17.4732 14.4618 18.5891 13.767 19.5338 13.5973C19.8413 13.5425 20.2543 13.5775 20.4249 13.7754C20.6929 14.0788 20.6157 14.4119 20.3482 14.5448C19.6275 14.903 18.7601 15.5159 18.3312 16.3528C17.9828 17.036 17.9127 17.8596 18.4443 18.6438C19.3342 19.9511 21.8143 19.987 24.1204 17.9022C24.6913 17.3921 25.2025 16.9019 25.7219 16.3213C26.7376 15.1912 27.0754 14.7794 28.4255 12.9569C28.4417 12.9361 28.446 12.9082 28.439 12.8948C28.4279 12.8715 28.409 12.8651 28.3697 12.8627C27.4685 12.8869 26.6826 13.1484 25.9191 13.704C25.6991 13.8598 25.3827 13.8379 25.2441 13.6326C25.09 13.4005 25.2003 13.0977 25.4543 12.9272C26.5711 12.1712 27.7819 11.9779 29.0226 11.7798L29.0227 11.7797C29.1467 11.7599 29.2711 11.7401 29.3956 11.7196C29.3945 11.7196 29.491 11.7241 29.5693 11.6227C29.8077 11.3251 30.0213 11.0397 30.234 10.7556L30.2341 10.7556L30.2341 10.7555L30.2342 10.7554C30.5235 10.3691 30.811 9.98503 31.1565 9.57555C31.7607 8.85451 32.5418 8.19255 33.1383 7.69522C33.8321 7.11458 34.3183 6.85512 34.7752 6.61833L35.0472 6.47658L35.0873 6.44895C35.1516 6.38377 35.0233 6.31702 34.9855 6.31702C34.7629 6.27633 34.5397 6.23475 34.3159 6.19307L34.3157 6.19303C31.4937 5.66743 28.5858 5.12582 25.7978 6.13018C23.7144 6.887 22.8014 8.49495 23.2406 9.56938C23.5528 10.3314 24.5831 10.4553 25.5474 9.99611C26.3485 9.61407 27.0893 8.99885 27.6149 8.20626C27.9092 7.76637 28.5285 8.08371 28.194 8.84779C27.3136 10.8616 25.6315 12.459 23.5825 12.5262C21.839 12.5813 20.7139 11.3332 20.7175 9.79309ZM55.2214 15.5654C55.9483 15.9136 55.7163 16.7585 55.3911 17.422C55.3667 17.4732 55.3651 17.5168 55.3779 17.5588C55.39 17.6279 55.4797 17.6946 55.5675 17.7264C55.5982 17.7379 55.6157 17.7603 55.5807 17.8328C55.3661 18.2943 55.1664 18.5888 54.9166 18.9574C54.8741 19.0201 54.8301 19.085 54.7844 19.1532C54.4953 19.5867 54.1692 19.925 53.7745 20.2501C53.1792 20.7447 52.3525 21.2831 51.669 20.9211C51.3653 20.7628 51.2342 20.3365 51.2402 19.9911C51.256 19.0202 51.6849 18.0234 52.4793 17.0438C53.4479 15.8469 54.5186 15.226 55.2214 15.5654ZM36.3284 10.5085C36.5074 10.254 36.5911 9.88631 36.4139 9.73909C36.2551 9.6068 35.9976 9.64436 35.8069 9.80845C35.4268 10.1351 35.3109 10.5991 35.3602 10.9454C35.3853 11.0763 35.4378 11.1015 35.4985 11.0906C35.8011 11.0316 36.1327 10.7891 36.3284 10.5085Z" fill="black"/>
</svg>
