<svg width="79" height="28" viewBox="0 0 79 28" fill="none" xmlns="http://www.w3.org/2000/svg">
<path fill-rule="evenodd" clip-rule="evenodd" d="M45.2514 1.29799C41.9382 0.270738 40.9357 0.0415162 39.6699 0.00755743C38.8714 -0.0179117 38.5061 0.0160471 37.699 0.185841C36.7645 0.381104 34.5897 1.01783 31.7692 1.91774L30.5373 2.30826L28.2436 2.29977C25.8394 2.2828 22.3648 2.14696 10.0209 1.58664L7.21508 1.45802L7.21504 1.45802C2.83104 1.25681 1.08255 1.17657 0.406117 1.1678L0.316594 1.16703C0.110181 1.16629 0.0310521 1.17437 0.0079513 1.18901L0.000244141 1.19857L0.00497357 1.21357C0.0084921 1.21879 0.0135186 1.22437 0.018839 1.23028L0.0194206 1.23093L0.0387939 1.25554C0.480556 2.00264 1.35558 2.6054 2.2561 2.76671C3.1736 2.94499 6.37638 3.25062 16.7748 4.176C19.6717 4.43918 22.7301 4.71934 23.5711 4.81272C27.9717 5.29664 28.8807 5.72112 30.1296 7.86052C31.3869 10.0254 31.9816 10.8998 33.0095 12.0629C34.2753 13.4977 36.5776 15.2381 38.591 16.2738L39.5 16.7407L40.409 16.2738C42.3969 15.255 44.7247 13.4977 45.9905 12.0629C47.0185 10.8998 47.6131 10.0254 48.8705 7.86052C50.1193 5.72112 51.0283 5.29664 55.4289 4.81272C56.27 4.71934 59.3283 4.43918 62.2253 4.176C72.6236 3.25062 75.8264 2.94499 76.7439 2.76671C77.6444 2.6054 78.5195 2.00264 78.9645 1.25038L78.9806 1.23093L78.9813 1.23017C78.9866 1.2243 78.9916 1.21876 78.9951 1.21357L78.9998 1.19857C78.9995 1.19742 78.9991 1.1963 78.9921 1.18901C78.969 1.17437 78.8898 1.16629 78.6834 1.16703L78.5939 1.1678C77.9175 1.17657 76.1691 1.25681 71.7853 1.458L71.785 1.45802L68.9791 1.58664C58.997 2.03659 53.7468 2.25733 51.1387 2.31675C50.9887 2.32025 50.8489 2.32378 50.7177 2.32709L50.7177 2.32709C49.9368 2.34678 49.4651 2.35868 48.9997 2.31014C48.2897 2.23608 47.5944 2.02136 45.8384 1.47908L45.838 1.47898C45.6545 1.4223 45.4594 1.36204 45.2514 1.29799ZM38.9903 1.38289C39.4405 1.30648 40.443 1.44232 41.7258 1.76492C43.5183 2.21488 45.7441 2.95348 46.6956 3.41192C47.6471 3.87886 47.8765 4.14204 47.851 4.77028C47.8255 5.78904 46.5172 8.76892 45.4638 10.2376C44.8181 11.146 43.5183 12.4874 42.5159 13.2939C41.7088 13.9476 39.8823 15.1532 39.602 15.2296C39.2536 15.3145 37.3082 14.024 35.83 12.7336C34.3263 11.4177 33.1879 9.93201 32.3129 8.14917C31.8371 7.17286 31.217 5.45794 31.132 4.85517C31.0216 4.12506 31.5483 3.66662 33.2134 3.0214C34.6321 2.46957 37.5376 1.64607 38.9903 1.38289ZM2.58742 3.79396C2.95272 3.79396 11.0234 4.56652 20.895 5.53435C24.701 5.91638 26.4935 6.2305 27.2836 6.65499C27.8698 6.9776 28.7193 7.90297 29.5519 9.14247C31.1575 11.5196 32.3978 13.0223 33.4938 13.8967C33.7571 14.1004 33.9525 14.2872 33.9355 14.3042C33.893 14.3467 31.7437 13.9476 30.4949 13.676C30.0634 13.5777 29.4591 13.426 28.8344 13.2619L28.4167 13.1511C27.234 12.8347 26.1 12.5068 26.0433 12.445C25.9923 12.4025 26.0348 12.3686 26.1537 12.3686C26.4595 12.3686 28.7958 12.1988 29.2121 12.1478L29.5774 12.0969L29.382 11.8846L29.3723 11.8745C28.9234 11.4007 28.9233 11.4007 25.3551 11.3922L22.0419 11.3837L20.8441 11.1206C20.1072 10.9578 19.1823 10.7288 18.2543 10.4852L17.7489 10.3512C15.903 9.8568 14.1791 9.34161 14.0562 9.21887C14.0228 9.18545 14.1667 9.16814 14.4926 9.16543L14.7369 9.16578C14.963 9.16784 15.2456 9.1743 15.5854 9.18492C18.3074 9.2718 22.6825 9.35342 24.4459 9.35937L24.8211 9.35929C25.0693 9.358 25.2116 9.35381 25.2192 9.34622C25.2447 9.32075 25.1343 9.16794 24.9644 9.01512C24.7435 8.81986 24.5141 8.70949 24.1998 8.65007C23.9449 8.59913 22.3648 8.49725 20.6827 8.42084C17.1656 8.26803 14.2686 8.08975 12.1448 7.90297C7.48928 7.50396 5.65427 6.8078 3.13962 4.51558C2.79131 4.19298 2.49397 3.90433 2.47698 3.86188C2.45999 3.82792 2.51096 3.79396 2.58742 3.79396ZM76.523 3.86188C76.5655 3.76 76.2002 3.78547 72.887 4.09959C71.2304 4.2524 67.9002 4.57501 65.496 4.81272C64.5978 4.90153 63.5976 4.99982 62.6226 5.09563L62.6214 5.09575C60.9871 5.25636 59.4236 5.41001 58.5298 5.50039C54.3075 5.90789 52.532 6.21352 51.7164 6.65499C51.1302 6.9776 50.2807 7.90297 49.4482 9.14247C47.8425 11.5196 46.6022 13.0223 45.5063 13.8967C45.2429 14.1004 45.0475 14.2872 45.0645 14.3042C45.107 14.3467 47.2563 13.9476 48.5052 13.676C48.9366 13.5777 49.541 13.426 50.1656 13.2619L50.5834 13.1511C51.766 12.8347 52.9 12.5068 52.9568 12.445C53.0077 12.4025 52.9653 12.3686 52.8463 12.3686C52.5405 12.3686 50.2042 12.1988 49.788 12.1478L49.4227 12.0969L49.6181 11.8846L49.6277 11.8745C50.0766 11.4007 50.0767 11.4007 53.6449 11.3922L56.9581 11.3837L58.156 11.1206C58.8902 10.9578 59.8141 10.7288 60.742 10.4852L61.2474 10.3512C62.0027 10.1489 62.7381 9.94321 63.3519 9.76229L63.7419 9.64566C64.4199 9.43972 64.8824 9.28024 64.9438 9.21887C64.9772 9.18545 64.836 9.16814 64.5185 9.16543L64.2807 9.16578C64.0607 9.16784 63.7863 9.1743 63.4571 9.18492C60.1269 9.28679 53.8318 9.39716 53.7808 9.34622C53.7553 9.32075 53.8658 9.16794 54.0357 9.01512C54.2566 8.81986 54.4859 8.70949 54.8003 8.65007C55.0551 8.59913 56.6353 8.49725 58.3174 8.42084C61.8345 8.26803 64.7229 8.08975 66.8553 7.90297C71.5023 7.50396 73.3458 6.8078 75.8604 4.51558C76.2087 4.19298 76.5145 3.90433 76.523 3.86188ZM34.0545 5.06741C34.6576 5.06741 34.8275 5.14382 34.8275 5.38153C34.8275 5.55133 34.802 5.58529 34.6831 5.52586C34.5982 5.4919 34.3773 5.44945 34.1819 5.42398C33.8845 5.39851 33.8081 5.42398 33.6467 5.61925C33.2474 6.13712 33.5447 6.93515 34.1479 6.93515C34.3858 6.93515 34.4028 6.90968 34.4028 6.6465C34.4028 6.46821 34.3518 6.34087 34.2753 6.30691C34.0205 6.21352 34.1564 6.08618 34.5302 6.08618H34.9125L34.9122 6.69863C34.9094 7.07434 34.8828 7.09574 34.6491 7.18135C33.893 7.44453 33.1709 7.16437 32.9755 6.52764C32.8141 6.03524 32.9755 5.52586 33.3748 5.26268C33.5702 5.12684 33.7911 5.06741 34.0545 5.06741ZM40.2816 5.08439C39.6359 5.06741 39.5 5.08439 39.5 5.18627C39.5 5.25419 39.5425 5.33909 39.585 5.36455C39.6313 5.39543 39.6636 5.74203 39.6691 6.20663L39.6699 7.27474H40.392C41.0547 7.27474 41.1141 7.25776 41.1141 7.10494C41.1141 6.96741 41.066 6.9399 40.7591 6.93578L40.1796 6.93515V6.25597H40.6044C40.9272 6.25597 41.0292 6.22201 41.0292 6.12863C41.0292 6.03524 40.9272 6.00128 40.6044 6.00128H40.1796V5.407H40.6554C41.0547 5.407 41.1226 5.38153 41.0972 5.25419C41.0717 5.13533 40.9527 5.10986 40.2816 5.08439ZM43.9176 5.06741V7.27474H43.4079L43.4072 6.14663C43.402 5.58593 43.3683 5.32069 43.306 5.30513C43.255 5.28815 43.238 5.22023 43.272 5.16929C43.306 5.10986 43.4674 5.06741 43.6288 5.06741H43.9176ZM36.7815 5.10137C36.7815 5.04195 35.2863 5.06741 35.2268 5.12684C35.1928 5.15231 35.2013 5.22023 35.2523 5.27966C35.2948 5.3306 35.3458 5.78904 35.3542 6.30691L35.3797 7.23229L36.1273 7.25776C36.824 7.28323 36.8664 7.27473 36.8664 7.10494C36.8664 6.96602 36.8243 6.93936 36.4656 6.93566L35.8385 6.93515L35.864 6.61254V6.61251C35.8756 6.4697 35.8819 6.39183 35.9237 6.34696C35.9738 6.29315 36.0749 6.28684 36.2972 6.27295C36.5776 6.25597 36.6965 6.21352 36.6965 6.12014C36.6965 6.03524 36.5861 6.00128 36.2718 6.00128H35.847V5.407H36.3652C36.807 5.407 36.8749 5.39002 36.8325 5.27117C36.807 5.19476 36.7815 5.11835 36.7815 5.10137ZM37.4271 5.06741C37.5801 5.06741 37.7585 5.22872 38.1577 5.74659L38.693 6.42577L38.7184 5.7381C38.7439 5.09288 38.7524 5.05893 38.9308 5.08439C39.0882 5.10687 39.1134 5.13595 39.1171 5.84816V6.49166C39.1134 7.19959 39.0882 7.23528 38.9308 7.25776C38.7949 7.27473 38.6335 7.1389 38.2512 6.67197L37.7585 6.05222L37.716 6.6465C37.6735 7.17286 37.6565 7.23229 37.4866 7.25776C37.3142 7.28023 37.2939 7.27626 37.2915 6.616L37.2912 6.3154C37.2912 5.63622 37.2572 5.32211 37.1893 5.30513C37.1383 5.28815 37.1213 5.22023 37.1553 5.16929C37.1893 5.10986 37.3082 5.06741 37.4271 5.06741ZM42.7623 5.11835C42.5669 5.04195 41.9552 5.06741 41.7258 5.15231C41.6239 5.19476 41.4964 5.3306 41.454 5.45794C41.3265 5.78904 41.5134 6.08618 42.0062 6.35785C42.4989 6.62103 42.5754 6.87572 42.1931 6.91817C42.0571 6.93515 41.8363 6.90968 41.7003 6.85874C41.454 6.77384 41.4455 6.78233 41.471 7.00307C41.4964 7.2238 41.5219 7.23229 42.0147 7.25776C42.4309 7.27473 42.5669 7.24927 42.7538 7.10494C43.187 6.76535 43.0341 6.28144 42.3885 5.95883C42.0826 5.80602 41.9637 5.69565 41.9637 5.55982C41.9637 5.39851 41.9977 5.39002 42.4309 5.43247C42.8472 5.47492 42.8982 5.45794 42.8982 5.32211C42.8982 5.23721 42.8387 5.14382 42.7623 5.11835ZM44.6737 5.19476C44.9031 5.06741 45.4978 5.02497 45.7357 5.11835C45.8121 5.14382 45.8716 5.23721 45.8716 5.32211C45.8716 5.45794 45.8206 5.47492 45.4043 5.43247C44.9796 5.39002 44.9371 5.39851 44.9371 5.55133C44.9371 5.6532 45.0645 5.78904 45.3024 5.91638C45.8461 6.21352 45.9565 6.34087 45.9565 6.6465C45.9565 7.07947 45.6337 7.29171 44.9881 7.25776C44.4953 7.23229 44.4698 7.2238 44.4443 7.00307C44.4189 6.78233 44.4274 6.77384 44.6737 6.85874C45.056 6.99458 45.4043 6.92666 45.4043 6.72291C45.4043 6.61254 45.2684 6.48519 44.9796 6.33238C44.3254 5.99279 44.181 5.46643 44.6737 5.19476ZM23.1293 25.0691C23.0104 23.5919 23.9874 22.2845 25.3891 22.0468C26.3236 21.894 27.428 22.259 27.9887 22.9128C28.1501 23.108 28.2861 23.2863 28.2861 23.3118C28.2861 23.3372 28.1501 23.4561 27.9887 23.558L27.6999 23.7617L27.428 23.4476C27.0202 22.9892 26.5615 22.7854 25.9073 22.7854C24.752 22.7854 23.9619 23.5834 23.9534 24.7635C23.9534 25.7059 24.3017 26.3256 25.0323 26.6822C25.4316 26.8774 25.559 26.9029 26.1027 26.8689C26.6889 26.8265 27.1392 26.6737 27.462 26.3935C27.5639 26.3001 27.6064 26.1388 27.6064 25.7653V25.2729H27.0542H26.502V24.9333V24.5937H27.4365H28.371V25.6464V26.6992L28.0737 26.9199C27.9123 27.0472 27.5555 27.251 27.2836 27.3783C26.8588 27.5821 26.6974 27.6076 25.9498 27.6076C25.2277 27.6076 25.0408 27.5736 24.701 27.4038C23.809 26.9708 23.2058 26.0709 23.1293 25.0691ZM46.3728 22.0383C45.3449 22.2421 44.7842 23.2184 45.175 24.1098C45.3873 24.5852 45.7866 24.8654 46.5512 25.0691C47.5452 25.3323 47.7406 25.5021 47.7406 26.0794C47.7406 26.3086 47.6726 26.453 47.4857 26.6482C47.2393 26.8859 47.1884 26.9029 46.6956 26.8689C46.084 26.835 45.8036 26.6652 45.5318 26.1898L45.3534 25.8757L45.0645 26.0539C44.9031 26.1473 44.7672 26.2747 44.7672 26.3256C44.7672 26.5294 45.2684 27.1321 45.6337 27.3698C45.9226 27.5651 46.0925 27.616 46.6277 27.633C47.1714 27.6585 47.3328 27.6245 47.6471 27.4632C48.2163 27.1746 48.5221 26.7331 48.5731 26.1643C48.6496 25.2559 48.1908 24.7295 47.0015 24.3815C46.1859 24.1353 45.8716 23.8976 45.8716 23.507C45.8716 22.709 47.0524 22.5052 47.7066 23.1929L47.9699 23.4731L48.2333 23.3033C48.5476 23.108 48.5561 23.0995 48.3522 22.7854C47.9615 22.2081 47.1374 21.894 46.3728 22.0383ZM52.4895 22.9297C52.6849 22.4883 53.1352 22.1487 53.6109 22.0553C54.367 21.911 55.0636 22.1402 55.5394 22.6835C55.6923 22.8533 55.8112 23.0146 55.8112 23.0486C55.8112 23.0825 55.6753 23.1929 55.5224 23.2948L55.2335 23.4816L55.0296 23.2269C54.7578 22.8788 54.2056 22.692 53.7723 22.8109C53.3815 22.9128 53.1776 23.1674 53.1776 23.5325C53.1776 23.9145 53.4495 24.1183 54.3075 24.373C55.7093 24.7975 56.236 25.6719 55.7093 26.7161C55.4119 27.2934 54.9192 27.5906 54.1971 27.633C53.8743 27.65 53.4835 27.6245 53.3051 27.5651C52.7953 27.3953 52.0732 26.6567 52.0732 26.3001C52.0732 26.2577 52.1922 26.1473 52.3451 26.0539L52.6169 25.8841L52.8378 26.2407C53.1437 26.7246 53.5684 26.9199 54.1801 26.8689C54.7493 26.818 55.0466 26.5463 55.0466 26.0709C55.0466 25.4936 54.8427 25.3323 53.8318 25.0691C52.566 24.7295 52.0477 23.906 52.4895 22.9297ZM29.9002 24.8484V27.5651H31.3444H32.7886V27.2255V26.8859H31.7267H30.6648V26.037V25.188H31.6502H32.6272L32.6017 24.8229L32.5762 24.4664L31.6248 24.4409L30.6648 24.4154V23.6174V22.8109H31.7267H32.7886V22.4713V22.1317H31.3444H29.9002V24.8484ZM34.3178 27.5651V24.8484C34.3178 22.7345 34.3433 22.1317 34.4282 22.1317C34.4792 22.1232 35.3627 22.9807 36.3737 24.0164L38.2172 25.9096L38.2257 24.0164V22.1317H38.608H38.9903V24.8908C38.9903 27.251 38.9733 27.65 38.8629 27.65C38.7949 27.65 37.9284 26.784 36.9344 25.7313L35.1249 23.8127L35.0994 25.6889L35.0824 27.5651H34.7001H34.3178ZM40.7743 24.8484V27.5651H42.2185H43.6628V27.2255V26.8859H42.6008H41.5389V26.037V25.188H42.5159H43.4929V24.806V24.4239H42.5159H41.5389V23.6174V22.8109H42.6008H43.6628V22.4713V22.1317H42.2185H40.7743V24.8484ZM49.9494 27.5651V24.8484V22.1317H50.3741H50.7989V24.8484V27.5651H50.3741H49.9494Z" fill="black"/>
</svg>
