<svg width="67" height="15" viewBox="0 0 67 15" fill="none" xmlns="http://www.w3.org/2000/svg">
<path d="M4.0214 14.3999H16.6244C19.2667 14.3999 20.9417 13.1021 20.9417 10.7304V5.76449H10.6237V8.85453H17.4046V10.1159C17.4046 10.9393 16.9356 11.163 16.3201 11.163H4.73885C3.89577 11.163 3.62777 10.7412 3.62777 10.0835V4.69181C3.62777 3.97489 4.04373 3.73637 4.49738 3.73637H20.9417V0.500793H3.9879C1.37908 0.500793 0 2.0384 0 4.32257V10.6051C0 12.9782 1.46562 14.3999 4.0214 14.3999" fill="black"/>
<path d="M26.799 3.85606L32.5973 14.3996H35.9529L41.7456 3.85606V14.3996H45.3859V0.500549H39.7914L34.2751 10.4822L28.7504 0.500549H23.1671V14.3996H26.799V3.85606Z" fill="black"/>
<path d="M47.4899 4.32312V10.6043C47.4899 12.9787 48.9513 14.4004 51.5043 14.4004H66.6965V10.9021H52.2287C51.3884 10.9021 51.1176 10.4843 51.1176 9.82804V4.94975C51.1176 4.23957 51.5308 3.99027 51.99 3.99027H66.6965V0.5H51.4722C48.8662 0.5 47.4899 2.03895 47.4899 4.32312" fill="black"/>
</svg>
