<svg width="67" height="32" viewBox="0 0 67 32" fill="none" xmlns="http://www.w3.org/2000/svg">
<path fill-rule="evenodd" clip-rule="evenodd" d="M17.4079 8.51831C17.4079 3.71831 24.0201 0 33.5112 0C43.0023 0 49.5921 3.69577 49.6146 8.51831C49.6146 10.7718 48.1752 13.2958 45.1165 14.8282C42.7548 15.8557 40.2532 16.5241 37.6945 16.8113L33.5112 4.57465L29.328 16.8113C28.7657 16.7437 24.7623 16.2479 21.906 14.8282C18.8473 13.2958 17.4079 10.7718 17.4079 8.51831ZM40.3709 11.9437L33.5112 2.70423L26.6516 11.9437C24.335 11.7183 20.3541 10.2085 20.3541 7.52676C20.3541 4.14648 26.2017 0.991549 33.5337 0.991549C41.2481 0.991549 46.7133 4.14648 46.7133 7.52676C46.7133 10.231 42.71 11.7408 40.4159 11.9211L40.3709 11.9437ZM11.9201 30.6479V24.4056V24.3831H13.2696V31.9775H11.2454C11.0879 31.9775 10.953 31.9099 10.908 31.7521L8.81638 25.8254V32H7.46694V24.4056H9.42363C9.64854 24.4056 9.76099 24.4732 9.80597 24.631L11.9201 30.6479ZM18.8922 32V24.4056V24.3831H23.3229V25.7803H20.4666V27.3577H23.2779V28.7549H20.4666V32H18.8922ZM54.945 24.4056V25.8704H56.6767V32H58.2511V25.8479H59.9829V24.3831H54.9225L54.945 24.4056ZM30.475 32H28.7882V24.4056H30.475V32ZM47.9053 32H49.5921V24.4056H47.9053V32ZM67 32H65.3357V24.4056H67V32ZM0 32H1.68681V24.4056H0V32ZM40.7758 24.4056H42.1252V31.9775H40.101C39.9436 31.9775 39.8087 31.9099 39.7637 31.7521L37.672 25.8254V32H36.3226V24.4056H38.3018C38.5042 24.4056 38.6166 24.4732 38.6616 24.631L40.7758 30.6479V24.4056Z" fill="black"/>
</svg>
