<svg width="70" height="36" viewBox="0 0 70 36" fill="none" xmlns="http://www.w3.org/2000/svg">
<path fill-rule="evenodd" clip-rule="evenodd" d="M52.7911 15.4421C55.2876 16.9086 58.2259 18.403 59.1821 18.6926C60.0231 18.9472 61.4405 18.7752 62.5591 18.2827C63.6697 17.7937 64.1727 17.8054 64.3691 18.3248C64.4862 18.6346 64.4891 18.6339 64.6664 18.2501C64.8994 17.7461 64.6787 17.2288 64.1769 17.1024C63.9003 17.0328 63.5143 17.1685 62.5855 17.6617L61.3592 18.3128L60.1653 18.2512C59.1249 18.1976 58.7866 18.1071 57.5349 17.5482C56.7449 17.1954 55.3544 16.4757 54.4448 15.949C49.8148 13.2674 47.807 12.1754 44.0124 10.2749C34.8703 5.69601 28.1473 2.96121 22.3113 1.44729C18.6852 0.506622 16.6746 0.163742 13.954 0.0221119C10.4511 -0.160243 6.86788 0.809956 6.5644 2.02291C6.51441 2.22271 6.1656 2.6751 5.78926 3.02823C5.3725 3.41928 5.10502 3.79125 5.10502 3.97976C5.10502 4.48819 5.93894 5.33069 6.57985 5.46977C6.88886 5.53683 7.31991 5.63447 7.53774 5.68675C7.92622 5.78 7.93202 5.77236 7.84134 5.28748C7.77866 4.95229 7.82189 4.65154 7.97562 4.35332C8.29315 3.73737 8.81074 3.7721 9.15733 4.43262C9.39462 4.88485 9.35578 5.23736 9.02171 5.66339C8.78914 5.95998 8.64424 6.02457 8.35453 5.96079C7.99546 5.88174 7.98356 5.90054 7.9546 6.5925C7.89912 7.91805 8.71924 8.24248 9.78547 7.31678C12.0464 5.35385 14.1679 5.32787 17.1272 7.22685C17.545 7.49496 17.8869 7.6649 17.8869 7.6045C17.8869 7.44225 16.7859 6.40926 16.0693 5.89918C15.7263 5.65502 15.0222 5.32622 14.5045 5.1685C13.6441 4.90633 13.527 4.82295 13.1385 4.19604C12.9048 3.8189 12.5143 3.40699 12.2708 3.28067C11.8395 3.05691 11.8319 3.05823 11.978 3.33209C12.0605 3.48669 12.128 3.87584 12.128 4.19688C12.128 4.91975 11.5809 5.53591 10.8102 5.68094C10.4096 5.75634 10.1976 5.91715 9.87075 6.39369C9.38776 7.0979 9.00659 7.34886 8.61121 7.22297C8.21704 7.09748 8.26016 6.99534 8.9523 6.41496C10.1198 5.43596 10.4561 4.08007 9.70293 3.38863C8.94224 2.69034 8.4471 2.8419 7.66932 4.01113C6.98799 5.03536 6.76373 5.17629 6.2626 4.8951C5.40035 4.41127 5.93323 3.64207 7.48028 3.13742C8.41067 2.83393 9.36168 2.01971 9.03789 1.80386C8.63213 1.53337 7.8801 1.63916 7.48081 2.0229C7.2634 2.23185 7.06525 2.32662 7.0153 2.24553C6.87323 2.01495 7.60729 1.5385 8.60077 1.21647C9.34057 0.97667 9.99736 0.90163 11.8293 0.847598C14.4273 0.770972 14.604 0.860081 13.2455 1.56171C12.6343 1.87736 12.3299 1.94866 11.7416 1.91396C11.3359 1.89003 11.004 1.91654 11.0041 1.97287C11.0045 2.17197 11.6471 2.48164 12.5121 2.69961C13.6073 2.97557 14.5305 3.44057 15.4838 4.19652C16.5311 5.02689 16.1829 4.42601 14.852 3.10615L13.8249 2.08746L14.2757 1.74621C14.9849 1.20939 15.5513 1.12099 16.9557 1.32793C19.4778 1.69956 22.0875 2.75307 23.4363 3.94402C23.7899 4.25632 24.1044 4.48663 24.1351 4.45583C24.1658 4.42504 24.0671 4.12246 23.9158 3.78344C23.7645 3.44442 23.6705 3.13721 23.7068 3.10076C23.7964 3.01092 25.503 3.43222 27.2977 3.98719C29.972 4.81418 37.8989 7.69788 37.7921 7.80494C37.7663 7.8309 37.2836 7.91778 36.7197 7.99802C35.2221 8.21108 35.1544 8.35047 36.543 8.36188C37.6355 8.37086 37.8737 8.42419 38.8399 8.87619C40.2435 9.53279 41.0392 10.0884 42.3269 11.3111C43.3183 12.2525 44.8789 13.4947 45.0701 13.4947C45.1177 13.4947 44.3461 12.6381 43.3555 11.5912C42.3649 10.5442 41.5321 9.62129 41.5049 9.54022C41.3924 9.20494 48.5041 12.9239 52.7911 15.4421ZM47.3132 19.129C50.3153 19.2447 50.7556 19.3452 52.5102 20.3164C53.1282 20.6584 53.6655 20.9408 53.7041 20.9439C53.7428 20.947 53.3951 20.5974 52.9316 20.1671C51.308 18.6597 49.6724 18.1529 46.4002 18.1434C45.28 18.1402 44.0969 18.0758 43.7711 18.0004C41.8454 17.5546 40.1866 16.1459 39.2132 14.1298C38.7487 13.1677 38.4958 12.8162 38.0597 12.5268L37.5012 12.1562L34.401 12.1804C30.2911 12.2125 29.2063 12.038 27.1394 11.0121C26.4954 10.6925 26.489 10.6823 26.4216 9.87299C26.3841 9.42385 26.3082 8.95013 26.2527 8.82028C26.1594 8.60164 26.2104 8.5995 26.9427 8.79133C27.3783 8.90544 28.156 8.97983 28.6743 8.95697L29.6153 8.91547L28.4916 8.51549C27.8736 8.2955 26.8464 7.83962 26.2091 7.50243C25.5718 7.16523 25.0511 6.90138 25.052 6.9161C25.0529 6.93082 25.147 7.29159 25.261 7.71781C25.5575 8.82583 25.5315 9.94253 25.1965 10.4938C24.8006 11.145 24.1992 11.4064 23.102 11.4042C22.0242 11.4019 21.2826 11.2514 19.4319 10.6591C17.8729 10.1602 16.4408 10.0077 15.9204 10.2852C15.5053 10.5066 15.3969 10.9799 15.703 11.2347C15.8226 11.3343 15.9204 11.5475 15.9204 11.7085C15.9204 12.1419 16.1708 11.8157 16.2257 11.3108C16.2687 10.9149 16.3134 10.8854 16.9315 10.8454C17.5895 10.8029 17.7424 10.8475 20.8365 11.9858C21.8339 12.3527 22.2385 12.4261 23.2946 12.4315C24.3807 12.4371 24.6626 12.3864 25.2966 12.0718L26.0346 11.7056L27.1711 12.0358C28.7529 12.4954 31.1534 12.6974 33.7588 12.5902C37.1549 12.4504 37.6671 12.6491 38.8154 14.5525C39.4686 15.6352 40.925 17.1286 42.0147 17.833C43.5673 18.8367 44.2858 19.0124 47.3132 19.129ZM56.5836 22.6053C56.2745 22.5038 55.8637 22.3304 55.6706 22.2202C55.3406 22.0318 55.3905 22.015 56.4957 21.9428C57.5591 21.8733 57.7039 21.8286 58.0056 21.4768C58.6089 20.7732 58.3307 20.1292 57.2156 19.6478C56.3724 19.2837 57.0156 19.3927 58.4123 19.8505C60.0748 20.3955 61.2706 20.3809 62.6936 19.7985C63.7461 19.3677 63.4396 19.6818 62.2722 20.2304C61.7057 20.4966 61.1986 20.6093 60.3709 20.6531L59.2422 20.7128L59.2962 21.1768C59.3396 21.5496 59.2568 21.743 58.875 22.1609C58.4905 22.5819 58.2803 22.6914 57.7726 22.7355C57.4277 22.7655 56.8926 22.7069 56.5836 22.6053ZM26.174 33.9832C24.1467 33.6468 23.222 33.2398 22.4624 32.3496C21.4387 31.1498 21.267 29.2571 22.0385 27.6766C22.9191 25.8725 24.817 24.8707 27.334 24.8811C28.5243 24.8862 29.0581 24.9731 29.8611 25.2924C30.3251 25.4769 30.3878 25.5587 30.3878 25.9797C30.3878 26.2425 30.3541 26.4576 30.3129 26.4576C30.2717 26.4576 29.9083 26.2882 29.5052 26.0813C28.5207 25.5757 26.7636 25.4556 25.7926 25.8276C24.9058 26.1673 23.9984 27.0362 23.6882 27.8425C23.3133 28.8171 23.3504 30.4211 23.7678 31.283C24.1555 32.0835 24.9851 32.8326 25.7327 33.0573C26.395 33.2563 28.1284 33.272 28.6229 33.0834C28.981 32.9468 28.9832 32.9361 28.9832 31.3151V29.6842L29.7908 29.7265L30.5985 29.7687V31.5983V33.4279L29.7292 33.6632C28.839 33.9042 26.8026 34.0875 26.174 33.9832ZM0.507231 35.3412C1.58126 34.1428 1.62922 33.8916 1.69999 29.0928L1.7619 24.8944L2.55559 24.9363L3.34927 24.9781L3.39127 28.4302C3.41746 30.5823 3.37363 32.2006 3.27489 32.7276C2.94948 34.4646 1.92952 35.5624 0.274351 35.9573C-0.125278 36.0526 -0.121522 36.0427 0.507231 35.3412ZM36.2223 31.9682C36.6138 33.0812 37.4055 33.6327 39.03 33.924C39.9257 34.0846 41.5927 33.9738 42.3586 33.7027C43.0728 33.4499 43.6488 32.9291 44.0604 32.164C44.3464 31.6323 44.3635 31.4134 44.3635 28.2893V24.9781L43.9071 24.934L43.4506 24.8898L43.4422 27.6815C43.4305 31.5704 43.3158 32.0783 42.273 32.8598C41.6794 33.3047 39.6358 33.3589 38.8386 32.9509C37.8294 32.4344 37.7715 32.2027 37.6917 28.3597L37.6215 24.9781L36.8138 24.9359L36.0062 24.8936V28.1236C36.0062 30.6708 36.0519 31.4836 36.2223 31.9682ZM10.546 29.3812L12.7601 24.9781H13.2429C13.2604 24.9781 13.2773 24.9779 13.2935 24.9777C13.3481 24.977 13.3964 24.9763 13.4432 24.9843C13.801 25.0454 14.0729 25.6094 16.4221 30.4827L16.7062 31.0721L18.0139 33.7844H17.031H16.048L15.499 32.5867L14.9501 31.3891H12.7655H10.5809L9.98879 32.5867C9.40153 33.7745 9.39229 33.7844 8.86428 33.7844H8.3319L10.546 29.3812ZM12.8551 26.8556C12.9074 26.9079 13.33 27.7908 13.7943 28.8176L14.6384 30.6846H12.761H10.8836L11.8218 28.7225C12.3379 27.6434 12.8029 26.8033 12.8551 26.8556ZM48.3667 33.7131C48.3667 33.6738 49.3484 31.6729 50.5483 29.2665L52.73 24.8912L53.2323 24.9347L53.7347 24.9781L55.8209 29.2756C56.9684 31.6392 57.9096 33.6206 57.9126 33.6787C57.9155 33.7368 57.4832 33.7844 56.9518 33.7844H55.9856L55.4868 32.622L54.9879 31.4595L52.7509 31.4209L50.5139 31.3823L49.967 32.582C49.4226 33.7763 49.4177 33.7818 48.8934 33.7831C48.6037 33.7838 48.3667 33.7523 48.3667 33.7131ZM53.6765 28.6258C54.1552 29.6756 54.5469 30.5683 54.5469 30.6096C54.5469 30.6508 53.7268 30.6846 52.7245 30.6846H50.902L51.3682 29.663C51.6246 29.1012 52.053 28.2085 52.3202 27.6793L52.8061 26.717L53.6765 28.6258ZM62.3053 29.3812L62.3424 24.9781L63.747 24.9359C66.4681 24.854 68.2405 25.2838 68.9058 26.1867C69.6518 27.1992 69.4348 28.7516 68.4261 29.6177C68.1038 29.8945 67.7566 30.121 67.6546 30.121C67.5526 30.121 67.4702 30.1685 67.4715 30.2267C67.4728 30.2848 68.0422 31.1118 68.7369 32.0646L70 33.7968L68.9917 33.7554L67.9833 33.7139L66.8539 32.0584L65.7244 30.4028H64.841H63.9577V32.0936V33.7844H63.1129H62.2682L62.3053 29.3812ZM66.7326 25.9665C67.9346 26.6787 67.8809 28.7536 66.642 29.4713C66.3204 29.6576 65.8076 29.768 65.0618 29.8113L63.9577 29.8754V27.7261V25.5768L65.1196 25.638C65.9204 25.6802 66.4216 25.7822 66.7326 25.9665ZM54.7493 18.4876C53.8031 17.9181 53.1094 17.2917 52.7104 16.6463C52.3506 16.0644 51.9464 15.9196 50.2484 15.7639C48.8049 15.6316 47.5731 15.2371 47.2123 14.7915C47.0579 14.6008 47.0698 14.5833 47.2962 14.6685C47.949 14.9144 48.8414 15.0574 50.4304 15.171C52.4702 15.3169 52.84 15.493 53.6373 16.6988C53.9325 17.1452 54.5135 17.8433 54.9286 18.2501C55.3436 18.657 55.6608 18.9898 55.6335 18.9898C55.6062 18.9898 55.2083 18.7638 54.7493 18.4876ZM6.931 2.69379C6.931 2.66718 6.87917 2.6454 6.81582 2.6454C6.63936 2.6454 5.5264 3.63506 5.5264 3.79197C5.5264 3.86804 5.84243 3.66296 6.2287 3.33623C6.61496 3.00951 6.931 2.72041 6.931 2.69379ZM8.13574 2.11383C8.52736 2.07719 8.53372 2.08531 8.27363 2.28996C7.9441 2.54926 7.58784 2.57184 7.66754 2.32837C7.69924 2.23151 7.90994 2.13496 8.13574 2.11383ZM13.6391 12.4028C12.8814 11.6037 13.022 10.477 14.0021 9.49382C14.706 8.78773 15.7107 8.45328 17.5106 8.32586L18.6835 8.24282L18.4879 7.67328C18.2733 7.0485 18.4257 6.01434 18.8067 5.51011C18.9818 5.27833 19.0021 5.32066 19.0061 5.92586C19.0109 6.64726 19.2926 7.47046 19.6831 7.90401C20.0123 8.26954 21.1309 8.82726 22.3113 9.21443C23.4764 9.59656 23.3363 9.61663 21.3877 9.34667C18.7094 8.97562 17.0744 8.92575 16.0679 9.1844C14.6133 9.55822 13.8135 10.3565 13.8135 11.4344C13.8135 12.0072 14.328 12.5071 14.921 12.5106C15.2098 12.5123 15.2433 12.542 15.0777 12.6493C14.6652 12.9167 14.022 12.8065 13.6391 12.4028ZM12.1982 1.20111C10.9943 1.28013 10.8351 1.32622 11.1316 1.51004C11.3647 1.65456 12.3325 1.54176 12.9005 1.30384C13.2719 1.14831 13.1886 1.13611 12.1982 1.20111Z" fill="black"/>
</svg>
