<svg width="60" height="27" viewBox="0 0 60 27" fill="none" xmlns="http://www.w3.org/2000/svg">
<path fill-rule="evenodd" clip-rule="evenodd" d="M37.4299 20.3151C35.9758 20.3151 34.8305 20.0655 33.9923 19.5663C33.1541 19.0654 32.4605 18.2715 31.9152 17.1778C31.3611 16.0875 31.0876 14.8049 31.0876 13.3367C31.0876 11.2429 31.6399 9.54072 32.7411 8.24766C33.8458 6.95286 35.3652 6.30286 37.3064 6.30286C38.8876 6.30286 40.1211 6.59059 41.037 7.17472C41.9441 7.75192 42.6446 8.59952 43.1194 9.69672C43.5923 10.7991 43.8341 12.2361 43.8341 14.0041V14.5813H35.3776C35.457 15.4115 35.6352 16.0234 35.9264 16.4255C36.3376 17.0131 36.8688 17.3009 37.5235 17.3009C37.9417 17.3009 38.337 17.1743 38.7005 16.9195C38.9317 16.7601 39.1805 16.481 39.4435 16.0737L43.5923 16.5451C42.9623 17.8867 42.1946 18.8574 41.2964 19.445C40.4017 20.0222 39.1099 20.3151 37.4299 20.3151ZM37.4846 9.34312C36.8105 9.34312 36.2758 9.66726 35.8717 10.3173C35.6141 10.7229 35.4605 11.3243 35.3917 12.1217H39.5476C39.4594 11.125 39.2441 10.4126 38.8911 9.98792C38.5329 9.55459 38.0652 9.34312 37.4846 9.34312Z" fill="black"/>
<path fill-rule="evenodd" clip-rule="evenodd" d="M52.6578 6.89721C53.2754 6.49681 53.9566 6.30267 54.7031 6.30267C56.1766 6.30267 57.3095 6.98734 58.1231 8.35841C58.9207 9.73121 59.3266 11.4281 59.3266 13.4544C59.3266 15.6765 58.8907 17.3769 58.0136 18.5608C57.1366 19.7343 56.0231 20.3149 54.6854 20.3149C54.0307 20.3149 53.4378 20.1849 52.9048 19.9163C52.3736 19.6424 51.8919 19.242 51.4719 18.7151V26.1147H47.2119V6.60947H51.1595V8.58547C51.7066 7.75174 52.2078 7.18841 52.6578 6.89721ZM53.3742 16.4808C53.8701 16.4808 54.2795 16.2364 54.6113 15.7407C54.9431 15.2484 55.1089 14.4095 55.1089 13.236C55.1089 12.1492 54.9378 11.3467 54.5866 10.8457C54.2425 10.3309 53.8225 10.0727 53.3284 10.0727C52.7848 10.0727 52.3348 10.3344 51.9766 10.8457C51.6201 11.3605 51.4401 12.1943 51.4401 13.3452C51.4401 14.406 51.6236 15.1947 51.9925 15.7095C52.3489 16.2225 52.8184 16.4808 53.3742 16.4808Z" fill="black"/>
<path d="M10.0094 19.1905C10.9412 18.4296 11.5571 17.4919 11.8659 16.3895C12.1712 15.2853 12.33 13.6768 12.33 11.5673V0.5H7.62529V12.9176C7.62529 14.0443 7.50176 14.8451 7.25294 15.3269C7.01118 15.7984 6.62294 16.0341 6.09529 16.0341C5.76529 16.0341 5.51294 15.9561 5.33118 15.7949C5.07176 15.554 4.88294 15.2351 4.76647 14.8381C4.66412 14.4412 4.60235 13.8363 4.59529 13.0181L0 12.8535C0.0847059 14.2817 0.464118 16.3999 0.924706 17.3688C1.38353 18.3395 2.03118 19.0848 2.87647 19.5857C3.72176 20.0901 4.90588 20.3415 6.44118 20.3415C7.89176 20.3415 9.08118 19.9636 10.0094 19.1905" fill="black"/>
<path fill-rule="evenodd" clip-rule="evenodd" d="M21.8612 20.3151C20.4 20.3151 19.2547 20.0655 18.4218 19.5663C17.5782 19.0654 16.89 18.2715 16.3376 17.1778C15.7906 16.0875 15.5118 14.8049 15.5118 13.3367C15.5118 11.2429 16.0694 9.54072 17.1653 8.24766C18.2718 6.95286 19.7929 6.30286 21.7359 6.30286C23.3065 6.30286 24.5524 6.59059 25.4612 7.17472C26.3718 7.75192 27.0724 8.59952 27.5453 9.69672C28.0253 10.7991 28.2618 12.2361 28.2618 14.0041V14.5813H19.8053C19.8812 15.4115 20.0629 16.0234 20.3506 16.4255C20.7635 17.0131 21.2947 17.3009 21.9529 17.3009C22.3641 17.3009 22.7612 17.1743 23.1335 16.9195C23.3612 16.7601 23.6047 16.481 23.8676 16.0737L28.0253 16.5451C27.3865 17.8867 26.6224 18.8574 25.7276 19.445C24.8276 20.0222 23.5429 20.3151 21.8612 20.3151ZM21.9088 9.34312C21.2347 9.34312 20.7071 9.66726 20.3047 10.3173C20.0453 10.7229 19.8847 11.3243 19.8176 12.1217H23.9735C23.8906 11.125 23.6682 10.4126 23.3153 9.98792C22.9571 9.55459 22.4894 9.34312 21.9088 9.34312Z" fill="black"/>
</svg>
