<svg width="60" height="32" viewBox="0 0 60 32" fill="none" xmlns="http://www.w3.org/2000/svg">
<path fill-rule="evenodd" clip-rule="evenodd" d="M59.7794 15.8411C59.7794 24.2967 46.35 31.1929 29.8888 31.1929C13.4259 31.1929 0 24.2967 0 15.8411C0 7.38554 13.4259 0.5 29.8888 0.5C46.35 0.5 59.7794 7.38554 59.7794 15.8411ZM57.4447 15.8411C57.4447 9.3981 45.0671 4.13394 29.8888 4.13394C14.7124 4.13394 2.33294 9.3981 2.33294 15.8411C2.33294 22.293 14.7124 27.5465 29.8888 27.5465C45.0671 27.5465 57.4447 22.293 57.4447 15.8411Z" fill="black"/>
<path d="M40.4546 23.1292L43.3735 12.9071L46.294 23.1292H50.314L46.1652 8.48898H44.4799H42.1452H39.9852L39.9817 9.15453H40.5764L36.4346 23.1292H40.4546Z" fill="black"/>
<path d="M11.7997 23.1292H15.8197V16.7481L20.3515 22.7752H25.0209L19.6279 15.6029L24.2832 8.82001H19.6103L15.8197 14.3391V8.8147H11.7997V8.82886H11.0762V9.43245C11.3321 9.42537 11.5756 9.46431 11.7997 9.5475V23.1292Z" fill="black"/>
<path d="M28.3938 23.1292H32.412V8.8147H28.3938V8.82886H27.672V9.43245C27.9279 9.42537 28.1679 9.46431 28.3938 9.5475V23.1292Z" fill="black"/>
</svg>
