<svg width="65" height="33" viewBox="0 0 65 33" fill="none" xmlns="http://www.w3.org/2000/svg">
<path d="M51.6833 19.34H50.7856L50.2515 20.9579H51.1106C51.2037 20.9579 51.3952 20.9268 51.6868 20.8542C51.8291 20.8179 51.9696 20.7383 52.0979 20.6018C52.2261 20.4652 52.3175 20.3149 52.3772 20.1403C52.4633 19.881 52.4633 19.6857 52.3719 19.5457C52.2859 19.4108 52.054 19.34 51.6833 19.34" fill="black"/>
<path d="M38.9707 14.107C39.3905 14.107 39.7067 14.0534 39.9211 13.9307C40.1371 13.8183 40.3462 13.6144 40.5482 13.3274C40.7503 13.0405 40.9663 12.5755 41.2 11.9325C41.5004 11.0769 41.5988 10.4961 41.4898 10.1832C41.3757 9.86865 41.0647 9.71654 40.5482 9.71654H40.0546L38.4875 14.107H38.9707Z" fill="black"/>
<path d="M21.1629 19.34H20.2687L19.7365 20.9579H20.5902C20.6816 20.9579 20.8713 20.9268 21.1665 20.8542C21.307 20.8179 21.4475 20.7383 21.581 20.6018C21.7058 20.4652 21.8024 20.3149 21.8604 20.1403C21.9429 19.881 21.9429 19.6857 21.8586 19.5457C21.7602 19.4108 21.5319 19.34 21.1629 19.34" fill="black"/>
<path d="M25.1207 9.97305L23.3851 12.8649H24.8028L25.1207 9.97305Z" fill="black"/>
<path fill-rule="evenodd" clip-rule="evenodd" d="M1.70807 16.4872C1.70807 8.65868 15.4389 2.2683 32.2598 2.2683C49.086 2.2683 62.8116 8.65868 62.8116 16.4872C62.8116 24.3174 49.086 30.7078 32.2598 30.7078C15.4389 30.7078 1.70807 24.3174 1.70807 16.4872ZM31.2023 11.5177L32.0332 15.9323H33.9094L36.7764 7.89121H34.9055L33.3191 12.3387L32.4864 7.89121H30.6313L27.7643 15.9323H29.63L31.2023 11.5177ZM33.421 25.7037L33.5721 17.7335H35.7031L35.2797 23.467L38.6404 17.7335H40.7081L35.6275 25.7037H33.421ZM42.5087 22.3296H45.6744L46.2137 20.7014H43.0446L43.4679 19.4378H46.876L47.44 17.7335H41.9887L39.3519 25.7037H44.9067L45.5005 23.894H41.9887L42.5087 22.3296ZM53.875 21.0886C54.1385 20.7653 54.344 20.3868 54.4898 19.9425C54.6532 19.4378 54.7006 19.0057 54.6093 18.6548C54.5232 18.2987 54.3335 18.055 54.0471 17.9323C53.7573 17.794 53.297 17.7335 52.6646 17.7335H49.2775L46.6389 25.7037H48.682L49.7536 22.4645H49.9293C50.1208 22.4645 50.2666 22.5267 50.3702 22.6494C50.451 22.7497 50.502 22.9502 50.5336 23.2648L50.8182 25.7037H53.1231L52.8982 23.3927C52.8912 23.2769 52.8473 23.1075 52.7805 22.8966C52.7067 22.6823 52.6417 22.5457 52.5943 22.4731C52.5117 22.3832 52.3677 22.283 52.1586 22.181C52.4871 22.1049 52.7629 21.9943 52.9737 21.8664C53.3163 21.6693 53.6167 21.4083 53.875 21.0886ZM31.6116 21.6538C31.3024 22.5855 30.9194 23.3529 30.4609 23.9475C30.0042 24.5491 29.4841 25.0071 28.8833 25.3459C28.2808 25.6709 27.6167 25.8403 26.8859 25.8403C26.141 25.8403 25.5736 25.6951 25.1836 25.4133C24.7936 25.1247 24.5494 24.6649 24.4528 24.0495C24.3474 23.4273 24.4563 22.6546 24.7655 21.7229C25.1977 20.4231 25.8336 19.4101 26.6716 18.6859C27.5078 17.9599 28.4652 17.5986 29.5281 17.5986C30.6243 17.5986 31.3533 17.953 31.7082 18.6634C32.0648 19.379 32.0332 20.3729 31.6116 21.6538ZM23.3548 21.0886C23.6201 20.7653 23.8221 20.3868 23.9679 19.9425C24.1383 19.4378 24.177 19.0057 24.0874 18.6548C23.9996 18.2987 23.8151 18.055 23.5252 17.9323C23.2319 17.794 22.7751 17.7335 22.1497 17.7335H18.7556L16.117 25.7037H18.1636L19.2317 22.4645H19.4144C19.5989 22.4645 19.7482 22.5267 19.8483 22.6494C19.9274 22.7497 19.9819 22.9502 20.017 23.2648L20.3016 25.7037H22.5959L22.3781 23.3927C22.3675 23.2769 22.3254 23.1075 22.2586 22.8966C22.1848 22.6823 22.1216 22.5457 22.0706 22.4731C21.9933 22.3832 21.8458 22.283 21.6385 22.181C21.9652 22.1049 22.241 21.9943 22.4554 21.8664C22.7944 21.6693 23.0966 21.4083 23.3548 21.0886ZM15.1842 22.2138L9.62401 22.3072L10.736 20.6167L16.2224 18.055L13.3009 20.6426L15.7533 20.5544L15.1842 22.2138ZM18.4359 7.89121H16.4525L13.5802 15.9323H18.6678L19.3723 13.948H16.2733L18.4359 7.89121ZM24.8041 7.89121H26.9685L26.5152 15.9323H24.4387L24.5986 14.6048H22.3306L21.5489 15.9323H19.5163L24.8041 7.89121ZM42.9778 8.19025C42.6879 7.99319 42.2558 7.89121 41.6673 7.89121H38.7229L35.8541 15.9323H38.8073C39.1586 15.9323 39.5732 15.8563 40.0616 15.7128C40.4217 15.6091 40.7959 15.3879 41.1894 15.0698C41.5777 14.7483 41.9378 14.3594 42.2628 13.8806C42.5843 13.4139 42.8987 12.7432 43.2097 11.8841C43.4064 11.3344 43.54 10.8193 43.6085 10.325C43.677 9.83581 43.6577 9.40886 43.5558 9.02858C43.4609 8.66732 43.2641 8.38384 42.9778 8.19025ZM46.0996 12.6032L46.6705 10.9386L52.2271 10.8487L51.1151 12.541L45.6287 15.1009L48.5555 12.5133L46.0996 12.6032Z" fill="black"/>
<path d="M28.9071 19.4597C28.5013 19.4597 28.1166 19.6361 27.7459 19.9939C27.3805 20.3378 27.066 20.9221 26.7937 21.7345C26.5284 22.5383 26.4652 23.1139 26.5934 23.4665C26.727 23.8208 27.0045 23.9954 27.4244 23.9954C27.8618 23.9954 28.2624 23.8226 28.6155 23.4769C28.9651 23.1346 29.2901 22.5158 29.5834 21.6239C29.8347 20.872 29.8909 20.3292 29.7538 19.9818C29.6133 19.6361 29.3375 19.4597 28.9071 19.4597" fill="black"/>
<path fill-rule="evenodd" clip-rule="evenodd" d="M0 16.4872C0 7.68551 14.4915 0.5 32.2593 0.5C50.0272 0.5 64.5169 7.68551 64.5169 16.4872C64.5169 25.2923 50.0272 32.4709 32.2593 32.4709C14.4915 32.4709 0 25.2923 0 16.4872ZM0.716757 16.4872C0.716757 24.779 14.885 31.541 32.2593 31.541C49.6354 31.541 63.8036 24.779 63.8036 16.4872C63.8036 8.19715 49.6354 1.43686 32.2593 1.43686C14.885 1.43686 0.716757 8.19715 0.716757 16.4872Z" fill="black"/>
</svg>
