<svg width="71" height="33" viewBox="0 0 71 33" fill="none" xmlns="http://www.w3.org/2000/svg">
<path fill-rule="evenodd" clip-rule="evenodd" d="M30.12 10.5244C30.5869 9.786 34.6841 4.0832 36.1205 2.3168C36.3415 2.0444 36.0945 1.7544 35.7772 1.7632C27.3699 1.93 24.0124 6.974 23.951 10.6296C23.951 14.7248 27.0791 19.4792 35.5654 19.4792C39.7419 19.4792 42.9056 18.2748 44.7476 16.5788H46.8716C44.7657 18.872 41.1258 20.6564 35.5654 20.6564C25.5459 20.6564 21.8535 15.3048 21.8535 10.6912C21.8535 6.438 25.5199 0.699997 35.5389 0.699997C37.3456 0.699997 38.8346 0.910797 40.2622 1.2096C40.9493 1.35 41.1788 1.7808 40.835 2.2288C39.557 3.8368 38.3412 5.3748 37.1073 7.018C35.8248 8.72329 34.6562 10.5109 33.6091 12.3692C33.3447 12.8352 33.4506 13.6612 34.1819 13.6612H46.3959C47.0305 12.6944 47.2864 11.6488 47.2599 10.682C47.2599 7.0792 45.5411 4.5044 41.3817 2.5364L41.9726 1.6928C47.2162 3.5032 49.2868 7.51 49.2868 10.6912C49.2868 12.1764 48.8372 13.8372 47.8327 15.3664C47.5419 15.7528 47.3831 15.9112 46.8455 15.9112H34.2882C34.1037 15.9112 33.9163 15.9138 33.7274 15.9164H33.7273H33.7273C32.3548 15.9353 30.8972 15.9553 29.8204 14.9976C29.0891 14.3384 29.0891 13.53 29.1152 13.0816C29.1417 12.6248 29.2211 11.9392 30.12 10.5244ZM67.1487 29.5844C67.1487 29.118 66.7608 28.7228 66.2586 28.6524L56.4682 28.6888C56.2653 28.6888 56.1425 28.5748 56.151 28.3904C56.2127 25.7628 58.3977 23.5044 61.1298 23.5044H69.7573L69.783 25.2004H61.6492C60.7944 25.2004 59.9493 26.0172 59.8434 26.9924H67.88C69.4304 26.9924 70.6995 28.1608 70.6995 29.5852C70.6995 31.0172 69.598 32.2028 67.88 32.1772L45.6289 32.2296C41.6898 32.2296 41.1876 30.8764 41.1876 28.9256V24.3036C40.9585 24.4383 40.7273 24.5691 40.4962 24.6999C40.0341 24.9613 39.5719 25.2227 39.1254 25.516L35.9789 27.5628L42.1042 32.1588H37.4683L33.3973 29.2588L30.1898 31.2008C29.8459 31.4078 29.5218 31.6347 29.1962 31.8627L29.1961 31.8628C29.0379 31.9735 28.8794 32.0845 28.7181 32.1936H24.1099V30.4272H28.0927L31.7586 28.1344L26.3919 24.2936V25.2608H24.1099V23.4944H30.4197L34.4731 26.4468L37.5927 24.5312C37.9391 24.3219 38.2709 24.0868 38.6022 23.852L38.6023 23.8519L38.6026 23.8517L38.6028 23.8516C38.7854 23.7222 38.9679 23.5929 39.1527 23.468H44.4135V28.714C44.4135 29.5928 44.7392 30.5508 46.3164 30.5508H52.1501V23.5116H55.323V30.5328H66.091C66.673 30.5328 67.1487 30.1108 67.1487 29.5844ZM24.1095 23.4944H18.1527C16.5402 23.4944 15.2975 23.9164 14.3813 24.6364C12.7334 25.9372 12.2048 27.3076 12.2224 27.9232H14.3725C13.4294 28.6264 12.7948 29.4692 12.4603 30.4452H5.41002C4.14124 30.4452 3.32133 29.5492 3.32133 28.6788V23.4328H0.202148V28.8812C0.202148 30.8404 2.07061 32.1936 5.06625 32.1936H24.1095V30.4272H16.549C16.5843 29.5312 17.5446 28.6264 18.4171 28.6264H24.1099H25.6783V26.8248H24.1099H16.4607C16.3552 26.2976 17.342 25.2608 18.0998 25.2608H24.1095V23.4944Z" fill="black"/>
</svg>
