<svg width="87" height="33" viewBox="0 0 87 33" fill="none" xmlns="http://www.w3.org/2000/svg">
<path d="M5.12394 30.7894H1.17087V23.4152H0V31.865H5.12394V30.7894Z" fill="black"/>
<path d="M12.0921 31.865H13.263V23.4152H12.0921V31.865Z" fill="black"/>
<path d="M22.417 24.9196H22.4387L27.231 31.8636H28.7172V23.4138H27.5464V30.3596H27.521L22.7813 23.4138H21.2479V31.8636H22.417V24.9196Z" fill="black"/>
<path d="M40.5969 32.0776C42.5671 32.0776 43.6002 30.9487 43.8503 30.5967L42.8734 29.8696C42.3605 30.5771 41.6083 30.9985 40.6223 30.9985C38.6086 30.9985 37.4069 29.4856 37.4069 27.7043C37.4069 25.7878 38.6847 24.2803 40.6223 24.2803C41.4107 24.2803 42.21 24.6216 42.7012 25.242L43.6763 24.5149C42.9785 23.6243 41.7895 23.2029 40.6567 23.2029C38.0032 23.2029 36.1708 25.0891 36.1708 27.7043C36.1708 29.8358 37.86 32.0776 40.5969 32.0776" fill="black"/>
<path fill-rule="evenodd" clip-rule="evenodd" d="M59.4837 27.6461C59.4837 30.1492 57.6205 32.0781 54.9942 32.0781C52.3697 32.0781 50.5137 30.1492 50.5137 27.6461C50.5137 25.1341 52.3697 23.2035 54.9942 23.2035C57.6259 23.2035 59.4837 25.1341 59.4837 27.6461ZM58.244 27.6461C58.244 25.7883 56.9698 24.2808 54.9942 24.2808C53.0204 24.2808 51.748 25.7937 51.748 27.6461C51.748 29.4861 53.0204 30.9972 54.9942 30.9972C56.9698 30.9972 58.244 29.4861 58.244 27.6461Z" fill="black"/>
<path d="M72.0625 30.7894H68.1094V23.4152H66.944V31.865H72.0625V30.7894Z" fill="black"/>
<path d="M80.1905 24.9196H80.2195L85.0081 31.8636H86.4943V23.4138H85.3235V30.3596H85.3053L80.5584 23.4138H79.025V31.8636H80.1905V24.9196Z" fill="black"/>
<path fill-rule="evenodd" clip-rule="evenodd" d="M42.9822 18.0698C41.94 18.0573 41.1371 17.9702 41.1371 17.9702C40.7474 15.4742 40.6042 12.7613 40.6006 10.3649C39.7378 10.2636 39.0491 10.1711 39.0491 10.1711V9.924C39.0491 9.924 39.7378 9.82444 40.6006 9.72844C40.6042 7.32489 40.7474 4.61378 41.1334 2.12489C41.1334 2.12489 41.94 2.03422 42.9822 2.01289C43.0583 1.03689 43.1199 0.5 43.1199 0.5H43.3773C43.3773 0.5 43.4335 1.03689 43.5114 2.01289C44.5536 2.03422 45.3602 2.12489 45.3602 2.12489C45.7481 4.61378 45.8894 7.32489 45.9039 9.72844C46.7594 9.82444 47.4446 9.924 47.4446 9.924V10.1711C47.4446 10.1711 46.7594 10.2671 45.9039 10.3649C45.8894 12.7613 45.7481 15.4742 45.3602 17.9702C45.3602 17.9702 44.5536 18.0573 43.5114 18.0698C43.4335 19.0493 43.3773 19.5827 43.3773 19.5827H43.1199C43.1199 19.5827 43.0583 19.0493 42.9822 18.0698ZM41.7134 2.86089H42.9296C42.8263 4.42711 42.723 6.71511 42.7085 9.54178C42.2753 9.55956 41.7696 9.60756 41.2857 9.65378C41.2893 8.132 41.3745 5.19689 41.7134 2.86089ZM42.7085 10.5551C42.723 13.3747 42.8263 15.6609 42.9296 17.2236H41.7134C41.3745 14.8947 41.2893 11.9631 41.2857 10.436C41.7696 10.4911 42.2753 10.5267 42.7085 10.5551ZM45.217 10.436C44.724 10.4911 44.2183 10.5267 43.7851 10.5551C43.7706 13.3747 43.6673 15.6609 43.5694 17.2236H44.7802C45.1191 14.8947 45.2043 11.9631 45.217 10.436ZM44.7802 2.86089C45.1191 5.19689 45.2043 8.132 45.217 9.65378C44.724 9.604 44.2183 9.55956 43.7851 9.54178C43.7706 6.71511 43.6673 4.42711 43.5694 2.86089H44.7802Z" fill="black"/>
</svg>
