<svg width="45" height="45" viewBox="0 0 45 45" fill="none" xmlns="http://www.w3.org/2000/svg">
<path d="M22.3997 7.94061C22.3997 7.64965 22.3116 7.63907 22.2869 7.93003L21.3558 21.8223L22.2834 22.3637L22.3997 7.94061Z" fill="black"/>
<path d="M18.0522 25.0668L21.9635 22.8996L21.0747 22.4058L17.9428 24.9734C17.7665 25.1197 17.8459 25.1814 18.0522 25.0668" fill="black"/>
<path fill-rule="evenodd" clip-rule="evenodd" d="M0 22.7245C0 10.4493 10.0621 0.494718 22.4678 0.500004C34.8911 0.500004 44.9462 10.4545 44.9462 22.7245C44.9462 35.0032 34.8841 44.9577 22.4696 44.9577C10.0551 44.9542 0 34.9979 0 22.7245ZM43.9922 18.9578C43.944 18.901 43.9109 18.8122 43.8733 18.7112L43.8705 18.7038C42.227 13.6393 40.8268 11.6484 38.1305 8.68935C34.579 4.78866 28.7756 1.77849 22.6053 1.77144C10.8098 1.77144 1.23792 11.3451 1.23792 23.1406C1.23792 26.6498 2.00149 29.6759 2.61692 31.1977C3.33816 32.9629 4.58491 35.3382 4.64663 35.4458C4.70305 35.571 4.70835 35.6222 4.71364 35.728C4.62546 35.6609 4.58843 35.6063 4.51261 35.4934C4.15463 34.975 2.68922 32.3351 2.23073 31.1818C1.23792 28.6707 0.50434 25.9339 0.50434 23.0595C0.50434 10.9007 10.346 1.03785 22.5119 1.03785C33.3799 1.03785 42.1423 8.58708 43.9922 18.6933C43.9936 18.7198 43.9968 18.7454 43.9998 18.7703L43.9998 18.7704C44.0077 18.835 44.0151 18.8955 43.9922 18.9578ZM4.03824 33.3879C3.29584 31.8467 2.51112 29.6759 2.18665 27.9583C2.18556 27.9376 2.18394 27.9177 2.18237 27.8984C2.17634 27.824 2.17099 27.7581 2.19899 27.6867C2.24768 27.75 2.27397 27.8208 2.31222 27.9238L2.32243 27.9512L2.36327 28.0776C2.85639 29.6041 3.30758 31.0009 4.43854 33.074L4.03824 33.3879ZM20.1912 21.8727L4.44559 33.1922C4.0647 33.462 4.17579 33.5889 4.59372 33.3597L22.1821 23.2006V26.8562L5.19858 33.3368C8.75188 39.1419 15.0579 42.8451 22.4114 42.8451C29.749 42.8451 36.159 39.1384 39.7123 33.3438L22.757 26.8667V23.2112L39.6718 32.9664C40.058 33.1798 40.1673 33.0634 39.8058 32.806L24.7461 21.8833L26.0952 21.1127L40.1073 32.7848C41.7174 29.9104 42.7807 26.2407 42.7807 22.7245C42.7807 11.823 33.7167 3.00407 22.7782 2.70958L25.8359 20.4849L22.6406 22.3612L22.533 2.71311C22.533 2.47857 22.3761 2.47857 22.3426 2.71311L20.5386 21.3455L19.1984 20.5678L22.0693 2.71311C10.9385 2.78188 2.14962 11.7189 2.14962 22.7597C2.14962 26.246 3.2447 29.9104 4.81944 32.7672L18.8457 21.1056L20.1912 21.8727ZM22.4678 44.1113C14.0245 44.1113 7.39933 39.7221 4.24456 33.6894L4.72951 33.5113C5.53891 34.8307 6.59228 35.9938 8.00327 37.5517L8.05885 37.6131C9.83286 39.5634 15.4423 43.3248 22.4607 43.3248C29.9324 43.3266 36.4976 39.4505 40.1814 33.529C40.4636 33.4496 40.5553 33.3262 40.46 33.0793C42.1476 30.1079 43.2939 26.3747 43.2939 22.7245C43.2939 20.4267 42.957 18.5575 42.421 16.8875C42.0242 15.6284 41.4652 14.3764 41.2148 13.8809C41.1478 13.7627 41.1425 13.701 41.1372 13.5934C41.2271 13.6675 41.2712 13.7169 41.3365 13.8368C41.6627 14.4328 42.3945 15.8912 42.7366 16.8399C42.7948 17 42.8587 17.1677 42.9261 17.3444L42.9261 17.3445C43.3934 18.5704 44.0239 20.2244 44.0239 22.7245C44.0239 34.423 34.4485 44.1183 22.4678 44.1113Z" fill="black"/>
<path d="M35.5108 30.1264L23.9269 22.3638L22.9746 22.9087L35.4544 30.2128C35.6766 30.3416 35.7242 30.264 35.5108 30.1264" fill="black"/>
</svg>
