<svg width="40" height="44" viewBox="0 0 40 44" fill="none" xmlns="http://www.w3.org/2000/svg">
<path d="M19.86 0.5L13.2404 11.8273L19.86 23.1003L26.5276 11.8273L19.86 0.5Z" fill="black"/>
<path d="M19.86 23.0997L26.5276 34.385H39.7669L33.1508 23.0997H19.86Z" fill="black"/>
<path d="M0 34.3851H13.2411L19.8607 23.0999H6.6232L0 34.3851Z" fill="black"/>
<path d="M4.89644 40.1258L3.82188 37.6513H2.73311V43.0843H3.71709V39.5435L4.89644 42.1145L6.1344 39.5435V43.0843H7.12016V37.6513H6.03849L4.89644 40.1258Z" fill="black"/>
<path d="M8.00308 43.0827H8.98883V37.6514H8.00308V43.0827Z" fill="black"/>
<path d="M9.43571 38.4808H10.6151V43.0843H11.6008V38.4808H12.7855V37.6513H9.43571L9.43571 38.4808Z" fill="black"/>
<path d="M14.9497 39.9315C14.1647 39.5439 13.8645 39.3492 13.8645 38.9634C13.8645 38.6179 14.1078 38.4285 14.5536 38.4285C15.0492 38.4285 15.2925 38.8652 15.2925 39.3054H16.2818C16.2321 38.3829 15.788 37.606 14.5536 37.606C13.4222 37.606 12.8805 38.1883 12.8805 39.0125C12.8805 39.7859 13.3743 40.2243 14.1078 40.6575C15.1504 41.2397 15.3902 41.3888 15.3902 41.7238C15.3902 42.1148 15.0989 42.3534 14.6016 42.3534C14.0137 42.3534 13.7686 41.8711 13.7686 41.3888H12.829C12.8805 42.4042 13.3246 43.2267 14.6016 43.2267C15.5429 43.2267 16.3759 42.6953 16.3759 41.6782C16.3759 40.8031 15.836 40.419 14.9497 39.9315" fill="black"/>
<path d="M19.5408 41.3881C19.5408 41.9704 19.2549 42.3053 18.7149 42.3053C18.0666 42.3053 17.77 41.9704 17.77 41.3881V37.6527H16.7914V41.3881C16.7914 42.8367 17.8251 43.1804 18.7149 43.1804C19.5408 43.1804 20.5319 42.7946 20.5319 41.3881V37.6527H19.5408V41.3881Z" fill="black"/>
<path fill-rule="evenodd" clip-rule="evenodd" d="M24.6721 39.012C24.6721 39.738 24.1286 40.1712 23.8817 40.2238C24.2263 40.322 24.8692 40.7061 24.8692 41.5794C24.8692 42.4528 24.1765 43.0841 23.1961 43.0841H21.1749V37.6528H22.9954C24.0256 37.6528 24.6721 38.1404 24.6721 39.012ZM22.1553 42.2581H22.9457C23.4874 42.2581 23.832 42.0179 23.832 41.4339C23.832 40.9043 23.4874 40.7061 22.8977 40.7061H22.507V39.8362H22.8977C23.3879 39.8362 23.6828 39.6451 23.6828 39.1575C23.6828 38.6718 23.3435 38.4806 22.8977 38.4806H22.1553V42.2581Z" fill="black"/>
<path d="M34.076 39.785H32.1081V37.6525H31.0779V43.0838H32.1081V40.7057H34.1257V43.0838H35.1062V37.6525H34.076V39.785Z" fill="black"/>
<path d="M25.4092 43.0827H26.3967V37.6514H25.4092V43.0827Z" fill="black"/>
<path d="M36.05 43.0827H37.034V37.6514H36.05V43.0827Z" fill="black"/>
<path d="M29.1606 39.8818C28.3666 39.4469 28.0718 39.2522 28.0718 38.9138C28.0718 38.5736 28.3631 38.3824 28.7556 38.3824C29.2511 38.3824 29.498 38.7682 29.5478 39.2522H30.4802C30.4323 38.3333 29.9936 37.5546 28.7556 37.5546C27.6242 37.5546 27.0825 38.1404 27.0825 38.9646C27.0825 39.738 27.5762 40.1712 28.3151 40.5658C29.3524 41.1428 29.5904 41.3357 29.5904 41.6777C29.5904 42.0635 29.3026 42.3055 28.8124 42.3055C28.2192 42.3055 27.9705 41.7724 27.9705 41.2866H27.0363C27.0825 42.3528 27.5265 43.1315 28.8124 43.1315C29.7449 43.1315 30.5868 42.5966 30.5868 41.6303C30.5815 40.7061 30.0415 40.3694 29.1606 39.8818" fill="black"/>
</svg>
