<svg width="40" height="52" viewBox="0 0 40 52" fill="none" xmlns="http://www.w3.org/2000/svg">
<path fill-rule="evenodd" clip-rule="evenodd" d="M12.8 27.5V17.7C12.8 17.1161 12.8947 17.1004 13.4526 17.0079C13.4681 17.0053 13.4838 17.0027 13.5 17H20.1H26.7C27.1 17 27.2 17.1 27.2 17.5V27.7C27.2 29.4 26.5 30.8 25.2 31.9C23.8 33.1 22.2 33.9 20.4 34.2C19.8 34.3 19.1 34.2 18.5 34C16.4 33.5 14.7 32.5 13.6 30.6C13.1 29.6 12.8 28.6 12.8 27.5ZM26.1 17.5H20C19.2962 17.5 18.6037 17.5112 17.9149 17.5224C16.5483 17.5446 15.1962 17.5665 13.8 17.5C13.4 17.5 13.3 17.6 13.3 18C13.3 19.0742 13.2887 20.1371 13.2775 21.1925C13.2554 23.2812 13.2336 25.3406 13.3 27.4C13.3 29 13.9 30.4 15 31.6C16.3 32.8 17.8 33.4 19.5 33.7C19.8 33.8 20.1 33.9 20.4 33.8C22.1 33.4 23.5 32.7 24.8 31.6C25.9 30.6 26.7 29.4 26.7 27.9V18C26.7 17.6 26.5 17.5 26.1 17.5Z" fill="black"/>
<path d="M33.7 7.49999C34.3 7.69999 34.9 7.79999 35.5 7.99999C36.2 8.19999 37 8.39999 37.7 8.69999C37.8 8.69999 37.9 8.69999 37.9 8.59999C38 7.89999 37.9 7.89999 37.3 7.69999C36.5 7.39999 35.7 7.19999 34.9 6.89999C34.4 6.79999 34.3 6.69999 34.5 6.19999C34.5 6.09999 34.6 6.09999 34.7 6.09999L37.7 6.99999C37.8 6.99999 37.9 6.99999 37.9 6.89999C38 6.29999 37.9 6.29999 37.3 6.09999C36.4 5.79999 35.5 5.49999 34.6 5.29999C34.5 5.29999 34.4 5.19999 34.4 5.09999V4.79999C34.4 4.69999 34.5 4.59999 34.6 4.69999C35.6 4.99999 36.6 5.29999 37.6 5.49999C37.7 5.49999 37.8 5.49999 37.8 5.39999C37.9 4.79999 37.9 4.79999 37.2 4.59999C36.5 4.39999 35.8 4.19999 35.2 3.99999C34.7 3.89999 34.1 3.69999 33.6 3.59999C33.5 3.59999 33.4 3.59999 33.4 3.59999V3.69999V7.29999C33.4 7.29999 33.6 7.39999 33.7 7.49999" fill="black"/>
<path fill-rule="evenodd" clip-rule="evenodd" d="M1.79998 9.09999C1.69998 9.19999 1.59998 9.09999 1.59998 8.99999V8.19999V5.59999C1.59998 5.49999 1.69998 5.19999 1.79998 5.19999C2.99998 4.79999 4.09998 4.39999 5.19998 3.99999C5.39998 3.89999 5.69998 3.89999 5.89998 3.89999C6.29998 3.89999 6.49998 4.09999 6.49998 4.49999V5.79999C6.49998 6.19999 6.29998 6.49999 5.89998 6.59999C5.44998 6.74999 4.97498 6.92499 4.49998 7.09999C4.02498 7.27499 3.54998 7.44999 3.09998 7.59999C2.79998 7.69999 2.69998 7.79999 2.69998 8.09999C2.69998 8.79999 2.59998 8.99999 1.79998 9.09999ZM2.89998 5.69999C2.79998 5.69999 2.69998 5.79999 2.69998 5.89999V6.59999C2.69998 6.69999 2.79998 6.69999 2.89998 6.69999L2.89999 6.69999C3.79999 6.39999 4.69998 6.09999 5.49998 5.79999C5.59998 5.69999 5.59998 5.29999 5.59998 5.09999C5.59998 5.09999 5.29998 4.99999 5.19998 4.99999C4.79998 5.09999 4.42498 5.22499 4.04998 5.34999C3.67498 5.47499 3.29998 5.59999 2.89998 5.69999Z" fill="black"/>
<path d="M18.7 4.2H21.1C21.4 4.2 21.5 4.3 21.5 4.6C21.5 4.9 21.3 4.9 21.1 4.8C20.4 4.8 19.8 4.8 19.1 4.8C18.8 4.8 18.5 4.8 18.3 4.8C18.2 4.8 18.1 4.9 18.1 5V5.4C18.1 5.5 18.2 5.6 18.3 5.6H21.4C22.5 5.6 22.5 5.2 22.5 4.4C22.5 4.3 22.5 4.1 22.4 4C22.4 3.6 22.2 3.4 21.8 3.4C21 3.4 20.2 3.3 19.3 3.3C19.1 3.3 18.8 3.4 18.8 3.1C18.8 2.7 19 2.7 19.3 2.7C19.8 2.7 20.3 2.7 20.9 2.6H22.1C22.2 2.6 22.3 2.5 22.3 2.5V2.4C22.4 2 22.2 1.8 21.8 1.8C21 1.8 20.2 1.7 19.4 1.8C18.1 1.8 17.9 1.8 18 3.4C17.9 4.1 18.1 4.2 18.7 4.2" fill="black"/>
<path fill-rule="evenodd" clip-rule="evenodd" d="M7.09998 6.59999V5.59999V5.49999V5.29999V4.19999C7.09998 3.79999 7.29998 3.49999 7.69998 3.39999C8.24998 3.29999 8.77498 3.19999 9.29998 3.09999C9.82498 2.99999 10.35 2.89999 10.9 2.79999C11.5 2.69999 11.8 2.89999 11.8 3.49999V5.59999C11.7 6.19999 11.5 6.49999 10.9 6.59999C10.4 6.69999 9.92498 6.82499 9.44998 6.94999C8.97498 7.07499 8.49998 7.19999 7.99998 7.29999C7.39998 7.39999 7.09998 7.19999 7.09998 6.59999ZM9.39998 3.79999C9.09998 3.87499 8.79998 3.94999 8.49998 3.99999C8.19998 4.09999 7.99998 4.29999 8.09998 4.49999V5.79999C8.09998 6.19999 8.29998 6.29999 8.59998 6.19999C8.79997 6.14999 9.02497 6.09999 9.24997 6.04999C9.47497 5.99999 9.69997 5.94999 9.89998 5.89999C10.4475 5.75068 10.6729 5.72522 10.7613 5.6017C10.8504 5.47704 10.8 5.25251 10.8 4.69999V3.99999C10.8 3.69999 10.6 3.49999 10.3 3.59999C9.99998 3.64999 9.69998 3.72499 9.39998 3.79999Z" fill="black"/>
<path fill-rule="evenodd" clip-rule="evenodd" d="M13.5 5.5C13.5 6.1 13.4 6.3 12.7 6.2C12.6618 6.2 12.6236 6.18541 12.591 6.17295C12.5382 6.15278 12.5 6.13819 12.5 6.2V2.8C12.5 2.7 12.7 2.5 12.8 2.5C13.35 2.45 13.925 2.4 14.5 2.35C15.075 2.3 15.65 2.25 16.2 2.2C16.8 2.2 17 2.4 17 3C17 3.7 17 3.9 16.8 4.3V4.6C16.9165 4.77477 16.9991 4.98348 17.0873 5.20636C17.1505 5.36606 17.2165 5.53303 17.3 5.7C17.4 5.8 17.3 5.9 17.2 5.9H16.6C16.5 5.9 16.3 5.7 16.3 5.6C16.1 4.9 16 4.8 15.2 4.9C15 4.9 14.775 4.925 14.55 4.95C14.325 4.975 14.1 5 13.9 5C13.6 5 13.5 5.1 13.5 5.4V5.5ZM13.7 3.1C13.6 3.1 13.5 3.2 13.5 3.3V3.9C13.5 4 13.6 4.1 13.7 4.1C14.05 4.05 14.375 4.025 14.7 4C15.025 3.975 15.35 3.95 15.7 3.9C16.1 3.9 16.1 3.6 16.1 3.3C16 3 15.9 2.9 15.6 2.9C15.2646 2.94792 14.9521 2.97287 14.6516 2.99688C14.325 3.02296 14.0125 3.04792 13.7 3.1Z" fill="black"/>
<path d="M28.4 6.29999C28.6 6.29999 28.7 6.39999 28.9 6.39999C29 6.39999 29.1 6.29999 29.1 6.19999V4.89999C29.1 4.79999 29.2 4.69999 29.3 4.79999C30.1 4.99999 30.8 5.09999 31.5 5.29999C31.6 5.29999 31.6 5.49999 31.6 5.59999V6.69999C31.6 6.79999 31.7 6.99999 31.8 6.99999C32 7.09999 32.1 7.09999 32.3 7.09999C32.4 7.09999 32.5 7.09999 32.5 6.99999C32.5 5.79999 32.5 4.59999 32.5 3.39999C32.5 3.29999 32.4 3.19999 32.3 3.19999C32.1 3.19999 32 3.09999 31.8 3.09999C31.7 3.09999 31.6 3.19999 31.6 3.29999V4.39999C31.6 4.49999 31.5 4.59999 31.4 4.49999C30.6 4.29999 29.9 4.19999 29.3 3.99999C29.2 3.99999 29.1 3.79999 29.1 3.69999C29.1 3.39999 29.1 3.09999 29.1 2.79999C29.1 2.69999 29 2.59999 28.9 2.49999C28.7 2.49999 28.6 2.39999 28.4 2.39999C28.3 2.39999 28.2 2.49999 28.2 2.59999V6.09999C28.2 6.19999 28.3 6.29999 28.4 6.29999" fill="black"/>
<path d="M23.7 5.8C24.2 5.8 24.8 5.9 25.3 5.9C26 6 26.7 6.1 27.4 6.1C27.5 6.1 27.6 6 27.6 5.9C27.7 5.4 27.6 5.3 27 5.2C26.2 5.1 25.3 5 24.5 4.9C24.4 4.9 24.2 4.8 24.2 4.7C24.2 4.1 24.2 3.6 24.2 2.9C24.2 2.8 24.3 2.7 24.4 2.7C25.4 2.8 26.4 2.9 27.5 2.9C27.6 2.9 27.7 2.8 27.7 2.7V2.2C27.7 2.1 27.6 2 27.5 2C26.3 1.9 25.1 1.8 24 1.7C23.6 1.7 23.4 1.9 23.4 2.3V4.9C23.2 5.6 23.4 5.8 23.7 5.8" fill="black"/>
<path d="M2.3 15.7C2.5 15.7 2.7 15.6 2.9 15.5H3.2C3.5 15.7 3.8 15.9 4.2 15.6C4.6 15.3 4.3 15 4.1 14.6C4.1 14.5 4.1 14.4 4.2 14.4C8 12.6 11.9 11.3 16.2 12.6C16.3 12.6 16.3 12.6 16.3 12.5C16.2 12.4 16.2 12.3 16.1 12.2C15.7 12 15.3 11.7 14.9 11.5C14.6 11.4 14.6 11.3 14.7 11.1C15 10.6 15.4 10.3 16 10.3H16.4C16.5 10.3 16.6 10.3 16.6 10.2C16.6 10.2 16.5 10.1 16.4 10.1C16.2 10.1 16.1 10 16 10C15.1 9.9 14.4 10.2 14 11C13.9 11.2 13.8 11.4 13.6 11.4C13.1 11.4 12.5 11.4 12 11.4C11.9 11.4 11.8 11.3 11.9 11.2C12.1 10.2 12.8 9.6 13.6 9.1C13.7 9 13.7 9 13.6 9C13.5 9 13.3 9 13.2 9C12 9.3 11.4 10 11 11.1C11 11.2 10.9 11.4 10.8 11.4C10.2 11.6 9.6 11.7 9 11.9C8.9 11.9 8.8 11.9 8.8 11.8C8.8 10.9 9.2 10.2 9.9 9.6C10 9.5 10 9.5 9.9 9.5C9.7 9.5 9.4 9.5 9.2 9.6C8.6 9.9 8.2 10.3 8 11C7.9 11.3 7.9 11.6 7.9 12C7.9 12.3 7.8 12.4 7.5 12.4C7 12.6 6.4 12.7 5.9 13C5.6 13.1 5.5 13 5.5 12.7C5.5 12.1 5.6 11.6 6 11.2C6.2 11 6.4 10.7 6.7 10.4C6.8 10.3 6.7 10.3 6.6 10.3C5.9 10.3 5.5 10.7 5.1 11.1C4.6 11.8 4.6 12.5 4.7 13.3C4.7 13.4 4.7 13.6 4.6 13.6C4.4 13.8 4.1 13.9 3.9 14C3.8 14 3.6 13.7 3.4 13.7C3.2 13.6 2.9 13.6 2.8 13.6C2.6 13.7 2.5 14 2.5 14.1C2.7 14.5 2.5 14.7 2.2 14.9C1.9 15.1 2 15.4 2.1 15.6C1.9 15.7 2.1 15.7 2.3 15.7" fill="black"/>
<path d="M31.9 35.2C31.7 35.3 31.4 35.5 31.2 35.8C30.9 36.2 30.6 36.3 30.1 36.2C29.9 36.2 29.8 36.1 29.6 36.1C29.3 36.1 29.3 35.9 29.4 35.7C29.6 35.2 29.9 34.7 30.3 34.3C30.4 34.3 30.4 34.2 30.5 34.2C30.6 34.1 30.6 34 30.5 34C30 33.9 29.5 34.1 29.2 34.5C28.9 34.9 28.8 35.3 28.6 35.7C28.5 35.8 28.4 36 28.3 36.1C28 36.2 27.7 36.2 27.4 36.2C27.3 36.2 27.2 36.1 27.2 36C27.1 35.1 27.5 34.4 28.1 33.8C28.2 33.7 28.1 33.7 28 33.7C27.8 33.7 27.6 33.8 27.5 33.9C26.8 34.3 26.3 34.8 26.4 35.6C26.4 36.4 26 36.6 25.4 36.7H25.3C24.9 36.8 24.8 36.7 24.8 36.3C24.7 35.7 24.8 35.2 25.2 34.7C25.3 34.6 25.3 34.6 25.2 34.6C24.8 34.6 24.4 34.9 24.2 35.2C24 35.7 23.9 36.2 24 36.7C24 36.8 24 37.1 23.9 37.2C23.6 37.4 23.3 37.6 22.9 37.7C22.7 37.7 22.5 37.4 22.3 37.2C22 37 21.8 37.1 21.6 37.3C21.4 37.5 21.4 37.8 21.6 38L21.7 38.1C21.8 38.2 21.8 38.3 21.7 38.3C21 39 21 39.2 21.3 39.5C21.6 39.8 21.8 39.8 22.4 39.5C22.5 39.4 22.6 39.5 22.7 39.5C22.9 39.8 23.1 40.2 23.6 39.8C23.7 39.7 23.8 39.6 23.8 39.5C23.8 39.3 23.7 39 23.6 38.7C23.6 38.6 23.6 38.5 23.7 38.4C24.2 38.1 24.7 37.8 25.3 37.6C26.5 37.1 27.8 37 29.1 36.9C30.4 36.8 31.6 37 32.6 37.9C32.6 37.9 32.7 37.9 32.7 38C32.8 38 32.8 38 32.8 37.9C32.7 37.7 32.7 37.5 32.6 37.4C32.4 37.1 32.2 36.9 32 36.7C31.7 36.3 31.6 36 32 35.7C32.2 35.5 32.5 35.4 32.7 35.2C32.8 35.2 32.8 35.1 32.7 35C32.5 35 32.2 35 31.9 35.2" fill="black"/>
<path d="M29.9 41.2C29.7 41.3 29.4 41.3 29.3 41.4C29 41.6 28.8 41.8 28.5 42C28.2 42.2 27.5 42.3 27.3 42C27.1 41.7 27.3 41.4 27.5 41.1C27.7 40.9 27.9 40.7 28.2 40.6C28.3 40.5 28.4 40.5 28.5 40.4C28.6 40.4 28.6 40.3 28.5 40.3C28.4 40.3 28.4 40.3 28.3 40.3C27.6 40.3 26.8 40.8 26.6 41.6C26.5 42.1 26.3 42.2 25.8 42.3C25.5 42.3 25.4 42.3 25.3 42C25.2 41.6 25.3 41.3 25.5 40.9C25.6 40.8 25.7 40.6 25.8 40.4C25.9 40.3 25.8 40.3 25.7 40.3C24.8 40.5 24.4 41.4 24.5 42.3C24.6 42.6 24.2 43 23.8 43C23.5 43 23.4 42.7 23.4 42.4C23.4 42.1 23.4 41.9 23.5 41.6C23.5 41.5 23.5 41.4 23.4 41.5H23.3C22.8 41.9 22.7 42.4 23 43.1C23.1 43.4 23.1 43.6 22.9 43.8C22.6 44 22.5 44.1 22.2 43.8C22.1 43.7 21.7 43.7 21.5 43.8C21.2 43.9 21.4 44.2 21.5 44.4C21.6 44.5 21.6 44.6 21.7 44.7C21.8 44.8 21.8 44.9 21.7 44.9C21.6 44.9 21.6 45 21.6 45C21.5 45.2 21.4 45.5 21.5 45.6C21.6 45.7 21.9 45.7 22.1 45.7C22.2 45.7 22.3 45.6 22.4 45.5C22.6 45.2 22.8 45.1 23.1 45.5C23.1 45.6 23.2 45.6 23.3 45.6H23.8C23.9 45.5 23.9 45.2 23.8 45.1C23.7 45 23.6 44.9 23.4 44.8C23.3 44.7 23.3 44.6 23.4 44.6C24.2 43.9 25.1 43.4 26 43.2C27.3 42.9 28.6 42.8 29.7 43.8H29.8C29.8 43.8 29.8 43.7 29.8 43.6C29.8 43.5 29.7 43.4 29.7 43.4C29.6 43.3 29.5 43.1 29.3 43C29 42.8 29 42.5 29.2 42.2C29.4 42 29.7 41.7 29.9 41.5C30 41.4 30 41.3 30 41.3C30.1 41.2 30 41.2 29.9 41.2" fill="black"/>
<path fill-rule="evenodd" clip-rule="evenodd" d="M15.3 24.9C15.6 24.4 15.8 24.4 16.1 24.9C16.1 25 16.3 25.1 16.4 25C16.5 25.1 16.6 25.1 16.7 25C16.75 24.95 16.775 24.9 16.8 24.85C16.825 24.8 16.85 24.75 16.9 24.7C17.05 24.5 17.175 24.325 17.3 24.15C17.425 23.975 17.55 23.8 17.7 23.6C17.75 23.5 17.825 23.4 17.9 23.3C17.975 23.2 18.05 23.1 18.1 23C18.1 22.9 18.1 22.8 18 22.8H17.7C17.3408 22.9796 17.0623 22.8367 16.7196 22.6608C16.6806 22.6408 16.6408 22.6204 16.6 22.6C16.5 22.5 16.5 22.5 16.6 22.4C17.1 22.1 17.5 21.8 17.9 21.5L17.9 21.5C17.9 21.5 18 21.4 17.9 21.3L17.8 21.2C17.8 21.15 17.8 21.125 17.8125 21.1125C17.825 21.1 17.85 21.1 17.9 21.1C18.6392 21.2478 19.1052 20.9039 19.5808 20.5528C19.7485 20.429 19.9175 20.3043 20.1 20.2H20.3V20.3C20.3 20.35 20.275 20.425 20.25 20.5C20.225 20.575 20.2 20.65 20.2 20.7C20.1 20.8 20.2 20.9 20.3 20.9H20.8C21.2 20.8 21.5 20.8 21.8 20.9C21.9 20.9 22.1 20.9 21.9 21C21.8236 21.0382 21.7618 21.0618 21.709 21.082C21.6236 21.1146 21.5618 21.1382 21.5 21.2C21.4 21.2 21.4 21.3 21.4 21.4C21.45 21.45 21.5 21.525 21.55 21.6C21.6 21.675 21.65 21.75 21.7 21.8C21.75 21.9 21.825 21.975 21.9 22.05C21.975 22.125 22.05 22.2 22.1 22.3C22.1 22.4 22.1 22.4 22 22.4H21.8C21.75 22.4 21.725 22.4 21.7125 22.4125C21.7 22.425 21.7 22.45 21.7 22.5C21.75 22.6 21.8 22.675 21.85 22.75C21.9 22.825 21.95 22.9 22 23C22.1 23.1 22.1 23.2 22.1 23.2C22.1 23.2618 22.0618 23.2472 22.009 23.227C21.9764 23.2146 21.9382 23.2 21.9 23.2C21.85 23.15 21.775 23.125 21.7 23.1C21.625 23.075 21.55 23.05 21.5 23C21.4 23 21.4 23 21.4 23.1C21.45 23.2 21.475 23.3 21.5 23.4C21.525 23.5 21.55 23.6 21.6 23.7V23.9H21.5C21.3 23.7 21 23.6 20.7 23.8C20.4 24.1 20.3 24.4 20.4 24.8C20.5 25.2 20.8 25.4 21.1 25.4H22.1C22.2016 25.4 22.3016 25.3984 22.4 25.3968C23.0762 25.3859 23.6762 25.3762 24.2 25.9C24.2 26 24.3 26 24.4 25.9C24.6 25.6 24.7 25.3 24.5 25C24.4266 24.7065 24.2456 24.4669 24.0754 24.2415C24.0136 24.1598 23.9532 24.0799 23.9 24C23.8754 23.9262 23.8447 23.8585 23.8155 23.7938C23.7258 23.5956 23.6492 23.4262 23.8 23.2C23.9 23.1 24 23.1 24 23.2C24.1 23.3 24.1 23.4 24.1 23.4C24.1 23.5 24.2 23.6 24.2 23.6C24.3 23.6 24.3 23.5 24.3 23.4C24.3932 22.7473 24.8342 22.5293 25.3798 22.2596C25.4193 22.2401 25.4594 22.2203 25.5 22.2C25.55 22.2 25.575 22.2 25.5875 22.2125C25.6 22.225 25.6 22.25 25.6 22.3C25.55 22.35 25.525 22.4 25.5 22.45C25.475 22.5 25.45 22.55 25.4 22.6C25.3372 22.7883 25.235 22.9372 25.1429 23.0715C25.0883 23.1511 25.0372 23.2255 25 23.3V23.6C25 23.7 25.1 23.8 25.2 23.7C25.2425 23.7 25.2669 23.7 25.2886 23.6923C25.318 23.6819 25.3425 23.6575 25.4 23.6C25.4 23.6 25.5 23.6 25.5 23.5C25.5 23.4 25.6 23.4 25.6 23.5C25.7 23.8 25.5 24 25.3 24.2C25.3 24.3 25.3 24.4 25.4 24.4C25.5 24.45 25.575 24.475 25.65 24.5C25.725 24.525 25.8 24.55 25.9 24.6C25.95 24.65 25.975 24.675 25.975 24.7C25.975 24.725 25.95 24.75 25.9 24.8C25.7 24.8 25.6 24.9 25.5 25C25.4 25.1 25.3 25.2 25.4 25.3C25.4795 25.4591 25.559 25.4284 25.7392 25.3588C25.7856 25.3409 25.8386 25.3205 25.9 25.3C25.95 25.3 25.975 25.3 25.9875 25.3125C26 25.325 26 25.35 26 25.4C26 25.5 25.9 25.7 25.8 25.8C25.7 25.9 25.7 26 25.8 26.1L25.9 26.2C25.9 26.3 26 26.4 26 26.4H25.8C25.7 26.4 25.6 26.375 25.5 26.35C25.4 26.325 25.3 26.3 25.2 26.3C24.7 26.2 24.6 26.3 24.5 26.8L24.5 26.8C24.4 27.1 24.3 27.4 24.1 27.7C23.6 28.3 23.6 28.6 24.1 29.2C24.4 29.5 24.3 29.7 24.1 30C23.9 30.3 23.7 30.6 23.5 30.8C23.4 30.9 23.2 31 23 31.1L23 31.1C22.7 31.3 22.5 31.5 22.5 31.8C22.5 31.9 22.4 32 22.3 32C22.2 32.1 22.1 32.1 22 32.1H21.8C21.7 32.1 21.7 32 21.8 31.9C21.8236 31.8528 21.8472 31.8 21.8721 31.7443C21.9528 31.5639 22.0472 31.3528 22.2 31.2C22.3057 31.0591 22.4238 30.9181 22.5456 30.7728C22.7694 30.5057 23.0057 30.2238 23.2 29.9C23.4 29.7 23.4 29.4 23 29.3C22.7 29.3 22.5 29.1 22.3 28.9C22.2 28.9 22.1 28.9 22.1 29V29.3C22.2 29.6 22 29.8 21.8 29.9C21.4331 30.1935 21.0124 30.4331 20.6169 30.6585C20.4733 30.7402 20.3331 30.8201 20.2 30.9C20.1333 30.9 20.0666 30.9889 20 31.0778C19.9666 31.1222 19.9333 31.1667 19.9 31.2C19.7 31.3 19.6 31.4 19.5 31.5H19.3C19.2 31.5 19.2 31.4 19.3 31.3L19.9 30.7C20.1 30.5 20.325 30.325 20.55 30.15C20.775 29.975 21 29.8 21.2 29.6C21.2646 29.5354 21.2457 29.4291 21.2243 29.3081C21.2125 29.2417 21.2 29.1708 21.2 29.1C21.1 28.9 21 28.6 20.9 28.3V28.1C21 28 20.9 28 20.8 28H20.3C19.7 28.1 19.2 27.9 18.7 27.6C18.5 27.5 18.3 27.5 18.1 27.6C17.7 27.8 17.2 27.7 16.8 27.6C16.2 27.4 16 27.5 16 28.2V28.8C16 29.2 16.1 29.5 16.6 29.5C16.7 29.5 16.8 29.5 16.7 29.6C16.7 29.7 16.6 29.8 16.5 29.9C16.5 30 16.4 30 16.3 29.9C16 29.6 15.7 29.3 15.7 28.8C15.7 28.6 15.675 28.375 15.65 28.15C15.625 27.925 15.6 27.7 15.6 27.5C15.6 27.2 15.7 27 16 27C16.2 27 16.5 27 16.7 26.9C16.8 26.9 16.9 26.8 16.9 26.7C16.9 26.7 16.9 26.5 16.8 26.5C16.4392 26.4279 16.3388 26.1996 16.2357 25.9653C16.1959 25.8749 16.1557 25.7836 16.1 25.7C16.05 25.6 16 25.525 15.95 25.45C15.9 25.375 15.85 25.3 15.8 25.2C15.8 25.2 15.7 25.1 15.6 25.2C15.5 25.2 15.4 25.2 15.4 25.3C15.3521 25.3798 15.3016 25.4596 15.2507 25.5403C14.9825 25.9647 14.7 26.4117 14.7 27C14.7 27.1 14.6 27.2 14.4 27.3C14.3 27.4 14.3 27.4 14.2 27.4C14.1 27.4 14.1 27.3 14.1 27.2V27L15.3 24.9ZM20.1 22.4C20 21.9 19.8 21.6 19.4 21.6C19.3 21.6 19.3 21.7 19.3 21.7C19.7 22.3 19.7 23 19.7 23.7C19.7 23.8 19.8 23.9 19.9 23.8C20.1 23.7 20.2 23.1 20.1 22.4Z" fill="black"/>
<path d="M14.4 19.8C14.3 19.8 14.2 19.8 14.1 19.7H14V19.8V19.9C14.1 20 14.3 20 14.4 20C14.8 20 15 19.8 15 19.4C15 19.1 14.9 18.9 14.6 18.8C14.4 18.7 14.3 18.6 14.3 18.5C14.3 18.4 14.4 18.2 14.6 18.2C14.7 18.2 14.8 18.2 14.9 18.3H15V18.2V18.1C14.9 18.1 14.8 18 14.7 18C14.4 18 14.1 18.2 14.1 18.6C14.1 18.9 14.2 19.1 14.6 19.2C14.8 19.3 14.9 19.4 14.9 19.6C14.7 19.7 14.6 19.8 14.4 19.8" fill="black"/>
<path d="M15.1 18.3H15.5V20C15.5 20 15.5 20.1 15.6 20.1H15.7C15.7 20.1 15.8 20.1 15.8 20V18.3H16.2C16.2 18.3 16.3 18.3 16.3 18.2V18.1C16.3 18.1 16.3 18 16.2 18H15.1C15.1 18 15 18 15 18.1L15.1 18.3C15 18.2 15.1 18.3 15.1 18.3" fill="black"/>
<path d="M17.1 20.1C17.5 20.1 17.8 19.8 17.8 19.2V18.1C17.8 18.1 17.8 18 17.7 18H17.6C17.6 18 17.5 18 17.5 18.1V19.2C17.5 19.5 17.4 19.8 17.1 19.8C16.9 19.8 16.8 19.6 16.8 19.2V18.1C16.8 18.1 16.8 18 16.7 18H16.6C16.6 18 16.5 18 16.5 18.1V19.2C16.4 20 16.8 20.1 17.1 20.1" fill="black"/>
<path d="M17.9 18.3H18.3V20C18.3 20 18.3 20.1 18.4 20.1H18.5C18.5 20.1 18.6 20.1 18.6 20V18.3H19C19 18.3 19.1 18.3 19.1 18.2V18.1C19.1 18.1 19.1 18 19 18H17.9C17.9 18 17.8 18 17.8 18.1L17.9 18.3C17.8 18.2 17.9 18.3 17.9 18.3" fill="black"/>
<path d="M19.2 18.3H19.6V20C19.6 20 19.6 20.1 19.7 20.1H19.8C19.8 20.1 19.9 20.1 19.9 20V18.3H20.3C20.3 18.3 20.4 18.3 20.4 18.2V18.1C20.4 18.1 20.4 18 20.3 18H19.2C19.2 18 19.1 18 19.1 18.1L19.2 18.3C19.2 18.2 19.2 18.3 19.2 18.3" fill="black"/>
<path d="M20.6 19.8C20.8 20 21 20.1 21.2 20.1C21.4 20.1 21.6 20.1 21.7 20L21.8 19.9V19C21.8 19 21.8 18.9 21.7 18.9H21.2C21.2 18.9 21.1 18.9 21.1 19V19.1C21.1 19.1 21.1 19.2 21.2 19.2H21.5V19.7C21.4 19.7 21.4 19.7 21.3 19.7C20.9 19.7 20.7 19.4 20.7 18.9C20.7 18.4 20.9 18.1 21.3 18.1C21.4 18.1 21.5 18.1 21.6 18.2H21.7V18.1V18C21.7 18 21.5 17.9 21.3 17.9C20.7 17.9 20.4 18.3 20.4 19C20.4 19.3 20.5 19.6 20.6 19.8" fill="black"/>
<path fill-rule="evenodd" clip-rule="evenodd" d="M22.1 20.1H22L22.4 18.1C22.4 18 22.5 18 22.5 18H22.7C22.8 18 22.8 18.1 22.8 18.1L23.3 20V20.1H23.2H23.1C23 20.1 23 20 23 20L22.8 19.5H22.3L22.2 20C22.2 20.1 22.1 20.1 22.1 20.1ZM22.6 18.7L22.5 19.2H23L22.8 18.7C22.7425 18.6425 22.7181 18.6181 22.7077 18.5887C22.7 18.5669 22.7 18.5425 22.7 18.5C22.6425 18.5575 22.6181 18.5819 22.6077 18.6113C22.6 18.6331 22.6 18.6575 22.6 18.7Z" fill="black"/>
<path fill-rule="evenodd" clip-rule="evenodd" d="M23.8 20.1H23.7L23.5 18.1C23.5 18 23.6 18 23.6 18H24C24.3 18 24.4 18 24.6 18.2C24.7 18.3 24.7 18.4 24.7 18.6C24.7 18.8 24.6 19 24.4 19.1C24.5 19.2 24.6 19.3 24.6 19.5C24.6 19.6172 24.6343 19.7343 24.6627 19.8314C24.6828 19.9 24.7 19.9586 24.7 20V20.1H24.6H24.5L24.4 20C24.4 20 24.3 19.8 24.3 19.6C24.2863 19.559 24.2745 19.5217 24.2638 19.4879C24.1963 19.2745 24.1727 19.2 24 19.2H23.9V20C23.9 20.1 23.8 20.1 23.8 20.1ZM23.9 18.3V18.9H24.1C24.3 18.9 24.4 18.8 24.4 18.6C24.4 18.4 24.3 18.3 24.1 18.3H23.9Z" fill="black"/>
<path d="M24.8 18.3H25.2V20C25.2 20 25.2 20.1 25.3 20.1H25.4C25.4 20.1 25.5 20.1 25.5 20V18.3H26C26 18.3 26.1 18.3 26.1 18.2V18.1C26.1 18.1 26.1 18 26 18H24.9C24.9 18 24.8 18 24.8 18.1V18.3C24.7 18.2 24.8 18.3 24.8 18.3" fill="black"/>
<path fill-rule="evenodd" clip-rule="evenodd" d="M37.4974 2.94609C38.0034 3.10093 38.5059 3.25469 39 3.4C39.3796 3.49489 39.489 3.76989 39.6701 4.22498L39.7 4.3V20.3C39.7 22.7 39.7 25 39.6 27.3C39.4 30.7 38.4 33.9 36.9 36.9C34.6 41.7 31.1 45.5 26.6 48.3C25.1 49.2 23.6 50 22.1 50.8C21.1 51.3 20 51.3 18.9 51C15.5 50.1 12.5 48.3 9.89998 46C5.69998 42.3 2.79998 37.9 1.19998 32.6C0.699976 31 0.599976 29.4 0.499976 27.8C0.330804 24.5857 0.23318 21.3715 0.146585 18.5203L0.146584 18.5203C0.130804 18.0008 0.11539 17.4932 0.0999756 17V4.9C0.0999756 4.5 0.199976 4.3 0.499976 4.2C2.49998 3.3 4.59998 2.6 6.69998 2.1C11.5 0.899997 16.4 0.299997 21.3 0.499997C25.5 0.599997 29.7 0.999997 33.8 1.9C35.0059 2.18375 36.2622 2.56814 37.4974 2.94609ZM1.04998 23.55L1.04999 23.5502C1.09998 24.6251 1.14998 25.7001 1.19998 26.8C1.19998 27.2109 1.19998 27.3404 1.26421 27.4133C1.29377 27.4469 1.33694 27.4685 1.39998 27.5H11.1H11.4C11.5 27.5 11.6 27.4 11.6 27.3V22.8C11.6 22.7 11.5 22.6 11.4 22.6C8.79998 22.7 6.49998 23.5 4.29998 24.8C4.29998 24.8 4.19998 24.9 4.29998 25C4.39998 25.1 4.49998 25.2 4.49998 25.3C4.49998 25.3281 4.50786 25.3719 4.51699 25.4227C4.54036 25.5527 4.5719 25.7281 4.49998 25.8C4.29998 26 4.09998 26.1 3.89998 26.1C3.79998 26.1 3.59998 26 3.49998 25.9C3.39998 25.7 3.19998 25.7 2.99998 25.9C2.94998 25.95 2.89998 25.975 2.84998 26C2.79998 26.025 2.74998 26.05 2.69998 26.1C2.29998 26.4 1.99998 26.3 1.79998 26.1C1.59998 25.9 1.69998 25.5 1.99998 25.3C2.39998 25.1 2.39998 24.9 2.19998 24.5C2.09998 24.4 2.19998 24 2.29998 23.9C2.49998 23.7 2.79998 23.7 2.99998 23.9C3.04997 23.95 3.12496 24 3.19995 24.05L3.19998 24.05C3.27498 24.1 3.34998 24.15 3.39998 24.2H3.69998C4.21992 23.94 4.2142 23.9053 4.13834 23.4452L4.13833 23.4451C4.12666 23.3743 4.11332 23.2934 4.09998 23.2C3.99998 22.6 4.09998 22 4.39998 21.5C4.59998 21.2 4.79998 21 5.19998 21C5.29998 21 5.39998 21.1 5.29998 21.2C5.29998 21.3 5.19998 21.4 5.19998 21.4C4.79998 22 4.79998 22.6 4.89998 23.2C4.99998 23.5 5.19998 23.5 5.39998 23.4C5.49998 23.35 5.62497 23.3 5.74997 23.25C5.87497 23.2 5.99998 23.15 6.09998 23.1C6.39998 23 6.49998 22.9 6.39998 22.6C6.29998 21.9 6.29998 21.3 6.69998 20.8C6.99998 20.4 7.39998 20.2 7.79998 20.2C7.84998 20.25 7.87498 20.275 7.87498 20.3C7.87498 20.325 7.84998 20.35 7.79998 20.4C7.19998 20.9 6.99998 21.6 7.09998 22.4C7.09998 22.5 7.19998 22.6 7.19998 22.6H7.29998C7.39998 22.55 7.52498 22.525 7.64998 22.5C7.77498 22.475 7.89998 22.45 7.99998 22.4C8.58339 22.3028 8.59952 22.2055 8.6919 21.6486L8.69998 21.6C8.69998 21.2 8.79998 20.8 8.99998 20.5C9.29998 20.1 9.99998 19.7 10.5 19.7C10.6 19.7 10.7 19.8 10.6 19.8C10.6 19.9 10.5 19.9 10.5 19.9C9.89998 20.2 9.59998 20.8 9.49998 21.5C9.49998 21.8 9.49998 21.9 9.89998 21.9C10.1 21.8 10.4 21.8 10.7 21.8C10.8 21.7667 10.9 21.7667 10.9926 21.7667C11.1778 21.7667 11.3333 21.7667 11.4 21.5C11.4481 21.3557 11.5424 21.2346 11.6274 21.1255C11.7191 21.0077 11.8 20.9038 11.8 20.8V17.8C11.8 17.7 11.8 17.6 11.7 17.6H11.6H11.1C8.49998 17.7 6.19998 18.6 3.89998 19.8C3.59998 20 3.69998 20.2 3.79998 20.4C3.89998 20.6 3.89998 20.9 3.79998 21C3.69998 21.1 3.29998 21.2 3.19998 21.1C2.91787 20.8179 2.63577 20.8895 2.27052 20.9822L2.19998 21C1.89998 21.1 1.59998 21 1.49998 20.7C1.39998 20.4 1.39998 20.2 1.69998 20C1.74998 19.95 1.82498 19.9 1.89998 19.85C1.97498 19.8 2.04998 19.75 2.09998 19.7C2.09998 19.7 2.19998 19.6 2.09998 19.5C2.09998 19.45 2.07498 19.4 2.04998 19.35C2.02498 19.3 1.99998 19.25 1.99998 19.2C1.99998 19 1.99998 18.7 2.09998 18.6C2.19998 18.5 2.49998 18.5 2.69998 18.6C2.74997 18.65 2.79997 18.725 2.84996 18.8L2.84998 18.8L2.84999 18.8C2.89998 18.875 2.94998 18.95 2.99998 19C2.99998 19.1 3.09998 19.2 3.19998 19.2C3.59998 19.3 4.19998 18.7 4.19998 18.3C4.19998 17.6 4.19998 17 4.59998 16.4C4.79998 16.1 5.09998 15.9 5.39998 16C5.49998 16 5.49998 16.1 5.49998 16.2L5.39998 16.3C4.99998 16.8 4.89998 17.4 4.89998 18C4.89998 18.3 4.99998 18.4 5.29998 18.3C5.39998 18.25 5.52497 18.2 5.64997 18.15L5.65004 18.15C5.77502 18.1 5.89999 18.05 5.99998 18C6.19998 17.9 6.29998 17.8 6.29998 17.5C6.29998 16.8 6.59998 16.2 6.99998 15.7C7.19998 15.4 7.59998 15.3 7.99998 15.3C8.09998 15.3 8.19998 15.4 8.09998 15.5C7.99998 15.7 7.89998 15.8 7.79998 15.9C7.39998 16.2 7.19998 16.7 7.19998 17.2C7.19998 17.3 7.39998 17.5 7.39998 17.5C7.89998 17.4 8.29998 17.3 8.69998 17.1C8.83331 17.0333 8.87775 16.8778 8.9222 16.7222C8.94442 16.6444 8.96664 16.5667 8.99998 16.5C9.04998 16.45 9.07498 16.375 9.09998 16.3C9.12498 16.225 9.14998 16.15 9.19998 16.1C9.59998 15.4 10.2 15 10.9 14.9H11.1C11.2 14.9 11.3 15 11.2 15.1L11.1 15.2C11.05 15.25 10.975 15.3 10.9 15.35L10.9 15.35C10.825 15.4 10.75 15.45 10.7 15.5C10.3 15.9 9.99998 16.2 9.89998 16.7C9.89998 16.8 9.99998 16.9 10.1 16.9C10.4 16.8 10.7 16.8 11 16.8C11.4 16.8 11.7 16.6 11.9 16.3C12 16.1 12.1 15.9 12.3 15.8C12.8 15.5 13.5 15.4 14 15.6C14.1 15.6 14.1 15.8 14 15.8C13.9101 15.8899 13.7798 15.9192 13.6363 15.9514C13.4606 15.9909 13.2651 16.0348 13.1 16.2C13.1 16.2 13.1 16.3 13.2 16.3H18.9C19 16.3 19.1 16.2 19.1 16.1V7.4C19.1 7.3 19 7.2 18.9 7.2H18.5C17.7666 7.26666 17.0333 7.32222 16.3 7.37777C14.8333 7.48889 13.3666 7.6 11.9 7.8C8.19998 8.3 4.59998 9.5 1.19998 11.1C0.899976 11.2 0.799976 11.4 0.799976 11.7C0.799976 14.6 0.799976 17.5 0.899976 20.3C0.949976 21.4 0.999977 22.475 1.04998 23.55ZM38.3 28C37.8 31.7 36.7 35.2 34.7 38.4C33.1 41 31.2 43.4 28.7 45.3C26.4 47.1 23.9 48.7 21.2 49.9C21.1 50 21 50 20.9 50C20.8 50 20.7 50 20.7 49.9V35.3C20.7 35.2 20.8 35.1 20.9 35.1C20.9653 35.1218 21.0306 35.1483 21.0948 35.1743L21.0949 35.1744C21.3258 35.2681 21.5435 35.3565 21.7 35.2C21.8 35.1 21.9 35.1 21.9 35.1C22.1 35.2 22.4 35.3 22.5 35.2C22.6 35.2 22.7 34.9 22.8 34.6C22.8 34.5 22.9 34.4 23 34.4C24.1 33.9 25.1 33.2 26 32.2C26.05 32.15 26.1 32.125 26.15 32.1C26.2 32.075 26.25 32.05 26.3 32C29.1 31 31.8 30.9 34.4 32.5C34.5123 32.5562 34.6246 32.6438 34.7546 32.7454C34.8561 32.8246 34.9684 32.9123 35.1 33C35.2 33.1 35.2 33 35.2 32.9C35.2 32.7 35.2 32.5 35.1 32.4C35.045 32.3175 34.99 32.2275 34.9329 32.1341L34.9329 32.134C34.7824 31.8876 34.6175 31.6175 34.4 31.4C34.1 31.1 34.1 31 34.5 30.8C34.7422 30.6789 34.9844 30.5944 35.2488 30.5023C35.4211 30.4422 35.6028 30.3789 35.8 30.3C35.9 30.3 35.9 30.2 35.8 30.1C35.7 30 35.6 29.9 35.5 29.9C34.8 29.8 34.2 29.8 33.7 30.4C33.6 30.6 33.3 30.8 33.2 30.7C33 30.65 32.825 30.575 32.65 30.5C32.475 30.425 32.3 30.35 32.1 30.3C32.1 30.3 32.1 30 32.2 29.9L33.1 29C33.15 28.95 33.2 28.925 33.25 28.9C33.3 28.875 33.35 28.85 33.4 28.8C33.5 28.8 33.5 28.6 33.4 28.6C33 28.3 32.4 28.3 32 28.6C31.6 28.9 31.3 29.2 31.1 29.6C30.9 30 30.6 30.3 30.1 30.2H29.7C29.6 30.2 29.5 30.1 29.5 30C29.6 29.3 30 28.8 30.6 28.5L30.6 28.5C30.65 28.45 30.675 28.425 30.675 28.4C30.675 28.375 30.65 28.35 30.6 28.3L30.6 28.3C30.5 28.2 30.4 28.2 30.4 28.2C29.3 28.2 28.6 28.8 28.3 29.8C28.1036 30.5855 28.0036 30.5997 27.3375 30.6947L27.3 30.7C27.25 30.7 27.225 30.7 27.2125 30.6875C27.2 30.675 27.2 30.65 27.2 30.6C27.25 30.45 27.325 30.325 27.4 30.2C27.475 30.075 27.55 29.95 27.6 29.8C27.8 29.1 28 28.4 28.1 27.6C28.1 27.4 28.2 27.3 28.5 27.3H38C38.3 27.6 38.3 27.7 38.3 28ZM38.4 10.2C38.5 10.2 38.6 10.2 38.6 10.1C38.6382 10.1 38.6618 10.0854 38.6819 10.0729C38.7146 10.0528 38.7382 10.0382 38.8 10.1V4.6C38.8 4.5 38.6 4.3 38.5 4.2C37.8 3.9 37 3.6 36.3 3.4C31.7 2.1 27 1.6 22.3 1.4C17.5 1.1 12.8 1.6 8.09998 2.6C5.79998 3.1 3.59998 3.7 1.39998 4.7C0.999976 4.8 0.899976 5 0.899976 5.4V10.5V10.7C0.899976 10.8 0.999976 10.8 1.09998 10.8C1.59998 10.5 2.09998 10.3 2.59998 10.1C7.89998 7.9 13.4 7 19.1 6.8C19.5 6.8 19.6 6.9 19.6 7.3C19.6 8.8 19.625 10.275 19.65 11.75C19.675 13.225 19.7 14.7 19.7 16.2C19.7 16.6 19.6 16.7 19.2 16.7H13.1C12.75 16.7 12.575 16.7 12.4875 16.7875C12.4 16.875 12.4 17.05 12.4 17.4C12.5 20.7 12.5 24.1 12.5 27.4C12.5 27.9 12.5 28.4 12.6 28.9C12.8 30 13.1 31 13.9 31.8C14 31.9 14 32 14 32C14 32.1 13.9 32.1 13.8 32.1H2.29998C2.19998 32.1 2.09998 32.2 2.09998 32.3C2.19998 32.6 2.39998 32.7 2.69998 32.7C6.59998 32.6 10.4 32.6 14.3 32.6C14.5 32.6 14.7 32.7 14.9 32.8C16.2 33.9 17.7 34.5 19.4 34.7C19.7 34.7 19.8 34.8 19.8 35.1V36.8C19.8 37 19.7 37.1 19.6 37.1H4.19998V37.3C4.29998 37.8 4.39998 37.8 4.89998 37.8C9.69998 37.7 14.5 37.7 19.3 37.7C19.55 37.7 19.675 37.7 19.7375 37.7625C19.8 37.825 19.8 37.95 19.8 38.2V42C19.8 42.3 19.8 42.45 19.725 42.525C19.65 42.6 19.5 42.6 19.2 42.6H8.39998H7.99998C7.89998 42.6 7.79998 42.6 7.79998 42.7C7.69998 42.8 7.79998 42.9 7.89998 42.9C7.95357 42.9268 7.99998 42.9536 8.04306 42.9785C8.16075 43.0464 8.25357 43.1 8.39998 43.1H11.3H19.2C19.8 43.1 19.9 43.1 19.9 43.7V45.4V49.8C19.9 49.8517 19.8933 49.9033 19.8869 49.9533C19.8683 50.0967 19.8516 50.2258 20 50.3C20.1 50.4 20.2 50.3 20.2 50.2V50V42.4V35.2C20.2 34.8 20.2 34.6 20.7 34.6C21.0197 34.6 21.2985 34.5182 21.5887 34.4331C21.7524 34.3851 21.9197 34.3361 22.1 34.3C24.9 33.5 27.4 30.9 27.5 27.7C27.5 27.3 27.7 27.2 28 27.2H37.5H38C38.1 27.2 38.2 27.1 38.2 27V26.8H27.5C27.4 26.7 27.4 26.6 27.4 26.4V22.5C27.4 21.9 27.4 21.9 28 21.9H37.8H38.2C38.3 21.9 38.4 21.8 38.4 21.7V21.6C38.4 21.5 38.3 21.4 38.2 21.4H37.9H28.1C27.7 21.4 27.5 21.3 27.5 20.9C27.5666 20.1667 27.5444 19.4333 27.5222 18.7C27.5111 18.3333 27.5 17.9667 27.5 17.6C27.5 17.2 27.6 17.1 28 17.1H38.2H38.5C38.6 17.1 38.7 17 38.7 16.9V16.6H20.2C20.1 16.6 20 16.6 20 16.5C19.9 16.5 19.9 16.4 19.9 16.3V12.4C19.9 11.8 19.9 11.8 20.5 11.8H37.6H38.3C38.4 11.8 38.5 11.7 38.5 11.6V11.5C38.5 11.4 38.4 11.3 38.3 11.3H36.9H20.4C20 11.3 19.9 11.2 19.9 10.8V7.6C19.9 6.9 19.9 6.9 20.6 6.9C22.7 6.9 24.8 7 26.9 7.3H27.3C30.3 7.7 33.3 8.4 36.2 9.4C36.55 9.55 36.925 9.675 37.3 9.8C37.675 9.925 38.05 10.05 38.4 10.2Z" fill="black"/>
</svg>
