<svg width="81" height="12" viewBox="0 0 81 12" fill="none" xmlns="http://www.w3.org/2000/svg">
<path fill-rule="evenodd" clip-rule="evenodd" d="M21.2855 3.84898C21.2855 3.84898 21.7721 6.35732 18.4871 7.82083L22.1866 11.9306H12.9656L10.3433 8.37858H8.66729V12H-6.10352e-05V0.0171773H15.878C15.878 0.0171773 21.2855 -0.163427 21.2855 3.84898ZM8.59665 5.44046H10.6656C10.6656 5.44046 11.9827 5.30058 11.9827 4.25526C11.9827 3.14073 10.8383 3.10548 10.8383 3.10548L8.59665 3.14073V5.44046Z" fill="black"/>
<path fill-rule="evenodd" clip-rule="evenodd" d="M30.2214 0.0171585H43.7405L50.4146 11.9189H41.1922L40.2055 9.56215H34.1724L33.1388 11.9306H23.9968L30.2214 0.0171585ZM37.182 2.62337L35.4791 6.50073L38.8886 6.49751L37.182 2.62337Z" fill="black"/>
<path d="M68.7275 11.9307L72.1249 5.243V11.9209H81V0H68.5644L66.7055 3.71076H66.7039L64.8434 0H52.4079V11.9209H61.2829V5.243L64.6804 11.9307" fill="black"/>
</svg>
