<svg width="41" height="50" viewBox="0 0 41 50" fill="none" xmlns="http://www.w3.org/2000/svg">
<path d="M15.6266 14.0169C15.8248 9.10359 17.5331 4.56768 20.317 0.824539H40.7925V1.77598C31.8229 4.33599 22.7972 8.76643 15.6266 14.0169" fill="black"/>
<path d="M36.8602 38.9677C25.8618 37.3159 17.2192 28.777 15.807 18.0628C16.7121 17.236 17.6994 16.4069 18.7762 15.5979C25.3597 10.6541 31.3622 7.35942 40.7925 3.97906V38.9677H36.8602Z" fill="black"/>
<path d="M29.9074 38.9677C21.7874 35.5399 15.7446 28.3778 14.0989 19.7311C10.4089 23.6164 8.62739 27.4653 8.73022 30.3622C8.9238 35.832 14.3902 38.9677 22.1728 38.9677H29.9074Z" fill="black"/>
<path d="M13.6536 15.5158C13.6496 15.338 13.6496 15.1553 13.6496 14.9745C13.6496 9.76301 15.2308 4.90228 17.9512 0.82457H0.227142V34.7089H1.20375C1.20375 33.8386 1.19232 33.124 1.39463 32.0506C2.51104 26.4882 7.15513 20.6699 13.6536 15.5158" fill="black"/>
<path d="M6.44759 42.8069V41.4628H2.32474C0.765393 41.4673 -0.0105828 42.3821 0.000171288 43.7178C0.0132779 45.056 0.912589 45.9173 2.46017 45.9043H4.28165C5.16214 45.8975 5.2848 46.6364 5.2848 46.8233C5.28715 47.0186 5.2317 47.8393 4.19293 47.8393H0.215925V49.2334H4.35525C6.40827 49.2334 6.91035 47.7767 6.91035 46.7908C6.91035 45.1333 5.61381 44.4979 4.4927 44.506H2.51361C1.9843 44.506 1.65697 44.2182 1.65093 43.6577C1.64622 43.0782 2.04849 42.8121 2.55595 42.8069H6.44759Z" fill="black"/>
<path d="M11.9013 41.4629H10.0466L6.94131 49.2332H8.61391L10.9163 43.2454L13.1357 49.2332H14.8926L11.9013 41.4629Z" fill="black"/>
<path d="M20.4088 41.4629H13.7567V42.8054H16.2742L16.2758 49.2332H17.8977V42.8054H20.4111L20.4088 41.4629Z" fill="black"/>
<path d="M20.8397 45.7585C20.8397 46.965 20.8156 47.7509 21.6877 48.5927C22.5571 49.4328 23.8402 49.4432 24.0627 49.4432C24.2852 49.4432 25.5663 49.4328 26.4383 48.5927C27.3077 47.7509 27.2943 46.965 27.2943 45.7585V42.7734H29.5117C30.3149 42.7734 30.7504 43.153 30.7504 43.8725C30.7504 44.6565 30.1727 45.0082 29.4297 45.0082H28.3889L30.8378 49.2333H32.7056L30.6553 46.0288C31.5203 45.8484 32.3763 44.9615 32.3763 43.7651C32.3763 42.0643 31.0199 41.463 30.0342 41.463H25.6462L25.6436 46.5895C25.6436 47.0873 25.2725 48.0092 24.0714 48.0066H24.0741C22.8841 48.0092 22.499 47.0873 22.499 46.5895L22.4973 41.463H20.8397V45.7585Z" fill="black"/>
<path d="M33.4482 49.2333V41.463H35.9684L39.162 47.4271V41.463H40.7906V49.2333H38.4704L35.0919 42.9856V49.2333H33.4482Z" fill="black"/>
</svg>
