<svg width="77" height="30" viewBox="0 0 77 30" fill="none" xmlns="http://www.w3.org/2000/svg">
<path fill-rule="evenodd" clip-rule="evenodd" d="M37.4026 22.1867C37.4026 23.7349 36.1165 24.3757 36.051 24.3989C36.0723 24.3989 37.5779 24.9768 37.5779 26.477C37.5779 27.3182 37.4501 29.1099 34.5585 29.1297C31.3777 29.1725 26.3273 29.1334 25.8867 29.13C25.8671 29.1298 25.8566 29.1297 25.8559 29.1297V19.7128H34.5585C37.147 19.7128 37.4026 21.6187 37.4026 22.1867ZM31.5899 21.608H31.5899C32.3585 21.6133 33.1465 21.6187 33.7738 21.6187C34.3193 21.6187 34.8223 21.9631 34.8223 22.5841C34.8223 23.2945 34.3848 23.6025 33.8606 23.6025C33.1531 23.6025 32.3104 23.6077 31.5111 23.6128H31.5111C30.03 23.6221 28.6982 23.6304 28.6524 23.6025V21.6187C28.6988 21.5882 30.1082 21.5979 31.5899 21.608ZM31.3718 27.24H31.3717C29.9161 27.2494 28.6974 27.2573 28.6524 27.2288V25.1954C28.6959 25.1668 30.0161 25.164 31.4228 25.1611H31.4229C32.2988 25.1592 33.2082 25.1573 33.8639 25.149C34.452 25.1258 34.9992 25.5448 34.9992 26.2104C34.9992 26.9192 34.452 27.2288 33.9015 27.2288C33.0956 27.2288 32.1957 27.2346 31.3718 27.24Z" fill="black"/>
<path fill-rule="evenodd" clip-rule="evenodd" d="M63.3539 23.0706C63.3539 24.5807 62.022 25.4848 61.9531 25.5031C61.9728 25.5031 63.4014 26.2995 63.4014 27.6755V29.131H60.9063V27.6259C60.9063 26.9652 60.3148 26.1902 59.5907 26.2101C58.0215 26.2351 54.9567 26.213 54.5946 26.2104C54.5727 26.2102 54.5606 26.2101 54.5595 26.2101V29.131H51.7564V19.7125H60.0724C62.6543 19.7125 63.3539 21.3038 63.3539 23.0706ZM57.3377 24.4911C58.13 24.488 58.97 24.4847 59.6792 24.4847C60.3574 24.4847 60.8178 23.7776 60.8178 23.1153C60.8178 22.4496 60.3804 21.62 59.6792 21.62C59.0533 21.62 58.2658 21.6145 57.4972 21.609C56.0145 21.5985 54.6027 21.5884 54.5595 21.62V24.4847C54.585 24.5019 55.8808 24.4968 57.3377 24.4911Z" fill="black"/>
<path fill-rule="evenodd" clip-rule="evenodd" d="M37.493 29.1306L42.5275 19.7103H45.9384L50.9729 29.1306H48.2173L47.2065 27.2296H41.343L40.2945 29.1306H37.493ZM44.1871 21.7868L42.3506 25.1962H46.1121L44.1871 21.7868Z" fill="black"/>
<path d="M73.547 19.7095C73.5929 19.7791 73.547 23.826 73.5094 26.434C73.5094 26.79 73.3766 27.2288 72.8508 27.2288H67.9932C67.4231 27.2288 67.2101 26.8943 67.2101 26.477C67.2101 23.5577 67.0954 19.7526 67.1642 19.6615H64.4053C64.3627 19.731 64.3627 24.2217 64.4053 27.1841C64.4266 28.6396 65.9388 29.1297 67.6459 29.1297C70.0542 29.1297 71.3632 29.1744 74.0385 29.1297C75.436 29.1065 76.3796 28.3614 76.3534 27.1841C76.3321 24.5794 76.3108 19.7095 76.3108 19.7095H73.547Z" fill="black"/>
<path d="M9.97027 23.2945C7.73727 23.1835 5.02097 23.2084 3.35974 23.1156C2.44065 23.0709 2.44065 21.3041 3.44657 21.3041H8.57117C9.26744 21.3041 9.26744 22.0757 9.26744 22.1006H11.8052C11.7626 21.9896 12.0689 19.3601 9.6164 19.3601H2.22276C0.998952 19.3601 0.120824 20.1102 0.120824 21.0326V23.0229C0.120824 24.3128 1.25944 24.9288 2.83221 24.9768C5.15204 25.0348 6.55278 25.106 8.39259 25.1954C9.92604 25.2815 9.70651 27.2023 8.39259 27.2288C6.64289 27.2735 5.55014 27.2288 3.62678 27.2288C2.5324 27.2288 2.57499 26.121 2.57499 26.121H0.035633C-0.0118777 26.434 -0.0118777 26.6973 0.035633 27.0086C0.210931 28.2173 1.21685 29.1297 2.44065 29.1297H9.75074C10.8631 29.1297 12.0001 28.5104 11.9821 27.1841C11.9821 27.1841 11.9362 25.2401 11.9362 25.1954C11.9411 24.0495 11.0204 23.3607 9.97027 23.2945" fill="black"/>
<path d="M21.9998 19.7095C22.0457 19.7791 22.0457 23.826 21.9998 26.434C21.9998 26.79 21.8671 27.2288 21.3478 27.2288H16.4443C15.9201 27.2288 15.6547 26.8943 15.6547 26.477C15.6547 23.5577 15.6137 19.736 15.6547 19.6615H12.8548C12.8122 19.731 12.8745 24.2217 12.8991 27.1841C12.922 28.623 14.3899 29.1297 16.0954 29.1297C18.5414 29.1297 19.8602 29.1744 22.4864 29.1297C23.8838 29.1065 24.8668 28.3614 24.8472 27.1841C24.8226 24.5794 24.8029 19.7095 24.8029 19.7095H21.9998Z" fill="black"/>
<path fill-rule="evenodd" clip-rule="evenodd" d="M25.3229 8.66341C25.3229 6.5439 26.9383 4.45752 29.5022 2.92087C31.9417 1.46537 35.2494 0.5 38.8323 0.5C42.435 0.5 45.7591 1.4604 48.2083 2.91756C50.7804 4.4542 52.404 6.5439 52.404 8.66341C52.404 10.7829 50.7886 12.8461 48.2198 14.3679C45.7689 15.8184 42.4431 16.7622 38.8258 16.7622C35.2461 16.7622 31.9269 15.8068 29.4842 14.3596C26.9334 12.8428 25.3229 10.7746 25.3229 8.66341ZM48.0248 14.0201C50.4692 12.5746 52.0092 10.6322 52.0092 8.66341C52.0092 6.69293 50.461 4.72577 48.0068 3.26364C45.6165 1.83131 42.3612 0.895752 38.8323 0.895752C35.3231 0.895752 32.0858 1.84125 29.7021 3.26695C27.2643 4.72908 25.7194 6.6979 25.7194 8.66341C25.7194 10.6322 27.2512 12.5713 29.689 14.0201C32.0727 15.4326 35.3133 16.3615 38.8323 16.3615C42.3694 16.3615 45.628 15.4326 48.0248 14.0201Z" fill="black"/>
<path d="M33.863 2.64153L32.6065 5.85225L27.0461 7.06103L32.6065 8.25822L33.9286 11.6759L35.254 8.33107L41.2796 7.06103L35.1868 5.72309L33.863 2.64153Z" fill="black"/>
<path d="M40.7506 8.86559L38.362 9.39547L40.7506 9.93859L41.342 11.404L41.8761 10.0065L44.4564 9.39547L41.8761 8.86559L41.2798 7.52931L40.7506 8.86559Z" fill="black"/>
<path d="M47.6334 7.52981L47.0403 8.86609L44.7205 9.39597L47.0403 9.93909L47.6334 11.4045L48.1659 10.007L50.7462 9.39597L48.1659 8.86609L47.6334 7.52981Z" fill="black"/>
<path d="M45.984 7.46672L46.5115 5.98472L49.0919 5.45153L46.5115 4.91172L45.9136 3.57213L45.3827 4.91172L43.0039 5.45153L45.3827 5.98472L45.984 7.46672Z" fill="black"/>
<path d="M43.5313 10.7364L42.9333 12.0776L40.6201 12.6108L42.9333 13.1457L43.5313 14.5498L44.1227 13.1457L46.7112 12.6108L44.0588 12.0081L43.5313 10.7364Z" fill="black"/>
<path d="M36.6437 11.1374L36.1162 12.5499L33.7325 13.0831L36.1162 13.55L36.7142 15.0204L37.2368 13.613L39.8204 13.0831L37.2368 12.4787L36.6437 11.1374Z" fill="black"/>
</svg>
