<svg width="65" height="43" viewBox="0 0 65 43" fill="none" xmlns="http://www.w3.org/2000/svg">
<path fill-rule="evenodd" clip-rule="evenodd" d="M46.8922 19.8125C46.8922 19.8125 44.1919 20.5826 38.9687 23.7508C34.2862 26.5958 32.45 28.5073 32.45 28.5073L18.0039 18.6529C18.0039 18.6529 24.0814 14.2416 29.1594 17.6203L35.9714 22.2326L36.8023 21.6932L18.0068 8.69573C18.0068 8.69573 20.708 7.92461 25.9283 4.75842C30.6138 1.91241 32.45 0 32.45 0L46.8951 9.85432C46.8951 9.85432 40.8186 14.2656 35.7396 10.887L28.9276 6.27373L28.0967 6.81216L46.8922 19.8125ZM35.7041 33.2555H24.7093V35.6688H30.0202L24.5223 40.7349V42.7569H35.6836V40.334H30.1302L35.7041 35.2804V33.2555ZM23.759 39.4473C23.759 41.8914 22.6329 43 18.2358 43C13.8406 43 12.7145 41.8914 12.7145 39.4473V33.2553H16.1979V39.0617C16.1979 40.0521 16.9957 40.6376 18.2358 40.6376C19.4281 40.6376 20.2755 40.055 20.2755 39.0771V33.2553H23.759V39.4473ZM42.0872 43C46.4843 43 47.6104 41.8914 47.6104 39.4473V33.2553H44.126V39.0771C44.126 40.055 43.2775 40.6376 42.0872 40.6376C40.8471 40.6376 40.0464 40.0521 40.0464 39.0617V33.2553H36.5639V39.4473C36.5639 41.8914 37.69 43 42.0872 43ZM61.3675 33.2555H65V42.7569H61.3675V33.2555ZM60.8141 33.2555H56.0352L52.1679 36.5342V33.2555H48.5345V42.7569H52.1679V39.3869L55.7595 42.7569H60.6398L55.328 37.8822L60.8141 33.2555ZM5.60309 35.1222C5.23098 35.1222 4.12828 35.1462 4.12828 35.8808C4.12828 36.3505 5.19766 36.4778 6.50119 36.6331C6.70812 36.6577 6.92095 36.6831 7.13634 36.7106C10.9061 37.1865 11.8208 38.5249 11.8208 39.8402C11.8208 41.195 10.647 42.9766 6.22554 42.9766C1.42512 42.9766 0 41.7709 0 39.6845H4.52377C5.12188 40.7354 5.84564 40.7979 6.23236 40.7979C6.62201 40.7979 7.67989 40.7537 7.67989 40.0922C7.67989 39.3217 6.27981 39.2809 5.69608 39.2639C5.60303 39.2612 5.53073 39.2591 5.48814 39.2547C1.87029 38.8739 0.206512 38.2528 0.206512 36.1327C0.206512 34.9828 0.993593 32.981 5.61575 32.981C9.77715 32.981 11.4965 34.4049 11.4965 36.1952H7.38863C6.81683 35.2693 5.97617 35.1222 5.60309 35.1222Z" fill="black"/>
</svg>
