<svg width="39" height="50" viewBox="0 0 39 50" fill="none" xmlns="http://www.w3.org/2000/svg">
<path fill-rule="evenodd" clip-rule="evenodd" d="M37.2445 3.42708C30.775 0.890028 24.7165 0.0217791 19.4993 0C14.2824 0.0217791 8.22413 0.890167 1.75553 3.42708C1.75553 3.42708 2.0441 4.19531 2.74917 5.46197C8.66623 2.90522 14.4484 2.09245 19.5 2.13074C24.5508 2.09245 30.3319 2.90522 36.2501 5.46197C37.0411 4.05077 37.2445 3.42708 37.2445 3.42708ZM15.8386 3.40752L19.497 7.825L23.157 3.40821L23.1792 3.40878C23.5899 3.4204 29.6505 3.6366 35.6832 6.40748C34.082 8.79042 30.9074 9.96371 30.9074 9.96371C30.6919 7.86418 29.1992 7.34981 24.4668 7.34981L19.502 35.0271L14.4971 7.34578C9.79646 7.34911 8.30558 7.86349 8.0888 9.96316C8.0888 9.96316 4.91293 8.78986 3.31316 6.40693C6.32912 5.02149 9.35226 4.27468 11.6728 3.87279L12.159 3.79184C14.3755 3.43772 15.8386 3.40752 15.8386 3.40752ZM13.6146 45.9671H9.83439C9.3135 45.8632 8.91688 45.4042 8.808 44.9593H14.641C14.5314 45.4042 14.1405 45.8632 13.6146 45.9671ZM1.02387 45.9724C0.49738 45.8599 0.113639 45.4109 0 44.9715V44.9618H6.39233V44.9715C6.28065 45.4109 5.90517 45.8365 5.3728 45.9724H3.78018L3.68991 46.0042V49.9842H2.69627V46.0042L2.6151 45.9724H1.02387ZM13.6146 49.9954H9.83439C9.3135 49.8918 8.91688 49.4326 8.808 48.9879H14.641C14.5314 49.4325 14.1405 49.8918 13.6146 49.9954ZM9.83439 47.9539H13.6146C14.1405 47.8511 14.5314 47.3916 14.641 46.9465H8.808C8.91688 47.3918 9.3135 47.8511 9.83439 47.9539ZM18.4557 45.9576H21.948C22.4745 45.8059 22.9166 45.4084 23.0243 44.9677H17.4768V47.9383H22.0173V48.9808L18.4557 48.9836C17.8976 49.1379 17.4243 49.5093 17.1882 50L17.4768 49.9947H22.9929V46.9507H18.4557V45.9576ZM31.2051 49.0055C31.1029 49.4272 30.8362 49.7876 30.3403 49.996H25.8084V44.969L26.7971 44.9663L26.7943 49.0055H31.2051ZM34.1926 45.9712H37.974C38.4993 45.8677 38.8899 45.4082 39 44.9638H33.1668C33.2758 45.4084 33.6721 45.8677 34.1926 45.9712ZM33.3188 49.994V46.9544L38.8641 46.9597V49.994H37.8814V47.9702H34.3022V49.994H33.3188Z" fill="black"/>
</svg>
