<?xml version="1.0" encoding="UTF-8"?>
<svg width="96" height="96" viewBox="0 0 96 96" version="1.1" xmlns="http://www.w3.org/2000/svg" xmlns:xlink="http://www.w3.org/1999/xlink">
    <title>icon/state/blown_engine</title>
    <g id="Other-✅" stroke="none" stroke-width="1" fill="none" fill-rule="evenodd" stroke-linecap="round">
        <g id="About-✅" transform="translate(-863, -5503)" stroke="#000000">
            <g id="Group-16" transform="translate(120, 5391)">
                <g id="Group-9" transform="translate(742, 112)">
                    <g id="Group-13" transform="translate(9.224, 33.6172)">
                        <g id="Fill-10" transform="translate(8.776, 17.3828)" stroke-dasharray="2,1.8">
                            <path d="M5,0 C2.23870968,0 0,2.23870968 0,5 C0,7.76129032 2.23870968,10 5,10 C7.76129032,10 10,7.76129032 10,5 C10,2.23870968 7.76129032,0 5,0 Z" id="Fill-9"></path>
                        </g>
                        <g id="Fill-13" transform="translate(55.776, 17.3828)" stroke-dasharray="2,1.8">
                            <g id="Fill-12">
                                <path d="M5,0 C2.23870968,0 0,2.23870968 0,5 C0,7.76129032 2.23870968,10 5,10 C7.76129032,10 10,7.76129032 10,5 C10,2.23870968 7.76129032,0 5,0 Z" id="Fill-11"></path>
                            </g>
                        </g>
                        <path d="M79.2023915,17.163934 C78.7125188,16.6174565 78.3663925,15.9556324 78.1961665,15.2408624 L77.5039139,10.4776202 C77.0518693,8.56778508 75.3893283,7.18930013 73.4298375,7.09475383 L68.0620432,6.77518736 L59.0968053,1.15913755 C57.4191332,0.395203505 55.5958232,0 53.7535992,0 L40.2054982,0 C38.537283,0 34.7317854,0.319566471 33.1865113,0.947353857 C30.0827233,2.21238326 27.3572153,4.70462354 22.102905,8.03454399 C15.8366955,8.23876398 9.65749041,9.35251931 2.8711458,12.8223683 L1.71739156,16.9710596 L0,17.4494639 L0.262904655,22.4055805 C0.389628481,23.6214459 1.30506627,24.6066182 2.50799692,24.8202929 L5.58341396,25.3686614 C5.7422916,25.3970253 5.90306063,25.4121527 6.06572106,25.4121527 L6.2170331,25.4121527 C5.56449996,23.3869711 5.45101594,21.1159691 7.48994556,18.4005996 C9.02387128,16.3602906 11.3408368,14.894823 13.8942273,14.9118413 C18.31443,14.9402052 21.8891768,18.5310734 21.8891768,22.95584 C21.8891768,23.8181022 21.7170593,24.6330912 21.4673945,25.4121527 L21.6678829,25.4121527 L53.015953,25.4121527 C52.3634199,23.3869711 52.0891669,20.8001845 54.1299879,18.0848149 C55.6639136,16.0445059 58.1397567,14.894823 60.6931472,14.9118413 C65.11335,14.9402052 68.6880967,18.5310734 68.6880967,22.95584 C68.6880967,23.5193359 68.6275719,24.0695953 68.5178707,24.6009455 L69.3973719,24.5536723 L80.3674941,22.6438372 L80.3674941,19.8622853 C80.3674941,18.8411853 79.885187,17.9240862 79.2023915,17.163934 Z" id="Stroke-3" stroke-dasharray="2"></path>
                    </g>
                </g>
            </g>
        </g>
    </g>
</svg>