<?xml version="1.0" standalone="no"?>
<!DOCTYPE svg PUBLIC "-//W3C//DTD SVG 20010904//EN"
 "http://www.w3.org/TR/2001/REC-SVG-20010904/DTD/svg10.dtd">
<svg version="1.0" xmlns="http://www.w3.org/2000/svg"
 width="700.000000pt" height="700.000000pt" viewBox="0 0 700.000000 700.000000"
 preserveAspectRatio="xMidYMid meet">
<metadata>
Created by potrace 1.14, written by Peter Selinger 2001-2017
</metadata>
<g transform="translate(0.000000,700.000000) scale(0.100000,-0.100000)"
fill="#000000" stroke="none">
<path d="M3346 6990 c-235 -30 -457 -115 -651 -251 -132 -93 -2341 -2302
-2434 -2434 -114 -162 -190 -340 -233 -538 -30 -145 -30 -389 0 -534 27 -126
71 -252 127 -363 98 -194 95 -191 1309 -1405 851 -851 1162 -1155 1222 -1198
166 -117 348 -196 547 -239 145 -30 389 -30 534 0 199 43 381 122 547 239 116
82 2337 2303 2419 2419 117 166 196 348 239 547 17 81 21 136 21 267 0 131 -4
186 -21 267 -43 199 -122 381 -239 547 -43 60 -347 371 -1198 1222 -1214 1214
-1211 1211 -1405 1309 -112 56 -239 100 -361 125 -114 24 -320 33 -423 20z
m372 -2313 l42 -43 2 -273 1 -272 -27 -28 c-18 -19 -26 -38 -26 -64 0 -30 -4
-37 -19 -37 -26 0 -43 -24 -39 -57 3 -25 7 -28 38 -28 27 0 37 5 45 23 12 28
35 29 35 1 0 -24 -52 -79 -75 -79 -24 0 -72 27 -79 45 -19 50 12 125 51 125
26 0 14 48 -19 75 l-32 27 3 174 3 175 -99 -103 c-55 -57 -164 -172 -243 -255
-79 -84 -147 -153 -151 -153 -3 0 -14 9 -25 21 -26 29 -96 69 -145 83 l-41 12
361 337 c199 185 369 337 379 337 10 0 37 -19 60 -43z m-1090 -337 c57 -35 62
-61 62 -330 l0 -240 515 0 c569 0 567 0 605 -62 18 -30 20 -50 20 -213 0 -163
-2 -183 -20 -213 -28 -45 -73 -62 -168 -62 l-79 0 -5 44 c-12 104 -95 208
-196 246 -74 28 -176 25 -243 -8 -89 -44 -163 -142 -176 -237 l-6 -45 -571 0
-571 0 -12 61 c-20 108 -109 206 -216 239 -56 18 -163 9 -218 -18 -40 -19 -61
-22 -184 -22 l-138 0 7 101 c6 100 22 157 53 191 30 33 431 148 515 148 20 0
44 23 115 113 106 131 220 251 282 296 l44 31 276 0 c259 0 278 -1 309 -20z
m2892 -300 c195 -110 363 -209 374 -219 15 -15 24 -64 48 -256 l29 -238 -101
-168 c-55 -93 -109 -173 -120 -179 -29 -16 -57 -12 -109 15 -48 24 -49 24 -66
5 -33 -37 -103 -62 -168 -62 -161 0 -273 114 -265 270 l3 66 -290 164 c-285
162 -290 164 -315 148 -70 -44 -116 -60 -180 -59 -76 0 -123 17 -178 67 -57
52 -85 123 -80 204 l4 63 -68 40 c-101 59 -110 91 -52 170 44 60 87 97 141
120 84 36 123 34 321 -14 l183 -44 242 58 c133 32 253 56 267 54 14 -2 185
-94 380 -205z m-2627 -21 c66 -13 144 -54 195 -103 38 -36 72 -83 72 -101 0
-3 -99 -5 -220 -5 l-220 0 0 109 c0 96 2 110 18 114 20 6 87 0 155 -14z
m-1318 -546 c65 -22 136 -93 158 -158 25 -71 22 -159 -7 -220 -120 -253 -494
-184 -514 94 -6 94 16 157 77 220 75 77 180 100 286 64z m1808 -16 c91 -54
136 -134 137 -242 0 -119 -58 -209 -165 -256 -140 -62 -312 15 -361 163 -20
62 -15 157 11 213 26 54 96 120 148 139 65 24 173 16 230 -17z m-2133 -23 c0
-3 -11 -20 -24 -37 -27 -36 -56 -115 -56 -153 0 -31 -18 -38 -75 -30 -65 10
-102 50 -110 121 -4 30 -4 66 -1 80 l6 25 130 0 c72 0 130 -3 130 -6z"/>
<path d="M3687 4512 l-37 -38 0 -122 0 -122 40 0 40 0 0 160 c0 88 -1 160 -3
160 -2 0 -20 -17 -40 -38z"/>
<path d="M4324 3860 c-56 -22 -69 -90 -28 -139 36 -43 93 -44 135 -2 16 16 29
39 29 50 0 70 -71 118 -136 91z"/>
<path d="M5339 3251 c-60 -61 -21 -151 66 -151 39 0 65 18 81 55 38 92 -76
167 -147 96z"/>
<path d="M1434 3315 c-85 -44 -84 -169 3 -210 73 -35 163 23 163 105 0 81 -95
141 -166 105z"/>
<path d="M3204 3316 c-44 -20 -64 -53 -64 -107 0 -58 26 -94 80 -110 53 -16
107 10 134 65 17 36 18 43 5 79 -24 68 -93 101 -155 73z"/>
</g>
</svg>
