<?xml version="1.0" encoding="utf-8" ?>
<svg xmlns="http://www.w3.org/2000/svg" xmlns:xlink="http://www.w3.org/1999/xlink" width="531" height="233">
	<path fill="white" transform="translate(2.00146 30.5953)" d="M149.78667 194.4375L149.78667 158.37128L171.5625 158.37128L171.5625 119.16688L149.78667 119.16688L149.78667 68.863281L107.16824 68.863281L107.16824 119.16688L46.66251 119.16688L118.05615 0L71.393639 0L0 127.19453L0 158.37128L107.16824 158.37128L107.16824 194.4375L149.78667 194.4375Z" fill-rule="evenodd"/>
	<path fill="white" transform="translate(356.564 30.5953)" d="M149.78667 194.4375L149.78667 158.37128L171.5625 158.37128L171.5625 119.16688L149.78667 119.16688L149.78667 68.863281L107.16824 68.863281L107.16824 119.16688L46.66251 119.16688L118.05615 0L71.393639 0L0 127.19453L0 158.37128L107.16824 158.37128L107.16824 194.4375L149.78667 194.4375Z" fill-rule="evenodd"/>
	<path fill="white" transform="translate(173.564 30.5953)" d="M91.577744 200.15625C147.86151 200.15625 183 153.75812 183 88.640625C183 23.523125 147.86151 0 91.577744 0C35.293968 0 0 23.523125 0 88.640625C0 153.75812 35.293968 200.15625 91.577744 200.15625ZM91.577744 160.2775C60.015293 160.2775 44.778252 134.39062 44.778252 94.359375C44.778252 54.328125 60.015293 34.16 91.577744 34.16C122.98471 34.16 138.22176 54.328125 138.22176 94.359375C138.22176 134.39062 122.98471 160.2775 91.577744 160.2775Z"/>
	<path transform="translate(-9.15527e-05 -7.62939e-06)" d="M265.14114 0C323.32822 0 357.78482 42.378529 357.78482 116.37656C357.78482 190.3746 323.32822 232.75313 265.14114 232.75313C206.91821 232.75313 172.34331 190.33334 172.34331 116.37656C172.34331 42.419781 206.91821 0 265.14114 0ZM265.14114 4.0031252C209.33026 4.0031252 176.34644 44.470833 176.34644 116.37656C176.34644 188.28229 209.33026 228.75 265.14114 228.75C320.91354 228.75 353.78168 188.32515 353.78168 116.37656C353.78168 44.427975 320.91354 4.0031252 265.14114 4.0031252ZM478.31488 4.5749998L476.89343 7.4609613L407.55817 148.22427L462.30374 148.22427L462.30554 82.349998L508.54666 82.349998L508.54556 148.22427L530.12811 148.23L530.12811 190.96812L508.54556 190.96622L508.54666 228.17813L462.30554 228.17813L462.30374 190.96622L356.09396 190.96812L356.09396 150.23157L356.29996 149.34717L427.0563 5.6921635L427.60654 4.5749998L478.31488 4.5749998ZM122.22092 4.5749998L120.79946 7.4609613L51.463032 148.22427L106.20863 148.22427L106.21159 82.349998L152.45271 82.349998L152.45044 148.22427L174.03416 148.23L174.03416 190.96812L152.45044 190.96622L152.45271 228.17813L106.21159 228.17813L106.20863 190.96622L0 190.96812L0 150.23157L0.20598717 149.34717L70.962334 5.6921635L71.512581 4.5749998L122.22092 4.5749998ZM471.88266 8.5724058L430.09576 8.5724058L360.09253 150.69478L360.09253 186.96309L466.30869 186.965L466.30688 224.16928L504.54245 224.16928L504.54355 186.965L526.125 186.96309L526.125 152.2274L504.54355 152.23312L504.54245 86.347404L466.30688 86.347404L466.30869 152.23312L401.12445 152.23312L402.54593 149.34717L471.88266 8.5724058ZM115.78753 8.5724058L74.000626 8.5724058L4.0031252 150.68335L4.0031252 186.96309L110.21471 186.965L110.21175 224.16928L148.44731 224.16928L148.44958 186.965L170.02988 186.96309L170.02988 152.2274L148.44958 152.23312L148.44731 86.347404L110.21175 86.347404L110.21471 152.23312L45.030502 152.23312L46.451965 149.34717L115.78753 8.5724058ZM265.14114 39.040001C296.57599 39.040001 313.38867 67.791443 313.38867 116.37656C313.38867 164.96169 296.57599 193.71312 265.14114 193.71312C233.57532 193.71312 216.73946 164.99419 216.73946 116.37656C216.73946 67.758934 233.57532 39.040001 265.14114 39.040001ZM265.14114 43.043125C236.3573 43.043125 220.74257 69.679016 220.74257 116.37656C220.74257 163.07411 236.3573 189.71001 265.14114 189.71001C293.79111 189.71001 309.38556 163.04187 309.38556 116.37656C309.38556 69.71125 293.79111 43.043125 265.14114 43.043125Z"/>
</svg>
