<svg width="22" height="22" viewBox="0 0 22 22" fill="none" xmlns="http://www.w3.org/2000/svg">
<path fill-rule="evenodd" clip-rule="evenodd" d="M11 0.5C16.799 0.5 21.5 5.20101 21.5 11C21.5 16.2409 17.6603 20.5847 12.6406 21.3724V14.0352H15.0872L15.5527 11H12.6406V9.03037C12.6406 8.20001 13.0474 7.39062 14.3518 7.39062H15.6758V4.80664C15.6758 4.80664 15.6007 4.79382 15.4701 4.7746C15.0783 4.71692 14.187 4.60156 13.3254 4.60156C13.3066 4.60156 13.288 4.60165 13.2693 4.60183C10.9026 4.62435 9.35938 6.07572 9.35938 8.68672V11H6.69336V14.0352H9.35938V21.3724C4.3397 20.5847 0.5 16.2409 0.5 11C0.5 5.20101 5.20101 0.5 11 0.5Z" fill="white"/>
</svg>
