<svg width="18" height="18" viewBox="0 0 18 18" fill="none" xmlns="http://www.w3.org/2000/svg">
<path fill-rule="evenodd" clip-rule="evenodd" d="M17.002 0H1.00195C0.449663 0 0.00195312 0.44772 0.00195312 1V17C0.00195312 17.5523 0.449663 18 1.00195 18H17.002C17.5543 18 18.002 17.5523 18.002 17V1C18.002 0.44772 17.5543 0 17.002 0ZM14.1522 12.639C14.1522 12.7394 14.2024 12.8901 14.3029 12.9403L15.257 13.8944V13.9446H10.3358V13.8944L11.3401 12.9403C11.4405 12.8399 11.4907 12.7394 11.4907 12.5888V6.6635C11.4907 6.41243 11.4907 6.06093 11.541 5.75964L8.22667 14.045H8.17637L4.76169 6.41243C4.72821 6.27852 4.69474 6.23389 4.66126 6.18925C4.64452 6.16693 4.62778 6.14462 4.61104 6.11114V11.1326C4.56082 11.4841 4.61104 11.7854 4.76169 12.0866L6.11754 13.8944V13.9446H2.50195V13.8944L3.85779 12.0364C4.00844 11.7351 4.05866 11.3836 4.00844 11.0824V5.55879C4.00844 5.30771 3.95823 5.00643 3.75736 4.80557L2.85346 3.55021V3.5H6.36862L9.28117 9.9776L11.8423 3.5H15.257V3.55021L14.3029 4.65493C14.2024 4.75536 14.1522 4.906 14.1522 5.00643V12.639Z" fill="#FFC017"/>
</svg>
