<?xml version="1.0" encoding="UTF-8"?>
<svg width="48px" height="48px" viewBox="0 0 48 48" version="1.1" xmlns="http://www.w3.org/2000/svg" xmlns:xlink="http://www.w3.org/1999/xlink">
    <title>battery-saver-fill</title>
    <g id="battery-saver-fill" stroke="none" fill="none" fill-rule="nonzero">
        <path d="M28,4 C29.1046,4 30,4.89544 30,6 L30,8 L36,8 C37.1046,8 38,8.89544 38,10 L38,42 C38,43.1046 37.1046,44 36,44 L12,44 C10.89544,44 10,43.1046 10,42 L10,10 C10,8.89544 10.89544,8 12,8 L18,8 L18,6 C18,4.89544 18.89544,4 20,4 L28,4 Z M26,18 L22,18 L22,24 L16,24 L16,28 L22,28 L22,34 L26,34 L26,28 L32,28 L32,24 L26,24 L26,18 Z" id="Shape" fill="#000000"></path>
    </g>
</svg>