<?xml version="1.0" encoding="utf-8" ?>
<svg xmlns="http://www.w3.org/2000/svg" xmlns:xlink="http://www.w3.org/1999/xlink" width="48" height="48">
	<path transform="translate(4 2)" d="M10 0L10 4L2 4C0.89543998 4 0 4.8954401 0 6L0 38C0 39.104599 0.89543998 40 2 40L17.509199 40C15.31344 37.260799 14 33.783798 14 30C14 21.163401 21.163401 14 30 14C33.783798 14 37.260799 15.31344 40 17.50926L40 6C40 4.8954401 39.104599 4 38 4L30 4L30 0L26 0L26 4L14 4L14 0L10 0ZM42 30C42 36.627399 36.627399 42 30 42C23.372601 42 18 36.627399 18 30C18 23.372601 23.372601 18 30 18C36.627399 18 42 23.372601 42 30ZM28 22L28 30.8284L32.5858 35.4142L35.4142 32.5858L32 29.1716L32 22L28 22Z"/>
</svg>
