<?xml version="1.0" encoding="utf-8" ?>
<svg xmlns="http://www.w3.org/2000/svg" xmlns:xlink="http://www.w3.org/1999/xlink" width="48" height="48">
	<path transform="translate(4 8)" d="M34 32L6 32L6 34C6 35.104599 5.1045599 36 4 36L2 36C0.89543998 36 0 35.104599 0 34L0 16L5.02668 2.5955C5.6121402 1.0343 7.10462 0 8.7720003 0L31.228001 0C32.895401 0 34.387798 1.0343 34.9734 2.5955L40 16L40 34C40 35.104599 39.104599 36 38 36L36 36C34.895401 36 34 35.104599 34 34L34 32ZM4 16L36 16L31.422176 4L8.5778227 4L4 16ZM9 26C10.65686 26 12 24.656799 12 23C12 21.343201 10.65686 20 9 20C7.3431401 20 6 21.343201 6 23C6 24.656799 7.3431401 26 9 26ZM31 26C32.656799 26 34 24.656799 34 23C34 21.343201 32.656799 20 31 20C29.343201 20 28 21.343201 28 23C28 24.656799 29.343201 26 31 26Z"/>
</svg>
