<svg width="64" height="64" viewBox="0 0 64 64" fill="none" xmlns="http://www.w3.org/2000/svg">
<g clip-path="url(#clip0_28_14)">
<path opacity="0.2" d="M56 32C56 45.2548 45.2548 56 32 56C18.7452 56 8 45.2548 8 32C8 18.7452 18.7452 8 32 8C38.3652 8 44.4697 10.5286 48.9706 15.0294C53.4714 19.5303 56 25.6348 56 32Z" fill="#FFD833"/>
<path d="M43.415 24.585C43.7906 24.9601 44.0016 25.4692 44.0016 26C44.0016 26.5308 43.7906 27.0399 43.415 27.415L29.415 41.415C29.0399 41.7906 28.5308 42.0016 28 42.0016C27.4692 42.0016 26.9601 41.7906 26.585 41.415L20.585 35.415C19.8035 34.6335 19.8035 33.3665 20.585 32.585C21.3665 31.8035 22.6335 31.8035 23.415 32.585L28 37.1725L40.585 24.585C40.9601 24.2094 41.4692 23.9984 42 23.9984C42.5308 23.9984 43.0399 24.2094 43.415 24.585ZM58 32C58 46.3594 46.3594 58 32 58C17.6406 58 6 46.3594 6 32C6 17.6406 17.6406 6 32 6C46.3531 6.01516 57.9848 17.6469 58 32ZM54 32C54 19.8497 44.1503 10 32 10C19.8497 10 10 19.8497 10 32C10 44.1503 19.8497 54 32 54C44.1446 53.9862 53.9862 44.1446 54 32Z" fill="#FFD833"/>
</g>
<defs>
<clipPath id="clip0_28_14">
<rect width="64" height="64" fill="white"/>
</clipPath>
</defs>
</svg>
