<?xml version="1.0" encoding="utf-8" ?>
<svg xmlns="http://www.w3.org/2000/svg" xmlns:xlink="http://www.w3.org/1999/xlink" width="48" height="48">
	<path transform="translate(4 4)" d="M20 0C31.045601 0 40 8.9542999 40 20C40 31.045601 31.045601 40 20 40C8.9542999 40 0 31.045601 0 20C0 8.9542999 8.9542999 0 20 0ZM20 18C16 18 12.66666 18.666599 10 20C10 25.5228 14.47716 30 20 30C25.5228 30 30 25.5228 30 20C27.333401 18.666599 24 18 20 18ZM13.00001 10C10.648928 10 8.6692982 11.558136 8.0781393 13.677952L8 14L18 14C17.527775 11.717851 15.468639 10 13.00001 10ZM27 10C24.648872 10 22.669361 11.558136 22.078159 13.677952L22 14L32 14C31.527775 11.717851 29.468676 10 27 10Z"/>
</svg>
