<?xml version="1.0" encoding="UTF-8"?>
<svg width="32px" height="33px" viewBox="0 0 32 33" version="1.1" xmlns="http://www.w3.org/2000/svg" xmlns:xlink="http://www.w3.org/1999/xlink">
    <title>Error</title>
    <g id="Main" stroke="none" stroke-width="1" fill="none" fill-rule="evenodd">
        <g id="Error" transform="translate(-0.0046, 0.6265)">
            <rect id="Rectangle" x="0" y="0" width="32" height="32"></rect>
            <path d="M27.9999997,11.44375 L27.9999997,20.55625 C27.9999997,20.8215463 27.8949886,21.0760529 27.7075,21.26375 L21.26375,27.7075 C21.0760529,27.8949886 20.8215463,27.9999997 20.55625,27.9999997 L11.44375,27.9999997 C11.1784537,27.9999997 10.9239471,27.8949886 10.73625,27.7075 L4.2925,21.26375 C4.10501143,21.0760529 3.99999969,20.8215463 3.99999969,20.55625 L3.99999969,11.44375 C3.99999969,11.1784537 4.10501143,10.9239471 4.2925,10.73625 L10.73625,4.2925 C10.9239471,4.10501143 11.1784537,3.99999969 11.44375,3.99999969 L20.55625,3.99999969 C20.8215463,3.99999969 21.0760529,4.10501143 21.26375,4.2925 L27.7075,10.73625 C27.8949886,10.9239471 27.9999997,11.1784537 27.9999997,11.44375 Z" id="Path" fill="#F21838" fill-rule="nonzero" opacity="0.2"></path>
            <path d="M20.55625,2.99998987 C21.0869741,2.99830441 21.5962185,3.20947649 21.97,3.58625 L28.41375,10.03 C28.7905235,10.4037815 29.0016956,10.9130259 29.0000101,11.44375 L29.0000101,20.55625 C29.0016956,21.0869741 28.7905235,21.5962185 28.41375,21.97 L21.97,28.41375 C21.5962185,28.7905235 21.0869741,29.0016956 20.55625,29.0000101 L11.44375,29.0000101 C10.9130259,29.0016956 10.4037815,28.7905235 10.03,28.41375 L3.58625,21.97 C3.20947649,21.5962185 2.99830441,21.0869741 2.99998987,20.55625 L2.99998987,11.44375 C2.99830441,10.9130259 3.20947649,10.4037815 3.58625,10.03 L10.03,3.58625 C10.4037815,3.20947649 10.9130259,2.99830441 11.44375,2.99998987 L20.55625,2.99998987 Z M20.55625,5 L11.44375,5 L5,11.44375 L5,20.55625 L11.44375,27 L20.55625,27 L27,20.55625 L27,11.44375 L20.55625,5 Z M20.2641744,10.9335719 C20.6094583,11.0260905 20.8791558,11.295788 20.9716744,11.6410719 C21.0641929,11.9863559 20.9654768,12.3547695 20.7127114,12.6075349 L17.4189614,15.9000349 L20.7127114,19.1925349 C20.9654768,19.4453003 21.0641929,19.8137139 20.9716744,20.1589979 C20.8791558,20.5042818 20.6094583,20.7739793 20.2641744,20.8664979 C19.9188904,20.9590164 19.5504768,20.8603003 19.2977114,20.6075349 L16.0052114,17.3137849 L12.7127114,20.6075349 C12.459946,20.8603003 12.0915324,20.9590164 11.7462484,20.8664979 C11.4009645,20.7739793 11.131267,20.5042818 11.0387484,20.1589979 C10.9462299,19.8137139 11.044946,19.4453003 11.2977114,19.1925349 L14.5914614,15.9000349 L11.2977114,12.6075349 C10.9069699,12.2167934 10.9069699,11.5832763 11.2977114,11.1925349 C11.6884529,10.8017934 12.3219699,10.8017934 12.7127114,11.1925349 L16.0052114,14.4862849 L19.2977114,11.1925349 C19.5504768,10.9397695 19.9188904,10.8410534 20.2641744,10.9335719 Z" id="Combined-Shape" fill="#F21838" fill-rule="nonzero"></path>
        </g>
    </g>
</svg>