<?xml version="1.0" encoding="utf-8"?>
<svg width="32px" height="32px" viewBox="0 0 32 32" version="1.1" xmlns:xlink="http://www.w3.org/1999/xlink" xmlns="http://www.w3.org/2000/svg">
  <g id="icongaranty" fill-opacity="1">
    <path d="M-89 -458L-89 -458L-89 -426L-121 -426L-121 -458L-89 -458Z" id="icongaranty" fill="none" stroke="none" />
    <path d="M6.28701 25.713L2.14359 24L2.73182 19.5552L0 16L2.73182 12.4448L2.14359 8L6.28701 6.28701L8 2.14359L12.4448 2.73182L16 0L19.5552 2.73182L24 2.14359L25.713 6.28701L29.8564 8L29.2682 12.4448L32 16L29.2682 19.5552L29.8564 24L25.713 25.713L24 29.8564L19.5552 29.2682L16 32L12.4448 29.2682L8 29.8564L6.28701 25.713Z" id="Combined-Shape" fill="#069956" fill-rule="evenodd" stroke="none" />
    <path d="M14.0007 19.1709L23.1931 9.97852L24.6073 11.3927L14.0007 21.9993L7.63672 15.6354L9.05093 14.2212L14.0007 19.1709Z" id="Path" fill="#FFFFFF" fill-rule="evenodd" stroke="none" />
  </g>
</svg>