<?xml version="1.0" encoding="utf-8" ?>
<svg xmlns="http://www.w3.org/2000/svg" xmlns:xlink="http://www.w3.org/1999/xlink" width="48" height="48">
	<path transform="translate(2 8)" d="M0 2C0 0.89543998 0.89543998 0 2 0L42 0C43.104599 0 44 0.89543998 44 2L44 30C44 31.104601 43.104599 32 42 32L2 32C0.89543998 32 0 31.104601 0 30L0 2ZM24 8L24 12L36 12L36 8L24 8ZM34 16L24 16L24 20L34 20L34 16ZM19 12C19 9.2385798 16.761419 7 14 7C11.23858 7 9 9.2385798 9 12C9 14.7614 11.23858 17 14 17C16.761419 17 19 14.7614 19 12ZM14 19C10.134 19 7 22.134001 7 26L21 26C21 22.134001 17.865999 19 14 19Z"/>
</svg>
