<?xml version="1.0" encoding="UTF-8"?>
<svg width="48px" height="48px" viewBox="0 0 48 48" version="1.1" xmlns="http://www.w3.org/2000/svg" xmlns:xlink="http://www.w3.org/1999/xlink">
    <title>Group</title>
    <g id="SEO-🟥-☑️" stroke="none" stroke-width="1" fill="none" fill-rule="evenodd">
        <g id="https://new-dev.junkcarsus.com/services/we-buy-rvs" transform="translate(-120, -8040)" fill="#000000">
            <g id="Group" transform="translate(120, 8040)">
                <path d="M30.7024477,2.77624584 L45.2237843,17.2975107 C48.9254052,20.9992108 48.9254052,27.0007892 45.2237843,30.7024893 L30.7024477,45.2237542 C27.000788,48.9254153 20.999212,48.9254153 17.2975523,45.2237542 L2.77621573,30.7024893 C-0.925405243,27.0007892 -0.925405243,20.9992108 2.77621573,17.2975107 L17.2975523,2.77624584 C20.999212,-0.925415281 27.000788,-0.925415281 30.7024477,2.77624584 Z M9.89626299,23.8723209 C8.86606701,23.8723209 8.03092816,24.7204494 8.03092816,25.7666689 C8.03092816,26.8128885 8.86606701,27.6610169 9.89626299,27.6610169 C10.926459,27.6610169 11.7615978,26.8128885 11.7615978,25.7666689 C11.7615978,24.7204494 10.926459,23.8723209 9.89626299,23.8723209 Z M22.0458105,23.8723209 C21.0156145,23.8723209 20.1804757,24.7204494 20.1804757,25.7666689 C20.1804757,26.8128885 21.0156145,27.6610169 22.0458105,27.6610169 C23.0760065,27.6610169 23.9111453,26.8128885 23.9111453,25.7666689 C23.9111453,24.7204494 23.0760065,23.8723209 22.0458105,23.8723209 Z M34.7924956,18.7329027 L31.5039253,19.4943645 L29.0773273,18.9116754 C28.2875873,18.8574522 27.5328059,19.2330645 27.1229734,19.8842476 L26.9255703,20.1283059 C26.849325,20.2531345 26.8278237,20.4019764 26.8658016,20.5420517 C26.9037795,20.682127 26.9981218,20.8019473 27.1280513,20.8751242 L27.9678078,21.3492074 C27.6905876,22.1267818 28.021353,22.9844674 28.7588653,23.4004458 C29.4963776,23.8164242 30.4366263,23.6756275 31.0075613,23.0637169 L35.1016123,25.3731183 C34.8251024,26.1504027 35.1558914,27.007386 35.8929197,27.4231782 C36.629948,27.8389705 37.5695971,27.6987008 38.1407311,27.0876278 L38.6091667,27.3518209 C38.879905,27.5023041 39.2261951,27.4155501 39.3860843,27.1571844 L40.6028743,25.1601775 C40.6293698,25.1075145 40.6506224,25.0525599 40.666348,24.9960483 C40.6768156,24.9491682 40.6802357,24.9010875 40.6765038,24.8532742 L40.3178776,21.9245748 C40.3032063,21.7458661 40.1987134,21.5852913 40.0379588,21.4944221 L35.2368112,18.7865955 C35.1024799,18.7113174 34.9420305,18.6919281 34.7924956,18.7329027 Z M9.92576217,24.9762712 C10.3750786,24.9762712 10.7393215,25.3405141 10.7393215,25.7898305 C10.7393215,26.2391469 10.3750786,26.6033898 9.92576217,26.6033898 C9.47644576,26.6033898 9.11220285,26.2391469 9.11220285,25.7898305 C9.11220285,25.3405141 9.47644576,24.9762712 9.92576217,24.9762712 Z M22.0477961,24.9762712 C22.4971125,24.9762712 22.8613554,25.3405141 22.8613554,25.7898305 C22.8613554,26.2391469 22.4971125,26.6033898 22.0477961,26.6033898 C21.5984797,26.6033898 21.2342367,26.2391469 21.2342367,25.7898305 C21.2342367,25.3405141 21.5984797,24.9762712 22.0477961,24.9762712 Z M36.894712,25.2996997 C37.160265,25.3350461 37.3775014,25.5207139 37.4450837,25.7700916 C37.5126659,26.0194693 37.417278,26.2834219 37.2034173,26.4388192 C36.9895565,26.5942164 36.6993599,26.6104403 36.4682002,26.4799226 C36.1528672,26.301879 36.0471922,25.9119389 36.2320782,25.6086346 C36.3676117,25.3862926 36.6291591,25.2643533 36.894712,25.2996997 Z M8.36793199,24.2114092 L6.69099598,24.2120407 C6.64262789,24.2118722 6.59619296,24.2313106 6.56199135,24.2660442 C6.52778974,24.3007778 6.50864901,24.3479349 6.50881387,24.3970553 L6.50881387,24.9805145 C6.51769368,25.1934927 6.60957453,25.3941511 6.76421903,25.5382911 C6.91886354,25.6824311 7.12358614,25.7582288 7.33329294,25.7489884 L7.73433993,25.7489884 C7.73919417,25.1729182 7.96674038,24.6218509 8.36793199,24.2114092 Z M17.2506564,17.9152279 L13.926008,17.9152279 C13.4196828,17.9089316 11.7593714,19.7577634 10.9757679,20.9065904 C9.78829607,21.070111 8.62061554,21.3649291 7.49371173,21.7866438 C7.01432068,21.9438747 6.9222975,22.3934666 6.86820279,22.9017833 L6.83333325,23.2496776 C6.81417483,23.4819735 6.8031971,23.714928 6.80042896,23.9480949 L8.68939136,23.9480949 C9.04576192,23.7025167 9.46621831,23.5705921 9.89688477,23.5692253 C10.015293,23.5692914 10.1315172,23.5790335 10.2450806,23.6020606 C11.2690361,23.7728927 12.0291713,24.6582728 12.0563207,25.7117329 L17.2989002,25.7125745 L17.3465777,25.7107919 L19.885131,25.7104719 C19.9144616,24.5200403 20.8726248,23.5702222 22.0451887,23.5692253 C23.2179942,23.5698799 24.1765314,24.5197953 24.2058682,25.7104719 L25.1248565,25.7104719 C25.3661008,25.7109742 25.5976072,25.613873 25.768193,25.4406339 C25.9387788,25.2673948 26.0343929,25.0322876 26.0339002,24.787291 L26.0339002,22.9005204 C26.0339002,22.6556268 25.9383409,22.4207152 25.7678271,22.2475492 C25.5973133,22.0743832 25.3659995,21.9771738 25.1248565,21.9773415 L18.1675932,21.943322 L18.1677794,18.7676845 C18.1462773,18.2751083 17.7356921,17.8934735 17.2506564,17.9152279 Z M30.0181489,21.3624356 C30.3339277,21.5401143 30.440133,21.9301884 30.255392,22.2337889 C30.070651,22.5373893 29.6648889,22.639602 29.3489946,22.4621132 C29.1971045,22.3767051 29.0867909,22.2367318 29.0423774,22.0730569 C28.9979639,21.9093819 29.023098,21.7354472 29.1122378,21.5896048 C29.2965416,21.2867257 29.7023701,21.1847569 30.0181489,21.3624356 Z M18.7236492,20.158136 C18.6274808,20.158136 18.5315197,20.1619247 18.4357658,20.169502 L18.4357658,21.6742458 L21.4265194,21.6887691 C21.1125213,20.7889538 19.9995382,20.1587674 18.7236492,20.158136 Z M24.8668186,15.4576271 L24.8531394,15.4576271 C24.7781851,15.4607083 24.7068552,15.491209 24.6523051,15.5435042 L19.7781851,20.0691016 C20.3288698,20.1871828 20.8332791,20.4669139 21.2287939,20.8735681 L24.6117966,17.3223051 L24.6117966,19.2919322 L24.509296,19.6990723 L24.980339,20.1388475 L24.9683356,20.4552333 C24.7030856,20.493107 24.4956493,20.7205403 24.4875575,21.0013722 C24.478546,21.3141235 24.7201594,21.5754427 25.0280778,21.585977 C25.3359963,21.5965112 25.5943789,21.3522974 25.6061129,21.0396392 C25.608345,20.9827946 25.5647786,20.9348754 25.5088046,20.9326086 C25.4528306,20.9303418 25.4056453,20.9745858 25.4034132,21.0314304 C25.3808495,21.2087173 25.2255242,21.3370063 25.0500176,21.323313 C24.8745109,21.3096197 24.7403046,21.158741 24.7446719,20.9800343 C24.74897,20.8041553 24.8860092,20.6619592 25.0580832,20.6528944 L25.1634068,20.6576124 L25.1837288,20.1136271 L25.6334712,19.6984408 L25.5132203,19.227661 L25.5139772,16.3796941 C25.5467909,16.3421035 25.5680793,16.2951145 25.5745224,16.2445603 C25.5830487,16.1776615 25.5648703,16.1100787 25.5240382,16.0568725 L25.0191542,15.5258236 C24.9790868,15.4837705 24.9244155,15.4592956 24.8668186,15.4576271 Z M25.3610847,16.5355932 L25.3610847,18.8534237 L24.7639322,18.8534237 L24.7639322,17.1620339 L25.3610847,16.5355932 Z" id="Combined-Shape"></path>
            </g>
        </g>
    </g>
</svg>