<?xml version="1.0" encoding="UTF-8"?>
<svg width="48px" height="48px" viewBox="0 0 48 48" version="1.1" xmlns="http://www.w3.org/2000/svg" xmlns:xlink="http://www.w3.org/1999/xlink">
    <title>map-pin-user-fill</title>
    <g id="map-pin-user-fill" stroke="none" fill="none" fill-rule="nonzero">
        <path d="M34.1678,31.624 C39.3654,26.1382 39.2758,17.4769 33.8994,12.1005 C28.4322,6.63316 19.56784,6.63316 14.1005,12.1005 C8.7241,17.4769 8.63468,26.1382 13.83224,31.624 C15.95526,28.2456 19.7154,25.999995 24.0000007,25.999995 C28.2846,25.999995 32.0448,28.2456 34.1678,31.624 Z M24,47.4558 L11.27208,34.728 C4.24264,27.6984 4.24264,16.30152 11.27208,9.27208 C18.30152,2.24264 29.6984,2.24264 36.728,9.27208 C43.7574,16.30152 43.7574,27.6984 36.728,34.728 L24,47.4558 Z M24,24 C20.6862,24 18,21.3138 18,18 C18,14.6863 20.6862,12 24,12 C27.3138,12 30,14.6863 30,18 C30,21.3138 27.3138,24 24,24 Z" id="Shape" fill="#000000"></path>
    </g>
</svg>