<?xml version="1.0" encoding="utf-8" ?>
<svg xmlns="http://www.w3.org/2000/svg" xmlns:xlink="http://www.w3.org/1999/xlink" width="48" height="48">
	<path transform="translate(2.36328 2.7871)" d="M6.67766 9.0820398L0.42403999 2.82844L3.25248 0L42.850521 39.5979L40.022121 42.426498L33.402119 35.806499C29.999519 37.963902 25.964319 39.213299 21.63732 39.213299C10.85296 39.213299 1.8810199 31.453699 0 21.213301C0.87335998 16.45854 3.2753601 12.2387 6.67766 9.0820398ZM27.152121 29.556499L24.224119 26.6285C23.44072 27.0033 22.56352 27.213301 21.63732 27.213301C18.323521 27.213301 15.63724 24.526899 15.63724 21.213301C15.63724 20.2869 15.84716 19.4097 16.221979 18.626301L13.29404 15.69844C12.247 17.279301 11.63724 19.1751 11.63724 21.213301C11.63724 26.736099 16.114401 31.213301 21.63732 31.213301C23.67532 31.213301 25.571119 30.6035 27.152121 29.556499ZM13.58564 4.7332001C16.07926 3.75208 18.795321 3.2132199 21.63732 3.2132199C32.42152 3.2132199 41.39352 10.97274 43.274521 21.213301C42.65012 24.612499 41.24432 27.738501 39.25032 30.3979L31.53072 22.678301C31.60092 22.2001 31.63732 21.710899 31.63732 21.213301C31.63732 15.69036 27.16012 11.21322 21.63732 11.21322C21.139521 11.21322 20.65032 11.24956 20.172119 11.31976L13.58564 4.7332001Z"/>
</svg>
