<svg width="54" height="54" viewBox="0 0 54 54" fill="none" xmlns="http://www.w3.org/2000/svg">
<path d="M54 40.26V50.8683C54 52.4433 52.7823 53.7501 51.2115 53.8611C49.8993 53.9538 48.8289 54 48 54C21.4902 54 0 32.5098 0 6C0 5.17113 0.04635 4.10061 0.13905 2.7885C0.25011 1.21764 1.55682 0 3.13158 0H13.7403C14.5103 0 15.1553 0.58326 15.2326 1.3494C15.302 2.03721 15.3665 2.58942 15.4262 3.00606C16.0331 7.24416 17.2726 11.2781 19.0461 15.0091C19.3308 15.608 19.1451 16.3248 18.6056 16.7102L12.1306 21.3354C16.0726 30.5433 23.4567 37.9275 32.6646 41.8695L37.2813 35.4057C37.6716 34.8597 38.397 34.6719 39.003 34.9596C42.7338 36.7317 46.7673 37.9698 51.0048 38.5752C51.4188 38.6346 51.9675 38.6985 52.6506 38.7675C53.4168 38.8449 54 39.4899 54 40.26Z" fill="black"/>
</svg>
