<?xml version="1.0" encoding="UTF-8"?>
<svg width="48px" height="48px" viewBox="0 0 48 48" version="1.1" xmlns="http://www.w3.org/2000/svg" xmlns:xlink="http://www.w3.org/1999/xlink">
    <title>Transmission Failure </title>
    <g id="Transmission-Failure-" stroke="none" fill="none" fill-rule="evenodd" stroke-width="1">
        <g id="Group" transform="translate(4, 5.7391)" fill="#000000">
            <path d="M40,4.41582256 C40,1.97637232 38.005945,0 35.5474362,0 C33.0876889,0 31.0948724,1.97637232 31.0948724,4.41582256 C31.0948724,6.06546086 32.0175873,7.48785934 33.3700768,8.24573487 L33.3700768,13.8235513 C33.3700768,15.0788978 32.3396086,16.0996346 31.0738172,16.0996346 L23.8630171,16.0996346 C23.4592519,15.383522 22.8684667,14.7976118 22.1463958,14.3971784 L22.1463958,8.25678978 C23.5100322,7.5013709 24.4426554,6.07405913 24.4426554,4.41582256 C24.4426554,1.97637232 22.4486004,0 19.9900917,0 C17.5303443,0 15.5362893,1.97637232 15.5362893,4.41582256 C15.5362893,6.07405913 16.4701511,7.50259922 17.8337875,8.25678978 L17.8337875,14.3971784 C17.1117166,14.7976118 16.5196928,15.383522 16.1159277,16.0996346 L8.90636611,16.0996346 C7.63933614,16.0996346 6.61010651,15.0788978 6.61010651,13.8235513 L6.61010651,8.25678978 C7.97250433,7.5013709 8.90512757,6.07405913 8.90512757,4.41582256 C8.90512757,1.97637232 6.91231112,0 4.45256378,0 C1.99405499,0 0,1.97637232 0,4.41582256 C0,6.07405913 0.933861779,7.50259922 2.29749814,8.25678978 L2.29749814,13.8235513 C2.29749814,15.5247792 2.9601189,17.0724667 4.03641318,18.2381456 C2.9601189,19.4050528 2.29749814,20.9527403 2.29749814,22.6551965 L2.29749814,28.2649494 C0.933861779,29.0191399 0,30.44768 0,32.1059166 C0,34.5453668 1.99405499,36.5217391 4.45256378,36.5217391 C6.91231112,36.5217391 8.90512757,34.5453668 8.90512757,32.1059166 C8.90512757,30.44768 7.97250433,29.0203682 6.61010651,28.2649494 L6.61010651,22.6551965 C6.61010651,21.3986216 7.63933614,20.3766566 8.90636611,20.3766566 L16.1159277,20.3766566 C16.5196928,21.0927691 17.1117166,21.6799077 17.8337875,22.0803411 L17.8337875,28.2649494 C16.4701511,29.0191399 15.5362893,30.44768 15.5362893,32.1059166 C15.5362893,34.5453668 17.5303443,36.5217391 19.9900917,36.5217391 C22.4486004,36.5217391 24.4426554,34.5453668 24.4426554,32.1059166 C24.4426554,30.44768 23.5100322,29.0203682 22.1463958,28.2649494 L22.1463958,22.0791128 C22.8684667,21.6799077 23.4592519,21.0927691 23.8630171,20.3766566 L31.0738172,20.3766566 C34.7176121,20.3766566 37.6826852,17.4372787 37.6826852,13.8235513 L37.6826852,8.26784469 C39.0574684,7.51611078 40,6.08265739 40,4.41582256 Z" id="Stroke-1" fill-rule="nonzero"></path>
            <path d="M34.0593262,27.0506289 L34.0593262,29.5269288 C34.0593262,29.5748334 34.0840971,29.5993999 34.1324003,29.5993999 L34.7900669,29.5993999 C35.0922715,29.5993999 35.3362646,29.4802525 35.5270002,29.2444144 C35.7164974,29.007348 35.8118652,28.6916689 35.8118652,28.2961488 C35.8118652,27.8908021 35.7164974,27.5702096 35.5270002,27.3331432 C35.3362646,27.0960768 35.0922715,26.9781578 34.7900669,26.9781578 L34.1324003,26.9781578 C34.0840971,26.9781578 34.0593262,27.0027242 34.0593262,27.0506289 M35.8254892,35.2165227 L34.7021303,31.2207867 C34.6823136,31.1814804 34.6575427,31.1630555 34.6290562,31.1630555 L34.1324003,31.1630555 C34.0840971,31.1630555 34.0593262,31.1863937 34.0593262,31.2355266 L34.0593262,35.1870429 C34.0593262,35.2361759 34.0432252,35.2767105 34.0085459,35.3111036 C33.9738667,35.3442683 33.9329948,35.3614649 33.8846916,35.3614649 L32.1767402,35.3614649 C32.1271984,35.3614649 32.0863265,35.3442683 32.0528858,35.3111036 C32.0182066,35.2767105 32.0021055,35.2361759 32.0021055,35.1870429 L32.0021055,25.4009906 C32.0021055,25.3518576 32.0182066,25.3113229 32.0528858,25.2769299 C32.0863265,25.2437652 32.1271984,25.2265686 32.1767402,25.2265686 L35.1244736,25.2265686 C35.6607629,25.2265686 36.1376022,25.3543143 36.5562299,25.6098055 C36.9748576,25.8665251 37.2981174,26.2264239 37.527248,26.6895018 C37.75514,27.1513514 37.869086,27.6832154 37.869086,28.2814089 C37.869086,28.8513509 37.7600941,29.3525069 37.5408719,29.7873334 C37.3228883,30.2221598 37.0182066,30.5599488 36.6293039,30.8007001 C36.6082487,30.8105267 36.5946247,30.8215816 36.5847164,30.8363215 C36.5760466,30.8510614 36.5760466,30.8682579 36.5847164,30.8879111 L37.928536,35.1587915 L37.9433986,35.2165227 C37.9433986,35.3123319 37.8889027,35.3614649 37.7823879,35.3614649 L36.0298489,35.3614649 C35.9233342,35.3614649 35.8552143,35.3123319 35.8254892,35.2165227" id="Fill-5"></path>
        </g>
    </g>
</svg>