<svg width="33" height="33" viewBox="0 0 33 33" fill="none" xmlns="http://www.w3.org/2000/svg">
<path opacity="0.2" d="M27.0212 27.7686H5.15622C3.57872 27.7686 2.58872 26.1173 3.35497 24.7798L14.2875 5.79608C15.075 4.42108 17.1025 4.42108 17.89 5.79608L28.8225 24.7798C29.5887 26.1173 28.5987 27.7686 27.0212 27.7686Z" fill="#FFD833"/>
<path d="M29.6887 24.2798L18.7575 5.29608C18.2016 4.34972 17.1862 3.76849 16.0887 3.76849C14.9912 3.76849 13.9758 4.34972 13.42 5.29608L2.48871 24.2798C1.95359 25.1957 1.95359 26.3289 2.48871 27.2448C3.03776 28.1975 4.05795 28.78 5.15746 28.7687H27.02C28.1186 28.7791 29.1376 28.1967 29.6862 27.2448C30.2221 26.3294 30.2231 25.1962 29.6887 24.2798ZM27.955 26.2436C27.7609 26.5745 27.4036 26.7752 27.02 26.7687H5.15746C4.77387 26.7752 4.41649 26.5745 4.22246 26.2436C4.04666 25.9459 4.04666 25.5762 4.22246 25.2786L15.1537 6.29483C15.3515 5.96574 15.7073 5.76444 16.0912 5.76444C16.4751 5.76444 16.831 5.96574 17.0287 6.29483L27.96 25.2786C28.1342 25.5771 28.1323 25.9468 27.955 26.2436ZM15.0887 18.7686V13.7686C15.0887 13.2163 15.5364 12.7686 16.0887 12.7686C16.641 12.7686 17.0887 13.2163 17.0887 13.7686V18.7686C17.0887 19.3209 16.641 19.7686 16.0887 19.7686C15.5364 19.7686 15.0887 19.3209 15.0887 18.7686ZM17.5887 23.2686C17.5887 24.097 16.9171 24.7686 16.0887 24.7686C15.2603 24.7686 14.5887 24.097 14.5887 23.2686C14.5887 22.4401 15.2603 21.7686 16.0887 21.7686C16.9171 21.7686 17.5887 22.4401 17.5887 23.2686Z" fill="#FFD833"/>
</svg>
