<svg width="53" height="32" viewBox="0 0 53 32" fill="none" xmlns="http://www.w3.org/2000/svg">
<path fill-rule="evenodd" clip-rule="evenodd" d="M35.7658 24.6457L33.6069 22.2949H36.9265C37.1304 22.5402 37.366 22.8107 37.6176 23.0995C38.9264 24.602 40.67 26.6039 40.67 28.1667C40.67 30.1113 38.2197 31.7016 35.2199 31.7016C32.2148 31.7016 29.7697 30.1113 29.7697 28.1667C29.7697 25.7554 32.2148 24.6354 35.2199 24.6354C35.342 24.6354 35.4595 24.6384 35.5785 24.6414C35.6403 24.643 35.7024 24.6445 35.7658 24.6457ZM35.2199 29.9212C36.6491 29.9212 37.8151 29.1036 37.8151 28.0976C37.8151 27.0916 36.6491 26.274 35.2199 26.274C33.7906 26.274 32.6176 27.0916 32.6176 28.0976C32.6176 29.1036 33.7906 29.9212 35.2199 29.9212Z" fill="black"/>
<path d="M26.3446 28.6256C26.3446 30.5581 23.1081 30.5581 23.1081 28.6256V24.835H20.3221V28.8849C20.3221 32.8346 29.0653 32.8692 29.0653 28.8849V24.835H26.3446V28.6256Z" fill="black"/>
<path d="M41.3141 31.6757H44.3069V24.8359H41.3141V31.6757Z" fill="black"/>
<path fill-rule="evenodd" clip-rule="evenodd" d="M11.7474 23.6861L10.7792 22.5332H14.4486L20.9058 31.6754H17.535L16.6181 30.2632H10.4771L9.5991 31.6754H6.3714L11.7474 23.6861ZM13.4805 25.4078L11.6308 28.3981H15.4132L13.4805 25.4078Z" fill="black"/>
<path fill-rule="evenodd" clip-rule="evenodd" d="M37.3216 2.38652C38.9152 1.18 40.9186 0.474763 43.0792 0.500691C48.1743 0.573289 52.2747 4.69238 52.2076 9.67747C52.1351 14.6626 47.9252 18.6641 42.8301 18.6019C40.7684 18.5725 38.8622 17.8776 37.3411 16.7368C35.7458 17.9347 33.7424 18.6468 31.5817 18.6122C29.513 18.588 27.6156 17.8914 26.0945 16.7437C24.4974 17.9502 22.4958 18.6572 20.3334 18.6278C18.277 18.6019 16.3796 17.9105 14.8585 16.7731C13.272 17.9692 11.2739 18.6641 9.12565 18.6364C4.03058 18.5673 -0.0663199 14.4534 0.000813418 9.47004C0.0714801 4.48841 4.28145 0.474763 9.37651 0.540447C11.4329 0.573289 13.3232 1.25433 14.8443 2.3917C16.4396 1.20593 18.4307 0.500691 20.5772 0.535262C22.6477 0.562918 24.5522 1.25433 26.075 2.40208C27.6615 1.19902 29.6702 0.488591 31.8326 0.521433C33.8961 0.547361 35.7917 1.23705 37.3216 2.38652ZM37.334 15.3816C38.7774 16.7126 40.7154 17.5354 42.8442 17.5665C47.3581 17.6253 51.2924 14.0783 51.1546 9.66364C50.9744 4.3121 47.4641 1.73486 43.0651 1.53435C43.0326 1.53435 42.8896 1.27489 42.7753 1.06739C42.7155 0.958952 42.6636 0.864709 42.6393 0.829112C40.6571 0.903439 38.8321 1.60695 37.3746 2.75297L37.4488 3.8938C35.9648 2.50924 33.8943 1.57929 31.8185 1.55164H31.7796C31.6559 1.26816 31.5217 1.03654 31.3909 0.851583C29.4087 0.912081 27.5749 1.62078 26.128 2.77198L26.1899 3.84886C24.7306 2.48159 22.6265 1.59139 20.5648 1.56547C20.4294 1.26521 20.271 1.0414 20.1833 0.917521C20.168 0.895918 20.1548 0.877354 20.1443 0.861954C18.1798 0.929367 16.3654 1.62078 14.9168 2.74433L14.9821 3.87651C13.4805 2.42973 11.47 1.60695 9.36238 1.57238H9.32351C9.20338 1.2889 9.06381 1.05728 8.93308 0.868868C4.22315 1.03308 0.393013 4.80992 0.329413 9.47523C0.313513 10.5521 0.50608 11.5875 0.85588 12.5451C1.09968 12.6177 1.38235 12.673 1.69858 12.7007C2.92288 15.5441 5.79018 17.563 9.13801 17.6062C10.9647 17.6322 12.6643 17.0652 14.0423 16.0851C14.3532 15.8673 14.627 15.6461 14.8585 15.4352C16.3354 16.7817 18.3052 17.5682 20.3475 17.5941C22.4693 17.627 24.5645 16.8077 26.1015 15.4041C27.5361 16.7299 29.4653 17.5561 31.5976 17.5803C33.8219 17.6132 35.7458 16.7817 37.334 15.3816Z" fill="black"/>
<path fill-rule="evenodd" clip-rule="evenodd" d="M11.5382 9.46394C11.517 10.5408 11.7078 11.5779 12.0665 12.5407C12.3085 12.6116 12.5858 12.6617 12.9003 12.6876C13.3102 13.6349 13.9038 14.494 14.6281 15.2165L13.554 15.1957C12.2678 16.1326 10.7715 16.6339 9.15145 16.6149C8.73628 16.608 8.32642 16.5699 7.93245 16.4991C7.87388 16.5719 7.81495 16.644 7.7571 16.7147C7.68583 16.802 7.61618 16.8872 7.55085 16.9692C4.06522 16.2018 1.46822 13.1267 1.51415 9.48814C1.57422 5.32583 5.09342 1.97075 9.35462 2.02606C11.3439 2.05199 13.2307 2.83156 14.6334 4.16426C14.3702 4.16426 13.9108 4.17117 13.455 4.185C12.2749 5.64215 11.5647 7.47094 11.5382 9.46394ZM2.43635 9.50197C2.39218 13.1786 5.40965 16.2018 9.15852 16.2536C10.8651 16.2726 12.2749 15.602 13.1052 15.0661C11.888 13.5139 11.1761 11.5658 11.2061 9.46394C11.2326 7.44674 11.9392 5.59548 13.1052 4.09857C12.0311 3.37778 10.7397 2.94564 9.34225 2.92836C5.59338 2.88169 2.48935 5.83402 2.43635 9.50197Z" fill="black"/>
<path fill-rule="evenodd" clip-rule="evenodd" d="M16.5001 6.85205C16.5001 6.85205 16.228 7.05256 16.0831 7.42593C16.3216 8.13462 16.44 8.89691 16.4329 9.68858C16.4135 11.2045 15.8994 12.6997 14.9048 13.8613L14.8765 14.8223C14.6929 14.6649 14.5614 14.498 14.4339 14.3361C14.3738 14.2597 14.3145 14.1845 14.2511 14.1119C13.2105 12.933 12.6858 10.8173 12.7229 9.48288C12.7759 7.50717 13.5815 5.72505 14.8641 4.39062C15.5249 5.05265 16.2492 5.97396 16.5001 6.85205ZM13.6469 9.49498C13.6239 10.9314 14.0762 12.2693 14.8588 13.3703C15.6026 12.3177 16.046 11.0524 16.0637 9.68166C16.0831 8.24352 15.6291 6.90045 14.8518 5.80111C14.1062 6.85205 13.6646 8.12253 13.6469 9.49498Z" fill="black"/>
<path fill-rule="evenodd" clip-rule="evenodd" d="M27.7016 6.84018C27.7016 6.84018 27.4243 7.04069 27.2794 7.41405C27.5161 8.12794 27.6433 8.89195 27.6292 9.6767C27.6098 11.3292 26.9844 12.591 26.1523 13.8995L26.1275 14.7966C24.776 13.4103 23.9528 11.5262 23.981 9.471C24.0058 7.50221 24.8008 5.72009 26.0869 4.39258C26.7052 4.99756 27.4826 6.09172 27.7016 6.84018ZM24.9015 9.4831C24.882 10.904 25.3219 12.2315 26.0869 13.3274C26.8112 12.2799 27.2388 11.025 27.2617 9.66979C27.2794 8.25239 26.8377 6.92488 26.0798 5.82899C25.3555 6.87302 24.9209 8.12794 24.9015 9.4831Z" fill="black"/>
<path fill-rule="evenodd" clip-rule="evenodd" d="M34.0339 9.43961C34.0197 10.5148 34.2052 11.545 34.5586 12.5078C34.8059 12.5786 35.0797 12.6374 35.3977 12.6599C35.8005 13.5846 36.3747 14.4212 37.0761 15.1351L36.0903 15.1611C34.8377 15.9873 33.3608 16.6147 31.6082 16.5888C31.1948 16.5819 30.785 16.5422 30.3892 16.4713C30.349 16.5213 30.3086 16.5711 30.2685 16.6206C30.1783 16.7319 30.0896 16.8413 30.0076 16.9466C28.6367 16.6476 27.4124 15.989 26.4284 15.085C27.8064 13.6486 28.6173 11.6763 28.642 9.68852C28.6773 7.60737 27.8576 5.56943 26.3948 4.07771C27.7993 2.77094 29.7179 1.97927 31.8149 2.00347C33.8431 2.03113 35.668 2.83662 37.1114 4.16241L35.9525 4.15722C34.7794 5.61437 34.0604 7.44662 34.0339 9.43961ZM27.8187 15.0401C28.8999 15.7764 30.2037 16.2051 31.6171 16.2258C33.3413 16.2535 34.7653 15.5638 35.5938 15.028C34.3819 13.4757 33.677 11.526 33.7035 9.4327C33.73 7.42587 34.4278 5.58326 35.5815 4.09326C34.5091 3.36555 33.2035 2.92651 31.8008 2.90576C30.3168 2.88675 28.9388 3.33098 27.8064 4.11055C29.0183 5.66623 29.7303 7.60564 29.6967 9.70235C29.6702 11.7092 28.9724 13.5518 27.8187 15.0401Z" fill="black"/>
<path fill-rule="evenodd" clip-rule="evenodd" d="M43.0612 1.98312C46.4938 1.98312 49.5908 4.6779 50.2056 6.81437C50.2056 6.81437 49.9265 7.01315 49.7816 7.38824C50.0201 8.09694 50.1438 8.85576 50.1385 9.65089C50.0784 13.5176 46.8118 16.6255 42.8563 16.5754C42.4429 16.5702 42.0348 16.5287 41.639 16.4527C41.5653 16.5457 41.4926 16.6356 41.4225 16.7223C41.3649 16.7936 41.309 16.8627 41.2557 16.9297C39.8865 16.6255 38.6587 15.9704 37.6711 15.075C39.0809 13.687 39.8812 11.611 39.9077 9.67681C39.9324 7.60085 39.1074 5.55599 37.6446 4.0539C39.0615 2.75232 40.973 1.95546 43.0612 1.98312ZM39.0738 15.0283C40.155 15.763 41.4606 16.1968 42.8616 16.2124C46.614 16.2591 49.718 13.3136 49.7692 9.64397C49.8152 5.9743 46.7977 2.93727 43.0471 2.88541C41.5666 2.86813 40.1886 3.321 39.0615 4.09366C40.2734 5.64761 40.9854 7.59393 40.9589 9.68891C40.9271 11.694 40.2345 13.5453 39.0738 15.0283Z" fill="black"/>
<path fill-rule="evenodd" clip-rule="evenodd" d="M38.9563 6.82734C38.9563 6.82734 38.686 7.02612 38.5341 7.40121C38.7779 8.11509 38.8963 8.87738 38.8892 9.66213C38.8627 11.4045 38.4104 12.5782 37.4211 13.8988L37.4087 14.8218C36.0307 13.4286 35.1933 11.5341 35.2198 9.44952C35.2463 7.48245 36.0449 5.70379 37.3204 4.37109C37.9811 5.02794 38.7108 5.96307 38.9563 6.82734ZM36.1438 9.46335C36.1226 10.8894 36.5643 12.2238 37.3345 13.3197C38.0677 12.2757 38.5041 11.0156 38.5235 9.65694C38.5394 8.23091 38.0924 6.89994 37.3204 5.8075C36.5978 6.85154 36.1632 8.10991 36.1438 9.46335Z" fill="black"/>
<path fill-rule="evenodd" clip-rule="evenodd" d="M22.7906 9.44999C22.7818 10.5269 22.962 11.564 23.3189 12.5268C23.5627 12.5976 23.84 12.6478 24.158 12.6737C24.5573 13.6019 25.1368 14.4454 25.8417 15.1576L24.8011 15.1628C23.6969 16.1429 21.8101 16.6217 20.3597 16.5992C19.9463 16.5957 19.5382 16.5543 19.1425 16.4817C19.0029 16.6476 18.8775 16.8066 18.7591 16.9622C17.4412 16.6735 16.1656 16.0219 15.1816 15.1178C16.5932 13.6728 17.4217 11.7213 17.4482 9.70236C17.473 7.51577 16.6391 5.60055 15.1816 4.07772C16.5843 2.77786 18.4764 1.98965 20.5576 2.01731C22.621 2.04323 24.3541 2.81762 25.824 4.14686L24.7181 4.17106C23.5379 5.62821 22.8189 7.46045 22.7906 9.44999ZM16.6055 15.0746C17.6797 15.8006 18.9693 16.2224 20.3668 16.2397C22.0928 16.2673 23.5238 15.5742 24.3488 15.0349C23.1387 13.4792 22.4373 11.5398 22.462 9.44999C22.4903 7.44662 23.1917 5.60055 24.3418 4.11056C23.2588 3.37766 21.9568 2.93861 20.5452 2.9196C19.0842 2.90059 17.7185 3.33963 16.5932 4.09846C17.8122 5.65414 18.5259 7.60738 18.5029 9.71619C18.4764 11.7282 17.7715 13.5846 16.6055 15.0746Z" fill="black"/>
</svg>
