<svg width="83" height="26" viewBox="0 0 83 26" fill="none" xmlns="http://www.w3.org/2000/svg">
<path fill-rule="evenodd" clip-rule="evenodd" d="M41.2462 0C44.1768 0 46.9158 0.687208 49.2444 1.87951C51.4543 1.10722 55.6873 1.34967 56.8775 1.46418C58.3965 1.61086 61.5082 1.68397 63.9687 1.5373C64.5257 1.50429 65.4946 1.49 66.6702 1.48765L67.2743 1.48743C70.1225 1.49073 73.8834 1.55112 76.0667 1.58619C76.8294 1.59844 77.3996 1.60759 77.6711 1.61014L77.7899 1.61086C78.2552 1.61086 79.178 1.50572 80.0345 1.40814C80.776 1.32366 81.4678 1.24484 81.7698 1.24484C82.4206 1.24484 83 1.8302 83 2.56178C83 3.15673 82.1864 3.60662 81.4933 3.98985C81.3341 4.07786 81.1813 4.16235 81.0462 4.24428C81.3355 5.48809 79.9602 6.43901 78.7304 6.80503C78.7304 7.68283 77.0663 8.99976 75.8361 9.14599C76.1253 10.2436 73.7377 11.1945 72.3628 11.1945C72.3628 12.8039 69.9751 13.0232 68.6003 13.0232C68.311 14.7057 65.9952 14.5595 64.403 14.3402C64.1133 16.0962 61.4359 15.4373 60.3508 15.1449C59.9567 16.226 59.0372 16.1119 58.0693 15.8702L57.7919 15.7986L57.7138 15.7779C57.5546 15.7359 57.3957 15.6939 57.2391 15.6566C56.9294 16.0638 56.4739 16.2431 55.9973 16.2862C54.8138 19.7967 51.8828 22.6936 48.04 24.2835C47.9759 24.5602 47.7891 24.7789 47.4956 24.9149C46.9733 25.1573 46.5094 25.0561 46.1787 24.5899C46.1805 25.0531 45.931 25.3843 45.4891 25.518C44.9314 25.6871 44.481 25.5149 44.2194 24.9906C44.1828 25.5215 43.8708 25.8541 43.3721 25.917C42.8214 25.9867 42.418 25.7672 42.2323 25.2609C42.1079 25.7475 41.7574 26.0114 41.2709 25.9996C40.7443 25.9861 40.3874 25.7358 40.259 25.2592C40.0755 25.7669 39.6719 25.9868 39.1208 25.917C38.6222 25.8541 38.3101 25.522 38.2721 24.9914C38.0116 25.515 37.5617 25.687 37.0034 25.518C36.5616 25.3842 36.3121 25.053 36.3126 24.5897C35.9834 25.0561 35.5192 25.1573 34.9969 24.9149C34.7038 24.7791 34.517 24.5607 34.4531 24.2849L34.4936 24.3014C30.5865 22.6964 27.6152 19.7418 26.4537 16.164C26.1874 16.065 25.9474 15.9023 25.7605 15.6566C25.6037 15.6939 25.4445 15.736 25.2851 15.7781C24.1939 16.0663 23.0908 16.3577 22.6488 15.1449C21.5632 15.4373 18.8858 16.0962 18.5966 14.3402C17.0048 14.5595 14.689 14.7057 14.3997 13.0232C13.0249 13.0232 10.6372 12.8039 10.6372 11.1945C9.26235 11.1945 6.87422 10.2436 7.16392 9.14599C5.9337 8.99976 4.26916 7.68283 4.26916 6.80503C3.03939 6.43901 1.6641 5.48809 1.9538 4.24428C1.81833 4.16206 1.66511 4.07729 1.50553 3.989C0.812709 3.60568 0 3.15603 0 2.56178C0 1.8302 0.578952 1.24484 1.23022 1.24484C1.53248 1.24484 2.22446 1.32369 2.96609 1.40819L2.9661 1.40819L2.99712 1.41172L3.56522 1.47579C4.22517 1.5488 4.85263 1.61086 5.21013 1.61086L5.32893 1.61014C5.60037 1.60759 6.17053 1.59844 6.93324 1.58619H6.93325L6.93334 1.58619C9.04646 1.55225 12.6374 1.49458 15.4484 1.48792L16.3298 1.48765C17.5054 1.49 18.4743 1.50429 19.0313 1.5373C21.4918 1.68397 24.6035 1.61086 26.1229 1.46418C27.2591 1.35451 31.17 1.12868 33.4467 1.78181C35.7307 0.64921 38.398 0 41.2462 0ZM41.8467 21.0682L41.5556 21.0768C41.4528 21.0789 41.3497 21.08 41.2462 21.08C41.0461 21.08 40.8472 21.076 40.6496 21.0681L40.6432 21.0994L40.412 24.075L40.3651 24.7494L40.3634 24.769C40.3438 25.4807 40.6759 25.828 41.2747 25.8434C41.8373 25.857 42.1784 25.4488 42.1256 24.6704L42.128 24.756L42.084 24.137L41.8495 21.0961C41.8492 21.0868 41.8482 21.0775 41.8467 21.0682ZM43.0685 20.968L43.2157 20.9477C43.2196 20.9587 43.2227 20.9699 43.2234 20.9834C43.2227 21.0221 43.2272 21.06 43.2375 21.0964L43.515 22.257L44.0217 24.474C44.1883 25.2364 43.9108 25.6915 43.3527 25.7619C42.7334 25.8404 42.3471 25.5175 42.2851 24.7446C42.2842 24.7165 42.2827 24.6879 42.2808 24.659L42.24 24.137L42.0328 21.165C42.0289 21.1305 42.0335 21.0943 42.0481 21.0585C42.3929 21.04 42.7332 21.0096 43.0685 20.968ZM39.2806 20.9495L39.2693 20.984C39.2697 21.0214 39.2653 21.0581 39.2554 21.0933L38.977 22.253L38.4709 24.4733C38.3153 25.1856 38.5467 25.6295 39.0323 25.7427L39.1402 25.7619C39.7615 25.8406 40.1482 25.5155 40.2099 24.7377L40.208 24.743L40.2118 24.6582L40.252 24.122L40.46 21.1618C40.4637 21.1284 40.4593 21.0933 40.4484 21.0577C40.051 21.0374 39.6624 21.0008 39.2806 20.9495ZM43.3863 20.9252L43.6559 20.8827C43.9572 20.8325 44.2538 20.7731 44.5453 20.7049L45.683 23.473L45.9593 24.1743C46.1441 24.7957 45.9352 25.2198 45.4442 25.3683L45.3265 25.3988C44.7876 25.5138 44.3972 25.2439 44.2213 24.537L43.674 22.253L43.38 20.97C43.3811 20.9553 43.3832 20.9404 43.3863 20.9252ZM37.9462 20.7047L36.799 23.497L36.5357 24.1674C36.3609 24.747 36.5274 25.1559 36.9451 25.3313L37.0483 25.3683C37.6486 25.5501 38.0827 25.2947 38.271 24.5377L38.83 22.197L39.1125 20.9668C39.1114 20.953 39.1094 20.939 39.1065 20.9248C38.7107 20.8668 38.3241 20.7931 37.9462 20.7047ZM44.7824 20.6471L44.7952 20.644C45.1783 20.5468 45.5518 20.4343 45.9147 20.3075L47.6847 23.3405C48.0712 24.0166 47.9422 24.5358 47.4304 24.773C46.8613 25.0371 46.3963 24.8452 46.1048 24.1223L46.0912 24.0754C46.0755 24.0267 46.0575 23.9772 46.0374 23.9268L45.823 23.404L44.8007 20.7928C44.7821 20.7503 44.777 20.7004 44.7824 20.6471ZM36.578 20.3076L34.8081 23.3399C34.4213 24.0166 34.5502 24.5358 35.0621 24.773C35.6312 25.0371 36.0966 24.8451 36.3874 24.123C36.4067 24.057 36.4293 23.9923 36.4558 23.9261L36.643 23.467L37.6929 20.7898C37.7111 20.7486 37.7161 20.6999 37.7109 20.6478C37.3221 20.5492 36.9446 20.4357 36.578 20.3076ZM26.6863 16.3654L26.6383 16.2236C26.8726 16.2851 27.121 16.3045 27.3651 16.294C28.5101 19.4022 31.1444 21.9736 34.5797 23.4433C34.4699 23.6821 34.4214 23.9051 34.4299 24.1048C30.7151 22.5443 27.8755 19.7481 26.6863 16.3654ZM34.5797 23.4433L34.5801 23.4425L34.6512 23.4736L34.5797 23.4433ZM55.1466 16.2373L55.1019 16.3633C53.9433 19.4401 51.3226 21.9841 47.9117 23.443C48.0226 23.6818 48.0712 23.9049 48.0632 24.1046L47.9836 24.1378L48.0632 24.105L48.0632 24.1046C51.8032 22.5339 54.6564 19.7101 55.8309 16.2958C55.5995 16.3021 55.3668 16.2791 55.1466 16.2373ZM51.3049 16.242C51.9562 16.6076 53.7654 17.1198 54.272 15.9491C54.4655 16.047 54.7159 16.1396 54.9948 16.2036C53.8631 19.3105 51.2207 21.8807 47.7693 23.3339L47.8419 23.3026L47.8303 23.2817L47.8192 23.2621L46.0641 20.2542C48.374 19.4151 50.2349 17.9913 51.3049 16.242ZM28.7276 15.9491C28.427 16.1011 27.9891 16.2406 27.5279 16.2834C28.6663 19.3322 31.2641 21.8571 34.6509 23.3033L34.6736 23.2615L36.4281 20.2542C34.2211 19.4523 32.4239 18.1167 31.336 16.4713L31.3032 16.4212C30.4979 16.7284 29.1535 16.9325 28.7276 15.9491ZM36.0725 8.3043C37.1576 7.27982 38.9668 6.73147 41.1375 6.73147C44.8282 6.73147 46.0944 8.56019 46.0944 9.76746C46.1125 11.0108 44.8464 11.9987 44.6294 12.108C44.4036 12.2221 44.3584 12.5105 44.6476 12.5837C45.7328 12.9492 46.7097 14.0103 46.7097 15.0708C46.7097 17.558 44.2133 18.4363 41.5359 18.5094C38.8586 18.5825 37.1217 17.8144 36.1084 17.0097C36.3981 16.6441 36.5787 16.3147 36.6151 15.9125V9.21866C36.6151 8.85309 36.3258 8.52364 36.0725 8.3043ZM41.4996 13.0691C42.5452 13.0691 43.393 13.9492 43.393 15.0347C43.393 16.1203 42.5448 17.0003 41.4996 17.0003C40.4543 17.0003 39.6065 16.1203 39.6065 15.0347C39.6065 13.9492 40.4539 13.0691 41.4996 13.0691ZM30.1869 13.9896L30.2856 13.8725C30.3828 14.437 30.5559 14.9837 30.7978 15.5078C30.335 16.1008 29.9515 15.95 29.712 15.8559L29.6836 15.8448L29.6685 15.839C29.3788 15.7293 29.0173 15.3633 29.3065 14.9977C29.4384 14.8313 29.6078 14.6419 29.7976 14.4298L29.7976 14.4298C29.9204 14.2926 30.0517 14.1458 30.1869 13.9896ZM52.4624 13.5711L52.1032 14.3612C52.0465 14.5842 51.9778 14.8041 51.8977 15.0204L51.8475 14.9246C52.4673 16.1779 52.9886 15.9732 53.2873 15.856C53.3024 15.85 53.317 15.8443 53.331 15.839C53.6203 15.7293 53.9819 15.3633 53.6926 14.9977C53.5602 14.8304 53.3899 14.64 53.199 14.4266L53.1988 14.4264L53.1987 14.4263L53.1987 14.4263L53.1985 14.426L53.1984 14.426C52.9724 14.1733 52.7174 13.8883 52.4624 13.5711ZM53.2623 12.8762C53.4811 12.8143 53.7141 12.7484 53.91 12.6572C54.0657 12.8146 54.2423 12.9984 54.4292 13.193L54.4293 13.1931C54.9376 13.7222 55.5225 14.3309 55.972 14.7057C56.3695 15.1079 56.0807 15.8394 55.3931 15.5104C55.3896 15.5087 55.3861 15.507 55.3848 15.4982L55.3553 15.4833C55.3197 15.4653 55.2825 15.4464 55.2429 15.4309C54.5373 15.0247 53.4349 13.9693 53.1314 12.9136L53.1794 12.8998L53.2619 12.8763L53.2623 12.8762ZM29.0896 12.6572C28.9339 12.8146 28.7572 12.9985 28.5702 13.1931C28.062 13.7221 27.477 14.3309 27.0275 14.7057L26.9786 14.761C26.9722 14.7692 26.966 14.7775 26.96 14.7859C26.668 15.1967 26.9626 15.8185 27.6065 15.5104C28.2941 15.1814 29.5421 14.0477 29.8677 12.9136C29.825 12.9012 29.7814 12.8888 29.7371 12.8763C29.5182 12.8144 29.2852 12.7484 29.0896 12.6572ZM26.7446 12.5987C27.0184 12.4128 27.2667 12.2433 27.4614 12.1084C27.6784 12.2181 28.1491 12.3826 28.3296 12.4379C27.9447 13.0011 27.5313 13.4611 27.115 13.8332L26.9636 13.9646L26.9165 14.0039L26.8733 14.0393L26.8202 14.082C26.6211 14.2405 26.4227 14.3797 26.2277 14.5013L26.213 14.5097L26.1652 14.5397C25.4322 14.9846 24.753 15.1806 24.2774 15.2175C23.3369 15.2906 23.5898 14.7418 24.0605 14.4128C24.2023 14.3135 24.658 14.0066 25.2095 13.6352C25.4376 13.4816 25.6821 13.3169 25.9275 13.1514L26.08 13.0485C26.2842 12.9106 26.4866 12.7737 26.6779 12.6439L26.743 12.5998L26.741 12.695L26.7446 12.5987ZM55.5381 12.1084C55.3208 12.2181 54.8505 12.3826 54.6695 12.4379C54.9575 12.8592 55.2614 13.2227 55.5706 13.5349L55.5721 13.5174C55.6192 13.567 55.6676 13.6149 55.7162 13.6615L55.7152 13.6769C55.9181 13.8705 56.1225 14.0427 56.3254 14.1951L56.3278 14.1817C56.3744 14.2193 56.4224 14.2546 56.4703 14.2887L56.4694 14.3001C57.3388 14.9159 58.1685 15.1745 58.7222 15.2175C59.6627 15.2906 59.4098 14.7418 58.9391 14.4128C58.7973 14.3135 58.3416 14.0067 57.7917 13.6363L57.7908 13.6357L57.7906 13.6356L57.7898 13.635L57.7893 13.6347C57.0238 13.1192 56.0765 12.4812 55.5381 12.1084ZM56.8781 11.3133C56.9992 11.2407 57.1139 11.1719 57.2022 11.1209C57.7453 11.4865 61.2908 13.3518 62.919 13.8645C63.462 14.0473 63.2083 14.5595 62.6661 14.6326C62.1231 14.7057 60.7487 14.7057 59.1206 13.7178C58.2941 13.2228 57.1317 12.388 56.5301 11.8989L56.5313 11.886C56.497 11.8581 56.4647 11.8313 56.4344 11.8058L56.3635 11.745L56.3633 11.7597C56.3253 11.727 56.2914 11.6969 56.2622 11.6697L56.2678 11.6669C56.2913 11.6549 56.3178 11.6413 56.3492 11.6327L56.3861 11.6123L56.4997 11.5483L56.4989 11.5384C56.6166 11.47 56.7502 11.39 56.8769 11.314L56.8776 11.3136L56.8781 11.3133ZM25.7969 11.1209C25.2538 11.4865 21.7087 13.3518 20.0801 13.8645C19.5375 14.0473 19.7908 14.5595 20.3334 14.6326C20.876 14.7057 22.2508 14.7057 23.879 13.7178C24.8559 13.1325 26.3031 12.0719 26.7374 11.6697C26.6444 11.6225 26.5049 11.5419 26.3559 11.4536L26.1747 11.3455L26.0311 11.2594L25.9173 11.1916C25.8737 11.1657 25.8331 11.1418 25.7969 11.1209ZM16.4263 12.8766C18.3801 12.4374 23.4451 10.2792 24.2774 9.87712C24.3497 10.0234 25.0192 10.499 25.3084 10.6457C23.8972 12.0358 20.2252 13.2426 19.3206 13.4985C18.416 13.7548 16.8965 13.8645 16.2453 13.6447C15.594 13.4254 15.8833 13.0228 16.4263 12.8766ZM58.7217 9.87712C58.6494 10.0234 57.98 10.499 57.6903 10.6457C59.1015 12.0358 62.7735 13.2426 63.6781 13.4985C64.5827 13.7548 66.1021 13.8645 66.7534 13.6447C67.4051 13.4254 67.1159 13.0228 66.5728 12.8766C64.619 12.4374 59.554 10.2792 58.7217 9.87712ZM13.0496 11.2502C15.1978 10.7678 20.851 9.43316 22.6497 8.74342C23.2646 8.56019 23.4815 8.74342 23.5902 8.96276C23.6989 9.18255 23.7353 9.51156 23.3369 9.69434C22.9389 9.87757 17.2945 12.2551 14.6175 12.4013C13.6402 12.4013 12.8505 12.0384 12.4104 11.816C12.1891 11.7039 12.2001 11.6775 12.25 11.5571C12.2654 11.5199 12.2846 11.4738 12.3017 11.4134C12.3879 11.396 12.5325 11.365 12.7253 11.3224L13.0496 11.2502ZM59.4094 8.96276C59.3007 9.18255 59.2647 9.51156 59.6622 9.69434C60.0602 9.87757 65.7046 12.2551 68.382 12.4013C69.3585 12.4013 70.1486 12.0384 70.5891 11.816C70.8103 11.704 70.7993 11.6775 70.7493 11.5574C70.7338 11.5202 70.7146 11.4739 70.6974 11.4134C70.6113 11.396 70.4667 11.365 70.2739 11.3224L69.9496 11.2502C67.8018 10.7678 62.1485 9.43316 60.3499 8.74342C59.7346 8.56019 59.5176 8.74342 59.4094 8.96276ZM42.9716 9.98724C42.9716 8.95875 42.2151 8.12508 41.2826 8.12508C40.3501 8.12508 39.5941 8.95875 39.5941 9.98724C39.5941 11.0153 40.3501 11.8494 41.2826 11.8494C42.2151 11.8494 42.9716 11.0153 42.9716 9.98724ZM29.4711 10.9734C29.224 11.4147 29.4143 11.6644 29.661 11.7799C29.8482 11.8673 30.1444 11.7453 30.3181 11.5724C30.415 11.0737 30.5735 10.5903 30.7855 10.1256C30.7751 10.1058 30.7604 10.0877 30.7435 10.0706C30.4014 9.80178 29.7178 10.5316 29.4711 10.9734ZM52.445 11.1703C52.2654 10.8432 51.9893 10.34 52.2556 10.0706C52.5977 9.80178 53.2818 10.5316 53.5285 10.9734C53.7756 11.4147 53.5852 11.6644 53.3381 11.7799C53.091 11.8953 52.6545 11.6457 52.5595 11.396C52.5386 11.3409 52.4957 11.2626 52.445 11.1703ZM53.1549 9.48793C52.8555 9.82605 53.5846 10.6103 53.8741 10.9217L53.8741 10.9217C53.8969 10.9461 53.9169 10.9677 53.9335 10.9859L53.9562 11.0108C54.1817 11.2587 54.4821 11.5889 54.9596 11.2547C55.4148 10.936 55.0586 10.5322 54.7259 10.1968L54.5871 10.0577C54.543 10.0131 54.5018 9.97025 54.4659 9.92973C54.4135 9.89801 54.3472 9.85079 54.2717 9.79708C53.9356 9.55796 53.4186 9.19014 53.1549 9.48793ZM28.3392 10.1312L28.3392 10.1311C28.4108 10.0597 28.4785 9.99199 28.5337 9.92973C28.5858 9.89808 28.6519 9.85102 28.7271 9.79747C29.0629 9.55836 29.5803 9.18997 29.8442 9.48793C30.1437 9.82605 29.4145 10.6103 29.125 10.9217L29.125 10.9217C29.1022 10.9461 29.0822 10.9677 29.0656 10.9859L29.0426 11.0111C28.8172 11.259 28.5173 11.5887 28.0399 11.2547C27.5543 10.9149 27.9915 10.4783 28.3392 10.1312ZM54.5639 9.04256C54.2539 9.41864 54.8481 9.92402 55.227 10.2463L55.2711 10.2838L55.2658 10.2639C55.2921 10.287 55.3174 10.3086 55.3411 10.3292C55.3807 10.3635 55.4221 10.3937 55.4647 10.4201L55.4678 10.4323C56.1403 10.8257 57.0943 10.2828 56.122 9.65734C56.0504 9.61906 55.9482 9.5507 55.8293 9.47119C55.4109 9.19139 54.786 8.77352 54.5639 9.04256ZM27.5692 9.21353L27.5532 9.22386C27.9043 9.0123 28.2748 8.84822 28.4348 9.04256C28.7451 9.41865 28.151 9.92407 27.7721 10.2464C27.7377 10.2755 27.7052 10.3032 27.6752 10.3292C27.5157 10.4676 27.3266 10.5395 27.1457 10.5596C27.0938 10.5654 27.0426 10.5669 26.99 10.5644C26.4936 10.5386 26.157 10.1207 26.8776 9.65734C26.9489 9.61913 27.0509 9.55093 27.1695 9.47159C27.2186 9.4387 27.2707 9.40389 27.3246 9.36851L27.3503 9.35166C27.4214 9.30531 27.4954 9.25834 27.5692 9.21353ZM20.8769 7.38949C18.597 8.0114 10.1669 9.36489 8.90078 9.51111C8.90078 9.51111 8.43008 9.58467 8.86484 9.91324C9.29917 10.2427 10.9273 10.5717 12.3022 10.4986C13.677 10.4255 21.1302 8.66986 21.7815 8.45008C22.4327 8.23074 22.4327 7.79206 22.324 7.53571C22.2158 7.27982 21.7815 7.17015 20.8769 7.38949ZM61.2181 8.45008C60.5668 8.23074 60.5668 7.79206 60.6751 7.53571C60.7838 7.27982 61.2181 7.17015 62.1227 7.38949C63.0552 7.6439 65.0171 8.02076 67.0968 8.3873L67.7931 8.50892C70.586 8.99241 73.4081 9.43135 74.0988 9.51111C74.0988 9.51111 74.569 9.58467 74.1347 9.91324C73.7008 10.2427 72.0727 10.5717 70.6974 10.4986C70.094 10.4665 68.3189 10.1101 66.462 9.70176L65.8416 9.56409C63.6698 9.07814 61.5517 8.56265 61.2181 8.45008ZM26.988 8.36716C26.9214 8.39823 26.8344 8.4349 26.735 8.47677C26.0975 8.74543 24.9511 9.22847 25.4113 9.8263C25.6775 10.1718 26.1904 9.88381 26.3993 9.74962L26.434 9.726C26.4692 9.70345 26.5083 9.6767 26.5534 9.64473L26.5705 9.63262C26.9486 9.36268 27.7005 8.75724 27.4632 8.40505C27.3381 8.22004 27.1021 8.3092 26.988 8.36716ZM55.6127 8.3334L55.6475 8.31293C55.7719 8.26267 55.926 8.32369 56.0115 8.36716C56.0782 8.39831 56.1654 8.43507 56.2649 8.47707L56.2655 8.47729L56.2655 8.47731C56.9028 8.74607 58.0477 9.22886 57.5882 9.8263C57.322 10.1718 56.8092 9.88381 56.6002 9.74962C56.4029 9.62247 55.3753 8.91314 55.503 8.476L55.5133 8.49999C55.52 8.46675 55.533 8.43499 55.5532 8.40505C55.5675 8.38387 55.5833 8.36628 55.5993 8.3484L55.6127 8.3334ZM66.5005 1.82975C66.0547 1.82975 65.1048 1.87904 64.1055 1.93088L63.9408 1.93942L63.3069 1.97188C62.4686 2.014 61.6813 2.04909 61.2181 2.04909C60.0606 2.04909 57.3828 1.97598 56.4059 1.90286C55.429 1.82975 52.8603 1.79319 51.8475 1.90286C51.7722 1.91101 51.6902 1.91936 51.6026 1.92827L51.6025 1.92828L51.6024 1.92829C51.5362 1.93502 51.4669 1.94207 51.3951 1.94959L51.0439 1.98859C50.6606 2.03425 50.2354 2.09689 49.831 2.19443C49.7858 2.20811 49.7394 2.22091 49.6928 2.23375C49.6676 2.2407 49.6424 2.24765 49.6173 2.25477C49.3142 2.33505 49.0336 2.44091 48.7988 2.57647C48.8029 2.57788 48.8062 2.57954 48.8094 2.58121C48.7546 2.61206 48.7041 2.64442 48.6562 2.67839L48.6462 2.67354C48.435 2.82202 48.2751 3.00156 48.1932 3.2198C47.8112 4.23845 48.5965 4.81825 49.1396 5.21918L49.2061 5.26831C49.2448 5.29706 49.2893 5.3288 49.3386 5.36389L49.4995 5.47953C50.1922 5.98511 51.4239 7.02411 51.4859 9.21866C51.5317 9.19938 51.5795 9.18091 51.6279 9.16223C52.0382 9.00378 52.4889 8.82972 52.1008 8.0114C52.046 7.90043 51.9454 7.73454 51.8242 7.53493L51.8242 7.53489L51.8238 7.53433L51.8237 7.53409L51.8237 7.53402C51.3855 6.81213 50.6801 5.65 50.907 5.04852C51.1967 4.28039 52.1367 3.65848 54.272 3.58536C54.8289 3.56629 55.4449 3.55717 56.0699 3.55085L56.696 3.5452L56.7846 3.54446C58.3165 3.53166 59.7877 3.51937 60.459 3.40213C60.944 3.3176 62.0715 3.05305 63.2258 2.78221C64.5674 2.46742 65.9451 2.14415 66.3923 2.0852C66.7538 2.04954 66.7538 1.86675 66.5005 1.82975ZM16.6073 2.0852C16.2453 2.04954 16.2453 1.86675 16.4986 1.82975C16.9444 1.82975 17.8944 1.87904 18.8937 1.93088C20.0025 1.98841 21.172 2.04909 21.781 2.04909C22.9389 2.04909 25.6163 1.97598 26.5932 1.90286C27.5701 1.82975 30.1388 1.79319 31.1521 1.90286C31.2274 1.91102 31.3095 1.91938 31.3972 1.92831L31.3974 1.92832L31.3974 1.92832C31.4634 1.93504 31.5326 1.94208 31.6044 1.94959L31.9555 1.98859C32.2473 2.02336 32.5635 2.06797 32.8764 2.13039C32.9312 2.14135 32.9857 2.15292 33.0395 2.16527L33.1132 2.18138C33.4392 2.25717 33.7537 2.35492 34.0241 2.48391C34.3969 2.66174 34.686 2.89894 34.8063 3.2198C35.1886 4.23899 34.4026 4.81887 33.8591 5.21981L33.7935 5.26831C33.7538 5.29777 33.708 5.33037 33.6573 5.36649C33.0502 5.79911 31.7341 6.73685 31.5371 8.84597C31.4653 8.94468 31.396 9.04459 31.3286 9.1454C30.931 8.99072 30.5243 8.80089 30.8987 8.0114C30.9536 7.90052 31.0542 7.7348 31.1752 7.5354C31.6135 6.81361 32.3197 5.65039 32.093 5.04852C31.8033 4.28039 30.8628 3.65848 28.728 3.58536C28.1711 3.56629 27.5551 3.55717 26.9301 3.55085L26.304 3.5452L26.2154 3.54446C24.6835 3.53166 23.2123 3.51937 22.541 3.40213C22.0555 3.31757 20.9272 3.05283 19.7724 2.78187L19.7723 2.78187C18.4311 2.46719 17.0542 2.14413 16.6073 2.0852ZM24.2352 8.09833C23.7601 8.38633 23.9881 9.49997 25.0329 9.00066C26.0772 8.50135 26.7991 7.96369 26.6473 7.59857C26.4956 7.2339 25.2991 7.52189 24.2352 8.09833ZM57.9662 9.00066C56.9214 8.50135 56.1996 7.96369 56.3509 7.59857C56.5031 7.2339 57.7005 7.52189 58.7639 8.09833C59.2386 8.38633 59.011 9.49997 57.9662 9.00066ZM41.2462 0.983286C38.8557 0.983286 36.6021 1.46474 34.6201 2.31613C34.8004 2.45301 34.9377 2.60712 35.0237 2.78112C35.672 4.09195 35.1735 4.53265 34.5974 5.04185L34.5894 5.04897C34.5082 5.12084 34.3999 5.20136 34.2737 5.29516C33.6812 5.73562 32.6946 6.46905 32.266 7.97686C34.2718 5.8881 37.5467 4.52692 41.2462 4.52692C45.3905 4.52692 49.0021 6.23506 50.894 8.76244C50.6317 6.71126 49.4141 5.80608 48.7268 5.29515C48.6006 5.20135 48.4923 5.12084 48.411 5.04897L48.4023 5.04127C47.827 4.53231 47.3287 4.09145 47.9767 2.78112C48.0328 2.66768 48.1107 2.56271 48.2077 2.46562C46.1503 1.52192 43.7749 0.983286 41.2462 0.983286ZM25.4717 4.53628C24.784 4.71951 24.603 3.91482 25.0374 3.87826C25.1874 3.87826 25.4164 3.87541 25.6935 3.87196C26.8197 3.85794 28.7401 3.83403 29.3788 3.95138C30.1747 4.0976 31.1671 4.32943 31.5859 5.04852C31.9475 5.67043 31.3326 6.65791 31.0434 7.06048C30.7537 7.4626 29.9218 8.26774 29.5962 8.56019C29.3065 8.77953 28.7639 8.41397 29.2346 7.86517C28.818 8.11272 28.3351 8.15911 28.1789 7.90167C28.1566 7.86483 28.141 7.82177 28.1333 7.77193C28.1153 7.65659 28.1399 7.506 28.2214 7.31637C27.9714 7.51853 27.6448 7.63537 27.4181 7.59195C27.3996 7.58842 27.3818 7.58382 27.3648 7.57812L27.3647 7.57812L27.3548 7.57464C27.3501 7.57292 27.3455 7.57111 27.3409 7.56921C27.1303 7.48186 27.0538 7.20718 27.3168 6.65791C26.9552 6.95036 25.9419 6.91425 26.5932 6.036C26.0502 6.21878 25.4353 5.88977 25.8332 5.34098C25.146 5.45065 24.7477 4.93885 25.4717 4.53628ZM53.6203 3.95138C52.8239 4.0976 51.832 4.32943 51.4132 5.04852C51.0512 5.67043 51.666 6.65791 51.9557 7.06048C52.245 7.4626 53.0773 8.26774 53.4033 8.56019C53.6926 8.77953 54.2352 8.41397 53.7649 7.86517C53.9776 7.99163 54.2077 8.06559 54.4027 8.07343L54.469 8.07346C54.7994 8.05981 55 7.83286 54.7777 7.31637C54.8479 7.37307 54.924 7.42306 55.0023 7.46469L54.9942 7.44991C55.0706 7.49359 55.1501 7.5286 55.2284 7.55398C55.6867 7.69862 56.0875 7.50416 55.6823 6.65791C56.0439 6.95036 57.0572 6.91425 56.4059 6.036C56.9489 6.21878 57.5638 5.88977 57.1659 5.34098C57.8531 5.45065 58.251 4.93885 57.5274 4.53628C58.2155 4.71951 58.3961 3.91482 57.9618 3.87826C57.8116 3.87826 57.5825 3.87541 57.3052 3.87196C56.1789 3.85794 54.259 3.83403 53.6203 3.95138ZM13.8122 6.67584C16.4736 6.43815 19.0346 6.16976 20.0082 5.96333C20.7682 5.89022 21.2744 5.85366 21.3471 6.18267C21.4199 6.51168 21.3835 6.65791 20.7318 6.84114C20.4636 6.9164 18.9625 7.21495 17.0088 7.54525L16.439 7.64032C15.471 7.79965 14.4172 7.96205 13.362 8.10683L12.7293 8.19142C11.0454 8.41046 9.40083 8.57381 8.14082 8.59675C6.80191 8.56019 5.24606 7.28026 6.18702 7.24371C6.66492 7.24371 9.86924 7.01911 13.1167 6.7371L13.8122 6.67584ZM61.6524 6.18267C61.5797 6.51168 61.6165 6.65791 62.2677 6.84114C62.361 6.86732 62.6035 6.92051 62.9622 6.99265L63.2526 7.05019C63.9268 7.18201 64.8865 7.35856 65.9908 7.54525L66.5606 7.64032C69.271 8.08646 72.6537 8.55661 74.8587 8.59675C76.1972 8.56019 77.7531 7.28026 76.8125 7.24371C76.3176 7.24371 72.8978 7.00279 69.5347 6.70667L68.8407 6.64467C66.3061 6.41493 63.9224 6.16078 62.9913 5.96333C62.2318 5.89022 61.7252 5.85366 61.6524 6.18267ZM23.3941 7.11487C23.7552 6.88438 24.2299 6.6539 24.6669 6.50054C24.6829 6.49785 24.7052 6.49214 24.7323 6.4852L24.7324 6.48519C24.8986 6.44267 25.2445 6.35423 25.4073 6.63517C25.5977 6.96106 25.5214 7.44165 24.135 7.80632C22.7482 8.171 23.033 7.34535 23.3941 7.11487ZM57.5918 6.63517C57.4014 6.96106 57.4777 7.44165 58.8641 7.80632C60.251 8.171 59.9657 7.34535 59.605 7.11487C59.2443 6.88438 58.7692 6.6539 58.3322 6.50054C58.3163 6.49786 58.2941 6.49217 58.2671 6.48526C58.1012 6.44276 57.7551 6.35409 57.5918 6.63517ZM22.3688 6.55805C22.261 6.23216 22.5969 5.96288 22.9576 5.90538C23.0383 5.89123 23.1189 5.87695 23.1987 5.86279C24.0948 5.70392 24.9027 5.56068 24.9899 5.78991L24.9932 5.79855C25.0865 6.04228 25.1315 6.15993 24.2304 6.61556C23.3187 7.07697 22.5015 6.96151 22.3688 6.55805ZM58.0097 5.78991L58.0062 5.79897C57.9135 6.04242 57.8686 6.1602 58.7696 6.61556C59.6809 7.07697 60.4976 6.96151 60.6307 6.55805C60.7381 6.23216 60.4027 5.96288 60.042 5.90538C59.9608 5.89115 59.8798 5.8768 59.7995 5.86258C58.9037 5.70379 58.0968 5.56078 58.0097 5.78991ZM19.5739 4.46317L19.7204 4.45863L19.8645 4.4604C20.434 4.47959 20.9128 4.64079 20.9128 4.82918C20.9128 5.04852 20.7682 5.23131 19.9719 5.41454C19.176 5.59732 11.831 6.43857 6.25934 6.3289C5.21013 6.3659 3.79935 5.8171 3.43733 5.30486C3.09683 4.82306 3.42867 4.82678 3.61992 4.82892L3.65427 4.82918C4.47301 4.85216 7.3501 4.87514 9.56315 4.87996L10.1482 4.88081L10.9715 4.88013C11.5979 4.87847 12.0584 4.87395 12.229 4.86574C12.7556 4.84039 15.753 4.67442 17.7706 4.56269L18.1784 4.54011L18.8265 4.50426C19.1916 4.48408 19.4575 4.46944 19.5739 4.46317ZM63.2787 4.45863L63.1347 4.4604C62.5651 4.47959 62.0863 4.64079 62.0863 4.82918C62.0863 5.04852 62.2314 5.23131 63.0273 5.41454C63.8232 5.59776 71.1681 6.43857 76.7398 6.3289C77.789 6.3659 79.2002 5.8171 79.5618 5.30486C79.9023 4.82305 79.5704 4.82678 79.3796 4.82892L79.3453 4.82918C78.5263 4.85216 75.6491 4.87514 73.436 4.87996L72.8509 4.88081L72.0276 4.88013C71.4012 4.87847 70.9407 4.87395 70.7701 4.86574C70.2429 4.84038 67.243 4.67425 65.2255 4.56253L64.8206 4.54011L64.1726 4.50426C63.8075 4.48408 63.5417 4.46944 63.4252 4.46317L63.2787 4.45863ZM21.5703 5.2906C21.4944 5.09845 21.5135 4.84924 22.0454 4.75295C22.137 4.74679 22.2576 4.73615 22.3954 4.72398C23.1151 4.66046 24.3058 4.55536 24.3058 4.82963C24.3058 5.15641 23.7929 5.54025 22.8622 5.67489C21.9314 5.80908 21.6462 5.48274 21.5703 5.2906ZM58.6933 4.82963C58.6933 5.15641 59.2062 5.54025 60.1374 5.67489C61.0677 5.80908 61.3525 5.48274 61.4288 5.2906C61.5047 5.09845 61.4856 4.84924 60.9541 4.75295C60.8624 4.74678 60.7417 4.73613 60.6037 4.72396C59.8837 4.66043 58.6933 4.5554 58.6933 4.82963ZM49.3511 4.79263L49.785 2.63489C49.2784 2.89079 48.6999 3.2568 48.6639 3.62237C48.6275 3.98793 48.7362 4.35395 49.3511 4.79263ZM33.2141 2.63489C33.7207 2.89079 34.2993 3.2568 34.3356 3.62237C34.372 3.98793 34.2633 4.35395 33.648 4.79263L33.2141 2.63489ZM22.0268 4.61296C20.9439 4.67047 20.9629 3.63351 21.9128 3.63351L21.9974 3.63577C22.7114 3.65467 23.87 3.68534 23.8883 4.0178C23.9074 4.36331 22.8804 4.56749 22.0268 4.61296ZM61.0863 3.63351L61.0018 3.63577C60.2878 3.65467 59.1296 3.68533 59.1112 4.0178C59.0922 4.36331 60.1187 4.56749 60.9723 4.61296C62.0557 4.67047 62.0366 3.63351 61.0863 3.63351ZM2.16793 1.98376C2.2181 1.98143 2.26764 1.97913 2.31581 1.97642C3.15695 1.97642 4.41534 1.99699 5.71317 2.02269L6.36362 2.0359C6.92056 2.04746 7.47318 2.05949 7.99181 2.07078L7.99195 2.07078C9.2898 2.09903 10.3748 2.12265 10.7818 2.12265C11.7951 2.12265 18.959 2.92734 20.0801 3.29291C20.5867 3.43958 20.6954 3.95138 20.0801 3.98793C19.7805 4.00574 17.8751 4.04101 15.8741 4.0725L15.2408 4.08229C13.5528 4.10794 11.9098 4.12933 11.2137 4.13376L10.9988 4.13461L10.8413 4.135L10.6293 4.1358L10.0602 4.1364C7.72655 4.13213 2.32337 4.03146 1.48354 2.92734C0.875358 2.12857 1.41632 2.02656 1.99127 1.9927L2.15551 1.98434L2.16793 1.98376ZM80.6837 1.97642C79.8424 1.97642 78.5839 1.99699 77.2861 2.02269L76.6356 2.0359C76.0785 2.04746 75.5258 2.05949 75.0071 2.07078C73.7093 2.09903 72.6243 2.12265 72.2173 2.12265C71.204 2.12265 64.0401 2.92734 62.9186 3.29291C62.4119 3.43958 62.3037 3.95138 62.9186 3.98793C63.2183 4.00574 65.1238 4.04101 67.1248 4.0725L67.7581 4.08229C69.4461 4.10794 71.0891 4.12933 71.7854 4.13376L72.0719 4.13472L72.1577 4.135L73.1462 4.13577C75.5773 4.12556 80.6998 3.99991 81.516 2.92734C82.0659 2.20464 81.6754 2.05231 81.1704 2.00477L81.0081 1.9927L80.8439 1.98434L80.8315 1.98376L80.8313 1.98375C80.7813 1.98142 80.7318 1.97912 80.6837 1.97642ZM33.6636 1.84736C35.8942 0.771933 38.4837 0.156302 41.2462 0.156302C44.099 0.156302 46.7674 0.812759 49.0432 1.95504C48.7632 2.06762 48.5224 2.19921 48.3363 2.35218C46.2395 1.38078 43.8209 0.826983 41.2462 0.826983C38.7983 0.826983 36.4914 1.32766 34.4704 2.21217C34.2468 2.07063 33.9742 1.95053 33.6636 1.84736Z" fill="black"/>
</svg>
