<svg width="45" height="46" viewBox="0 0 45 46" fill="none" xmlns="http://www.w3.org/2000/svg">
<path fill-rule="evenodd" clip-rule="evenodd" d="M0 22.9449C0 10.5692 10.0692 0.5 22.4466 0.5C34.8224 0.5 44.8933 10.5692 44.8933 22.9449C44.8933 35.3206 34.8224 45.3898 22.4466 45.3898C10.0692 45.3898 0 35.3206 0 22.9449ZM0.620726 22.9449C0.620726 34.9803 10.4113 44.7708 22.4466 44.7708C34.482 44.7708 44.2708 34.9803 44.2708 22.9449C44.2708 10.9077 34.482 1.12073 22.4466 1.12073C10.4113 1.12073 0.620726 10.9077 0.620726 22.9449Z" fill="black"/>
<path d="M9.6523 14.133C9.67522 14.1507 9.69815 14.1701 9.71931 14.1859C9.72284 14.1877 9.73694 14.1701 9.73694 14.1683C10.1743 13.6199 10.6134 13.0715 11.0507 12.5283C11.2094 12.3291 11.3716 12.1298 11.5303 11.9288C11.6891 11.7277 11.7226 11.4667 11.6273 11.2304C11.5074 10.9871 11.2676 10.8231 10.9925 10.8337C10.7633 10.8425 10.5852 10.9642 10.4476 11.137C10.2536 11.3786 10.0596 11.6219 9.86744 11.8635C9.4689 12.3573 9.07213 12.8546 8.67712 13.3501C8.88168 13.5158 9.08977 13.6798 9.29432 13.8456C9.416 13.9408 9.53591 14.0361 9.6523 14.133" fill="black"/>
<path fill-rule="evenodd" clip-rule="evenodd" d="M1.01184 22.9445C1.01184 11.1067 10.6066 1.5101 22.4463 1.5101C34.2859 1.5101 43.8825 11.1067 43.8825 22.9445C43.8825 34.7824 34.2859 44.3807 22.4463 44.3807C10.6066 44.3807 1.01184 34.7824 1.01184 22.9445ZM18.9847 2.84854L20.9932 2.62635L22.4463 6.86739L23.8993 2.62635L25.9079 2.84854L26.1301 8.87769L24.5659 8.6555L24.416 4.63489L23.0053 8.6555H21.8855L20.473 4.63489L20.3249 8.6555L18.7625 8.87769L18.9847 2.84854ZM35.2082 16.0196L34.4393 14.7023L37.088 11.223L33.1132 13.0447L31.997 12.0113L35.6208 7.24829L36.7388 8.28518L34.6474 11.0308L37.9944 9.49665L38.9713 10.7169L36.7406 13.646L39.8777 12.2053L40.6466 13.5226L35.2082 16.0196ZM22.4463 36.343C15.0469 36.343 9.04953 30.3439 9.04953 22.9445C9.04953 15.5452 15.0469 9.54779 22.4463 9.54779C29.8456 9.54779 35.843 15.5452 35.843 22.9445C35.843 30.3439 29.8456 36.343 22.4463 36.343ZM4.96897 12.3834C5.1312 12.5121 5.29167 12.6426 5.45215 12.7749C5.85663 13.0945 6.26035 13.418 6.66382 13.7412C6.87247 13.9084 7.08105 14.0755 7.28963 14.242C7.53227 14.436 7.77435 14.63 8.01642 14.8239C8.37955 15.1149 8.74269 15.4059 9.10773 15.6969C9.20106 15.773 9.29505 15.8479 9.38889 15.9226L9.38899 15.9227L9.38909 15.9228C9.44944 15.9709 9.50973 16.0189 9.56974 16.0672L9.57173 16.0692C9.58182 16.0794 9.61258 16.1106 9.61912 16.1024C9.6491 16.0637 9.67908 16.0266 9.71258 15.9861C9.94407 15.6942 10.1772 15.4035 10.4105 15.1127C10.593 14.885 10.7756 14.6573 10.9576 14.429L11.3102 13.9892C11.6916 13.5138 12.0728 13.0387 12.4529 12.5615C12.487 12.5195 12.5215 12.4778 12.556 12.436C12.7827 12.1617 13.0106 11.8858 13.1178 11.5369C13.1795 11.3271 13.1901 11.1102 13.1689 10.8968C13.0895 10.3237 12.7457 9.84405 12.2131 9.60246C11.6841 9.36087 11.0669 9.45433 10.5961 9.78233C10.5754 9.79809 10.5558 9.81549 10.5361 9.83301C10.5205 9.84687 10.5048 9.86079 10.4885 9.87403C10.5661 9.60951 10.589 9.34147 10.5238 9.06814C10.4585 8.80363 10.321 8.56204 10.1252 8.37159C9.72845 7.98364 9.12712 7.85667 8.60691 8.04888C8.3618 8.14411 8.14313 8.29929 7.9809 8.50385C7.93149 8.56424 7.88302 8.6251 7.83477 8.68571C7.79004 8.7419 7.74548 8.79786 7.70051 8.853C7.29494 9.35703 6.89182 9.86105 6.48707 10.3671L6.48701 10.3672L6.24392 10.6711C5.86446 11.1434 5.4879 11.6158 5.11029 12.0894L4.99542 12.2335C4.96544 12.267 4.93723 12.3023 4.91069 12.3358C4.90901 12.3375 4.96368 12.3816 4.96897 12.3834Z" fill="black"/>
<path d="M9.60484 10.3073C9.65422 10.0851 9.60484 9.85937 9.44966 9.69008C9.2645 9.48553 8.95766 9.41675 8.69844 9.52256C8.50975 9.60015 8.39689 9.76415 8.27522 9.92109C7.80262 10.5083 7.33355 11.0938 6.86624 11.681C6.85919 11.688 6.75691 11.8115 6.76043 11.8168C6.85566 11.8926 6.95088 11.9684 7.04787 12.046C7.29828 12.2506 7.55221 12.4498 7.80262 12.6526C8.05303 12.3423 8.29814 12.0319 8.54502 11.7233C8.79543 11.4147 9.04054 11.1061 9.28919 10.7993C9.41086 10.6441 9.55017 10.5013 9.60484 10.3073" fill="black"/>
<path d="M9.72812 22.9449H22.4459V10.2271C15.5033 10.4087 9.90799 16.0023 9.72812 22.9449" fill="black"/>
<path d="M22.4458 35.6652C29.3901 35.4835 34.9837 29.8864 35.1654 22.9456H22.4458L22.4458 35.6652Z" fill="black"/>
</svg>
