<svg width="38" height="36" viewBox="0 0 38 36" fill="none" xmlns="http://www.w3.org/2000/svg">
<path d="M12.9303 24.8922V24.8887L12.925 24.8922H12.9303Z" fill="black"/>
<path d="M32.5613 32.4074C33.4783 31.6915 34.196 31.0055 35.7778 30.7762V30.4571H32.5366V30.7692C33.5717 30.7692 33.3001 31.2912 32.9104 31.5857C32.5137 31.8749 31.5032 32.5908 30.9407 33.014V31.5451C30.9407 30.9579 31.2281 30.7974 31.9635 30.7974V30.4571H28.5689V30.7974C29.2531 30.7974 29.6093 30.9067 29.6093 31.5451V34.3525C29.6093 35.042 29.0362 35.1495 28.4172 35.1495V35.4846H32.1169V35.1566C31.5367 35.1566 30.953 34.9326 30.953 34.3313V33.5378C30.953 33.5378 31.0535 33.4619 31.1964 33.3667C31.475 33.1569 31.6178 33.2803 31.8259 33.4672C32.0287 33.6683 34.0284 35.4846 34.0284 35.4846H36.2539V35.1654C35.9488 35.1654 35.5997 34.9944 35.0777 34.5588C34.5504 34.1162 33.6564 33.3209 32.5613 32.4074" fill="black"/>
<path fill-rule="evenodd" clip-rule="evenodd" d="M32.0511 14.1831C32.0511 21.824 25.8544 28.019 18.2188 28.019C10.5814 28.019 4.38298 21.824 4.38298 14.1831C4.38298 6.54926 10.5814 0.35611 18.2188 0.35611C25.8544 0.35611 32.0511 6.54926 32.0511 14.1831ZM30.5804 14.1831C30.5804 7.34985 25.0486 1.81094 18.2188 1.81094C11.3855 1.81094 5.85368 7.34985 5.85368 14.1831C5.85368 21.0199 11.3855 26.55 18.2188 26.55C25.0486 26.55 30.5804 21.0199 30.5804 14.1831Z" fill="black"/>
<path d="M24.8585 35.2076C23.4724 35.2076 22.7917 34.8037 22.7917 32.9945C22.7917 31.1852 23.4283 30.7144 24.8585 30.7144C26.2886 30.7144 26.8494 31.164 26.8494 32.0299H27.8704V30.6297C27.329 30.5204 26.5602 30.3229 24.8585 30.3229C22.1269 30.3229 21.3034 31.2822 21.3034 32.9804C21.3034 35.0189 22.6595 35.5691 24.8585 35.5691C27.0557 35.5691 28.0115 34.7808 28.0115 33.6928H26.8864C26.8864 34.7385 26.2445 35.2076 24.8585 35.2076" fill="black"/>
<path d="M19.7532 34.2691V31.5922C19.7532 30.9909 20.12 30.7969 20.783 30.7969V30.4565H17.3637V30.7969C18.0268 30.7969 18.39 30.9909 18.39 31.5922V34.2691C18.39 34.8387 18.122 35.0979 17.3196 35.0979V35.4841H20.8218V35.0979C20.0265 35.0979 19.7532 34.8387 19.7532 34.2691" fill="black"/>
<path fill-rule="evenodd" clip-rule="evenodd" d="M6.75337 32.7333C6.57526 32.7562 6.61935 32.8444 6.74808 32.8479C7.79732 32.9273 8.47624 33.0454 8.478 34.0118C8.478 34.9905 7.70033 35.5125 6.13088 35.4966C3.94071 35.4701 3.11013 35.4649 0.750671 35.4843V35.1792C1.50894 35.1792 1.94275 34.9658 1.94275 34.1247V31.6999C1.94275 31.081 1.81049 30.7759 0.792994 30.7759V30.4567C3.37686 30.5024 4.4014 30.4868 6.35523 30.457L6.37423 30.4567C7.58747 30.4373 8.18704 30.6772 8.18704 31.5448C8.18704 32.4106 7.49401 32.6592 6.75337 32.7333ZM3.30411 31.3543C3.32351 31.0616 3.46635 30.8288 4.08002 30.8288C4.38907 30.8288 4.61452 30.831 4.83899 30.8332C5.06153 30.8354 5.2831 30.8376 5.58422 30.8376C6.17673 30.8376 6.68636 31.0492 6.68636 31.6559C6.68636 32.2642 6.31428 32.5905 5.64418 32.631C5.11692 32.6627 4.69312 32.6529 4.03914 32.6379L4.03912 32.6379C3.8182 32.6328 3.57102 32.6271 3.28471 32.6222L3.28493 32.5376V32.5376C3.28651 31.9182 3.28723 31.6363 3.30411 31.3543ZM5.8646 35.0698C5.18216 35.1104 4.66548 35.0981 4.08002 35.0698C3.54923 35.0452 3.29177 34.9041 3.28471 34.2693C3.2759 33.6468 3.29177 33.1177 3.29177 33.1177C4.03241 33.086 5.08164 33.0807 5.77467 33.1177C6.44477 33.1565 6.99143 33.287 6.99143 34.0047C6.99143 34.726 6.37952 35.0452 5.8646 35.0698Z" fill="black"/>
<path d="M15.9258 34.0056C15.9258 33.1433 15.9823 32.0676 16.0087 30.4558H13.4323V30.8121C14.0954 30.8121 14.5803 31.0272 14.5803 31.632C14.5803 32.2369 14.5803 32.9423 14.5274 33.898C14.4728 34.7568 13.7568 35.1659 12.667 35.1659C11.5702 35.1659 11.2051 34.7251 11.2051 33.898C11.2051 33.0587 11.2492 32.2369 11.3339 30.4558H8.72223V30.7979C9.53164 30.7979 9.88609 30.9902 9.88609 31.5315C9.88609 32.0676 9.85258 32.6531 9.83848 34.0497C9.83142 35.4534 11.5067 35.5856 12.4766 35.5856C13.4482 35.5856 14.0883 35.4375 14.6138 34.8221V35.4851H16.968V35.0972C15.9875 35.0972 15.9258 34.8626 15.9258 34.0056" fill="black"/>
<path fill-rule="evenodd" clip-rule="evenodd" d="M18.1638 22.7578C17.7706 22.1791 16.6804 20.5749 15.9128 18.5936C15.2649 21.6386 13.3454 24.309 12.9815 24.8153C12.9562 24.8506 12.9384 24.8754 12.9291 24.889C12.9148 24.8586 12.8561 24.7722 12.764 24.6367C12.1033 23.6648 9.72491 20.1659 9.72491 16.6697V9.74651H15.1139V7.8473H20.4924V5.94104H26.8919V12.8484C26.8919 16.613 24.1997 20.365 23.7502 20.9915C23.7234 21.0288 23.7046 21.055 23.6948 21.0695C23.6822 21.0449 23.6349 20.976 23.5606 20.8676C23.176 20.3071 22.0668 18.6906 21.2895 16.6926C20.6496 19.6872 18.7804 22.3154 18.3786 22.8804C18.3441 22.9289 18.3204 22.9622 18.3093 22.9793C18.2963 22.9527 18.2449 22.877 18.1638 22.7578ZM21.5046 6.94972H25.8761V12.9542C25.8761 15.8381 24.0397 18.4665 23.729 18.9112C23.7112 18.9366 23.6984 18.9549 23.6912 18.9657C23.6821 18.951 23.6624 18.9223 23.6338 18.8806L23.6338 18.8805C23.2743 18.3567 21.5046 15.7779 21.5046 12.9542V6.94972ZM20.4924 8.85951H16.1279V14.8675C16.1279 17.6419 17.8568 20.1975 18.2428 20.7681L18.2428 20.7681L18.2429 20.7682C18.2783 20.8206 18.3024 20.8562 18.3128 20.8737C18.3231 20.8563 18.347 20.821 18.382 20.7691L18.382 20.7691L18.382 20.769C18.766 20.2005 20.4924 17.6436 20.4924 14.8675V8.85951ZM15.1139 10.7711H10.7406V16.7791C10.7406 19.5529 12.4734 22.1057 12.861 22.6768C12.896 22.7284 12.92 22.7638 12.9308 22.7818C12.9422 22.762 12.9697 22.7211 13.0102 22.6607C13.4142 22.0591 15.1139 19.5276 15.1139 16.7791V10.7711Z" fill="black"/>
<path d="M25.6515 11.9972V7.17773H21.7314L25.5809 14.0234C25.618 13.6707 25.6515 13.0411 25.6515 11.9972" fill="black"/>
<path d="M23.6978 21.0744L23.696 21.0691L23.6925 21.0744H23.6978Z" fill="black"/>
<path d="M18.3126 22.9842L18.3091 22.9789L18.3056 22.9842H18.3126Z" fill="black"/>
<path fill-rule="evenodd" clip-rule="evenodd" d="M25.0195 20.6262C25.0195 20.347 25.2419 20.1197 25.5176 20.1197C25.7952 20.1197 26.0195 20.347 26.0195 20.6262C26.0195 20.8942 25.7952 21.1197 25.5176 21.1197C25.2419 21.1197 25.0195 20.8979 25.0195 20.6262ZM25.0801 20.6262C25.0801 20.8665 25.275 21.0679 25.5176 21.0679C25.7584 21.0679 25.9588 20.8665 25.9588 20.6262C25.9588 20.3803 25.7584 20.1788 25.5176 20.1788C25.275 20.1788 25.0801 20.3803 25.0801 20.6262Z" fill="black"/>
<path fill-rule="evenodd" clip-rule="evenodd" d="M25.7485 20.3711C25.7942 20.3857 25.8232 20.4438 25.8232 20.4978C25.8232 20.6224 25.7339 20.664 25.6197 20.6681L25.8087 20.9651H25.7194L25.5366 20.6681H25.3954V20.9651H25.3185V20.3317H25.5927C25.6467 20.3317 25.7049 20.3379 25.7485 20.3711ZM25.3954 20.612H25.5159C25.5222 20.612 25.5288 20.6121 25.5356 20.6122C25.6249 20.6128 25.7381 20.6137 25.7381 20.4978C25.7381 20.4023 25.655 20.3857 25.5802 20.3857H25.3954V20.612Z" fill="black"/>
<path d="M14.3063 19.6984L10.9646 13.8174V16.8734C10.9646 18.8114 12.0015 20.9734 12.9308 22.3753C13.354 21.7087 13.8637 20.887 14.3063 19.6984" fill="black"/>
<path d="M14.8875 15.8065V10.9889H10.9639L14.817 17.838C14.8505 17.4853 14.8875 16.8611 14.8875 15.8065" fill="black"/>
<path d="M19.6877 17.7886L16.3513 11.9146V14.9707C16.3513 16.9122 17.3865 19.0706 18.3123 20.4725C18.732 19.7989 19.2416 18.9736 19.6877 17.7886" fill="black"/>
<path d="M20.2672 13.9001V9.08066H16.3506L20.1984 15.928C20.2302 15.5789 20.2672 14.9476 20.2672 13.9001" fill="black"/>
<path d="M25.0711 15.8891L21.7312 10.0081V13.0605C21.7312 15.0021 22.7628 17.164 23.6974 18.5642C24.1206 17.8888 24.6285 17.0776 25.0711 15.8891" fill="black"/>
<path fill-rule="evenodd" clip-rule="evenodd" d="M37.5575 34.7858C37.6053 34.8128 37.6323 34.871 37.6323 34.9208C37.6323 35.0558 37.5451 35.0932 37.435 35.0932L37.6219 35.384H37.5326L37.3498 35.0932H37.2128V35.384H37.1338V34.7526H37.408C37.462 34.7526 37.5098 34.7526 37.5575 34.7858ZM37.2128 35.033H37.3311C37.3412 35.033 37.3521 35.0333 37.3634 35.0337C37.4454 35.0362 37.5513 35.0395 37.5513 34.9208C37.5513 34.8274 37.4682 34.8128 37.3914 34.8128H37.2128V35.033Z" fill="black"/>
<path fill-rule="evenodd" clip-rule="evenodd" d="M36.8321 35.0458C36.8321 34.7662 37.0558 34.5477 37.333 34.5477C37.6103 34.5477 37.8321 34.7662 37.8321 35.0458C37.8321 35.3255 37.6103 35.5477 37.333 35.5477C37.0558 35.5477 36.8321 35.3255 36.8321 35.0458ZM36.8968 35.0458C36.8968 35.2921 37.0854 35.4866 37.333 35.4866C37.5752 35.4866 37.7748 35.2921 37.7748 35.0458C37.7748 34.8014 37.5752 34.6088 37.333 34.6088C37.0854 34.6088 36.8968 34.8014 36.8968 35.0458Z" fill="black"/>
</svg>
