<svg width="65" height="29" viewBox="0 0 65 29" fill="none" xmlns="http://www.w3.org/2000/svg">
<path fill-rule="evenodd" clip-rule="evenodd" d="M24.2988 10.7078H14.1007C13.6497 10.7078 13.4865 10.3892 13.4865 10.1442C13.4865 10.0463 13.5146 9.94825 13.5532 9.87475L16.7612 3.62375C16.9122 3.30875 17.207 3.06725 17.7124 3.06725L24.2988 3.06375C24.5708 3.06375 24.72 2.95875 24.72 2.64025V1.15625C24.72 0.73625 24.9446 0.5 25.3728 0.5H36.8765C37.296 0.5 37.5311 0.72925 37.5311 1.15625V2.64375C37.5311 2.99725 37.6943 3.06725 37.9558 3.06725H48.0029C48.2557 3.06725 48.6189 3.21425 48.6189 3.63775C48.6189 3.77739 48.5761 3.85667 48.5149 3.97011C48.5093 3.98035 48.5037 3.99088 48.4978 4.00175L45.3301 10.1775C45.1073 10.5887 44.7879 10.7078 44.3509 10.7078H37.9558C37.6575 10.7078 37.5311 10.8338 37.5311 11.1365V12.6205C37.5311 13.0755 37.2679 13.2715 36.8765 13.2715H31.1255H25.3728C24.9814 13.2715 24.72 13.0667 24.72 12.6205V11.1295C24.72 10.853 24.6111 10.7078 24.2988 10.7078ZM18.1617 5.2355L16.6314 8.221C16.6085 8.26475 16.5945 8.32075 16.5945 8.37675C16.5945 8.57625 16.7472 8.7145 16.9771 8.7145H26.2819C26.5662 8.7145 26.7118 8.83175 26.7118 9.14325V10.8617C26.7118 11.1908 26.8733 11.2817 27.14 11.2817H31.1255H35.1093C35.4147 11.2817 35.5375 11.1487 35.5375 10.867L35.5393 9.1485C35.5393 8.858 35.6568 8.7145 35.9727 8.7145H43.5594C43.6787 8.7145 43.8455 8.711 43.9437 8.54475L45.4688 5.55575C45.4969 5.512 45.5109 5.456 45.5109 5.3965C45.5109 5.246 45.4126 5.05525 45.1231 5.05525H35.9727C35.6726 5.05525 35.534 4.92225 35.534 4.63175V2.9185C35.534 2.614 35.3936 2.4845 35.1093 2.4845H27.14C26.8487 2.4845 26.7153 2.6035 26.7153 2.91325V4.62125C26.7153 4.95025 26.5469 5.05525 26.2819 5.05525H18.546C18.3161 5.05525 18.2196 5.12175 18.1617 5.2355Z" fill="black"/>
<path fill-rule="evenodd" clip-rule="evenodd" d="M38.7941 2.04601H38.6319V2.41313H38.5155V1.57782H38.8835C39.0269 1.57782 39.1807 1.62732 39.1807 1.80057C39.1807 1.96763 39.0643 2.03157 38.9167 2.03569L39.1641 2.41313H39.0352L38.7941 2.04601ZM38.8564 1.68094H38.6319V1.94907H38.8544C39.0207 1.94907 39.0581 1.87894 39.0581 1.80057C39.0581 1.69332 38.9437 1.68094 38.8564 1.68094Z" fill="black"/>
<path fill-rule="evenodd" clip-rule="evenodd" d="M39.38 1.93588C39.38 2.28588 39.0992 2.55888 38.7499 2.55888C38.3937 2.55888 38.1147 2.28063 38.1147 1.93588C38.1147 1.58413 38.399 1.31113 38.7499 1.31113C39.0992 1.31113 39.38 1.58413 39.38 1.93588ZM39.2747 1.93063C39.2747 1.64363 39.0448 1.40563 38.7499 1.40563C38.4569 1.40563 38.2182 1.64363 38.2182 1.93063C38.2182 2.22638 38.4516 2.46263 38.7499 2.46263C39.0448 2.46263 39.2747 2.22638 39.2747 1.93063Z" fill="black"/>
<path d="M8.23969 24.4221H10.9458V28.4576H12.8324V19.4434H10.9458V23.0519H8.23969V19.4434H6.35312V28.4576H8.23969V24.4221Z" fill="black"/>
<path d="M58.5274 28.4571H60.4175V20.8201H62.9797V19.4446H55.9687V20.8201H58.5274V28.4571Z" fill="black"/>
<path d="M46.0037 19.4439H44.1171V28.4564H49.5119V27.0809H46.0019L46.0037 19.4439Z" fill="black"/>
<path d="M23.0959 28.4622H24.8386C25.351 28.4622 25.6775 28.198 25.8073 27.6835L28.0361 19.448H26.3707L24.4139 26.9607C24.3858 27.0535 24.3156 27.0815 24.2173 27.0815C24.1191 27.0815 24.0489 27.043 24.0173 26.9555L22.0289 19.4445H19.8317L22.1114 27.666C22.2202 28.212 22.587 28.4622 23.0959 28.4622" fill="black"/>
<path d="M1.40923 28.4622L5.6299 28.4569V27.0814H2.57627C2.05505 27.0814 1.88658 26.9519 1.88658 26.3902V21.5059C1.88658 20.9617 2.01469 20.8199 2.57627 20.8199H5.6299V19.4479H1.41449C0.449269 19.4479 0 19.9414 0 20.8462V27.0499C0 28.0544 0.512447 28.4622 1.40923 28.4622" fill="black"/>
<path d="M16.5431 20.8196H19.6423V19.4476H15.376C14.402 19.4476 13.9651 19.9271 13.9651 20.8476V27.0514C13.9651 27.9999 14.4301 28.4619 15.3743 28.4619H20.0319V27.0811H16.5413C16.0184 27.0811 15.8534 26.9639 15.8534 26.3951V24.4229H19.6002V23.0509H15.8551V21.5074C15.8551 20.9841 15.9675 20.8196 16.5431 20.8196" fill="black"/>
<path d="M34.9513 23.2379V20.8474C34.9513 19.9077 34.5038 19.4474 33.5404 19.4474H28.2843V28.4617H30.1691V20.8194H32.3716C32.956 20.8194 33.063 20.9839 33.063 21.5072L33.0648 22.6009C33.0648 23.1312 32.9191 23.2922 32.3751 23.2922H31.3449C30.943 23.2922 30.7166 23.5389 30.7166 23.9257C30.7166 24.1217 30.8149 24.2634 30.8939 24.3999L33.2789 28.4564H35.6147L33.1192 24.6484H33.5404C34.4126 24.6484 34.9513 24.2547 34.9513 23.2379" fill="black"/>
<path fill-rule="evenodd" clip-rule="evenodd" d="M41.563 28.4629H39.4939H37.4037C36.542 28.4629 35.9927 28.0709 35.9927 27.0506V20.8469C35.9927 19.9474 36.4104 19.4469 37.4037 19.4469H41.563C42.537 19.4469 42.9722 19.9281 42.9722 20.8469L42.9757 27.0506C42.9757 28.0306 42.4668 28.4629 41.563 28.4629ZM38.5673 20.8189C37.9425 20.8189 37.8793 21.0324 37.8793 21.5066V26.3944C37.8793 26.9334 38.0285 27.0821 38.5673 27.0821H39.4939H40.3977C40.9101 27.0821 41.0891 26.9684 41.0891 26.3944L41.0874 21.5066C41.0874 20.9029 40.8891 20.8189 40.3977 20.8189H38.5673Z" fill="black"/>
<path d="M51.2909 28.4622L55.9485 28.457V27.0815H52.4597C51.9332 27.0815 51.7665 26.9642 51.7665 26.3902V24.4215H55.5168V23.0512H51.77V21.506C51.77 20.9845 51.884 20.82 52.4597 20.82H55.5554V19.4445L51.2944 19.448C50.3169 19.448 49.8834 19.9275 49.8834 20.8462L49.8799 27.05C49.8799 27.9985 50.3449 28.4622 51.2909 28.4622" fill="black"/>
<path fill-rule="evenodd" clip-rule="evenodd" d="M64.2122 20.212H64.0459V20.577H63.9253V19.7479H64.2912C64.443 19.7479 64.5906 19.7933 64.5906 19.9645C64.5906 20.1377 64.4783 20.1975 64.3286 20.2016L64.576 20.577H64.4492L64.2122 20.212ZM64.2683 19.8469H64.0459V20.113H64.2663C64.4347 20.113 64.4742 20.0552 64.4742 19.9645C64.4742 19.8572 64.3577 19.8469 64.2683 19.8469Z" fill="black"/>
<path fill-rule="evenodd" clip-rule="evenodd" d="M64.7917 20.1007C64.7917 20.4507 64.5145 20.7237 64.1617 20.7237C63.809 20.7237 63.5282 20.4472 63.5282 20.1007C63.5282 19.7525 63.8125 19.4742 64.1617 19.4742C64.5145 19.4742 64.7917 19.7525 64.7917 20.1007ZM64.6917 20.0937C64.6917 19.8085 64.4565 19.567 64.1617 19.567C63.8686 19.567 63.63 19.8085 63.63 20.0937C63.63 20.3912 63.8651 20.6275 64.1617 20.6275C64.4565 20.6275 64.6917 20.3912 64.6917 20.0937Z" fill="black"/>
</svg>
