<svg width="80" height="25" viewBox="0 0 80 25" fill="none" xmlns="http://www.w3.org/2000/svg">
<path fill-rule="evenodd" clip-rule="evenodd" d="M49.5762 15.7249C49.7996 15.7249 49.8187 15.7705 49.6897 16.2251C49.5472 16.734 48.6993 18.395 46.8828 19.303C46.1181 19.6888 43.4979 19.7512 40.8435 19.759V19.7603H39.0861C36.4331 19.7512 33.8115 19.6888 33.0484 19.303C31.2303 18.395 30.3813 16.734 30.2401 16.2251C30.1121 15.7705 30.1304 15.7249 30.3541 15.7249H49.5762ZM37.6145 16.8151H36.6205V18.6898H37.0817V17.1593L37.1994 17.1461C37.5462 17.1207 37.8299 17.2233 37.8299 17.3938C37.8299 17.5451 37.7542 17.7121 37.3124 17.6682C37.4178 17.8697 37.867 18.6898 37.867 18.6898H38.357L38.3419 18.6671C38.2642 18.5502 37.9081 18.0148 37.7979 17.8541C38.0916 17.7987 38.2738 17.5867 38.2738 17.3453C38.2738 17.0848 38.1199 16.8151 37.6145 16.8151ZM45.5177 16.8151H46.5118C47.0176 16.8151 47.1697 17.0848 47.1697 17.3453C47.1697 17.5867 46.9886 17.7987 46.6947 17.8541C46.8047 18.0148 47.1607 18.5502 47.2385 18.6671L47.2536 18.6898H46.764C46.764 18.6898 46.315 17.8697 46.209 17.6682C46.6511 17.7121 46.7262 17.5451 46.7262 17.3938C46.7262 17.2233 46.4431 17.1207 46.0958 17.1461L45.978 17.1593V18.6898H45.5177V16.8151ZM38.8642 16.8099H38.3563L38.9771 17.8766L38.978 18.6835H39.4136V17.861L39.9881 16.8099H39.6931L39.2869 17.4874L38.8642 16.8099ZM41.9196 16.8099H42.3561V18.3427H43.349V18.6835H41.9196V16.8099ZM45.1488 16.8099H43.7087V18.6835H45.1682V18.3427H44.1363V17.9217H45.1293V17.5746H44.1363V17.1524H45.1488V16.8099ZM34.4663 16.8099H34.9028V17.5746H35.8175V16.8099H36.2552V18.6835H35.8175V17.9217H34.9028V18.6835H34.4663V16.8099ZM40.7762 16.7288C40.5119 16.7288 40.1067 16.7955 40.1067 17.1992C40.1067 17.49 40.2356 17.6267 40.5477 17.7107L40.576 17.7177L40.576 17.7177C40.6365 17.7326 40.7238 17.7541 40.8739 17.788C41.033 17.8199 41.1315 17.8532 41.1315 17.9464C41.1315 18.0001 41.1098 18.1353 40.7567 18.1353C40.4451 18.1353 40.1901 18.0353 40.1359 18.0116L40.0933 18.3473L40.1209 18.3545C40.2121 18.378 40.484 18.4434 40.7744 18.4434C41.1968 18.4434 41.6011 18.3068 41.6011 17.9117C41.6011 17.6325 41.4593 17.4842 41.1653 17.4118L41.0893 17.3947L41.0892 17.3947C40.9822 17.3706 40.8767 17.3468 40.797 17.3316C40.6563 17.3041 40.5686 17.2722 40.5686 17.1722C40.5686 17.0891 40.628 17.035 40.906 17.035C41.1685 17.035 41.3965 17.1109 41.4466 17.1297L41.4815 16.8259L41.4432 16.8163C41.3287 16.7887 41.0471 16.7288 40.7762 16.7288ZM32.3885 17.5673C32.3885 16.9945 32.8843 16.7095 33.4358 16.7095C33.6914 16.7095 33.9276 16.7546 34.0328 16.7766L34.074 16.7853L34.1175 17.1109C34.1023 17.1094 34.0743 17.1047 34.0368 17.0983C33.9214 17.0787 33.7162 17.0437 33.5176 17.0437C33.227 17.0437 32.8225 17.1983 32.8225 17.5673C32.8225 17.9363 33.227 18.0889 33.5176 18.0889C33.7223 18.0889 33.9342 18.0535 34.0473 18.0347C34.0588 18.0327 34.0693 18.031 34.0786 18.0295L34.1175 18.0237L34.074 18.3464C34.0705 18.3471 34.0664 18.3479 34.0618 18.3489C33.9777 18.3664 33.7187 18.4203 33.4358 18.4203C32.8843 18.4203 32.3885 18.1372 32.3885 17.5673Z" fill="black"/>
<path fill-rule="evenodd" clip-rule="evenodd" d="M73.0186 12.4855C76.2927 12.5427 78.6199 12.5834 78.7738 12.5854C79.6051 12.5953 79.9493 13.1369 79.3002 14.2417C78.7098 15.2431 76.5713 17.2279 75.2742 17.8263C73.1272 18.8135 60.0206 21.86 57.6072 22.3654C57.2493 22.4408 56.8823 22.5182 56.5088 22.5969C51.3369 23.6871 44.9312 25.0373 44.5871 24.9951C44.1287 24.9394 43.6858 24.7858 43.1902 24.6139C42.3384 24.3186 41.3308 23.9692 39.8202 23.9692C38.312 23.9692 37.305 24.3196 36.4537 24.6159C35.9563 24.789 35.5121 24.9436 35.0522 24.999C34.707 25.0425 28.263 23.6841 23.0833 22.5923C22.7259 22.5169 22.3744 22.4429 22.0314 22.3706C19.618 21.8643 6.51068 18.8187 4.36485 17.834C3.06733 17.2326 0.928755 15.2483 0.339264 14.2486C-0.310967 13.1434 0.0332999 12.6022 0.864616 12.5901C1.01845 12.5882 3.34564 12.5475 6.61974 12.4902C14.8646 12.346 29.1142 12.0967 29.7832 12.0967C29.8414 12.0967 29.8974 12.0966 29.9516 12.0964C30.7707 12.0937 31.1825 12.0923 32.3467 12.7533C32.4408 12.8065 32.5437 12.8666 32.6537 12.9308C33.355 13.3401 34.3456 13.9182 35.1929 13.9778C36.1264 14.0449 39.8191 14.023 39.8191 14.023C39.8191 14.023 43.5117 14.0397 44.4453 13.9726C45.2957 13.9107 46.289 13.3304 46.9902 12.9208C47.0983 12.8576 47.1995 12.7985 47.2921 12.746C48.456 12.0875 48.8685 12.0889 49.6868 12.0916C49.7412 12.0918 49.7973 12.092 49.8556 12.092C50.5246 12.092 64.7739 12.3413 73.0186 12.4855ZM54.5113 16.1924C53.5809 16.238 52.3251 16.2522 52.0159 16.2354C51.9856 16.006 50.1432 15.7821 50.1432 15.7821C50.1432 15.7821 54.4999 15.773 54.8734 15.773H54.9038C55.739 15.0398 56.7677 14.958 57.4041 14.9412C57.5785 14.9371 61.005 14.8027 64.8637 14.6514C69.3935 14.4738 74.5191 14.2729 75.6792 14.2317C76.3746 14.1551 77.9941 13.954 79.0398 13.4477L79.3385 13.3117C79.3494 13.1924 79.1375 13.1416 78.7719 13.1369L73.5166 13.0456C65.4861 12.9044 50.5371 12.6431 49.8556 12.6431H49.6922L49.6885 12.643C48.8722 12.6405 48.4995 12.6393 47.3759 13.2781L47.077 13.4503C46.3459 13.8774 45.3448 14.4621 44.4566 14.5266C43.5276 14.5917 39.9687 14.577 39.8191 14.5749C39.67 14.577 36.1112 14.5955 35.1829 14.5318C34.2993 14.4689 33.3063 13.8895 32.5772 13.464L32.5625 13.4555L32.2636 13.2833C31.14 12.644 30.7659 12.6452 29.951 12.6478L29.9473 12.6478H29.7832C29.134 12.6478 15.5013 12.8875 7.2746 13.0322L6.12154 13.0525L0.867116 13.1416C0.507211 13.1459 0.298476 13.1963 0.301578 13.3117C0.360094 13.3366 0.425693 13.3671 0.498027 13.4007C0.53056 13.4158 0.564455 13.4316 0.599681 13.4477C1.6454 13.954 3.26565 14.1551 3.95985 14.2317C5.11954 14.2728 10.2392 14.4736 14.7668 14.6511C18.6293 14.8025 22.0609 14.9371 22.2359 14.9412C22.8752 14.958 23.9119 15.042 24.7493 15.7847C24.8048 15.7778 24.8635 15.773 24.9247 15.773C25.298 15.773 29.6547 15.7821 29.6547 15.7821C29.6547 15.7821 27.8108 16.006 27.7824 16.2354C27.4545 16.2522 26.0616 16.2354 25.1215 16.1825L25.2008 16.2832C25.5784 16.8012 26.0092 17.2924 26.3784 17.685C26.4528 17.676 26.5405 17.6683 26.6458 17.6683C27.0141 17.6657 30.756 17.685 30.756 17.685C30.756 17.685 29.1026 17.8766 29.0718 18.1113C28.9161 18.1102 28.3634 18.082 27.7595 18.0512C27.3894 18.0323 27.0001 18.0124 26.671 17.9972L27.0912 18.4325C26.3306 17.6631 27.416 18.8044 27.1921 18.5427L27.0912 18.4325L27.2009 18.5427C27.7963 19.1497 29.6486 20.5063 32.2105 21.2615C33.0377 21.5043 33.2729 21.5824 33.5135 21.6371C33.676 21.674 33.841 21.7002 34.1925 21.7592C34.1925 21.7592 34.9955 21.8914 34.8604 21.8888C34.8518 21.8886 34.8313 21.8891 34.7997 21.8897C34.3353 21.8996 31.4875 21.9603 29.2572 20.8964C26.9611 19.799 25.4018 18.1139 24.8597 17.5154C24.1186 16.6914 23.3698 16.2212 22.1545 16.0632C21.5956 15.9892 4.06546 14.4982 4.0292 14.4956C2.15171 14.3062 0.823374 13.7667 0.589028 13.6135C0.487494 13.5489 0.403864 13.4942 0.332699 13.446C0.366241 13.5368 0.425621 13.6496 0.532595 13.8322C1.08832 14.7755 3.1997 16.7241 4.43353 17.295C6.56984 18.277 19.7279 21.3304 22.0641 21.8216L23.3711 22.0972L23.4442 22.1126C26.9372 22.8485 31.3482 23.778 33.5933 24.2085C34.3575 24.354 34.6332 24.2011 34.8361 24.0886C34.8482 24.0819 34.8601 24.0754 34.8718 24.069C34.918 24.0451 34.9958 24.0025 35.0929 23.9493C35.4323 23.7636 36.008 23.4486 36.2987 23.3461C36.3198 23.3387 36.3411 23.3312 36.3627 23.3236C37.1905 23.0324 38.3239 22.6336 39.8202 22.6336C41.3191 22.6336 42.4514 23.0283 43.2796 23.317C43.3002 23.3242 43.3206 23.3313 43.3408 23.3384C43.6274 23.4415 44.1925 23.7509 44.5338 23.9378C44.637 23.9944 44.7198 24.0397 44.7682 24.0647C44.7809 24.0715 44.7937 24.0785 44.8069 24.0857C45.0086 24.196 45.2852 24.3472 46.0456 24.2038C48.307 23.7672 52.7641 22.8304 56.2675 22.092L57.575 21.8173C59.9121 21.3252 73.0692 18.2719 75.2065 17.2872C76.4387 16.7189 78.5489 14.7729 79.1058 13.8287C79.2091 13.6496 79.2685 13.5394 79.3021 13.4477C79.2318 13.4959 79.1498 13.5515 79.0503 13.6135C78.8164 13.7667 77.4887 14.3062 75.6115 14.4956C75.5745 14.4982 58.045 15.9892 57.4848 16.0632C56.2695 16.2212 55.5207 16.6914 54.7801 17.5154C54.2377 18.1139 52.6796 19.799 50.3835 20.8964C48.1531 21.9603 45.3047 21.8996 44.8403 21.8897C44.8087 21.8891 44.7882 21.8886 44.7796 21.8888C44.6449 21.8914 45.447 21.7592 45.447 21.7592C45.7983 21.7002 45.9635 21.674 46.1262 21.6371C46.3672 21.5825 46.6028 21.5044 47.4301 21.2615C49.9925 20.5063 51.8437 19.1497 52.4398 18.5427L52.5485 18.4325L52.4486 18.5427C52.2242 18.8044 53.3092 17.6631 52.5485 18.4325L52.9615 18.0036C52.743 18.0146 52.5056 18.0269 52.2694 18.0392C51.5808 18.0748 50.9016 18.11 50.7255 18.1113C50.6951 17.8766 49.0417 17.685 49.0417 17.685C49.0417 17.685 52.7843 17.6657 53.1507 17.6683L53.2738 17.6734C53.6396 17.2808 54.0659 16.7964 54.4394 16.2832L54.5113 16.1924Z" fill="black"/>
<path fill-rule="evenodd" clip-rule="evenodd" d="M37.1876 2.53544C37.2152 2.49712 39.066 0.00476074 39.066 0.00476074H40.4358C40.4358 0.00476074 37.7943 3.89981 37.7773 3.92435L37.778 7.01472H35.7568L35.7556 3.9872C35.7366 3.96137 32.883 0.00476074 32.883 0.00476074H35.2319C35.2319 0.00476074 37.1604 2.49712 37.1876 2.53544ZM55.9914 7.01686H49.3747V0.0383245L51.397 0.0391856V5.74204H55.9914V7.01686ZM57.6595 7.01601H64.412V5.73861H59.6376V4.16759H64.233V2.86178H59.6376V1.29593H64.3248V0.0133681H57.6595V7.01601ZM14.8719 7.00356V0.0590394H16.8978V2.88076H21.133V0.060331H23.1545V7.00356H21.133V4.17882H16.8978V7.00356H14.8719ZM24.8475 6.96866H26.9808C26.9808 6.96866 26.9788 1.41347 26.9808 1.27441C28.8232 1.06001 30.4421 1.44533 30.4421 2.15701C30.4421 2.7124 30.0926 3.33495 28.0487 3.16661C28.5376 3.91445 30.6141 6.96866 30.6141 6.96866H32.8843C32.8843 6.96866 30.8695 4.51634 30.2943 3.85503C31.6573 3.6557 32.4963 2.85921 32.4963 1.97661C32.4963 1.01351 31.7915 0.010793 29.4478 0.010793H24.8475V6.96866ZM68.1645 7.00529H66.0316V0.0121184H70.6331C72.9752 0.0121184 73.68 1.02043 73.68 1.98741C73.68 2.87603 72.841 3.67467 71.4787 3.87487C72.053 4.54306 74.0689 7.00529 74.0689 7.00529H71.7991C71.7991 7.00529 69.7199 3.93515 69.2322 3.18473C71.2765 3.35307 71.626 2.72793 71.626 2.17039C71.626 1.45398 70.0073 1.06736 68.1645 1.28306C68.1632 1.42212 68.1645 7.00529 68.1645 7.00529Z" fill="black"/>
<path d="M40.9836 1.98132C40.9836 3.164 41.5789 3.70733 43.0235 4.04918C43.3073 4.11763 43.7261 4.2145 44.5393 4.37423C45.2698 4.51071 45.7283 4.63729 45.7283 5.02261C45.7283 5.24735 45.6249 5.78811 43.9899 5.78811C42.5499 5.78811 41.3722 5.38513 41.1198 5.28869C41.1225 5.28869 40.9205 6.65477 40.9205 6.65391C41.1141 6.69955 42.5354 7.05043 44.0756 7.05043C46.0292 7.05043 47.9008 6.48815 47.9008 4.87322C47.9008 3.73876 47.2461 3.13687 45.8835 2.8454C45.2741 2.71926 44.6359 2.58536 44.1792 2.51389C43.5287 2.40497 43.1208 2.27408 43.1208 1.86981C43.1208 1.52969 43.4 1.31442 44.6837 1.31442C45.8994 1.31442 46.9521 1.61709 47.1905 1.68856L47.3481 0.453353C47.0151 0.379732 45.5177 0.059845 44.0833 0.059845C42.8583 0.059845 40.9836 0.333665 40.9836 1.98132V1.98132Z" fill="black"/>
<path d="M5.25804 3.52349C5.25804 5.87938 7.55255 7.0457 10.1052 7.0457C11.4843 7.0457 12.7417 6.80244 13.0608 6.74518L13.2582 5.40493C12.9747 5.43937 11.7003 5.67918 10.4796 5.67918C9.1388 5.67918 7.26539 5.03984 7.26539 3.52349C7.26539 2.00758 9.1388 1.36738 10.4796 1.36738C11.7003 1.36738 12.9747 1.60848 13.2582 1.64464L13.0608 0.301374C12.7417 0.244544 11.4843 0 10.1052 0C7.55255 0 5.25804 1.1689 5.25804 3.52349Z" fill="black"/>
<path fill-rule="evenodd" clip-rule="evenodd" d="M30.0747 16.7796C30.0747 16.7796 27.9427 16.5321 27.7824 16.2355C27.4545 16.2514 26.0618 16.2355 25.1215 16.1825L25.2008 16.2832C25.2783 16.3883 25.3588 16.492 25.4394 16.5945C25.5299 16.6113 25.621 16.6255 25.7085 16.638C26.3605 16.7267 30.0747 16.7796 30.0747 16.7796ZM54.1801 16.6238L54.0899 16.638C53.4383 16.7267 49.7237 16.7797 49.7237 16.7797C49.7237 16.7797 51.855 16.5321 52.0164 16.2355C52.3255 16.2523 53.5816 16.2381 54.5119 16.1924L54.4401 16.2833C54.3573 16.3962 54.2713 16.5067 54.1857 16.6167L54.1801 16.6238ZM52.5955 18.3822C52.2161 18.4377 51.8301 18.4687 51.5821 18.4808C50.8909 18.5118 48.3929 18.5742 48.3929 18.5742C48.3929 18.5742 50.7075 18.2409 50.7257 18.1114C50.9097 18.1088 51.6458 18.0713 52.367 18.0326L52.4309 18.0296C52.6142 18.0212 52.7931 18.013 52.961 18.0037C52.816 18.1553 52.6911 18.2849 52.5955 18.3822ZM29.0718 18.1122C29.0906 18.2409 31.4046 18.575 31.4046 18.575C31.4046 18.575 28.9066 18.5117 28.2151 18.4816C27.9268 18.4687 27.4531 18.4261 27.018 18.3546L26.6724 17.9973C26.7451 18.0008 26.8213 18.0044 26.8999 18.0081C27.0772 18.0164 27.2668 18.0253 27.457 18.036C27.6243 18.0443 27.7921 18.0527 27.9532 18.0609C28.4783 18.0873 28.9327 18.1102 29.0718 18.1122Z" fill="black"/>
</svg>
