<svg width="45" height="47" viewBox="0 0 45 47" fill="none" xmlns="http://www.w3.org/2000/svg">
<path d="M12.5695 8.78348C18.3816 8.78348 21.4633 16.1001 21.4633 16.1001L22.1404 13.9078C22.1404 13.9078 19.5254 7.56256 13.4003 7.56256C8.05492 7.56256 6.38779 11.9932 6.38779 11.9932C6.38779 11.9932 8.36053 8.78348 12.5695 8.78348" fill="black"/>
<path d="M10.9289 28.4227C6.9853 28.4227 5.48287 18.8129 5.48287 18.8129H4.50565C4.50565 19.4339 4.18357 30.6575 10.5099 30.6575C12.5814 30.6575 13.4232 29.2915 13.4232 28.1396C13.4232 26.3171 12.5137 25.036 12.5137 25.036C12.5137 25.036 13.5477 28.4227 10.9289 28.4227" fill="black"/>
<path d="M32.3725 8.78348C36.5833 8.78348 38.5542 11.9932 38.5542 11.9932C38.5542 11.9932 36.8889 7.56256 31.549 7.56256C25.4203 7.56256 22.8071 13.9078 22.8071 13.9078L23.4824 16.1001C23.4824 16.1001 26.5641 8.78348 32.3725 8.78348" fill="black"/>
<path d="M39.4638 18.8134C39.4638 18.8134 37.965 28.4233 34.014 28.4233C31.3953 28.4233 32.4293 25.0366 32.4293 25.0366C32.4293 25.0366 31.5234 26.3176 31.5234 28.1402C31.5234 29.2903 32.3615 30.6581 34.4331 30.6581C40.7631 30.6581 40.4355 19.4345 40.4355 18.8134H39.4638Z" fill="black"/>
<path fill-rule="evenodd" clip-rule="evenodd" d="M33.207 17.1457C32.1419 17.1457 31.6387 18.556 31.6387 18.556C31.6387 18.556 32.9709 21.9639 30.4236 23.0521L28.6027 23.8271C28.105 25.8567 27.5377 28.1587 27.4315 28.5498C27.2595 29.185 26.6757 30.0697 26.6757 30.0697L25.446 32.094L24.8787 34.8136C24.7323 35.5143 24.5694 36.2221 22.7705 36.2221H22.1776C20.3769 36.2221 20.2213 35.5143 20.0731 34.8136L19.5021 32.094L18.2742 30.0697C18.2742 30.0697 17.6868 29.185 17.5148 28.5498C17.4433 28.2818 17.1552 27.1164 16.8191 25.7563C16.6647 25.1316 16.5001 24.4659 16.3417 23.8271L14.5245 23.0521C11.9772 21.9639 13.3094 18.556 13.3094 18.556C13.3094 18.556 12.7988 17.1457 11.7448 17.1457C9.89463 17.1457 10.1362 20.2299 10.9451 22.8044C11.7795 25.4356 11.1189 25.8301 10.623 25.8301C10.1325 25.8301 9.01257 25.3312 7.79379 23.1618C6.56952 20.9943 6.10653 18.3029 6.10653 18.3029H5.19702C5.19702 12.9097 8.48736 11.9542 10.3174 11.9542C16.1203 11.9542 18.2742 19.784 18.2742 19.784L17.1158 20.5731L17.6666 23.2556L19.8425 24.1102L20.2433 26.7485L19.1618 25.4904L18.04 25.0516L18.395 26.7449L20.3586 27.5324L21.0448 32.0851L20.569 33.5361L22.4741 34.2633L24.3791 33.5361L23.9033 32.0851L24.5822 27.5324L26.5513 26.7449L26.9045 25.0516L25.7772 25.4904L24.703 26.7485L25.0964 24.1102L27.276 23.2556L27.8323 20.5731L26.6757 19.784C26.6757 19.784 28.8296 11.9542 34.6234 11.9542C36.4534 11.9542 39.7438 12.9097 39.7438 18.3029H38.8361C38.8361 18.3029 38.3768 20.9943 37.1525 23.1618C35.93 25.3312 34.8156 25.8301 34.3196 25.8301C33.8219 25.8301 33.1631 25.4356 33.9957 22.8044C34.8064 20.2299 35.048 17.1457 33.207 17.1457ZM15.5493 22.4293C14.7807 22.132 14.0414 21.6171 14.0414 20.3254C14.0414 19.5964 14.1421 18.9771 14.2281 18.5737L15.5493 20.566L16.0471 22.6239L15.5493 22.4293ZM29.3951 22.4293L28.8937 22.6239L29.4006 20.566L30.7164 18.5737C30.806 18.9753 30.903 19.5964 30.903 20.3254C30.903 21.6171 30.1655 22.132 29.3951 22.4293Z" fill="black"/>
<path fill-rule="evenodd" clip-rule="evenodd" d="M22.4742 0.0119934C30.3194 0.0119934 39.1382 0.618913 40.5016 0.716232C42.2272 0.838324 44.9411 1.88407 44.9411 5.93963C44.9411 9.35997 44.5404 21.8469 44.189 27.1641C43.8194 32.7131 41.9893 35.5761 38.7027 37.7312C37.1893 38.7221 32.8393 41.0242 28.8573 43.0714C26.266 44.4074 23.8412 45.6336 22.4742 46.3219L22.3756 46.2721C20.9957 45.5754 18.6193 44.3757 16.0912 43.0714C12.1091 41.0242 7.75188 38.7221 6.24579 37.7312C2.96094 35.5761 1.12545 32.7131 0.75762 27.1641C0.40443 21.8469 0 9.36351 0 5.93963C0 1.88407 2.72121 0.838324 4.44507 0.716232C5.80842 0.618913 14.629 0.0119934 22.4742 0.0119934ZM37.579 36.1458C40.2746 34.3746 41.8594 32.1009 42.198 27.0438C42.5457 21.7549 42.9519 9.34581 42.9448 5.93963C42.9448 3.1616 41.3397 2.70686 40.3533 2.63431C39.0028 2.53876 30.2517 1.93361 22.4742 1.93361C14.6949 1.93361 5.94018 2.53876 4.59147 2.63431C3.60144 2.70686 1.99653 3.1616 1.99653 5.93963C1.99653 9.34581 2.3973 21.7549 2.74866 27.0438C3.08172 32.1009 4.66833 34.3764 7.36575 36.1458C9.60384 37.6109 18.4208 42.1071 22.4742 44.1526C26.5277 42.1071 35.3391 37.6109 37.579 36.1458Z" fill="black"/>
</svg>
