<svg width="68" height="44" viewBox="0 0 68 44" fill="none" xmlns="http://www.w3.org/2000/svg">
<path fill-rule="evenodd" clip-rule="evenodd" d="M17.2791 25.5023C16.9116 24.591 16.6817 23.6391 16.4939 22.6759C16.2786 21.5733 16.1053 20.4641 15.979 19.3485C15.7475 17.3248 15.5532 15.2979 15.5225 13.2628C15.503 12.1229 15.5095 10.9878 15.5225 9.84948C15.537 8.96574 15.5824 8.08199 15.7054 7.20149C15.8139 6.36964 16.0292 5.56373 16.3919 4.80484C17.0379 3.4622 18.0725 2.53305 19.4244 1.94767C20.2177 1.60066 21.0531 1.38662 21.9015 1.22933C22.9037 1.04285 23.9188 0.935828 24.934 0.8434C26.974 0.660165 29.0124 0.574223 31.0605 0.533684C32.877 0.494767 34.6855 0.485037 36.4956 0.528819C37.8491 0.559629 39.2026 0.606654 40.5546 0.674759C41.8611 0.736377 43.1693 0.848264 44.4662 1.00555C45.5299 1.1369 46.5823 1.31365 47.6023 1.64769C48.3681 1.89741 49.0853 2.23145 49.7329 2.71953C50.7416 3.48004 51.3908 4.49026 51.7729 5.6821C52.0028 6.38585 52.1259 7.10744 52.1874 7.84363C52.3509 9.75381 52.3347 11.6689 52.2878 13.5855C52.2635 14.7774 52.1906 15.9708 52.0692 17.1578C51.9462 18.3496 51.815 19.5447 51.658 20.7333C51.4912 21.9316 51.2743 23.1235 50.9505 24.2942C50.7805 24.9072 50.5522 25.4958 50.2899 26.0763C49.6665 27.4514 48.6304 28.4081 47.2574 29.0113C46.4317 29.3746 45.5606 29.6016 44.6783 29.7653C43.5984 29.968 42.5104 30.0734 41.4191 30.1513C39.9523 30.2599 38.487 30.3151 37.025 30.3475C36.2432 30.3634 35.4577 30.3738 34.5114 30.3862C34.2035 30.3903 33.8785 30.3946 33.5311 30.3994C33.1887 30.3918 32.8217 30.3847 32.4364 30.3772C31.3352 30.3558 30.0848 30.3315 28.8326 30.2859C27.6605 30.2421 26.4899 30.1594 25.3258 30.0605C24.1083 29.9599 22.8972 29.7799 21.7266 29.4264C21.3057 29.3016 20.8928 29.1508 20.4881 28.974C19.4988 28.5427 18.6764 27.8941 18.0611 27.0071C17.7341 26.5401 17.5009 26.0244 17.2791 25.5023ZM17.488 8.70791C17.4281 9.67922 17.3925 10.6521 17.3698 11.6267C17.3406 13.1201 17.3617 14.6168 17.4912 16.1119C17.5932 17.354 17.7195 18.5994 17.849 19.8415C17.9721 20.9522 18.1583 22.0533 18.4222 23.1413C18.6181 23.9343 18.8609 24.7126 19.222 25.4536C19.7546 26.5709 20.5804 27.3995 21.7153 27.9184C22.133 28.1097 22.5734 28.2622 23.03 28.3773C23.948 28.6059 24.8789 28.7373 25.8245 28.8184C26.9529 28.9124 28.0911 28.9967 29.2277 29.0421C30.3136 29.0838 31.3971 29.1059 32.4805 29.128C32.9575 29.1377 33.4345 29.1475 33.9116 29.1589V29.1329H34.3423C36.1524 29.1329 37.9592 29.0859 39.758 28.987C41.0743 28.9124 42.3873 28.8119 43.6874 28.5995C44.4419 28.4778 45.1915 28.3043 45.9039 28.0092C47.0664 27.5244 47.9439 26.7395 48.5186 25.6174C48.7518 25.1715 48.938 24.7045 49.0902 24.2245C49.5435 22.8251 49.7815 21.3819 49.9612 19.9307C50.0454 19.2188 50.114 18.5049 50.1828 17.789C50.2001 17.6095 50.2173 17.4299 50.2348 17.2502C50.3449 16.1573 50.4178 15.0595 50.4437 13.9601C50.4793 12.1083 50.4631 10.2549 50.3077 8.4063C50.2607 7.78525 50.1846 7.16906 50.0373 6.56422C49.89 5.96263 49.6763 5.3886 49.3427 4.85998C48.7728 3.94542 47.9552 3.33572 46.9692 2.93033C46.1662 2.59467 45.3146 2.41955 44.4516 2.29144C43.1224 2.08713 41.7818 1.95416 40.4428 1.87957C39.1865 1.80822 37.9333 1.74012 36.6834 1.71579C35.0271 1.68498 33.3741 1.68336 31.7178 1.69958C30.8129 1.70871 29.9091 1.75244 29.0046 1.7962C28.7844 1.80686 28.5641 1.81752 28.3437 1.82768C27.6605 1.85849 26.9805 1.89578 26.3085 1.95903C25.342 2.05308 24.377 2.16496 23.4169 2.28658C22.7272 2.37252 22.044 2.51359 21.3786 2.73413C20.7763 2.93195 20.2064 3.19465 19.6915 3.56274C18.7816 4.21784 18.2198 5.10969 17.8911 6.16532C17.6353 6.99718 17.5382 7.84849 17.488 8.70791Z" fill="black"/>
<path d="M7.81676 36.3996C7.90581 36.4142 7.9819 36.4272 8.06448 36.4369C8.30895 36.4677 8.56152 36.492 8.81571 36.5212C9.11686 36.5585 9.2739 36.7093 9.32409 37.0093C9.33381 37.0466 9.3419 37.0839 9.3419 37.1212C9.3419 37.5379 9.33867 37.9514 9.33867 38.3665C9.33867 38.3746 9.3241 38.3876 9.32086 38.3973C9.09419 38.4346 4.75676 38.4233 4.61267 38.3811V37.6903C4.61752 37.4698 4.60943 37.2493 4.62886 37.0336C4.65638 36.732 4.82314 36.5666 5.11943 36.5244C5.25543 36.5034 5.3979 36.4953 5.53229 36.4774C5.7379 36.4547 5.94029 36.4272 6.14914 36.3996C6.14914 36.2099 6.15238 36.0412 6.14914 35.8693C6.14267 35.7039 6.16857 35.5337 6.13457 35.3699H0V36.3996C0.0922857 36.4142 0.17 36.4272 0.250952 36.4369C0.501905 36.4677 0.749619 36.492 1.00219 36.5212C1.30333 36.5585 1.46524 36.7061 1.52029 37.0077C1.53324 37.0936 1.53324 37.1828 1.53324 37.2687V41.1151C1.53324 41.2123 1.53324 41.3032 1.51543 41.3972C1.45714 41.6907 1.30171 41.8318 1.00705 41.8674C0.752857 41.8983 0.505143 41.9226 0.25581 41.9518C0.166762 41.9631 0.0874286 41.9793 0.00485714 41.9923V43.0009C0.210476 43.0415 6.00019 43.0333 6.14267 42.9928V41.9858C5.82371 41.9469 5.51124 41.9064 5.19876 41.8723C4.81505 41.8318 4.63857 41.6729 4.624 41.2869C4.60943 40.867 4.62076 40.4454 4.62076 40.0254C4.62076 40.014 4.63533 40.0075 4.63857 39.9962C4.89438 39.9556 9.19457 39.9702 9.3419 40.014C9.3419 40.4178 9.34514 40.8248 9.3419 41.2318C9.3419 41.2821 9.33381 41.3323 9.32409 41.3826C9.2739 41.6729 9.12333 41.8253 8.82867 41.8658C8.68943 41.8837 8.55343 41.895 8.41419 41.9112C8.22152 41.9356 8.01752 41.9599 7.82 41.9858V43.0106H13.9481V41.9874C13.8445 41.9729 13.7457 41.9583 13.6534 41.9469C13.4122 41.921 13.1677 41.8966 12.9216 41.8642C12.6448 41.8253 12.499 41.6826 12.4424 41.4053C12.4262 41.3015 12.4213 41.1945 12.4213 41.0891C12.4181 39.8243 12.4181 38.5627 12.4213 37.2979C12.4213 37.199 12.4262 37.0985 12.4391 36.9979C12.499 36.698 12.6577 36.5569 12.967 36.5196C13.1062 36.5034 13.2535 36.4904 13.3944 36.4742C13.579 36.4515 13.7619 36.4255 13.9481 36.4012V35.3699H7.81676V36.3996Z" fill="black"/>
<path d="M35.7406 35.3869V36.3955C35.7795 36.4053 35.8103 36.4101 35.8443 36.4134C36.1341 36.4507 36.432 36.4863 36.725 36.5188C37.0553 36.5577 37.2188 36.7198 37.2609 37.0458C37.269 37.096 37.269 37.1479 37.269 37.1966V40.8515C37.269 40.8905 37.2609 40.931 37.248 40.9926C37.1816 40.9099 37.133 40.8499 37.0926 40.7932C35.8103 39.11 34.5345 37.4317 33.2651 35.7437C33.0757 35.4956 32.8523 35.361 32.5479 35.361C32.4977 35.361 32.4443 35.3577 32.3941 35.3577H27.3329C27.2811 35.3577 27.2277 35.3658 27.1629 35.3707V36.4004C27.2406 36.4101 27.3103 36.4247 27.3734 36.4344C27.6308 36.4636 27.8834 36.4896 28.1457 36.5188C28.4614 36.5528 28.6282 36.7085 28.6848 37.0263C28.6962 37.1139 28.6929 37.2031 28.6929 37.2906C28.6962 38.5603 28.6962 39.8267 28.6962 41.098C28.6962 41.1645 28.6962 41.2358 28.6897 41.3023C28.6606 41.6591 28.4841 41.8342 28.1263 41.8715C27.9854 41.8861 27.8429 41.9007 27.6972 41.9185C27.5191 41.9428 27.3426 41.9672 27.1629 41.9899V43.0001C27.3621 43.039 31.9116 43.0341 32.0525 42.9969C32.0848 42.7715 32.0767 42.1228 32.0427 41.9834C31.9472 41.972 31.8549 41.9591 31.761 41.9477C31.5198 41.9201 31.285 41.8974 31.0503 41.8634C30.7443 41.8261 30.5791 41.6477 30.5484 41.3412C30.5435 41.2715 30.5435 41.205 30.5435 41.1353C30.5386 39.9597 30.5435 38.7857 30.5435 37.6101V37.4301C30.5548 37.4285 30.5694 37.4252 30.584 37.4203C30.6245 37.4755 30.6682 37.529 30.7086 37.5841C31.9845 39.2673 33.27 40.9472 34.5377 42.6369C34.7449 42.9077 34.9894 43.0277 35.3262 43.026C36.5307 43.0212 37.7402 43.0244 38.9512 43.0244C38.9998 43.0244 39.0565 43.0131 39.1147 43.0082V42.7617V37.3344C39.1147 37.2468 39.1147 37.1577 39.1228 37.0717C39.1471 36.7393 39.3268 36.5577 39.6539 36.5188C39.8028 36.5025 39.9453 36.4896 40.0878 36.4717C40.2756 36.4507 40.4586 36.4231 40.6399 36.4004V35.3723C40.3549 35.3383 35.8783 35.3512 35.7406 35.3869" fill="black"/>
<path fill-rule="evenodd" clip-rule="evenodd" d="M52.5284 36.3761C53.312 36.9793 53.7216 37.7868 53.8139 38.7597C53.8673 39.324 53.8301 39.8883 53.6536 40.4348C53.3444 41.3704 52.7113 42.0061 51.8387 42.4309C51.2218 42.7277 50.5612 42.8963 49.8845 42.9596C49.4457 43.0017 49.0021 43.0212 48.5666 43.0212C46.5709 43.0266 44.5764 43.0264 42.5849 43.0261C42.1868 43.0261 41.7888 43.026 41.3909 43.026H41.1335V41.9899C41.214 41.9795 41.2944 41.9687 41.3742 41.9581C41.4807 41.9439 41.5861 41.9299 41.6888 41.9169C41.8329 41.8991 41.977 41.8845 42.1244 41.8699C42.4385 41.8342 42.5971 41.6883 42.6538 41.3769C42.6668 41.2894 42.6716 41.2018 42.6716 41.1142V37.1933C42.6716 36.702 42.5227 36.5398 42.0353 36.488C41.873 36.4719 41.7106 36.4552 41.546 36.4383C41.4446 36.4279 41.3424 36.4174 41.2388 36.4069V35.3691C41.297 35.3626 41.3521 35.3577 41.4071 35.3577C42.1487 35.3577 42.8915 35.3573 43.6349 35.3569C45.3712 35.3558 47.1105 35.3548 48.845 35.3594C49.7145 35.361 50.5693 35.4648 51.3869 35.7647C51.7949 35.9156 52.1835 36.1101 52.5284 36.3761ZM49.9573 40.8256C50.0593 40.6489 50.1338 40.4478 50.184 40.2516C50.2941 39.8478 50.307 39.4327 50.2941 39.0143C50.2795 38.6008 50.2455 38.1857 50.0804 37.7965C49.9104 37.3831 49.6125 37.1041 49.1883 36.9598C48.913 36.8706 48.6216 36.8366 48.3367 36.835C47.5012 36.8317 46.6707 36.8333 45.8401 36.835C45.8101 36.835 45.7794 36.8392 45.7485 36.8435C45.7326 36.8457 45.7167 36.8479 45.7008 36.8496V41.5456C45.7319 41.5463 45.7601 41.5482 45.7868 41.5499C45.8172 41.5518 45.8457 41.5537 45.8741 41.5537C46.0922 41.5537 46.3104 41.554 46.5286 41.5544C47.1108 41.5554 47.6934 41.5563 48.2751 41.5504C48.4905 41.5488 48.7155 41.5294 48.9292 41.4921C49.3631 41.4142 49.7339 41.218 49.9573 40.8256Z" fill="black"/>
<path fill-rule="evenodd" clip-rule="evenodd" d="M23.4634 35.4246C24.1402 35.6013 24.7813 35.851 25.348 36.2645C26.4343 37.0591 26.9023 38.1423 26.8181 39.4736C26.7371 40.7724 26.083 41.7243 24.9643 42.3713C24.349 42.728 23.6803 42.9421 22.9825 43.075C21.7699 43.3085 20.5475 43.3345 19.317 43.2404C18.4913 43.1739 17.6866 43.028 16.9111 42.7394C16.5598 42.6096 16.236 42.4524 15.9283 42.2513C14.8144 41.5248 14.2543 40.4935 14.2637 39.1639C14.2721 37.8001 14.8841 36.7704 16.0482 36.0635C16.6278 35.7083 17.2657 35.4975 17.9263 35.3532C18.7876 35.1619 19.6651 35.1003 20.5734 35.0986C21.5335 35.1051 22.5114 35.1748 23.4634 35.4246ZM21.6695 41.7032C22.4968 41.507 23.0133 40.98 23.1882 40.14C23.3225 39.506 23.3225 38.8671 23.1849 38.2331C23.0084 37.4029 22.4936 36.8856 21.6711 36.6878C20.8923 36.5029 20.1039 36.5029 19.3332 36.7105C18.5917 36.9099 18.1189 37.3899 17.9263 38.139C17.8323 38.486 17.8032 38.8412 17.7822 39.2044C17.795 39.3056 17.8053 39.4069 17.8157 39.508C17.8366 39.7132 17.8575 39.9175 17.8987 40.1173C18.0606 40.9395 18.5447 41.4778 19.3688 41.6854C20.1282 41.8799 20.9021 41.8816 21.6695 41.7032Z" fill="black"/>
<path fill-rule="evenodd" clip-rule="evenodd" d="M64.8808 39.6107C65.2681 40.202 65.6553 40.7931 66.0374 41.3878C66.2317 41.6829 66.481 41.8564 66.8388 41.884C67.036 41.8983 67.2363 41.9247 67.4385 41.9513C67.5334 41.9638 67.6288 41.9764 67.7244 41.9878V42.9883C67.7218 42.9909 67.7202 42.9936 67.7188 42.9959C67.7169 42.9992 67.7153 43.0019 67.7115 43.0029C67.7105 43.0039 67.7095 43.0049 67.7086 43.0059C67.7052 43.0095 67.7024 43.0126 67.6985 43.0126C67.6949 43.0132 67.6913 43.0138 67.6876 43.0144C67.6611 43.0189 67.6318 43.0239 67.6062 43.0239C65.4578 43.0239 63.3125 43.0239 61.1657 43.0223C61.1569 43.0223 61.147 43.0188 61.1331 43.0139C61.1239 43.0106 61.1129 43.0067 61.0993 43.0029V41.9845C61.179 41.9761 61.2574 41.9684 61.335 41.9607C61.4969 41.9448 61.6556 41.9291 61.8165 41.9083C61.9639 41.8888 62.1063 41.8678 62.2407 41.8175C62.4739 41.7267 62.5435 41.5321 62.4237 41.3132C62.3321 41.1423 62.2239 40.9821 62.1153 40.8214C62.0972 40.7945 62.0791 40.7677 62.061 40.7408C62.0423 40.7114 61.9983 40.6963 61.9617 40.6837C61.9539 40.6811 61.9464 40.6785 61.9396 40.6759C61.9184 40.6703 61.8956 40.6717 61.8724 40.6731C61.8619 40.6737 61.8514 40.6743 61.8408 40.6743C61.5517 40.6743 61.2625 40.6744 60.9731 40.6744C59.8157 40.6747 58.6572 40.675 57.5018 40.6711C57.3625 40.6711 57.2783 40.7003 57.2136 40.8267C57.1685 40.9126 57.1165 40.9948 57.0645 41.077C57.0193 41.1484 56.9741 41.2199 56.9335 41.2937C56.7667 41.571 56.8639 41.8045 57.1844 41.871C57.3252 41.9013 57.4677 41.9149 57.6112 41.9285C57.6674 41.9339 57.7238 41.9392 57.7802 41.9456C57.8042 41.9484 57.8283 41.9512 57.8526 41.954C57.941 41.9642 58.0314 41.9747 58.1267 41.9861V42.9899C57.9891 43.0337 53.5043 43.0466 53.2275 43.0029V41.9878C53.3646 41.9693 53.5033 41.9517 53.6402 41.9343C53.6957 41.9272 53.7509 41.9202 53.8055 41.9132C53.9431 41.8986 54.0823 41.884 54.2167 41.871C54.4191 41.8516 54.5761 41.7607 54.696 41.6018C54.7413 41.5467 54.7785 41.4899 54.8125 41.4283C55.4437 40.3997 56.0776 39.3719 56.7122 38.3431C56.9289 37.9917 57.1457 37.6402 57.3625 37.2885C57.39 37.2464 57.416 37.2042 57.4386 37.1588C57.5795 36.8702 57.4289 36.5929 57.1083 36.5572C56.7408 36.515 56.383 36.4745 56.022 36.434C55.9426 36.4242 55.8714 36.4129 55.7953 36.3999V35.3686C55.8077 35.3675 55.82 35.3664 55.8322 35.3653C55.8759 35.3612 55.9187 35.3573 55.9604 35.3573C56.4268 35.3573 56.893 35.3576 57.3591 35.3579C58.7569 35.3588 60.1535 35.3597 61.551 35.3524C61.9509 35.3524 62.2132 35.5308 62.4188 35.8518C62.8319 36.4927 63.2527 37.1315 63.6733 37.77C63.8891 38.0975 64.1049 38.4251 64.3196 38.7528C64.5063 39.0391 64.6936 39.325 64.8808 39.6107ZM59.5725 37.0031C59.1062 37.762 58.64 38.5193 58.1575 39.2927C58.4424 39.3349 60.96 39.3236 61.0912 39.2846C60.9568 39.009 59.6826 37.0923 59.5725 37.0031Z" fill="black"/>
<path d="M22.9922 4.95209C23.036 5.61044 23.0748 6.27041 23.1185 6.92714C23.1849 8.00709 23.2578 9.0838 23.3225 10.1621C23.3841 11.0475 23.4342 11.9312 23.4925 12.8134C23.5589 13.8398 23.635 14.8695 23.7046 15.8959C23.7597 16.7164 23.8131 17.5386 23.873 18.3607C23.9523 19.4812 24.0349 20.6017 24.1142 21.7221C24.1871 22.6367 24.2502 23.5529 24.3231 24.4674C24.4073 25.5247 24.498 26.5803 24.5838 27.6408C24.5886 27.73 24.6048 27.8208 24.6178 27.9084C25.2783 28.0527 27.7118 28.1759 28.2833 28.1646C28.306 28.0851 28.3319 28.004 28.3561 27.9197C28.6719 26.7652 28.9795 25.6058 29.3033 24.4545C29.4862 23.8237 29.7113 23.2124 30.0173 22.627C30.3913 21.8957 30.9887 21.4854 31.7982 21.3573C32.5041 21.247 33.2101 21.1919 33.9224 21.1935C34.6413 21.1935 35.3553 21.247 36.0644 21.3638C36.8351 21.4951 37.418 21.8892 37.7774 22.5848C37.8583 22.7372 37.9328 22.8864 38.0008 23.0437C38.2534 23.6194 38.4622 24.2112 38.6241 24.8177C38.9156 25.8522 39.186 26.89 39.4644 27.9278C39.4887 28.0089 39.5179 28.0883 39.5405 28.1646C40.2561 28.2051 42.8693 28.0089 43.219 27.8905C43.9039 19.6855 44.4155 11.4626 44.9336 3.2219C44.082 3.09542 43.2401 3.04839 42.3868 3.02731C42.3674 3.09866 42.3561 3.15217 42.3447 3.20731C42.0015 4.75751 41.6599 6.30771 41.315 7.85791C40.8082 10.1248 40.2561 12.3804 39.6539 14.623C39.4563 15.3511 39.2183 16.0694 38.8897 16.7505C38.2615 18.0656 37.2059 18.7888 35.7714 18.9898C35.2387 19.0661 34.6931 19.0888 34.154 19.0936C33.3655 19.0969 32.5786 19.0936 31.8031 18.9477C30.8284 18.7693 30.0221 18.3169 29.4053 17.5304C29.0977 17.1364 28.8872 16.6872 28.701 16.2251C28.3853 15.4305 28.1586 14.6068 27.9384 13.7814C27.0868 10.5059 26.3501 7.20604 25.6394 3.89971C25.5746 3.61107 25.5082 3.3273 25.437 3.02731C24.5789 3.04677 23.7402 3.09866 22.8935 3.21703C22.8935 3.28514 22.8919 3.33054 22.8935 3.3727C22.9226 3.89971 22.9615 4.42671 22.9922 4.95209" fill="black"/>
</svg>
