<svg width="55" height="34" viewBox="0 0 55 34" fill="none" xmlns="http://www.w3.org/2000/svg">
<path fill-rule="evenodd" clip-rule="evenodd" d="M7.3478 13.237C6.77423 11.3646 7.11602 9.63609 8.15119 8.03148C9.10387 6.55276 10.4101 5.45771 11.8657 4.53451C14.0853 3.14371 16.5073 2.25048 19.0314 1.60704C20.8523 1.13545 22.7144 0.837708 24.5942 0.66186C24.9987 0.62085 25.4032 0.597608 25.8102 0.574221C25.9981 0.563421 26.1866 0.552591 26.3758 0.539965C26.4081 0.536566 26.4417 0.527385 26.4751 0.518251C26.5006 0.511275 26.526 0.504326 26.5507 0.5H30.0412C30.1747 0.511134 30.3077 0.523922 30.4408 0.536726C30.6661 0.558392 30.8919 0.580103 31.1216 0.593919C32.7185 0.691834 34.2998 0.911644 35.8653 1.22737C38.1105 1.67898 40.2928 2.33441 42.3671 3.33954C44.1055 4.17482 45.7182 5.20193 47.0362 6.64668C47.9064 7.60785 48.5723 8.68491 48.8453 9.98379C49.1832 11.5584 48.8708 13.0192 48.0694 14.38C47.2523 15.7808 46.0914 16.8399 44.7871 17.7471C42.6735 19.2198 40.3223 20.165 37.8689 20.8624C35.9832 21.4039 34.0601 21.7436 32.1076 21.9654C30.2258 22.1712 28.3303 22.2412 26.4367 22.1772C22.5474 22.0414 18.7387 21.4219 15.0871 19.9671C13.2112 19.2198 11.4414 18.2726 9.90727 16.9138C8.75816 15.9067 7.81137 14.7357 7.3478 13.237ZM25.5233 3.25561C26.2874 2.43832 27.2401 2.09262 28.3342 2.05465C31.0941 1.95674 33.8107 2.30843 36.4841 2.98585C37.1942 3.16105 37.9063 3.39056 38.6091 3.61706L38.6091 3.61707L38.6408 3.62729C38.8667 3.70323 39.0828 3.81913 39.2812 3.94702C39.5267 4.12486 39.5444 4.34867 39.3421 4.57447C39.2085 4.72234 39.0514 4.85623 38.8766 4.96014C36.0696 6.72461 33.1133 8.18734 29.9803 9.25442C28.7899 9.65008 27.5799 9.95981 26.3228 10.0218C25.7826 10.0497 25.2483 9.98779 24.7396 9.76198C23.9323 9.3883 23.6808 8.7029 23.6985 7.67579C23.8301 6.13712 24.3173 4.5465 25.5233 3.25561ZM19.4812 3.13172C19.8987 3.02205 20.3514 3.01585 20.7906 3.00983L20.7933 3.00979C21.1666 3.00783 21.2491 3.19167 21.0271 3.49541C20.7527 3.86759 20.4727 4.23283 20.193 4.59759C19.8541 5.0397 19.5157 5.4811 19.1885 5.9333C17.0317 8.91671 15.1657 12.05 13.9262 15.541C13.8142 15.8647 13.661 16.1704 13.4803 16.4502C13.2367 16.8518 12.9617 16.9198 12.5257 16.7739C11.9992 16.5801 11.5808 16.2344 11.1801 15.8527C10.3001 14.9855 9.51048 14.0423 9.10387 12.8413C8.99858 12.528 8.93562 12.1986 8.87244 11.868L8.87244 11.868C8.84133 11.7052 8.81017 11.5421 8.77387 11.3806C8.79371 11.3705 8.81216 11.3661 8.82688 11.3625L8.83477 11.3606C8.85048 10.1397 9.36119 9.11254 10.1174 8.19534C10.9876 7.13625 12.0758 6.33894 13.2407 5.65554C15.1951 4.49854 17.3107 3.7392 19.4812 3.13172ZM42.4292 6.85205C42.3499 7.0122 42.2708 7.17205 42.1903 7.33009C41.9217 7.87052 41.6567 8.41224 41.3919 8.95364L41.3916 8.95418L41.3915 8.95437C40.783 10.1983 40.1754 11.4406 39.5267 12.6615C38.5741 14.4599 37.5408 16.2104 36.3289 17.841L36.1812 18.0384L36.1811 18.0385C35.889 18.4286 35.5994 18.8153 35.3271 19.2138C35.2603 19.3137 35.2446 19.4896 35.2878 19.6095C35.2976 19.6594 35.5019 19.6894 35.608 19.6754C38.0987 19.2398 40.4676 18.4225 42.6774 17.1756C43.9699 16.4462 45.1544 15.5789 46.0599 14.37C46.7357 13.4788 47.1501 12.4956 47.1324 11.3426C47.1324 11.289 47.1355 11.2338 47.1385 11.1783V11.1782V11.1782C47.1446 11.0663 47.1508 10.9532 47.1324 10.849C46.7769 8.59699 45.5512 7.01036 43.5594 6.01323C43.141 5.79542 42.9171 5.89933 42.6932 6.32496C42.6037 6.49968 42.5164 6.67605 42.4292 6.85205ZM32.4553 15.509C32.1724 17.2615 31.3396 18.7182 30.0373 19.8912C29.5521 20.3268 28.953 20.4927 28.3303 20.5446C28.0157 20.5704 27.6981 20.5838 27.4456 20.5945C27.345 20.5988 27.2548 20.6026 27.1792 20.6066C25.5685 20.5806 24.1483 20.4247 22.7203 20.2289C21.2491 20.0251 19.7857 19.7693 18.3557 19.3577C17.8626 19.2198 17.3774 19.0559 16.908 18.8781C16.5151 18.7142 16.5033 18.4744 16.8274 18.2107C19.9192 15.7048 23.4294 14.1002 27.2617 13.205C28.2596 12.9712 29.2633 12.7834 30.3024 12.8593C31.0744 12.9133 31.7816 13.1431 32.2078 13.8824C32.5123 14.386 32.5476 14.9535 32.4553 15.509Z" fill="black"/>
<path fill-rule="evenodd" clip-rule="evenodd" d="M41.1765 25.3169C41.3317 25.3169 41.4889 25.3269 41.6362 25.3489C42.4749 25.5128 42.8442 25.9804 42.8776 26.9935C42.8944 27.4086 42.8912 27.8246 42.888 28.2425C42.8868 28.41 42.8855 28.5778 42.8855 28.746C42.8855 29.0757 42.8859 29.4046 42.8863 29.7335C42.8872 30.3909 42.8881 31.048 42.8855 31.7114C42.8855 31.9132 42.8737 32.119 42.8285 32.3189C42.7381 32.8384 42.4435 33.2041 41.9446 33.3779C41.8948 33.3948 41.8457 33.4136 41.7973 33.4321C41.7596 33.4465 41.7222 33.4608 41.6853 33.4739H35.0735C35.0749 33.4394 35.0771 33.4034 35.0793 33.3669C35.0832 33.3017 35.0873 33.2349 35.0873 33.1721V25.6406V25.3349C35.1354 25.3331 35.1798 25.3291 35.2215 25.3253C35.27 25.321 35.315 25.3169 35.3583 25.3169H41.1765ZM39.776 31.4996C40.3437 31.4916 40.5008 31.3397 40.5283 30.7522C40.5309 30.7262 40.5301 30.7045 40.5293 30.6804C40.5288 30.6674 40.5283 30.6537 40.5283 30.6383C40.5283 30.3611 40.5288 30.0838 40.5292 29.8067C40.5301 29.253 40.5309 28.6998 40.5283 28.1485C40.5283 28.0346 40.5126 27.9147 40.4871 27.8008C40.4262 27.4531 40.2867 27.2792 39.9371 27.2692C39.3581 27.2594 38.7782 27.2614 38.1946 27.2635C37.9505 27.2644 37.7057 27.2652 37.4601 27.2652V31.4996H39.776Z" fill="black"/>
<path fill-rule="evenodd" clip-rule="evenodd" d="M51.6474 25.3081V25.5899C51.6474 26.8558 51.6464 28.1237 51.6454 29.3916C51.6444 30.6595 51.6434 31.9274 51.6434 33.1933C51.6434 33.2872 51.6474 33.3811 51.6513 33.4751H49.3216V31.6906H46.2495V33.4751H43.969C43.969 32.9165 43.9682 32.3576 43.9674 31.7984C43.9651 30.2128 43.9628 28.6247 43.9788 27.0366C43.9866 26.0595 44.6702 25.3941 45.6366 25.3361C45.6622 25.3341 45.6875 25.3314 45.7128 25.3288C45.7635 25.3235 45.8141 25.3181 45.8665 25.3181C46.6573 25.3138 47.4481 25.3107 48.2385 25.3075C49.2954 25.3032 50.3516 25.299 51.4058 25.2921C51.4422 25.2921 51.4771 25.2953 51.5169 25.299C51.5543 25.3024 51.596 25.3062 51.6474 25.3081ZM46.2495 29.6264H49.3177V27.2744C49.2374 27.2744 49.1573 27.2738 49.0776 27.2731C48.9196 27.2718 48.7634 27.2704 48.6106 27.2744C48.4231 27.2781 48.2349 27.2795 48.0465 27.281C47.623 27.2841 47.1986 27.2873 46.7799 27.3164C46.4754 27.3324 46.2633 27.5442 46.2593 27.8519C46.2408 28.2786 46.244 28.7064 46.2471 29.1352C46.2483 29.2988 46.2495 29.4625 46.2495 29.6264Z" fill="black"/>
<path d="M24.9195 25.2921C24.287 25.2921 23.6467 25.3041 23.0102 25.2861C22.7922 25.2821 22.7411 25.3581 22.745 25.5699C22.7509 27.3423 22.7509 29.1268 22.745 30.9013C22.745 31.3629 22.6076 31.4888 22.1636 31.4928H19.9499H19.6945V25.3141H17.3236V25.6418C17.3236 27.2125 17.3158 28.7791 17.3236 30.3477C17.3236 31.3948 17.3236 32.4339 17.3276 33.475H23.9884C24.0159 33.469 24.0336 33.4391 24.0631 33.4331C24.7133 33.3192 25.0354 32.8975 25.1277 32.2641C25.1592 32.0723 25.1788 31.8684 25.1788 31.6706C25.1867 29.6484 25.1867 27.6101 25.1906 25.5899V25.3081C25.0865 25.3041 25 25.2921 24.9195 25.2921" fill="black"/>
<path d="M34.035 28.629C34.035 27.9936 34.0291 27.3581 33.9918 26.7367C33.9427 26.0633 33.5852 25.5997 33.0037 25.4418C32.6875 25.3619 32.3614 25.3039 32.0452 25.3039C30.1594 25.2819 28.2718 25.2859 26.3841 25.2859C26.3232 25.2859 26.2702 25.2919 26.1818 25.2999V25.5697V27.6279C26.1818 29.5802 26.1818 31.5225 26.1778 33.4748H28.5507C28.5507 31.4346 28.5507 29.4024 28.5428 27.3621C28.5428 27.3441 28.5546 27.3242 28.5644 27.2862C28.6037 27.2742 28.6469 27.2642 28.6902 27.2642C29.4778 27.2622 30.2773 27.2562 31.063 27.2622C31.4343 27.2622 31.5953 27.4221 31.5953 27.8018C31.6012 29.6521 31.5953 31.5085 31.5953 33.3589C31.5953 33.4029 31.5875 33.4429 31.5757 33.4748H34.0527C34.0389 33.4329 34.0291 33.3809 34.0291 33.341C34.035 31.7623 34.0389 30.1917 34.035 28.629" fill="black"/>
<path d="M5.46464 25.2921C5.3075 25.2921 5.32911 25.408 5.32911 25.5119V27.746V28.2076H2.27071V25.2921H1.98C1.31804 25.2861 0.663929 25.2821 0 25.2762V33.4751H2.28446V30.2658H5.35857V33.4751H7.73536C7.74125 33.4591 7.74125 33.4331 7.74125 33.4091V25.492C7.74125 25.434 7.72357 25.3721 7.71375 25.3001C6.95357 25.2921 6.21107 25.3001 5.46464 25.2921" fill="black"/>
<path d="M14.7508 25.3039C14.6781 25.3039 14.574 25.3898 14.5269 25.4598C13.9356 26.2911 13.3581 27.1343 12.7688 27.9656C12.7315 28.0336 12.6765 28.0915 12.6156 28.1754C12.5547 28.0835 12.5154 28.0276 12.4801 27.9656C11.9478 27.1443 11.4154 26.319 10.8851 25.4918C10.8124 25.3799 10.7417 25.3139 10.5924 25.3139C9.86366 25.3139 9.13491 25.3039 8.4042 25.2919H8.10759C8.19009 25.4198 8.23134 25.4918 8.27848 25.5597C9.1408 26.8746 9.97759 28.2114 10.8772 29.5063C11.2583 30.0478 11.439 30.5893 11.3899 31.2588C11.3408 31.9941 11.3703 32.7375 11.3644 33.4748H13.7412C13.7412 32.4777 13.7412 31.4726 13.7529 30.4694C13.7529 30.3476 13.8001 30.2037 13.8649 30.0978C14.8962 28.5771 15.9392 27.0504 16.9704 25.5277C17.0137 25.4698 17.051 25.4038 17.0922 25.3319C17.0549 25.3139 17.0313 25.2999 17.0078 25.2999C16.2594 25.2999 15.5051 25.2859 14.7508 25.3039" fill="black"/>
<path d="M52.7379 25.6005C52.7477 28.1223 52.7438 30.6501 52.7438 33.1719C52.7438 33.2698 52.7261 33.3777 52.7261 33.4737H54.9556V25.3307C54.3192 25.3127 53.6729 25.3167 53.0267 25.2868C52.787 25.2768 52.7379 25.3667 52.7379 25.6005" fill="black"/>
</svg>
