<svg width="39" height="61" viewBox="0 0 39 61" fill="none" xmlns="http://www.w3.org/2000/svg">
<path fill-rule="evenodd" clip-rule="evenodd" d="M39 30.5027C39 13.7637 30.3502 0 19.5008 0C8.64558 0 0 13.7637 0 30.5027C0 47.2417 8.64558 61 19.5008 61C30.3502 61 39 47.2417 39 30.5027ZM0.479135 30.5027C0.479135 13.8177 9.07861 0.491364 19.5008 0.491364C29.9209 0.491364 38.5177 13.8177 38.5177 30.5027C38.5177 47.1823 29.9209 60.514 19.5008 60.514C9.07861 60.514 0.479135 47.1823 0.479135 30.5027ZM36.6785 36.7285C36.6785 36.7285 36.6247 37.4689 36.4302 38.6851L36.3675 39.064C35.82 42.2703 34.3759 48.174 30.7583 52.8843C27.0376 57.7332 22.453 59.2829 19.5379 59.2829C16.2995 59.2829 12.0652 57.8412 8.31062 52.8573C3.12708 45.9835 2.31828 36.7285 2.31828 36.7285H36.6785ZM14.3194 39.9359C14.3194 39.3365 14.904 38.8992 15.39 38.8992C15.5776 38.8992 15.7589 38.937 15.9137 38.991L16.0377 39.0504L16.1087 39.0774L16.1352 39.0882C16.1643 39.0882 16.1869 39.055 16.2055 39.0277L16.2134 39.0161L16.2151 39.0138L16.22 39.0072H16.4214L16.5062 39.9899H16.2836C16.1617 39.6227 15.9301 39.1692 15.4695 39.1692C15.1674 39.1692 14.8621 39.4283 14.8621 39.7037C14.8621 39.8765 14.9072 39.9953 15.0524 40.1411C15.2221 40.3173 15.4651 40.4936 15.6836 40.6521C15.7463 40.6975 15.807 40.7415 15.8633 40.7837C16.2677 41.086 16.5804 41.4262 16.5804 41.9932C16.5804 42.6087 16.0467 43.1487 15.3741 43.1487C15.1712 43.1487 14.9843 43.0894 14.7945 43.0291L14.7944 43.0291C14.7552 43.0167 14.7158 43.0042 14.6761 42.9921L14.6305 42.9759H14.587C14.5287 42.9759 14.5263 42.9956 14.5216 43.035L14.5202 43.0465L14.5187 43.0569H14.3194L14.2076 42.004H14.4418C14.5574 42.3712 14.8558 42.8733 15.31 42.8733C15.5289 42.8733 16.0372 42.7167 16.0372 42.2254C16.0372 41.9986 15.9624 41.8366 15.8188 41.6746C15.672 41.518 15.4557 41.3614 15.1727 41.167C14.4577 40.6649 14.3194 40.2977 14.3194 39.9359ZM26.8044 38.8938H26.1472L26.2426 39.1908L25.2514 42.0418L25.2474 42.0535C25.0701 42.5635 24.9943 42.7817 24.6313 42.7977C24.3133 42.7491 24.202 42.6573 23.9317 42.0256C23.6667 41.3884 23.5925 41.275 23.46 41.14C23.7409 41.0158 24.1437 40.7837 24.1437 40.0601C24.1437 39.4607 23.8204 39.1908 23.4706 39.0774C23.2127 38.9976 22.9628 38.9994 22.7036 39.0012C22.6644 39.0015 22.6251 39.0018 22.5855 39.0018C22.4647 39.0018 22.3429 39.0014 22.2206 39.0011H22.2189H22.2183H22.2182H22.2181H22.2179H22.2178H22.2177H22.2176H22.2175H22.2173H22.2172H22.2171H22.217H22.2169H22.2167H22.2166H22.2165H22.2164H22.2163H22.2161C21.8461 39.0001 21.4708 38.9991 21.1014 39.0072V39.2502C21.218 39.2502 21.3346 39.2502 21.4512 39.2556C21.6727 39.2748 21.6889 39.3579 21.6898 39.5544L21.6898 42.2686C21.6898 42.7329 21.5732 42.7869 21.1014 42.7653V43.0137H23.0042V42.7653H22.7233C22.4106 42.7653 22.3629 42.6843 22.3629 42.1498L22.3576 41.2966H22.824C22.8772 41.3908 22.9912 41.6164 23.0994 41.8304L23.0998 41.8313L23.0999 41.8313L23.0999 41.8314L23.0999 41.8315L23.1 41.8316C23.1961 42.0219 23.2876 42.2029 23.3275 42.274C23.672 42.8787 24.1119 43.0353 24.6631 43.0137H26.0677V42.7707C26.0513 42.7703 26.0338 42.7701 26.0157 42.7698C25.8054 42.7667 25.4974 42.7621 25.5217 42.4738C25.5501 42.1227 25.6751 41.7716 25.792 41.4434C25.8063 41.4031 25.8205 41.3632 25.8345 41.3236H26.9316L27.1595 42.058L27.1609 42.0625C27.2135 42.2341 27.2708 42.4208 27.2708 42.5385C27.2708 42.7648 26.9717 42.7679 26.7942 42.7697L26.7565 42.7702L26.7355 42.7707V43.0137H28.4792V42.7707C28.0579 42.7408 28.0351 42.6693 27.9336 42.3517L27.9147 42.2927L27.9068 42.2686L26.8044 38.8938ZM11.4721 38.8938H12.1304L13.2302 42.2686C13.2408 42.3002 13.2505 42.3298 13.2595 42.3575C13.3616 42.6702 13.3847 42.741 13.8058 42.7707V43.0137H12.0605V42.7707L12.0759 42.7701L12.1167 42.7685C12.228 42.7645 12.3599 42.7597 12.4564 42.7275C12.5433 42.6951 12.5937 42.6465 12.5937 42.5385C12.5937 42.4198 12.5407 42.2308 12.485 42.058L12.2544 41.3236H11.1594C11.1413 41.3761 11.1216 41.4313 11.1012 41.4886L11.1012 41.4887C10.9914 41.7968 10.8607 42.1633 10.8446 42.4684C10.8324 42.6897 10.9771 42.7221 11.1462 42.7437L11.3582 42.7653L11.3937 43.0137H9.94359V42.7761C10.2468 42.7059 10.348 42.6411 10.4604 42.3604C10.4852 42.299 10.5103 42.2268 10.5385 42.1457C10.55 42.1125 10.5621 42.0778 10.5748 42.0418L11.5649 39.1908L11.4721 38.8938ZM20.0997 39.0234H17.3012V39.2718C17.7253 39.261 17.8631 39.2772 17.8631 39.7469V42.2902C17.8631 42.7383 17.7571 42.7869 17.3012 42.7653V43.0137H20.2375L20.3276 41.977H20.0997C19.9937 42.4576 19.9301 42.7221 19.4372 42.7221L18.7253 42.7228C18.6579 42.7213 18.5828 42.7135 18.5574 42.6843C18.5309 42.6573 18.5228 42.6041 18.5208 42.4684L18.5203 41.1292H19.1934C19.611 41.1292 19.6131 41.1925 19.6258 41.5823L19.628 41.6476H19.8612V40.3517H19.628L19.6274 40.3636C19.6218 40.4685 19.6089 40.7112 19.5273 40.7891C19.4849 40.8279 19.4289 40.8357 19.3295 40.8373L18.5203 40.8377V39.3149H19.3418C19.8085 39.3149 19.8338 39.47 19.9091 39.9319L19.9142 39.9629H20.1315L20.0997 39.0234ZM32.4384 39.0234H34.2723V39.2664C33.7204 39.2947 33.6839 39.3768 33.6834 39.8093L33.684 42.1984C33.7211 42.7167 33.8006 42.7329 34.2935 42.7707V43.0137H32.4649V42.7707C32.4943 42.7682 32.5246 42.7663 32.5552 42.7644L32.5555 42.7644C32.6573 42.7579 32.7635 42.7512 32.8571 42.7221C32.9101 42.7059 32.9207 42.6897 32.9472 42.6465C33.0108 42.517 33.0238 42.2763 33.0262 41.9755L33.0267 39.8387C33.0267 39.3312 32.9207 39.3042 32.4384 39.2664V39.0234ZM28.7389 38.8992H28.564L28.4898 39.9791H28.6965C28.7077 39.9392 28.7186 39.8989 28.7294 39.8585L28.7294 39.8584C28.7597 39.7459 28.79 39.6328 28.829 39.5255C28.8986 39.3271 29.025 39.3147 29.2046 39.3147L29.8361 39.3149V42.2794C29.8361 42.5331 29.8149 42.6303 29.746 42.6843C29.657 42.7511 29.3656 42.7631 29.2293 42.7687L29.2073 42.7696L29.1841 42.7707V43.0137H31.1399V42.7707L31.0998 42.769C30.9651 42.7634 30.6784 42.7515 30.5834 42.6789C30.5092 42.6195 30.488 42.5115 30.488 42.2416V39.3149H31.1081C31.2618 39.3149 31.3466 39.3204 31.4208 39.3905C31.5308 39.5077 31.5889 39.8075 31.6174 39.9544L31.6222 39.9791H31.8448L31.7547 38.8992H31.5798L31.5745 38.9138C31.5611 38.9518 31.5485 38.9874 31.5109 39.0018C31.4738 39.018 31.4049 39.0234 31.2724 39.0234H28.9297C28.8873 39.0234 28.8608 39.018 28.8396 39.0072C28.7813 38.9856 28.7654 38.9532 28.7389 38.8992ZM4.82101 39.0234H6.02679L7.11967 41.923L8.23641 39.0234H9.42577V39.2664L9.28521 39.2668C9.10239 39.269 9.01659 39.2802 8.97207 39.3312C8.9196 39.3905 8.91271 39.5147 8.93338 39.8279L9.06006 42.1336L9.06271 42.1838C9.06999 42.3282 9.0815 42.5567 9.15069 42.6573C9.23613 42.7852 9.44951 42.7742 9.58661 42.7672L9.62452 42.7653V43.0137H7.88979V42.7707L7.9253 42.7679L7.95256 42.7659H7.9526C8.07218 42.7571 8.22097 42.7461 8.31804 42.7005C8.40337 42.6627 8.45425 42.5979 8.45425 42.4684L8.45035 42.3443C8.44729 42.2795 8.44282 42.2102 8.43835 42.1768L8.311 39.737L7.05183 43.0137H6.8446L5.62557 39.7415L5.49254 42.2686C5.48511 42.3118 5.47716 42.436 5.47716 42.5331C5.47716 42.7545 5.76549 42.7653 5.92079 42.7653H5.96213V43.0137H4.54434V42.7707L4.58104 42.7693C4.7164 42.7643 4.9879 42.7544 5.07594 42.6465C5.1459 42.5548 5.16074 42.3928 5.18937 42.0364L5.30597 39.6551C5.3224 39.4553 5.30438 39.3797 5.25244 39.342C5.1801 39.2845 4.96748 39.2738 4.8577 39.2682H4.85761H4.85752H4.85743H4.85735H4.85726H4.85717H4.85708H4.857H4.85691H4.85682H4.85674H4.85665H4.85656H4.85647L4.82101 39.2664V39.0234ZM26.4016 39.5579L26.8733 41.0374H25.8928L26.4016 39.5579ZM12.1972 41.0374L11.7271 39.5579L11.2183 41.0374H12.1972ZM22.6526 39.2595L22.7551 39.261C23.089 39.261 23.5077 39.3851 23.5077 40.1195C23.5077 40.6001 23.3699 40.8161 23.2162 40.9132C23.0805 41.0003 22.9401 41.0048 22.7905 41.0096L22.7657 41.0104H22.3523V39.2664C22.3891 39.2664 22.436 39.2649 22.4867 39.2633L22.5437 39.2616L22.6526 39.2595ZM21.7587 36.7231V35.1464H17.4867V36.7231H21.7587ZM22.4424 33.1755V34.5902H16.7977V33.1755H22.4424ZM23.99 29.439C24.5094 29.331 24.5094 29.2392 24.5094 29.2392H14.7339C14.7339 29.2716 14.7344 29.3364 15.2543 29.439C15.2543 29.439 16.0483 29.5686 16.697 30.1733C17.5487 30.9621 17.6184 32.3271 17.6241 32.5586L17.6245 32.5924H21.6262L21.6267 32.5586C21.6323 32.3271 21.702 30.9621 22.5537 30.1733C23.2003 29.5686 23.99 29.439 23.99 29.439ZM13.3272 29.2392C13.3272 30.4541 12.555 30.9995 11.3126 30.7295V29.2392H13.3272ZM27.9386 30.7295V29.2392H25.9246C25.9246 30.4541 26.6984 30.9995 27.9386 30.7295ZM28.9032 27.9325V28.6398H10.3395V27.9325H28.9032ZM28.0128 27.2953V26.5879H11.2331V27.2953H28.0128ZM28.882 25.265V25.9724H10.3157V25.265H28.882ZM19.8625 6.46384C19.7597 5.92495 19.6894 5.55663 19.6121 5.54005C19.5347 5.55664 19.4644 5.92535 19.3615 6.46502L19.3615 6.46503C19.1964 7.33039 18.9475 8.63531 18.4514 9.633C17.9753 10.5963 17.1491 11.4667 16.6292 12.0144C16.3273 12.3325 16.1286 12.5419 16.1617 12.5974C16.2655 12.7657 16.991 12.4118 17.4668 12.1797L17.4669 12.1797C17.5255 12.1511 17.5804 12.1244 17.6298 12.1006C18.356 11.7551 18.9496 11.4851 18.9496 11.4851C18.9496 11.4851 19.2358 15.362 18.3136 18.9204C17.5556 21.8416 15.7398 24.5037 15.575 24.7359H17.8896C17.9638 24.6117 18.0327 24.4929 18.1016 24.3687C18.7323 23.2402 19.1722 22.2628 19.6121 20.5781C20.0467 22.2628 20.4972 23.2402 21.1279 24.3687C21.1795 24.4693 21.2379 24.5663 21.2977 24.6656L21.3399 24.7359H23.6508C23.4865 24.5037 21.6739 21.8416 20.9159 18.9204C19.9884 15.3566 20.2799 11.4851 20.2799 11.4851C20.2799 11.4851 20.8682 11.7497 21.5943 12.1006C21.6637 12.1327 21.7433 12.1708 21.8289 12.2118C22.306 12.4404 22.9681 12.7577 23.0625 12.5974C23.0978 12.5414 22.8968 12.329 22.5911 12.0061C22.0716 11.4574 21.25 10.5896 20.7728 9.6276C20.2765 8.63289 20.0276 7.3287 19.8625 6.46384ZM10.3321 12.8836C11.6476 13.8069 12.9382 15.3296 12.8433 15.443C12.817 15.4747 12.712 15.4151 12.5311 15.3122C12.3113 15.1873 11.9795 14.9987 11.5405 14.8329C10.9727 14.6169 10.6178 14.5713 10.4443 14.5649L10.3618 14.5647C10.3311 14.5659 10.3162 14.5683 10.3162 14.5683C10.3162 14.5683 11.7287 16.9495 12.4288 19.5306C13.0155 21.6958 13.3208 24.4929 13.3367 24.7359H11.2321C11.223 24.4497 11.0778 20.5295 10.1752 17.4517C9.49364 15.1248 8.33735 13.4473 7.7288 12.5645C7.45477 12.1669 7.2918 11.9305 7.33327 11.8685C7.45517 11.6795 9.09928 12.0197 10.3321 12.8836ZM31.919 11.8685C31.7971 11.6795 30.1541 12.0197 28.9191 12.8836C27.6047 13.8069 26.3115 15.3296 26.4069 15.443C26.4332 15.4748 26.5386 15.4149 26.7201 15.3119C26.9401 15.187 27.2721 14.9986 27.7107 14.8329C28.2796 14.6169 28.6341 14.5713 28.8072 14.5649L28.8896 14.5647C28.9202 14.5659 28.935 14.5683 28.935 14.5683C28.935 14.5683 27.5199 16.9495 26.8203 19.5306C26.2373 21.6958 25.9299 24.4929 25.914 24.7359H28.0181L28.0182 24.7336C28.0295 24.4296 28.1741 20.5216 29.0781 17.4517C29.7586 15.1224 30.9162 13.4439 31.5246 12.5618C31.7977 12.1658 31.9601 11.9303 31.919 11.8685Z" fill="black"/>
</svg>
