<svg width="83" height="18" viewBox="0 0 83 18" fill="none" xmlns="http://www.w3.org/2000/svg">
<path fill-rule="evenodd" clip-rule="evenodd" d="M10.1684 0.0537415C13.0319 0.0537415 16.4392 0.559806 18.5219 2.9056C18.5938 2.99647 18.6698 3.08733 18.7457 3.17681C19.7558 4.43218 20.3727 6.23277 20.3727 8.64566C20.3727 16.0829 14.591 17.2711 10.1684 17.2711C5.78442 17.2711 0 16.0829 0 8.64566C0 6.23277 0.620949 4.43218 1.62566 3.17681C1.63062 3.16965 1.63555 3.16249 1.64048 3.15534C1.66728 3.11642 1.69387 3.07782 1.72427 3.0412C3.76967 0.559806 7.28083 0.0537415 10.1684 0.0537415ZM3.54314 4.36648C4.90763 2.16048 7.51002 1.61527 10.1684 1.61527C12.8361 1.61527 15.3718 2.12553 16.7656 4.29798C16.7789 4.32192 16.7932 4.34555 16.8073 4.36902L16.8073 4.36906C16.8229 4.3949 16.8383 4.42053 16.8522 4.44616C16.2 4.84706 15.523 5.14135 14.8504 5.43375C13.0836 6.20175 11.3467 6.95673 10.1684 9.59628C8.89567 7.04766 7.15906 6.32176 5.41222 5.59159L5.41221 5.59158C4.73391 5.30805 4.05406 5.02388 3.39923 4.63209C3.44454 4.54262 3.49251 4.45595 3.54314 4.36648ZM10.1684 15.7096C6.24014 15.7445 2.53576 14.5563 2.53576 8.64566C2.53576 8.2039 2.53576 7.76214 2.60106 7.38749C2.61527 7.33343 2.6283 7.27813 2.64133 7.22283C2.64784 7.19519 2.65436 7.16754 2.66102 7.14005C3.60502 7.47283 4.54767 7.80632 5.49089 8.14002L5.49151 8.14024L6.6319 8.54361C8.18827 9.22442 9.22896 10.1736 10.1684 12.3125C11.1131 10.1736 12.1218 9.08742 13.7128 8.40801C14.6182 8.0696 15.5229 7.73055 16.427 7.39173L16.4282 7.39128L17.7144 6.90938C17.7168 6.91852 17.7194 6.92765 17.7221 6.93683L17.7221 6.93702C17.7296 6.96292 17.7371 6.98921 17.741 7.01703C17.8063 7.48954 17.8383 8.0697 17.8383 8.64706C17.8383 14.5563 14.1019 15.7445 10.1684 15.7096Z" fill="black"/>
<path d="M54.1499 6.31461L58.1 3.18417H49.8V6.31461H54.1499Z" fill="black"/>
<path fill-rule="evenodd" clip-rule="evenodd" d="M72.8791 3.18581H79.867C79.867 3.18581 83 3.05457 83 6.23467V14.1407H74.827C74.827 14.1407 72.1611 14.0965 71.7811 11.3129C71.1436 13.345 69.7922 14.0965 68.3511 14.0965H60.8142V6.05784L51.2053 14.1379H41.4697C41.4697 14.1379 39.7765 14.1379 38.928 12.6805V14.1379H35.4135V7.86754C35.4135 7.86754 35.626 6.45432 33.975 6.45432H32.8348V14.1379H29.4471V6.45432H26.9502V14.1407H23.3909V3.18719H35.1588C35.1588 3.18719 38.928 2.92472 38.928 7.29424V8.52925C39.7328 7.23203 41.2976 7.24355 41.9262 7.24817C41.9604 7.24842 41.9917 7.24865 42.0201 7.24865H46.4636C46.4636 7.24865 46.6774 6.14764 45.0673 6.14764H39.5218V3.18581H46.5058C46.5058 3.18581 49.6414 3.05457 49.6414 6.23467V11.0918L59.2081 3.18581H68.6045C68.6045 3.18581 72.202 3.05457 72.202 8.04436V8.57208C73.0057 7.23218 74.6144 7.24369 75.244 7.2482C75.2772 7.24843 75.3076 7.24865 75.3351 7.24865H79.7812C79.7812 7.24865 80.0346 6.14764 78.4232 6.14764H72.8791V3.18581ZM64.2032 10.915H67.3772C68.2257 10.915 68.941 10.473 68.941 8.4436C68.941 6.40873 67.4181 6.27887 67.4181 6.27887H64.2032V10.915ZM75.9712 11.1347H79.6941V9.67862H76.053C75.8432 9.67862 75.2084 9.72282 75.2084 10.3859C75.2084 11.1803 75.9712 11.1347 75.9712 11.1347ZM46.4187 11.1347H42.6931C42.6931 11.1347 41.9343 11.1803 41.9343 10.3859C41.9343 9.72282 42.5268 9.67862 42.7367 9.67862H46.4187V11.1347Z" fill="black"/>
<path d="M52.0636 14.1407H60.3636V11.0103H56.0115L52.0636 14.1407Z" fill="black"/>
</svg>
