<svg width="38" height="48" viewBox="0 0 38 48" fill="none" xmlns="http://www.w3.org/2000/svg">
<path fill-rule="evenodd" clip-rule="evenodd" d="M31.5593 31.4683C27.945 35.0096 23.6139 36.8281 18.4652 36.8281C13.4102 36.8281 8.97307 35.0096 5.36053 31.4683C1.7533 27.9234 0 23.6745 0 18.7162C0 13.6571 1.7533 9.40992 5.36053 5.86855C8.97307 2.32545 13.4102 0.5 18.4652 0.5C23.6139 0.5 27.945 2.32545 31.5593 5.86855C35.1631 9.40992 36.9199 13.6571 36.9199 18.7162C36.9199 23.6745 35.1631 27.9234 31.5593 31.4683ZM18.4652 1.7187C13.7174 1.7187 9.59458 3.33553 6.19039 6.67696C2.78267 10.0132 1.13532 14.0639 1.13532 18.7162C1.13532 23.3737 2.78267 27.3184 6.19039 30.6564C9.59458 34.0013 13.7174 35.7155 18.4652 35.7155C23.2025 35.7155 27.3306 33.9978 30.733 30.6564C34.1354 27.3184 35.7863 23.3737 35.7863 18.7162C35.7863 14.0639 34.1354 10.0132 30.733 6.67696C27.3306 3.33553 23.2025 1.7187 18.4652 1.7187Z" fill="black"/>
<path fill-rule="evenodd" clip-rule="evenodd" d="M28.0842 28.0595C25.4233 30.6569 22.2187 31.9608 18.4578 31.9608C14.8064 31.9608 11.6053 30.6569 8.94621 28.0595C6.29066 25.4483 4.96289 22.3033 4.96289 18.7202C4.96289 15.0259 6.29066 11.8861 8.94621 9.28179C11.6053 6.67401 14.8064 5.37012 18.4578 5.37012C22.2187 5.37012 25.4233 6.67401 28.0842 9.28179C30.7344 11.8861 32.0622 15.0259 32.0622 18.7202C32.0622 22.3033 30.7344 25.4483 28.0842 28.0595ZM5.51554 18.7202C5.51554 15.2484 6.73031 12.206 9.27816 9.60515C11.8242 7.10342 14.9212 5.91254 18.4578 5.91254C20.7796 5.91254 22.992 6.46191 25.0896 7.64932C27.0848 8.84542 28.6298 10.3631 29.7368 12.4302H14.1408C13.4787 12.4302 12.9278 12.6389 12.5941 13.077L12.2656 13.5099L6.51137 23.3864C5.85102 21.7626 5.51554 20.1319 5.51554 18.7202ZM15.6928 14.4834L16.0194 14.054C16.4644 13.7272 17.0206 13.5099 17.5732 13.5099H30.2912L30.7344 14.4834H18.5708C18.0146 14.4834 17.4567 14.706 17.0206 15.1406L16.6869 15.464L9.49886 27.837L8.50656 26.747L15.6928 14.4834ZM22.992 16.5523H31.2853L31.0699 15.464H21.9962C21.3358 15.464 20.7796 15.6778 20.34 16.2272L20.1193 16.5523L12.2656 29.7876L13.4787 30.4448L21.1116 17.6336L21.4471 17.199C21.7719 16.7679 22.3299 16.5523 22.992 16.5523ZM31.4001 18.7202C31.4001 22.1955 30.1835 25.1267 27.6375 27.6214C25.0896 30.1127 22.1092 31.4166 18.4578 31.4166L17.0206 31.3088L24.5405 18.6055L24.7612 18.2873C25.2008 17.7414 25.7535 17.5276 26.3097 17.5276H31.4001V18.7202Z" fill="black"/>
<path d="M7.42491 45.8348V39.6631H5.8782L3.81768 44.3188L1.85603 39.6631H0.206909V45.8348H1.34223V41.1791L3.29857 45.8348H4.33148L6.3973 41.1791V45.8348H7.42491Z" fill="black"/>
<path fill-rule="evenodd" clip-rule="evenodd" d="M8.14832 43.6067C8.14832 41.9864 8.97288 41.1797 10.6238 41.1797C12.3788 41.1797 13.3076 42.0872 13.3076 43.9126H9.17769C9.38251 44.7211 9.90338 45.1279 10.7244 45.227C11.3459 45.227 11.7573 45.0236 12.0716 44.5176H13.2034L12.5819 45.4321C12.174 45.8337 11.5525 46.0423 10.7244 46.0423C8.97288 46.0423 8.14832 45.227 8.14832 43.6067ZM10.6238 41.9864C9.90338 41.9864 9.38251 42.3967 9.28363 43.106H12.174C12.0716 42.3967 11.5525 41.9864 10.6238 41.9864Z" fill="black"/>
<path d="M19.9069 42.0872C20.629 42.0872 21.1446 42.3967 21.2488 42.8956H22.3788C22.1722 41.7847 21.3512 41.1797 19.8045 41.1797C19.0788 41.1797 18.4661 41.3814 17.9505 41.8873C17.4297 42.2958 17.2249 42.7983 17.2249 43.5076C17.2249 45.227 18.1518 46.0389 19.9069 46.0389C21.2488 46.0389 22.0733 45.4321 22.3788 44.3177H21.2488C21.1446 44.8254 20.7279 45.1227 19.8045 45.1227C18.8775 45.1227 18.3584 44.6202 18.3584 43.5076C18.3549 42.5983 18.874 42.0872 19.9069 42.0872Z" fill="black"/>
<path d="M27.5368 45.8349V41.3809H26.5074V44.4198C26.0943 44.9257 25.5787 45.1291 25.0596 45.1291C24.3374 45.1291 24.032 44.7206 24.032 43.8113V41.3809H22.8949V44.319C22.8949 45.4316 23.5164 46.0436 24.7541 46.0436C25.3668 46.0436 25.9866 45.8349 26.5074 45.3325V45.8349H27.5368Z" fill="black"/>
<path d="M28.4645 41.3814V45.8354H29.5998V43.4085C29.5998 42.6939 30.0077 42.2958 30.9346 42.2958H31.6621V41.1797H31.2489C30.5268 41.1797 29.9123 41.4805 29.5998 41.9881V41.3866H28.4645V41.3814Z" fill="black"/>
<path d="M14.0255 41.3814V45.8354H15.1608V43.4085C15.1608 42.6939 15.574 42.2958 16.501 42.2958H17.2249V41.1797H16.81C16.0896 41.1797 15.4734 41.4805 15.1608 41.9881V41.3866H14.0255L14.0255 41.3814Z" fill="black"/>
<path d="M32.7943 46.5443L32.1728 46.4452V47.3544L33.1068 47.4535C34.0355 47.4535 34.6517 47.0519 34.9572 46.2348L37.4362 41.3809H36.3044L34.6517 44.6197L33.1068 41.3809H31.8655L33.8289 45.0231L33.9278 45.8349C33.9278 46.3409 33.52 46.5443 32.7943 46.5443Z" fill="black"/>
</svg>
