<svg width="75" height="33" viewBox="0 0 75 33" fill="none" xmlns="http://www.w3.org/2000/svg">
<path fill-rule="evenodd" clip-rule="evenodd" d="M50.468 16.2727C50.468 23.4766 44.638 29.3155 37.4422 29.3155C30.2493 29.3155 24.4164 23.4766 24.4179 16.2727C24.4179 9.06436 30.2493 3.22394 37.4422 3.22394C44.638 3.22394 50.468 9.06436 50.468 16.2727ZM49.5016 16.2727C49.5016 9.6026 44.1036 4.19486 37.4422 4.19486C30.7838 4.19486 25.3858 9.6026 25.3858 16.2727C25.3858 22.9368 30.7838 28.3446 37.4422 28.3446C44.1036 28.3446 49.5016 22.9368 49.5016 16.2727Z" fill="black"/>
<path fill-rule="evenodd" clip-rule="evenodd" d="M4.17171 13.5621C3.34034 12.6358 2.62328 11.7913 2.03092 11.0716H2.02647C0.706667 9.47028 0 8.47854 0 8.47854H0.00742297H22.7855H23.7431C26.4525 3.70866 31.5714 0.5 37.4415 0.5C43.313 0.5 48.4334 3.70866 51.1443 8.47854H74.7909H74.7953C74.7953 8.47854 67.258 19.0948 55.3857 26.7968H55.3783H49.1697C46.2882 30.0203 42.1001 32.0484 37.4429 32.0484C32.7858 32.0484 28.5977 30.0203 25.7146 26.7968H23.6139H19.4155H19.4125C18.0749 25.9284 16.7922 25.0318 15.5734 24.1115H15.5764C14.4896 23.2878 13.4489 22.4581 12.4602 21.6225H12.4557C11.3438 20.6813 10.3016 19.749 9.32325 18.8361H9.3277C8.42062 17.9871 7.57291 17.1485 6.78459 16.3515H6.77866C5.81218 15.3642 4.93924 14.4245 4.16725 13.5621H4.17171ZM37.4429 2.6173C44.9713 2.6173 51.076 8.72982 51.076 16.2727C51.076 23.8082 44.9713 29.9192 37.4429 29.9192C29.9146 29.9192 23.8099 23.8082 23.8099 16.2727C23.8099 8.72982 29.9146 2.6173 37.4429 2.6173ZM21.9215 13.5621C22.0715 12.7042 22.2867 11.8731 22.5658 11.0716H2.55647C3.16367 11.8032 3.88518 12.6447 4.71359 13.5621H21.9215ZM16.2518 24.1115H23.7698C23.317 23.316 22.931 22.4848 22.6208 21.6225H13.0897C14.1363 22.4878 15.1904 23.3205 16.2518 24.1115ZM61.7116 21.6225H52.2666C51.9534 22.4848 51.5689 23.316 51.1175 24.1115H58.5494C59.6109 23.3205 60.6664 22.4878 61.7116 21.6225ZM72.2433 11.0716C71.6361 11.7987 70.9146 12.6447 70.0847 13.5621H52.9629C52.8174 12.7042 52.5992 11.8731 52.3215 11.0716H72.2433ZM52.9881 18.8361H64.8782C65.7467 18.0272 66.6048 17.199 67.4481 16.3515H53.196C53.1915 17.1946 53.1203 18.0272 52.9881 18.8361ZM9.92006 18.8361C9.05305 18.0272 8.19496 17.199 7.35171 16.3515H21.6914C21.6959 17.1946 21.7641 18.0272 21.8963 18.8361H9.92006Z" fill="black"/>
<path d="M35.7944 19.6864H37.4409V12.9301H35.7944V19.6864Z" fill="black"/>
<path d="M30.9637 19.6866L32.6576 15.7136V19.6866H34.3189V12.9302H32.6977H32.6576H32.4929L30.5792 17.3849L28.8259 12.9302H26.9657V19.6866H28.3791V15.62L29.9928 19.6866H30.9637Z" fill="black"/>
<path d="M40.3121 15.6121L43.446 19.6861H44.7198V12.9298H43.2872V17.0365V17.0395L40.1324 12.9298H38.8987V19.6861H40.3121V15.6121Z" fill="black"/>
<path d="M46.1985 19.6864H47.8449V12.9301H46.1985V19.6864Z" fill="black"/>
</svg>
