<svg width="52" height="45" viewBox="0 0 52 45" fill="none" xmlns="http://www.w3.org/2000/svg">
<path d="M35.4697 20.592C34.6523 20.6272 33.3644 20.3808 33.3997 21.6409C34.5096 21.6955 35.6635 21.6797 36.7435 21.6515C36.9425 20.7557 36.0634 20.5673 35.4697 20.592" fill="black"/>
<path fill-rule="evenodd" clip-rule="evenodd" d="M48.1598 16.611C48.9191 16.7149 49.6696 16.8205 50.406 16.9349C50.406 16.9349 51.6639 16.9648 51.6921 18.5981C51.7009 18.5981 51.8911 24.1245 51.6445 26.4037C51.6445 26.416 51.6181 27.9806 50.3091 28.0915C50.3091 28.0915 49.5322 28.2147 48.1386 28.3942C45.4167 37.6501 36.4952 44.4454 25.8983 44.4454C15.2591 44.4454 6.30414 37.6008 3.62275 28.2957C2.97619 28.1954 2.37191 28.0898 1.82929 27.9718C1.82106 27.9677 1.79402 27.9661 1.75251 27.9636C1.43868 27.9446 0.297699 27.8754 0.199677 26.3086C0.0534518 24.649 -0.165005 19.7403 0.199677 18.2637C0.199677 18.1898 0.310667 17.044 1.94557 16.7483C2.06374 16.7241 2.18132 16.6999 2.2989 16.6758C2.75452 16.582 3.21014 16.4883 3.70027 16.3946C6.47503 7.21616 15.3578 0.5 25.8983 0.5C36.5234 0.5 45.466 7.32352 48.1598 16.611ZM25.8983 5.8592C33.1127 5.8592 39.2964 10.0198 41.9619 15.951C29.2773 14.8898 15.8792 15.3509 9.9721 15.6448C12.7151 9.87728 18.8055 5.8592 25.8983 5.8592ZM20.3787 24.0189C18.7438 24.0118 17.2693 24.0118 15.6678 24.0189C15.6781 24.1829 15.6734 24.3481 15.6688 24.5117C15.6615 24.7675 15.6543 25.0196 15.7048 25.2579C16.6539 25.2521 17.5958 25.2534 18.5366 25.2546C19.5815 25.256 20.625 25.2575 21.6754 25.2491C21.7053 25.2491 21.734 25.2515 21.7623 25.2539L21.7624 25.2539C21.8506 25.2612 21.9351 25.2682 22.0418 25.2016C22.1111 25.1591 22.1476 25.1604 22.1801 25.1616C22.2162 25.1629 22.2473 25.1641 22.3131 25.1048C23.6468 23.9344 22.4277 22.6232 21.2032 22.361C20.5912 22.2314 20.0113 21.9878 19.43 21.7437C18.9137 21.5268 18.3962 21.3095 17.8542 21.1712C17.6639 21.1237 17.4842 20.8526 17.6762 20.7277C17.796 20.652 17.8912 20.6238 18.0215 20.6238C18.6044 20.6219 19.185 20.623 19.7652 20.6241C20.7911 20.626 21.8156 20.6279 22.8487 20.6133L22.8545 20.5169L22.8545 20.5169C22.8788 20.1156 22.8991 19.7809 22.8452 19.3584C22.3502 19.3673 21.8316 19.3622 21.311 19.357C20.5921 19.35 19.8694 19.3429 19.2001 19.3725C18.9266 19.3849 18.6302 19.3695 18.3289 19.3539C17.2622 19.2987 16.1339 19.2403 15.7383 20.3986C15.6392 20.694 15.6876 20.8814 15.753 21.1349C15.7608 21.1653 15.7689 21.1967 15.7771 21.2293C15.8986 21.7221 16.2651 22.0442 16.7125 22.199C17.3043 22.3953 17.864 22.6067 18.4252 22.8186C19.057 23.0572 19.6905 23.2965 20.3735 23.5155C20.6677 23.6088 20.6941 24.0189 20.3787 24.0189ZM14.8821 25.235C14.5649 25.2622 14.2957 25.2586 14.0211 25.255C13.7618 25.2515 13.4977 25.248 13.1838 25.2702C13.1579 23.9037 13.1639 22.5285 13.1698 21.1549V21.1547V21.1545V21.1543V21.154V21.1538C13.1724 20.5606 13.175 19.9678 13.175 19.376C13.788 19.3461 14.269 19.3461 14.8821 19.376C14.8944 21.3296 14.8944 23.2832 14.8821 25.235ZM8.10908 22.9958C8.34688 23.4516 8.58502 23.9081 8.81287 24.392C9.29558 25.4216 10.8829 25.5166 11.7479 24.8989C12.0034 24.7211 12.1479 24.3638 12.1479 24.0382C12.1479 23.6826 12.1481 23.326 12.1484 22.9689C12.1494 21.776 12.1503 20.5771 12.1408 19.3866C11.6105 19.3672 11.2036 19.3672 10.6662 19.3866C10.6713 19.867 10.6649 20.3263 10.6585 20.7813V20.7814V20.7814V20.7814V20.7814V20.7815V20.7815C10.6473 21.5848 10.6363 22.3748 10.6891 23.2445C10.7156 23.6722 10.2064 23.8411 10.0214 23.4504C9.7581 22.8995 9.49934 22.4116 9.24615 21.9342L9.24612 21.9342L9.24605 21.934C8.97754 21.4278 8.7153 20.9333 8.46052 20.388C8.26849 19.9867 7.99013 19.6488 7.57436 19.501C6.94717 19.2739 6.24071 19.3214 5.68576 19.7174C5.35984 19.9462 5.27704 20.3458 5.28056 20.7312L5.2832 21.0717C5.29316 22.3417 5.30292 23.587 5.27704 24.8813C5.26647 25.147 5.3845 25.3213 5.72276 25.2702C5.99942 25.2256 6.10679 25.2379 6.38328 25.2696L6.40456 25.272C6.71286 25.3072 6.76043 25.1206 6.76043 24.8813C6.76043 24.5206 6.75742 24.17 6.75443 23.8231L6.75443 23.8231V23.823V23.8229V23.8228C6.74748 23.0137 6.7407 22.2251 6.77276 21.3789C6.78862 21.1078 7.19382 21.1448 7.30657 21.3859C7.56284 21.9488 7.83573 22.4719 8.10908 22.9958ZM46.1073 24.7282C45.3709 25.4885 43.7008 25.5237 43.1088 24.561C42.7665 24.0034 42.4748 23.4187 42.1859 22.8399L42.1859 22.8398L42.1859 22.8397C41.9441 22.3552 41.7044 21.8747 41.4387 21.4176L41.4353 21.4115C41.3633 21.2833 41.2621 21.1033 41.1233 21.1483C40.9577 21.2029 40.8873 21.3947 40.8873 21.5637C40.8814 22.145 40.8839 22.7295 40.8865 23.3135V23.314V23.3144V23.3148V23.3152V23.3156V23.316V23.3164C40.8892 23.9569 40.892 24.5968 40.8837 25.2315C40.5965 25.2628 40.35 25.2593 40.0942 25.2558C39.8886 25.253 39.6771 25.2501 39.4338 25.265C39.4162 24.1034 39.3986 22.8925 39.4338 21.7326C39.4397 21.5647 39.4283 21.3902 39.417 21.2151L39.417 21.215C39.3871 20.7553 39.357 20.2916 39.6364 19.9322C40.0962 19.3514 40.9419 19.2739 41.636 19.4605C42.0712 19.5837 42.4059 19.9498 42.612 20.3704C42.922 21.0097 43.2525 21.6267 43.5861 22.2496L43.5862 22.2497C43.8156 22.6781 44.0465 23.1093 44.2733 23.5525C44.4019 23.8112 44.8353 23.6986 44.8265 23.3976C44.8117 22.6248 44.8152 21.8856 44.8186 21.1464C44.8212 20.5641 44.8239 19.9818 44.8177 19.383C44.9508 19.3821 45.0787 19.3797 45.204 19.3772L45.2043 19.3772C45.5733 19.3701 45.9189 19.3634 46.3029 19.3989C46.3181 20.2018 46.3159 21.0109 46.3136 21.8175V21.8177V21.8179V21.8181V21.8184V21.8186V21.8188V21.819C46.3117 22.5059 46.3098 23.1912 46.3187 23.8693C46.3223 24.1614 46.2994 24.5328 46.1073 24.7282ZM25.8983 39.0827C18.6681 39.0827 12.465 34.9098 9.81002 28.9522C17.3838 29.5206 26.1132 29.5576 26.1132 29.5576C32.2653 29.6579 37.7531 29.3746 41.9426 29.0314C39.2682 34.9432 33.0915 39.0827 25.8983 39.0827ZM25.8085 21.1413C26.4197 21.3993 27.0309 21.6128 27.6343 21.8236C28.6239 22.1694 29.5925 22.5077 30.5053 23.0227C30.8026 23.1883 30.8257 23.6397 30.8427 23.9712C30.8442 23.9991 30.8455 24.0263 30.8471 24.0523C30.8682 24.4114 30.6409 24.8056 30.3273 25.052C30.0948 25.235 29.783 25.2562 29.4835 25.2562C28.9306 25.2562 28.378 25.2559 27.8255 25.2556C26.445 25.2549 25.0653 25.2541 23.6838 25.2579C23.6258 25.0032 23.6342 24.7301 23.6427 24.4533V24.4533V24.4532V24.4531C23.6472 24.3093 23.6516 24.1645 23.6468 24.0206C25.2465 24.0154 26.714 24.0118 28.3524 24.0206C28.6695 24.0242 28.6502 23.6106 28.3524 23.5155C27.6577 23.2921 27.0139 23.0503 26.371 22.8088L26.3709 22.8087L26.3709 22.8087C25.8188 22.6013 25.2672 22.3942 24.6845 22.199C24.237 22.0442 23.8723 21.7238 23.7543 21.2293L23.7392 21.1749C23.6622 20.8991 23.6093 20.7094 23.712 20.3986C24.109 19.2403 25.2353 19.2987 26.3011 19.3539H26.3011H26.3011H26.3012C26.6022 19.3695 26.8985 19.3849 27.172 19.3725C27.8513 19.3426 28.5819 19.3501 29.3062 19.3576H29.3065H29.3065H29.3066C29.8183 19.3629 30.3268 19.3682 30.8118 19.3602C30.8628 19.6923 30.8529 19.9656 30.8422 20.2625C30.8382 20.3762 30.8339 20.4933 30.833 20.6186C30.4283 20.6194 30.0311 20.6209 29.6373 20.6224L29.6362 20.6224H29.636H29.6359H29.6357C28.4202 20.627 27.2369 20.6314 25.9653 20.6168C25.6235 20.6133 25.5001 21.011 25.8085 21.1413ZM38.5032 24.3974V24.3973V24.3972C38.5156 23.8926 38.5279 23.3924 38.4983 22.8819C38.4793 22.5617 38.4954 22.2459 38.5114 21.9311C38.5399 21.3703 38.5683 20.8128 38.3979 20.2402C38.1193 19.2963 36.8805 19.3287 35.9968 19.3519L35.9491 19.3531C35.5428 19.3626 35.1052 19.3594 34.6634 19.3562H34.6632C34.2047 19.3528 33.7417 19.3494 33.3047 19.3602C32.9682 19.3672 32.6035 19.4429 32.3181 19.5942C32.0239 19.7403 31.7667 20.0642 31.7226 20.3986C31.5617 21.4912 31.5912 22.6101 31.6207 23.727V23.7271V23.7271C31.6309 24.1142 31.6411 24.5011 31.6434 24.8866C31.6487 25.1453 31.8319 25.3195 32.1402 25.272C32.4428 25.2264 32.6318 25.2424 32.9423 25.2686L32.9823 25.272C33.2659 25.2949 33.3752 25.14 33.3699 24.8813C33.3682 24.7997 33.3664 24.7203 33.3646 24.6424V24.6423C33.3516 24.0667 33.3404 23.5773 33.3963 22.9541C34.545 22.8995 35.6513 22.8907 36.7877 22.9611C36.8636 23.4201 36.8557 23.839 36.8478 24.2584V24.2585V24.2585C36.8417 24.5788 36.8357 24.8994 36.867 25.2386C37.4219 25.2597 37.924 25.272 38.4895 25.2333C38.4895 24.9518 38.4964 24.6741 38.5032 24.3978V24.3976V24.3974Z" fill="black"/>
</svg>
