<svg width="55" height="52" viewBox="0 0 55 52" fill="none" xmlns="http://www.w3.org/2000/svg">
<path fill-rule="evenodd" clip-rule="evenodd" d="M26.904 5.02672L37.3201 0.655716L26.9394 38.3846L16.621 0.655716L26.904 5.02672ZM35.8375 2.43461L26.9394 6.13879L18.1037 2.39599L26.9394 34.5971L35.8375 2.43461Z" fill="black"/>
<path fill-rule="evenodd" clip-rule="evenodd" d="M26.9392 6.88429L34.7476 3.62942L26.9392 32.226L19.241 3.61519L26.9392 6.88429ZM26.3008 10.5295L22.3144 11.1638L26.3008 11.7737L26.9392 14.3191L27.5589 11.7737L31.645 11.1638L27.5589 10.5295L26.9392 8.05328L26.3008 10.5295Z" fill="black"/>
<path d="M36.6827 51.312C36.7846 51.312 36.872 51.2388 36.872 51.1331V44.6457C36.872 44.54 36.7846 44.4546 36.6827 44.4546H35.6513C35.5432 44.4546 35.4621 44.54 35.4621 44.6457V51.1331C35.4621 51.2388 35.5432 51.312 35.6513 51.312H36.6827Z" fill="black"/>
<path d="M18.9941 51.3181H20.0276C20.1337 51.3181 20.2189 51.2388 20.2189 51.1331V46.3006C20.2189 45.9692 20.5059 46.018 20.6369 46.1969L23.9121 50.7265C24.2656 51.2347 24.7376 51.3018 25.1431 51.3181C26.3471 51.3181 26.5572 50.4703 26.5572 49.9356V44.6416C26.5572 44.54 26.4719 44.4546 26.3679 44.4546H25.3324C25.2263 44.4546 25.1431 44.5339 25.1431 44.6416V49.4396C25.1431 49.7547 24.879 49.7181 24.748 49.5392L21.5269 45.0747C21.1069 44.4831 20.6369 44.4546 20.2189 44.4546C19.0149 44.4546 18.7799 45.7354 18.8049 46.323V51.1331C18.8049 51.2388 18.8922 51.3181 18.9941 51.3181" fill="black"/>
<path d="M8.17234 47.0158C8.17234 44.8933 6.46925 44.4542 5.44615 44.4542H0.189232C0.0852585 44.4542 0 44.5396 0 44.6412V51.1327C0 51.2384 0.0852585 51.3177 0.189232 51.3177H1.22481C1.32878 51.3177 1.41404 51.2384 1.41404 51.1327V46.1538C1.41404 45.9688 1.49306 45.8407 1.67814 45.8407H5.55012C5.99513 45.8407 6.75622 45.9729 6.75622 47.0016C6.75622 47.9144 6.31329 48.1889 5.55012 48.1889H2.38724C2.28118 48.1889 2.20216 48.2844 2.20216 48.3861V49.3985C2.20216 49.492 2.28118 49.5835 2.38724 49.5835H5.62914C6.67927 49.5774 8.17234 49.1444 8.17234 47.0158" fill="black"/>
<path d="M37.6595 51.3181H38.8095C38.9426 51.3181 38.9925 51.2673 39.0736 51.1148L41.8871 46.327C42.0535 46.0505 42.2739 46.0688 42.4298 46.3413C42.4298 46.3413 43.559 48.2645 43.6214 48.3722C43.6879 48.4739 43.638 48.5573 43.532 48.5573H41.5357C41.4109 48.5573 41.3589 48.6365 41.3256 48.6833C41.3256 48.6833 40.7101 49.6673 40.6373 49.7832C40.5646 49.9011 40.6228 49.9356 40.6976 49.9356H44.2764C44.5592 49.9356 44.605 50.0312 44.6507 50.1105L45.2517 51.1392C45.3037 51.2429 45.4076 51.3181 45.5927 51.3181H46.6553C46.7863 51.3181 46.8612 51.3059 46.7676 51.1656L43.2637 45.2007C42.6877 44.2066 41.6916 44.1293 41.0615 45.1763L37.5556 51.1392C37.5036 51.2226 37.4682 51.3181 37.6595 51.3181" fill="black"/>
<path d="M54.0254 49.9363H49.9933C49.3403 49.9363 47.9242 49.5032 47.9242 47.8565C47.9242 46.2219 48.9681 45.8214 49.9933 45.7889H54.0192C54.1252 45.7889 54.2105 45.7035 54.2105 45.6039V44.6402C54.2105 44.5406 54.1252 44.4552 54.0192 44.4552H49.6086C48.5065 44.4552 46.4852 45.2278 46.5102 47.8565C46.5372 50.2981 48.3422 51.3187 49.8872 51.3187H54.0254C54.1294 51.3187 54.2167 51.2394 54.2167 51.1337V50.1213C54.2167 50.0155 54.1294 49.9363 54.0254 49.9363" fill="black"/>
<path fill-rule="evenodd" clip-rule="evenodd" d="M14.5353 51.3185H12.1522C10.4491 51.3185 9.06421 50.0641 9.06421 47.8563C9.06421 45.6545 10.7112 44.455 12.5203 44.455H14.6372C15.6603 44.455 17.6545 45.4085 17.6545 47.7627C17.6545 50.1109 16.2384 51.3185 14.5353 51.3185ZM14.2691 45.7887H12.4662C11.8632 45.7887 10.4762 46.1221 10.4762 47.964C10.4762 48.9134 10.9212 50.0377 12.6763 50.0377H14.0362C14.9533 50.0377 16.2384 49.6372 16.2384 47.8563C16.2384 46.5307 15.3234 45.7887 14.2691 45.7887Z" fill="black"/>
<path d="M27.3395 44.6412V45.6049C27.3395 45.7025 27.4268 45.7879 27.5308 45.7879H30.1634C30.2674 45.7879 30.3256 45.8468 30.3256 45.9424V51.1327C30.3256 51.2384 30.415 51.3116 30.5169 51.3116H31.5483C31.6544 51.3116 31.7355 51.2384 31.7355 51.1327L31.7396 45.9627C31.7396 45.857 31.7937 45.7879 31.8894 45.7879H34.5365C34.6384 45.7879 34.7279 45.7025 34.7279 45.6049V44.6453C34.7279 44.5396 34.6426 44.4542 34.5365 44.4542H27.5308C27.4268 44.4542 27.3395 44.5396 27.3395 44.6412" fill="black"/>
<path fill-rule="evenodd" clip-rule="evenodd" d="M33.4361 27.9873C34.087 27.9873 34.6713 28.4325 34.6713 29.199C34.6713 29.9614 34.087 30.4005 33.4361 30.4005C32.7748 30.4005 32.1926 29.9614 32.1926 29.199C32.1926 28.4325 32.7748 27.9873 33.4361 27.9873ZM33.4361 28.2658C32.9433 28.2658 32.5482 28.6419 32.5482 29.199C32.5482 29.754 32.9433 30.1342 33.4361 30.1301V30.1342C33.9144 30.1342 34.3157 29.754 34.3157 29.199C34.3157 28.6419 33.9144 28.2658 33.4361 28.2658Z" fill="black"/>
<path fill-rule="evenodd" clip-rule="evenodd" d="M33.7385 29.2789L34.1141 29.8441H33.7477L33.4019 29.2992H33.2576V29.8441H32.9438V28.5409H33.4889C33.869 28.5409 34.0912 28.6405 34.0912 28.9394C34.0912 29.1854 33.9331 29.2667 33.7385 29.2789ZM33.2576 29.0837H33.5347C33.6744 29.0837 33.7568 29.0573 33.7568 28.9068C33.7568 28.7686 33.5988 28.7605 33.4751 28.7605H33.2576V29.0837Z" fill="black"/>
</svg>
