<svg width="56" height="37" viewBox="0 0 56 37" fill="none" xmlns="http://www.w3.org/2000/svg">
<path fill-rule="evenodd" clip-rule="evenodd" d="M55.5887 18.3866C55.5887 28.247 43.12 36.275 27.7935 36.275C12.4688 36.275 0 28.247 0 18.3866C0 8.5208 12.4688 0.5 27.7935 0.5C43.12 0.5 55.5887 8.5208 55.5887 18.3866ZM24.0625 4.7156C18.7285 5.2178 14.5547 6.7784 13.937 8.5622C13.8845 8.7116 13.86 8.8556 13.86 9.005C13.86 9.239 13.9265 9.482 14.0665 9.7214C14.7997 11.0102 17.2917 12.146 20.7585 12.8048C21.3692 9.338 22.54 6.485 24.0625 4.7156ZM9.0825 11.1164C10.199 14.108 14.378 16.601 20.286 17.762C20.2773 18.104 20.272 18.5378 20.272 18.5378C20.272 24.3986 21.623 29.4584 23.8507 32.1872C13.2598 31.0262 5.40225 25.3328 5.40225 18.644C5.40225 15.9476 6.67975 13.3628 9.0825 11.1164ZM3.36525 18.0806C3.36525 18.1236 3.36309 18.167 3.36091 18.2106C3.35871 18.2547 3.3565 18.2991 3.3565 18.3434C3.3565 24.2608 8.42879 29.4167 15.928 32.1051C8.42815 29.4172 3.35475 24.2621 3.35475 18.3434C3.35475 18.2991 3.3574 18.2547 3.36004 18.2106C3.36265 18.167 3.36525 18.1236 3.36525 18.0806ZM17.9603 13.2602C18.3558 13.37 18.774 13.4726 19.2028 13.5698C18.774 13.4726 18.3575 13.37 17.9603 13.2602ZM21.4217 16.5398V16.5344C21.3962 16.5324 21.3701 16.5281 21.3438 16.5238L21.3436 16.5237L21.3436 16.5237L21.3435 16.5237L21.3435 16.5237L21.3435 16.5237L21.3434 16.5237L21.3434 16.5237L21.3433 16.5237L21.3433 16.5237L21.3433 16.5237L21.3432 16.5237L21.3432 16.5237L21.3431 16.5237L21.3431 16.5237C21.3228 16.5203 21.3022 16.5169 21.2817 16.5146C21.3034 16.517 21.3246 16.5204 21.3457 16.5238L21.3458 16.5238L21.3458 16.5238L21.3459 16.5238L21.3459 16.5238L21.346 16.5238L21.346 16.5239L21.346 16.5239L21.3461 16.5239L21.3461 16.5239L21.3462 16.5239L21.3462 16.5239C21.3728 16.5282 21.399 16.5324 21.4252 16.5344V16.5398H21.4217ZM31.8885 14.2502C31.5962 12.0074 31.0467 10.1696 30.338 8.8916C31.0485 10.1678 31.5962 12.0074 31.8885 14.2502ZM41.65 8.5622C41.7025 8.7098 41.727 8.8556 41.727 9.005C41.727 9.239 41.6587 9.482 41.524 9.7214C40.7873 11.0102 38.2935 12.146 34.8285 12.8048C34.2178 9.338 33.0488 6.485 31.528 4.7156C36.8602 5.2178 41.0392 6.7802 41.65 8.5622ZM44.6932 12.4358C44.6939 12.4338 44.695 12.4318 44.6963 12.43L44.6984 12.4271C44.6999 12.4254 44.7013 12.424 44.702 12.4232L44.6594 12.4623C44.5936 12.5228 44.525 12.5858 44.4517 12.6464C44.5357 12.578 44.6162 12.506 44.6932 12.4358ZM36.3317 13.5806C36.8008 13.4762 37.254 13.3628 37.688 13.244C37.254 13.3628 36.8025 13.4762 36.3317 13.5806ZM50.1865 18.644C50.1865 15.9476 48.9072 13.3628 46.5063 11.1164C45.3862 14.108 41.2108 16.601 35.3045 17.762C35.3097 18.104 35.3185 18.5378 35.3185 18.5378C35.3185 24.3986 33.9658 29.4584 31.7345 32.189C42.3307 31.0262 50.1865 25.3346 50.1865 18.644ZM32.1003 16.8044L32.102 16.799C32.1195 17.222 32.13 17.6486 32.13 18.0878C32.13 17.6504 32.116 17.2238 32.1003 16.8044ZM27.7935 13.4222C26.824 13.4222 25.8597 13.3844 24.9182 13.3214C25.4957 10.4486 26.6017 8.6126 27.7935 8.6126C28.9887 8.6126 30.0895 10.4486 30.6705 13.3214C29.7272 13.3844 28.7665 13.4222 27.7935 13.4222ZM24.486 18.3254C24.549 23.792 26.2255 27.4442 27.7935 27.4442C29.3615 27.4442 31.0362 23.792 31.0993 18.3254C30.0142 18.4082 28.91 18.4604 27.7935 18.4604C26.6805 18.4604 25.5728 18.4082 24.486 18.3254ZM23.8062 6.52525C23.7831 6.57014 23.7601 6.61529 23.737 6.6614C23.758 6.61583 23.7805 6.57345 23.8031 6.53108L23.8031 6.53099L23.8062 6.52525ZM23.8062 6.52525L23.8315 6.476C23.8322 6.47525 23.8326 6.4742 23.8331 6.47296C23.8339 6.47122 23.8347 6.46911 23.8368 6.467C23.8267 6.48665 23.8164 6.50596 23.8062 6.52525Z" fill="black"/>
</svg>
