<svg width="53" height="46" viewBox="0 0 53 46" fill="none" xmlns="http://www.w3.org/2000/svg">
<path fill-rule="evenodd" clip-rule="evenodd" d="M48.4652 18.491C48.626 18.491 48.778 18.5352 48.9052 18.6325C51.4774 20.5663 52.7635 22.6894 52.7194 24.9416C52.654 28.6269 49.0377 31.1852 48.8822 31.2914C48.7603 31.3798 48.6154 31.4241 48.4652 31.4241H46.4742C43.6829 39.8049 35.7099 45.8751 26.3254 45.8751C16.9409 45.8751 8.96612 39.8049 6.17302 31.4241H4.40105C4.24735 31.4241 4.09542 31.3728 3.97175 31.2825C1.27758 29.3028 -0.0597835 27.1478 0.00204986 24.8726C0.10275 21.2014 3.84102 18.7104 4.00355 18.6042C4.12192 18.5246 4.25972 18.491 4.40105 18.491H6.09528C8.82302 9.98806 16.8596 3.81345 26.3254 3.81345C30.4523 3.81345 34.4326 4.98468 37.8741 7.19445L40.6548 4.49814L37.8882 2.48829C37.6427 2.30252 37.5313 1.98406 37.6179 1.68683C37.7062 1.39491 37.9712 1.18437 38.2769 1.16668L49.8715 0.501446C50.0694 0.489061 50.2637 0.556292 50.4104 0.701369C50.557 0.839369 50.64 1.02337 50.6453 1.22506L50.7937 12.4756C50.7955 12.7834 50.6118 13.0665 50.3256 13.1691C50.0376 13.2718 49.7143 13.1957 49.5111 12.9639L47.4194 10.5401L44.2376 13.5654C45.2305 15.1082 46.0043 16.7624 46.5555 18.491H48.4652ZM26.3254 5.27483C30.3605 5.27483 34.2401 6.47437 37.549 8.74075C37.8352 8.93714 38.2186 8.89821 38.4659 8.65937L42.2961 4.94045C42.4498 4.7936 42.5328 4.5866 42.5169 4.36368C42.501 4.1496 42.3914 3.95145 42.2165 3.83114L40.4039 2.50775L49.1931 2.00706L49.3044 10.4905L48.0271 8.99729C47.8964 8.85398 47.7091 8.75845 47.5112 8.75491C47.3081 8.75137 47.1173 8.81329 46.9724 8.95837L42.7854 12.9268C42.5222 13.178 42.4815 13.5743 42.6865 13.8644C43.6758 15.3134 44.4514 16.8651 45.0167 18.491H39.556C37.2381 13.5389 32.2278 10.1013 26.4314 10.1013C20.6402 10.1013 15.6335 13.5389 13.3121 18.491H7.64288C10.3123 10.809 17.6758 5.27483 26.3254 5.27483ZM14.9427 18.491H37.9271C35.7205 14.3722 31.3993 11.5644 26.4349 11.5644C21.4724 11.5644 17.1458 14.3722 14.9427 18.491ZM46.9035 29.9609H48.2232C48.8839 29.4408 51.216 27.4309 51.2601 24.908C51.2884 23.2095 50.269 21.5376 48.2179 19.9488H46.9636H45.4619H40.1478H38.5931H14.2785H12.722H7.19062H5.69072H4.63248C3.96645 20.446 1.52668 22.3992 1.46308 24.9186C1.41892 26.6348 2.48952 28.3244 4.64485 29.9609H5.74195H7.25598H12.9235H14.5011H38.3652H39.9481H45.3948H46.9035ZM37.6126 31.4241H15.2555C17.5398 35.2368 21.6967 37.7844 26.4367 37.7844C31.1714 37.7844 35.3318 35.2368 37.6126 31.4241ZM26.3254 44.4102C17.7588 44.4102 10.4519 38.9858 7.71885 31.4241H13.5859C16.0098 36.0665 20.8593 39.2529 26.4314 39.2529C32.0105 39.2529 36.8582 36.0665 39.2821 31.4241H44.9301C42.1936 38.9858 34.8902 44.4102 26.3254 44.4102Z" fill="black"/>
<path d="M14.8626 22.2481H13.6224H12.1419H10.6561V23.0761H11.778L9.83286 26.6836L7.73052 23.092L9.26576 23.0814L9.26222 22.2481H6.74296H5.27132H3.16016V23.092H4.56466L5.12469 24.1217L6.68642 27.0056L7.31536 28.1503H10.7021L11.9829 25.7972L13.4528 23.0814H13.4952L14.8608 23.0708L14.8626 22.2481Z" fill="black"/>
<path fill-rule="evenodd" clip-rule="evenodd" d="M14.3149 25.1997C14.3149 23.4765 16.2547 22.0823 18.645 22.0823C21.0335 22.0823 22.9698 23.4765 22.9698 25.1997C22.9698 26.9159 21.0335 28.3153 18.645 28.3153C16.2547 28.3153 14.3149 26.9159 14.3149 25.1997ZM17.4542 25.136C17.4542 26.3833 17.9595 27.3865 18.5814 27.3865C19.205 27.3865 19.7103 26.3833 19.7103 25.136C19.7103 23.8905 19.205 22.8891 18.5814 22.8891C17.9595 22.8891 17.4542 23.8905 17.4542 25.136Z" fill="black"/>
<path fill-rule="evenodd" clip-rule="evenodd" d="M45.7999 22.0815C45.8264 22.0815 45.8582 22.0815 45.8865 22.085C46.4165 22.0903 46.92 22.1646 47.3846 22.2991C48.9887 22.7538 50.1265 23.8772 50.1265 25.1988C50.1265 26.5452 48.941 27.6846 47.2839 28.1216C46.821 28.249 46.3228 28.3162 45.7999 28.3162H45.7681C43.3919 28.3038 41.4716 26.9132 41.4716 25.1988C41.4716 23.4774 43.4078 22.0815 45.7999 22.0815ZM45.7363 27.3856C45.7981 27.3856 45.8582 27.3715 45.9147 27.3502C46.4518 27.1822 46.8652 26.2586 46.8634 25.1352C46.8634 24.0665 46.4907 23.1678 45.9889 22.9448C45.9077 22.9077 45.8246 22.89 45.7363 22.89C45.1127 22.89 44.6074 23.8914 44.6074 25.1352C44.6074 26.3825 45.1127 27.3856 45.7363 27.3856Z" fill="black"/>
<path d="M29.0141 27.2294H27.5566V23.0912L28.9399 23.0805L28.9381 22.2472H23.3766V23.0912H24.7847L24.7864 27.2294H23.3042V28.1459L24.7864 28.1494H31.8072V25.4124H30.8903C30.8408 26.8614 29.5564 27.2294 29.0141 27.2294" fill="black"/>
<path d="M42.0019 22.2481H40.7299H39.2459H37.7955V23.0761H38.9138L36.9704 26.6836L34.8699 23.092L36.4033 23.0814L36.398 22.2481H30.2924V23.092H31.7022L34.4547 28.1503H37.8432L39.4597 25.1656L40.5903 23.0814H40.8447L42.0001 23.0708L42.0019 22.2481Z" fill="black"/>
</svg>
