<svg width="47" height="47" viewBox="0 0 47 47" fill="none" xmlns="http://www.w3.org/2000/svg">
<path d="M27.679 6.89305C26.2533 6.51531 24.7476 6.32034 23.2297 6.32034C21.7257 6.32034 20.2634 6.51531 18.8761 6.8739L23.2871 19.0452L27.679 6.89305Z" fill="black"/>
<path d="M40.6155 23.7276C40.6155 21.5569 40.2395 19.4837 39.5136 17.5636L31.2399 39.1523C36.7928 36.2435 40.6155 30.4242 40.6155 23.7276" fill="black"/>
<path d="M31.9798 8.68131L26.8812 22.7169H24.6217H21.9549H19.6972L14.5777 8.62386C12.6872 9.7066 11.037 11.1358 9.66528 12.826L16.9346 31.6782L19.5927 24.7901H21.6503H24.5277H26.5801L29.2399 31.6782L36.5841 12.5997C35.2907 11.0365 33.7258 9.7066 31.9798 8.68131" fill="black"/>
<path fill-rule="evenodd" clip-rule="evenodd" d="M0 23.7284C0 10.9236 10.4479 0.5 23.2302 0.5C36.0194 0.5 46.4377 10.9236 46.4377 23.7284C46.4377 36.4933 36.0194 46.9343 23.2302 46.9343C10.4479 46.9343 0 36.4933 0 23.7284ZM2.96622 23.7267C2.96622 34.8727 12.0825 43.9646 23.2302 43.9646C34.3761 43.9646 43.4889 34.8727 43.4889 23.7267C43.4889 12.5581 34.3761 3.45056 23.2302 3.45056C12.0825 3.45056 2.96622 12.5581 2.96622 23.7267Z" fill="black"/>
<path d="M23.0789 28.4831L18.5913 40.1252L18.5686 40.4855C20.0552 40.9033 21.6132 41.1122 23.2304 41.1122C24.7483 41.1122 26.2192 40.9207 27.6205 40.5604L27.5665 40.1252L23.0789 28.4831Z" fill="black"/>
<path d="M5.82956 23.7276C5.82956 30.271 9.48163 36.0155 14.8797 38.9625L6.81482 17.9466C6.169 19.7535 5.82956 21.6909 5.82956 23.7276" fill="black"/>
</svg>
