<?xml version="1.0" encoding="UTF-8"?>
<svg width="174px" height="112px" viewBox="0 0 174 112" version="1.1" xmlns="http://www.w3.org/2000/svg" xmlns:xlink="http://www.w3.org/1999/xlink">
    <title>usa</title>
    <defs>
        <path d="M1135.03806,34.3662002 C1132.01118,32.7179685 1133.90586,42.824353 1131.35853,45.5902492 C1125.51244,47.7527019 1116.7584,50.1850015 1120.46882,57.3185754 C1118.28483,59.9682781 1110.33395,58.7410947 1113.50276,62.8796546 C1109.7937,65.5936519 1105.87194,73.0458386 1100.48254,70.696223 C1101.2216,64.103705 1104.31203,67.7121064 1100.78151,61.3666869 C1099.71231,59.167183 1097.55432,64.518351 1097.48397,62.473454 C1097.24718,61.6838012 1099.63094,59.6372696 1098.49533,57.9131648 C1097.91154,57.0266613 1097.85656,57.5822925 1098.1094,56.2570325 C1096.28236,56.3793558 1093.93997,53.4841892 1092.70299,56.0683713 C1093.31182,56.56611 1092.76871,56.8053079 1091.88935,57.0774705 C1091.88459,57.7832133 1092.01073,60.1390948 1091.32366,57.7428929 C1088.74666,59.9009867 1089.80933,63.7551244 1090.92017,66.7495936 C1092.68475,70.4864481 1087.7783,76.0250514 1087.00168,70.2747661 C1084.85689,67.3883174 1089.5143,54.7794813 1085.17165,61.5140742 C1085.12116,60.2503845 1086.52757,55.6428278 1088.33175,55.6139497 C1087.64399,57.7092472 1090.93242,54.1287704 1091.24133,53.7631626 C1094.06381,54.8665243 1093.05748,53.5276426 1094.63944,53.6690363 C1096.04775,53.5491649 1093.81532,51.5558944 1092.75932,52.5332549 C1091.7666,52.7082943 1091.86431,51.7034179 1091.69108,51.0942533 C1089.40095,51.3951577 1087.23452,54.9866681 1085.07353,52.5716682 C1082.30929,51.5129858 1081.58819,52.4128386 1083.84784,49.491382 C1082.24928,49.9255072 1073.72535,57.7649601 1075.17136,54.7303068 C1076.49612,51.3147894 1073.72644,54.7245857 1072.17714,53.7259752 C1081.79816,43.1683022 1075.55321,51.1851103 1069.7244,46.2653431 C1039.20113,45.5903854 1016.39591,45.4323732 986.927143,36.4091902 C988.796234,38.2763234 986.188488,46.1890613 984.498346,42.8078707 C987.61327,43.0357626 984.492902,41.123269 986.339948,40.2118377 C983.04172,38.5483497 979.815344,35.408264 981.132757,41.0190626 C981.182427,42.382191 981.741998,43.0786711 980.931355,43.719983 C981.183516,44.3811828 981.747305,45.1256114 980.679739,44.9553395 C980.242371,46.1812969 982.639053,46.7829696 980.374507,46.7102295 C980.867669,49.5628962 976.363888,52.2480154 978.984153,54.4048832 C976.662997,52.7540634 976.191064,58.8868474 974.176365,59.2524552 C974.429614,60.051507 975.332112,62.8258487 974.58815,60.5339894 C974.448529,60.9018674 974.555309,61.2623897 974.908488,61.6155562 C975.26339,66.3253215 974.293894,68.755487 972,68.9060527 C972.091992,69.4672688 971.692318,71.4996338 972.837859,70.6696606 C973.235083,74.1444326 973.076003,78.5072065 974.543651,81.5979815 C977.637483,82.4139242 972.864395,83.5769492 976.372053,86.3973324 C977.17943,87.1733635 976.414375,87.3810951 976.200045,87.9835851 C975.986124,89.4479232 978.078662,92.8615336 978.382261,93.4581662 C979.59285,94.4834753 978.905226,96.0031176 978.693754,97.429451 C982.069276,98.6367466 983.89346,100.808735 986.486236,102.872974 C988.522572,103.310505 988.816782,106.539541 989.025805,107.895722 C988.017435,109.648977 996.802093,109.617511 997.197957,110.143992 C999.998803,113.206842 1005.12312,114.402423 1008.543,117.389945 C1011.80027,119.365371 1016.57173,118.564549 1020.30651,119.34957 C1019.35788,115.98854 1027.44212,117.44416 1027.8916,119.653063 C1040.63067,140.995347 1041.99395,115.069753 1052.58387,140.767319 C1052.64987,141.861554 1062.23701,144.32137 1059.43467,142.600398 C1059.67022,140.18281 1058.26586,139.645159 1059.0305,137.558716 C1058.68431,137.436801 1058.09589,137.45451 1058.31866,136.899287 C1059.49264,137.318156 1058.92177,136.421027 1059.40582,135.751927 C1058.55653,135.487665 1059.07976,135.140174 1059.65294,134.907242 C1059.79352,133.14704 1061.1836,133.827583 1061.22537,132.170633 C1061.8059,132.297315 1061.40364,132.243646 1061.83842,132.516625 C1064.70105,129.879046 1067.22973,130.892096 1068.61546,126.548392 C1069.012,126.958271 1068.97839,127.309303 1068.76774,127.833604 C1068.94464,127.814534 1073.02671,126.386702 1073.13285,126.549618 C1081.17246,127.668509 1076.5262,124.082038 1080.90614,126.372399 C1077.22661,124.593262 1077.06794,127.265986 1081.45973,126.548937 C1081.66616,130.631239 1087.00835,124.421492 1088.60133,127.650664 C1091.09381,126.396782 1085.17205,125.238525 1088.52281,124.129987 C1089.21152,122.282469 1086.11538,124.357606 1086.46456,122.808132 C1083.65814,124.172623 1082.4221,121.595524 1085.43714,121.934569 C1087.84294,123.382698 1087.98188,121.30143 1089.23112,121.143146 C1091.17941,120.95067 1091.49172,121.658593 1092.50567,120.052044 C1093.06837,121.095742 1095.13587,121.356462 1095.36027,119.850714 C1101.10416,118.888882 1102.7426,123.082066 1105.3219,120.493661 C1106.46948,117.311893 1109.14336,122.6429 1111.19072,122.758004 C1113.23019,123.336111 1111.16895,128.736454 1113.10771,127.587051 C1113.77547,128.12184 1113.6402,128.504612 1113.18882,129.231877 C1114.34756,132.033871 1115.01273,130.258276 1116.44881,132.029375 C1121.15835,142.298131 1126.70942,134.831233 1121.41309,126.611188 C1121.24272,125.375015 1118.41724,122.978404 1120.2617,123.172514 C1107.93972,112.100211 1122.31341,101.094246 1129.09603,91.7489091 C1128.53469,92.5581772 1125.9479,92.8193061 1128.03064,92.1655984 C1129.02458,89.2269784 1126.31777,92.1506145 1128.20972,89.5529469 C1130.21735,90.6012767 1131.44181,87.4003018 1129.903,86.8761369 C1129.69071,88.3466047 1128.14182,87.2296213 1126.87721,87.9927117 C1126.38309,85.5700836 1130.49727,87.6943954 1128.79039,84.0519396 C1128.19952,82.6837711 1126.9873,83.8786709 1125.92599,83.2771345 C1126.34812,82.7900207 1126.25476,82.9100284 1126.9677,83.0756688 C1126.64641,82.2940528 1125.46984,82.1304556 1126.69513,81.6569636 C1126.04139,80.5921515 1124.49536,80.1463116 1126.48542,80.4645157 C1126.50121,78.8147856 1125.93701,79.5165782 1125.39826,78.7217491 C1126.80944,77.6348697 1122.91027,75.5700849 1124.84822,73.6375674 C1125.8736,71.7681185 1125.33784,74.5702485 1125.24898,75.0279393 C1125.27524,75.8211338 1126.11106,75.4703737 1125.97607,76.8785902 C1127.5651,76.8751847 1126.73105,78.6545939 1128.39235,78.7227026 C1127.22598,84.9357187 1131.62076,74.5885017 1127.80774,74.2040959 C1125.91959,72.4169224 1129.73044,72.2489662 1129.1985,74.2865075 C1130.64015,73.047337 1131.18244,68.2695084 1130.93123,67.5516422 C1124.66845,64.7512829 1146.13585,56.4036025 1139.41706,55.3104571 C1141.58907,59.3667416 1135.11903,56.1727139 1137.08637,54.1003009 C1133.91157,51.3841241 1140.56777,47.1314139 1139.73821,44.2361111 C1140.69813,44.6228326 1139.596,44.954386 1140.76958,44.954386 C1140.86865,44.9987929 1141.09046,44.1163759 1141.13591,44.0827302 C1142.22511,44.0399579 1142.50871,42.4884407 1143.51055,41.9080179 C1144.87001,40.6698009 1143.04909,40.1559885 1142.25914,39.201785 C1139.3316,38.0638241 1139.14067,29.3095344 1135.03806,34.3662002 Z" id="path-1"></path>
        <filter x="-1.2%" y="-1.8%" width="102.4%" height="103.6%" filterUnits="objectBoundingBox" id="filter-2">
            <feMorphology radius="3" operator="erode" in="SourceAlpha" result="shadowSpreadInner1"></feMorphology>
            <feOffset dx="0" dy="0" in="shadowSpreadInner1" result="shadowOffsetInner1"></feOffset>
            <feComposite in="shadowOffsetInner1" in2="SourceAlpha" operator="arithmetic" k2="-1" k3="1" result="shadowInnerInner1"></feComposite>
            <feColorMatrix values="0 0 0 0 1   0 0 0 0 1   0 0 0 0 1  0 0 0 1 0" type="matrix" in="shadowInnerInner1"></feColorMatrix>
        </filter>
    </defs>
    <g id="Main-✅" stroke="none" stroke-width="1" fill="none" fill-rule="evenodd">
        <g id="Contact-us-✅" transform="translate(-1091, -591)">
            <g id="usa" transform="translate(120, 559)">
                <use fill="#EEEEEA" fill-rule="evenodd" xlink:href="#path-1"></use>
                <use fill="black" fill-opacity="1" filter="url(#filter-2)" xlink:href="#path-1"></use>
                <use stroke="#8B8B8B" stroke-width="1" xlink:href="#path-1"></use>
            </g>
        </g>
    </g>
</svg>