<?xml version="1.0" encoding="UTF-8"?>
<svg width="96px" height="96px" viewBox="0 0 96 96" version="1.1" xmlns="http://www.w3.org/2000/svg" xmlns:xlink="http://www.w3.org/1999/xlink">
    <title>icon/state/big/disposal</title>
    <g id="icon/state/big/disposal" stroke="none" fill="none" fill-rule="evenodd" stroke-width="1">
        <g id="Group-24" transform="translate(7.6356, 33.2286)">
            <path d="M22.2537468,23.3064072 C22.2537468,24.1686694 22.0816293,24.9836585 21.8319645,25.7627199 L22.0324529,25.7627199 L53.380523,25.7627199 C52.7279899,23.7375383 52.4537368,21.1507518 54.4945579,18.4353822 C56.0284836,16.3931823 58.5043267,15.2453903 61.0577172,15.2624086 C65.47792,15.2888816 69.0526667,18.8816407 69.0526667,23.3064072 C69.0526667,23.8699031 68.9921419,24.4201626 68.8805493,24.9515127 L69.7619419,24.9023487 L80.7320641,22.9944045 L80.7320641,20.2128525 C80.7320641,19.1917526 80.249757,18.2746535 79.5669615,17.5145013 C79.0770888,16.9661328 78.7309625,16.3061997 78.5607365,15.5895388 L77.8684839,10.8281875 C77.4164392,8.91835236 22.467475,8.38511126 22.2537468,23.3064072" id="Fill-39" fill="#FFFFFF"></path>
            <path d="M64.2127622,7.71515623 L58.1111046,3.68370229 C58.0808422,3.66479304 58.0505798,3.6477747 58.0184259,3.6326473 C56.5563734,2.9746051 54.9694885,2.63612937 53.365581,2.63612937 L41.2870981,2.63612937 C39.8193714,2.63612937 36.2124708,2.91598639 34.8544453,3.47002767 C32.4353442,4.45520005 30.4682878,6.28750721 26.8386905,8.72869249 C26.420691,9.01044045 26.6211794,9.66848265 27.1261833,9.65335524 L63.9479662,8.63981898 C64.4416217,8.6265825 64.6231961,7.98744956 64.2127622,7.71515623" id="Fill-41" fill="#000000"></path>
            <path d="M14.1702798,17.3235178 C17.4083572,17.3235178 20.033621,19.9481229 20.033621,23.185388 C20.033621,26.4226531 17.4083572,29.0472582 14.1702798,29.0472582 C10.9322023,29.0472582 8.30693853,26.4226531 8.30693853,23.185388 C8.30693853,19.9481229 10.9322023,17.3235178 14.1702798,17.3235178 Z M14.1702798,18.0235178 C11.3187623,18.0235178 9.00693853,20.3347616 9.00693853,23.185388 C9.00693853,26.0360144 11.3187623,28.3472582 14.1702798,28.3472582 C17.0217972,28.3472582 19.333621,26.0360144 19.333621,23.185388 C19.333621,20.3347616 17.0217972,18.0235178 14.1702798,18.0235178 Z" id="Fill-43" fill="#000000" fill-rule="nonzero"></path>
            <path d="M60.9960576,17.3235178 C64.2341351,17.3235178 66.8593988,19.9481229 66.8593988,23.185388 C66.8593988,26.4226531 64.2341351,29.0472582 60.9960576,29.0472582 C57.7579801,29.0472582 55.1327164,26.4226531 55.1327164,23.185388 C55.1327164,19.9481229 57.7579801,17.3235178 60.9960576,17.3235178 Z M60.9960576,18.0235178 C58.1445401,18.0235178 55.8327164,20.3347616 55.8327164,23.185388 C55.8327164,26.0360144 58.1445401,28.3472582 60.9960576,28.3472582 C63.8475751,28.3472582 66.1593988,26.0360144 66.1593988,23.185388 C66.1593988,20.3347616 63.8475751,18.0235178 60.9960576,18.0235178 Z" id="Fill-45" fill="#000000" fill-rule="nonzero"></path>
            <path d="M43.6643992,11.1105027 L39.5714088,11.1105027 C39.4484677,11.1105027 39.3482235,11.0102836 39.3482235,10.8873735 L39.3482235,10.6415531 C39.3482235,10.5186429 39.4484677,10.4184238 39.5714088,10.4184238 L43.6643992,10.4184238 C43.7873402,10.4184238 43.8875845,10.5186429 43.8875845,10.6415531 L43.8875845,10.8873735 C43.8875845,11.0102836 43.7873402,11.1105027 43.6643992,11.1105027" id="Fill-47" fill="#000000"></path>
            <path d="M58.4604462,11.1105027 L54.3674558,11.1105027 C54.2445147,11.1105027 54.1442705,11.0102836 54.1442705,10.8873735 L54.1442705,10.6415531 C54.1442705,10.5186429 54.2445147,10.4184238 54.3674558,10.4184238 L58.4604462,10.4184238 C58.5833872,10.4184238 58.6836315,10.5186429 58.6836315,10.6415531 L58.6836315,10.8873735 C58.6836315,11.0102836 58.5833872,11.1105027 58.4604462,11.1105027" id="Fill-49" fill="#000000"></path>
            <path d="M54.1179801,0 C56.0108211,0 57.8835391,0.406172585 59.6469897,1.21252828 L68.5353809,6.78 L73.8110864,7.09516054 C75.8542201,7.19374264 77.597005,8.58516561 78.1590007,10.5631442 L78.2146561,10.7772827 L78.9010249,15.509776 C79.057807,16.1680956 79.3765946,16.7774289 79.8273889,17.2803125 C80.6288741,18.1726009 81.081875,19.1667691 81.081875,20.2122853 L81.081875,23.2881687 L80.7919051,23.3386508 L69.7805381,25.2531678 L68.9010369,25.300441 L68.4476832,25.3248087 L68.5394806,24.8801778 C68.6471801,24.3585228 68.7024776,23.8324228 68.7024776,23.30584 C68.7024776,19.0755665 65.2851371,15.6389766 61.0551954,15.6118336 C58.5755311,15.5953066 56.2202038,16.7216777 54.7741562,18.645098 C53.087011,20.8898919 52.8978207,23.1233961 53.713468,25.6548136 L53.8608271,26.1121527 L21.3520779,26.1121527 L21.4984723,25.6553394 C21.7656563,24.8216105 21.9035576,24.0620265 21.9035576,23.30584 C21.9035576,19.0755665 18.4862172,15.6389766 14.2562755,15.6118336 C11.9517487,15.5964739 9.70321673,16.8737838 8.13420751,18.960758 C6.40526502,21.2632984 6.15225044,23.2889704 6.91454806,25.6548136 L7.06190712,26.1121527 L6.43010192,26.1121527 C6.2491007,26.1121527 6.06788187,26.0956339 5.88635638,26.0632268 L2.81116602,25.5148986 C1.45470389,25.2739524 0.422092737,24.1631391 0.277776912,22.7741207 L0.0148722576,17.8180041 L0,17.5376414 L0.270459291,17.4623011 L1.79738086,17.036 L2.89832349,13.0785918 L2.93946711,12.9306468 L3.07619144,12.8607398 C9.3355257,9.66035056 15.335982,8.26677216 22.4558852,8.03472972 L22.3583809,8.038 L22.4242541,7.99642143 C24.1894587,6.85473314 30.273988,2.59840728 32.0464627,1.61941336 L32.1914475,1.54169936 C32.6070926,1.32700106 33.0134089,1.13846479 33.4191566,0.973092002 C34.7995274,0.412298729 38.3221808,0 40.569879,0 L54.1179801,0 Z M54.1179801,0.7 L40.569879,0.7 C38.4060045,0.7 34.9577156,1.10359495 33.6829929,1.62146709 C33.2975901,1.77854801 32.9102269,1.95828979 32.5127005,2.16362903 C30.9622406,2.96450718 24.282,7.64883646 22.654642,8.68017494 L22.4786865,8.73435826 C15.456709,8.96320924 9.55669246,10.3334609 3.39486187,13.4839967 L3.53138086,13.414 L2.41897558,17.4148361 L2.3660352,17.6052001 L2.17569398,17.6582224 L0.728380856,18.061 L0.975399853,22.7192982 C1.07983064,23.7212706 1.79802545,24.5432801 2.76134848,24.7885182 L2.93381622,24.8257275 L6.00930658,25.374109 L6.10538086,25.388 L6.0878324,25.3227384 C5.49164512,23.0627393 5.80883722,21.0192074 7.37999052,18.8066219 L7.57456972,18.5402755 C9.26918205,16.2862337 11.7184318,14.8949033 14.260854,14.9118486 C18.8754223,14.9414597 22.6035576,18.690595 22.6035576,23.30584 C22.6035576,23.9322958 22.5188418,24.5555391 22.3550373,25.2069726 L22.2993809,25.412 L52.9093809,25.412 L52.8808304,25.3080603 C52.2287722,22.890823 52.4820872,20.6723159 54.0302137,18.4776283 L54.214612,18.2244909 C55.7960968,16.1209225 58.3619616,14.8938676 61.059774,14.9118486 C65.6743423,14.9414597 69.4024776,18.690595 69.4024776,23.30584 C69.4024776,23.650741 69.3807781,23.9951507 69.3381079,24.3380889 L69.3033809,24.578 L69.7017227,24.5588588 L80.381875,22.699 L80.381875,20.2122853 C80.381875,19.4282616 80.0618448,18.6605793 79.473471,17.9424251 L79.3063911,17.7478177 C78.7775004,17.157814 78.4038426,16.4436013 78.2141861,15.6411999 L77.5277053,10.9082354 C77.1118096,9.15112552 75.5820355,7.88142398 73.7734183,7.79413522 L68.405624,7.47456875 L68.2406205,7.42179664 L59.3161418,1.82766878 C57.68455,1.08471758 55.9107535,0.7 54.1179801,0.7 Z" id="Stroke-37" fill="#000000" fill-rule="nonzero"></path>
        </g>
        <g id="Group-13" transform="translate(9, 14.6499)" fill="#000000">
            <path d="M3.52004461,11.3743727 L4.12714497,11.7228396 L1.72683807,15.9046567 L1.64991706,16.0400644 C0.656328857,17.7622727 1.89684163,19.9162401 3.88138274,19.9162401 L9.25979421,19.9162401 L9.25979421,20.6162401 L3.88138274,20.6162401 C1.35760059,20.6162401 -0.218993376,17.8787173 1.04241939,15.6922986 L1.11895469,15.5575612 L3.52004461,11.3743727 Z" id="Stroke-1" fill-rule="nonzero"></path>
            <path d="M20.2087329,11.007065 L22.8238143,15.5472358 L22.9072454,15.6894017 C24.167421,17.8799595 22.5907238,20.6170608 20.0671869,20.6170608 L15.0423764,20.6170608 L15.0423764,19.9170608 L20.0671869,19.9170608 C22.0516641,19.9170608 23.2925373,17.7629404 22.3020202,16.041102 L22.2186827,15.8990988 L19.6021582,11.3564462 L20.2087329,11.007065 Z" id="Stroke-3" fill-rule="nonzero"></path>
            <path d="M9.13543153,1.64192146 C10.3961077,-0.547209381 13.5526667,-0.547209381 14.8130043,1.64133488 L14.8946833,1.78253624 L17.570273,6.39483341 L16.9647773,6.74608101 L14.2889721,2.13341202 L14.2067392,1.99125225 C13.2153207,0.269680358 10.7334536,0.269680358 9.74169664,1.99183883 L9.66012633,2.13285064 L7.04360183,6.67550324 L6.4370272,6.32612205 L9.05387574,1.78290806 L9.13543153,1.64192146 Z" id="Stroke-5" fill-rule="nonzero"></path>
            <polygon id="Fill-7" points="0 12.0194995 5.32108542 15.0971774 5.32108542 8.94182159"></polygon>
            <polygon id="Fill-9" points="13.2304418 5.70307853 18.5494799 8.78075644 18.5494799 2.62540061"></polygon>
            <polygon id="Fill-11" points="11.5761759 20.2662401 16.9074981 23.3500733 16.9074981 17.1824068"></polygon>
        </g>
    </g>
</svg>