<svg width="1932" height="179" viewBox="0 0 1932 179" fill="none" xmlns="http://www.w3.org/2000/svg">
<path fill-rule="evenodd" clip-rule="evenodd" d="M44.5361 0.402344H108L63.4639 178.402H0L44.5361 0.402344ZM158.536 0.402344H222L177.464 178.402H114L158.536 0.402344ZM336 0.402344H272.536L228 178.402H291.464L336 0.402344ZM386.536 0.402344H450L405.464 178.402H342L386.536 0.402344ZM564 0.402344H500.536L456 178.402H519.464L564 0.402344ZM614.536 0.402344H678L633.464 178.402H570L614.536 0.402344ZM792 0.402344H728.536L684 178.402H747.464L792 0.402344ZM842.536 0.402344H906L861.464 178.402H798L842.536 0.402344ZM1020 0.402344H956.536L912 178.402H975.464L1020 0.402344ZM1070.54 0.402344H1134L1089.46 178.402H1026L1070.54 0.402344ZM1248 0.402344H1184.54L1140 178.402H1203.46L1248 0.402344ZM1298.54 0.402344H1362L1317.46 178.402H1254L1298.54 0.402344ZM1476 0.402344H1412.54L1368 178.402H1431.46L1476 0.402344ZM1526.54 0.402344H1590L1545.46 178.402H1482L1526.54 0.402344ZM1704 0.402344H1640.54L1596 178.402H1659.46L1704 0.402344ZM1754.54 0.402344H1818L1773.46 178.402H1710L1754.54 0.402344ZM1932 0.402344H1868.54L1824 178.402H1887.46L1932 0.402344Z" fill="#F7F7F6"/>
</svg>
