<?xml version="1.0" encoding="UTF-8"?>
<svg width="24px" height="24px" viewBox="0 0 24 24" version="1.1" xmlns="http://www.w3.org/2000/svg" xmlns:xlink="http://www.w3.org/1999/xlink">
    <title>icon/black/map</title>
    <g id="icon/black/map" stroke="none" stroke-width="1" fill="none" fill-rule="evenodd">
        <g id="Group">
            <polygon id="Path" points="0 0 24 0 24 24 0 24"></polygon>
            <path d="M18.364,17.364 L12,23.7279 L5.63604,17.364 C2.12132,13.8492 2.12132,8.15076 5.63604,4.63604 C9.15076,1.12132 14.8492,1.12132 18.364,4.63604 C21.8787,8.15076 21.8787,13.8492 18.364,17.364 Z M12,13 C13.1046,13 14,12.1046 14,11 C14,9.89543 13.1046,9 12,9 C10.8954,9 10,9.89543 10,11 C10,12.1046 10.8954,13 12,13 Z" id="Shape" fill="#000000" fill-rule="nonzero"></path>
        </g>
    </g>
</svg>